<svg version="1.1" xmlns="http://www.w3.org/2000/svg" xmlns:xlink="http://www.w3.org/1999/xlink" x="0px" y="0px" viewBox="0 0 1200 868" style="enable-background:new 0 0 1200 868;" xml:space="preserve" width="1200" height="868">
<style type="text/css">
	.st0{fill:url(#SVGID_1_);}
	.st1{fill:none;stroke:#1D1D1B;stroke-miterlimit:10;}
	.st2{fill:url(#SVGID_2_);stroke:#1D1D1B;stroke-miterlimit:10;}
	.st3{fill:none;stroke:#1D1D1B;stroke-miterlimit:10;stroke-dasharray:1;}
	.st4{fill:#1D1D1B;}
	.st6{font-size:18px;}
	.st8{font-size:12px;}
</style><script>jQuery(Core.Common.Mnemoscheme.Selector).on(Core.Common.EventTypes.MnemoschemeWidgetManager.MnemoschemeLoadComplete,
    function () {
        Core.Common.Mnemoscheme.GetParametersCallback = function (parameters) {
           
            // проходим по дверям (открываем или закрываем)
            var entranceDoorStateCodeTemplate = "Monitoring.State.EntranceDoor{0}";
            var entranceDoorSensorsNumbers = ["5"];

            entranceDoorSensorsNumbers.forEach(function (codeSuffix, indx) {
                var entranceDoorParamName = entranceDoorStateCodeTemplate.format(codeSuffix);
                var stateParameterValue = GetDictionaryValueDescriptionByParameterCode(parameters.parameters, entranceDoorParamName);

                var svgEntranceOpenElement = document.getElementById("Monitoring.State.EntranceDoor{0}Open".format(codeSuffix));
                var svgEntranceCloseElement = document.getElementById("Monitoring.State.EntranceDoor{0}Close".format(codeSuffix));

                if (stateParameterValue !== undefined &amp;&amp; svgEntranceOpenElement !== undefined &amp;&amp; svgEntranceCloseElement !== undefined) {
                    if (stateParameterValue === "ОТКРЫТО") {
                        svgEntranceOpenElement.setAttribute("display", "inline");
                        svgEntranceCloseElement.setAttribute("display", "none");
                    }
                    else if (stateParameterValue === "ЗАКРЫТО") {
                        svgEntranceOpenElement.setAttribute("display", "none");
                        svgEntranceCloseElement.setAttribute("display", "inline");
                    }
                }
            });          
        };        

        function GetValueByParameterCode(parameters, code) {
            var value = undefined;

            for (var i = Number.zero; i &lt; parameters.length; i++) {
                if (parameters[i].parameterCode === code) {
                    return parameters[i].value;
                }
            }

            return value;
        };

        function GetDictionaryValueDescriptionByParameterCode(parameters, code) {
            var value = undefined;

            for (var i = Number.zero; i &lt; parameters.length; i++) {
                if (parameters[i].parameterCode === code) {
                    return parameters[i].dictionaryValueDescription;
                }
            }

            return value;
        };
    }
);

</script>
<g id="MainLayer">
	
	
		<linearGradient id="SVGID_1_" gradientUnits="userSpaceOnUse" x1="74.5461" y1="593.1119" x2="74.2652" y2="577.0185" gradientTransform="matrix(1 0 0 -1 0 867)">
		<stop offset="0" style="stop-color:#009EE2" />
		<stop offset="1" style="stop-color:#1D70B7" />
	</linearGradient>
	<path class="st0" d="M61.2,274.4c-0.1,0.7-0.2,1.4-0.2,2.1c0,7.5,6,13.5,13.5,13.5S88,284,88,276.5c0-0.7-0.1-1.4-0.2-2   C79.3,277,69.7,272.1,61.2,274.4z" />
	<path class="st1" d="M27.3,262.5v0.8c1.4-0.5,2.9-0.8,4.5-0.8s3.2,0.3,4.6,0.8v-4.7c-1.5-0.4-3-0.6-4.6-0.6s-3.1,0.2-4.5,0.6V262.5   " />
	<path class="st1" d="M31.8,289.5c-1.6,0-3.1-0.3-4.5-0.8v3.7v1c1.4,0.4,2.9,0.6,4.5,0.6s3.1-0.2,4.6-0.6v-4.7   C34.9,289.2,33.4,289.5,31.8,289.5z" />
	<path class="st1" d="M31.8,262.5c-6.8,0-13.5,6-13.5,13.5s6,13.5,13.5,13.5s13.5-6,13.5-13.5S39.2,262.5,31.8,262.5" />
	<circle class="st1" cx="31.8" cy="276" r="20.3" />
	<line class="st1" x1="22.2" y1="272.8" x2="34.9" y2="285.5" />
	<line class="st1" x1="38.1" y1="282.4" x2="25.4" y2="269.6" />
	<line class="st1" x1="28.6" y1="266.5" x2="41.3" y2="279.2" />
	<line class="st1" x1="41.3" y1="272.8" x2="28.6" y2="285.5" />
	<line class="st1" x1="25.4" y1="282.4" x2="38.1" y2="269.6" />
	<line class="st1" x1="34.9" y1="266.5" x2="22.2" y2="279.2" />
	<path class="st1" d="M70,262.5v0.8c1.4-0.5,2.9-0.8,4.5-0.8s3.2,0.3,4.6,0.8v-4.7c-1.5-0.4-3-0.6-4.6-0.6s-3.1,0.2-4.5,0.6V262.5" />
	<path class="st1" d="M74.5,289.5c-1.6,0-3.1-0.3-4.5-0.8v3.7v1c1.4,0.4,2.9,0.6,4.5,0.6s3.1-0.2,4.6-0.6v-4.7   C77.7,289.2,76.1,289.5,74.5,289.5z" />
	<path class="st1" d="M74.5,262.5c-6.8,0-13.5,6-13.5,13.5s6,13.5,13.5,13.5S88,283.5,88,276S82,262.5,74.5,262.5" />
	<circle class="st1" cx="74.5" cy="276" r="20.3" />
	<line class="st1" x1="65" y1="272.8" x2="77.7" y2="285.5" />
	<line class="st1" x1="80.9" y1="282.4" x2="68.1" y2="269.6" />
	<line class="st1" x1="71.3" y1="266.5" x2="84" y2="279.2" />
	<line class="st1" x1="84" y1="272.8" x2="71.3" y2="285.5" />
	<line class="st1" x1="68.1" y1="282.4" x2="80.9" y2="269.6" />
	<line class="st1" x1="77.7" y1="266.5" x2="65" y2="279.2" />
	<polyline class="st1" points="40.8,336.8 40.8,345.8 22.8,345.8 22.8,309.8 40.8,309.8 40.8,318.8  " />
	<rect x="38.5" y="321" class="st1" width="2.3" height="13.5" />
	<rect x="36.3" y="318.8" class="st1" width="6.8" height="2.3" />
	<rect x="36.3" y="334.5" class="st1" width="6.8" height="2.3" />
	<polyline class="st1" points="83.5,336.8 83.5,345.8 65.5,345.8 65.5,309.8 83.5,309.8 83.5,318.8  " />
	
		<rect x="81.6" y="328.8" transform="matrix(0.8604 -0.5096 0.5096 0.8604 -155.7974 91.0983)" class="st1" width="13.5" height="2.3" />
	<rect x="79" y="318.8" class="st1" width="6.8" height="2.3" />
	<rect x="79" y="334.5" class="st1" width="6.8" height="2.3" />
	<rect x="29.5" y="377.3" class="st1" width="2.3" height="13.5" />
	<rect x="27.3" y="390.8" class="st1" width="6.8" height="2.3" />
	<rect x="27.3" y="375" class="st1" width="6.8" height="2.3" />
	<line class="st1" x1="31.8" y1="411" x2="31.8" y2="393" />
	<line class="st1" x1="31.8" y1="375" x2="31.8" y2="357" />
	<path class="st1" d="M32,357c-3.3-1.4-4.7,1.1-6.8,3.3c-3.1,3.3-6.5,5.1-10.6,6.7c-9.4,3.8-9.6,16-3.6,23c2.4,2.8,4,4.1,4.3,7.7   c0.2,3.2,0.3,5.8,2.1,8.6c1.5,2.3,3.9,4.5,6.8,4.2c1.9-0.2,5-2,6.9-0.8c0.1,0.2,0.3,0.4,0.4,0.5" />
	<rect x="67.8" y="390.8" class="st1" width="6.8" height="2.3" />
	<rect x="67.8" y="375" class="st1" width="6.8" height="2.3" />
	<line class="st1" x1="72.3" y1="411" x2="72.3" y2="393" />
	<line class="st1" x1="72.3" y1="375" x2="72.3" y2="357" />
	<path class="st1" d="M72.6,357c-3.3-1.4-4.7,1.1-6.8,3.3c-3.1,3.3-6.5,5.1-10.6,6.7c-9.4,3.8-9.6,16-3.6,23c2.4,2.8,4,4.1,4.3,7.7   c0.2,3.2,0.3,5.8,2.1,8.6c1.5,2.3,3.9,4.5,6.8,4.2c1.9-0.2,5-2,6.9-0.8c0.1,0.2,0.3,0.4,0.4,0.5" />
	
		<rect x="70.4" y="385.2" transform="matrix(0.8604 -0.5096 0.5096 0.8604 -186.0943 93.2493)" class="st1" width="13.5" height="2.3" />
	
		<linearGradient id="SVGID_2_" gradientUnits="userSpaceOnUse" x1="65.5" y1="639.4" x2="83.5" y2="639.4" gradientTransform="matrix(1 0 0 -1 0 867)">
		<stop offset="0" style="stop-color:#009EE2" />
		<stop offset="1.589113e-02" style="stop-color:#059EDF;stop-opacity:0.9992" />
		<stop offset="0.2131" style="stop-color:#409EBA;stop-opacity:0.9893" />
		<stop offset="0.4033" style="stop-color:#719D9C;stop-opacity:0.9798" />
		<stop offset="0.5818" style="stop-color:#979D85;stop-opacity:0.9709" />
		<stop offset="0.7458" style="stop-color:#B39D74;stop-opacity:0.9627" />
		<stop offset="0.8904" style="stop-color:#C39D6A;stop-opacity:0.9555" />
		<stop offset="1" style="stop-color:#C99D66;stop-opacity:0.95" />
	</linearGradient>
	<path class="st2" d="M83.5,231c0,5-4,9-9,9s-9-4-9-9s9-9,9-15.8C74.5,222,83.5,226,83.5,231z" />
	<path class="st3" d="M40.8,231c0,5-4,9-9,9s-9-4-9-9s9-9,9-15.8C31.8,222,40.8,226,40.8,231z" />
	<text transform="matrix(1 0 0 1 106 233.25)" class="st4 st5 st6">- Ревизия исправна/неисправна</text>
	<text transform="matrix(1 0 0 1 106 278.25)" class="st4 st5 st6">- Колодец норма/затоплен</text>
	<text transform="matrix(1 0 0 1 103.75 330)" class="st4 st5 st6">- Дверь на чердак закрыта/открыта</text>
	<text transform="matrix(1 0 0 1 103.75 388.5)" class="st4 st5 st6">Дверь в подвал закрыта/открыта</text>
	<line class="st1" x1="795" y1="431.8" x2="777" y2="431.8" />
	<line class="st1" x1="777" y1="431.8" x2="759" y2="440.8" />
	<line class="st1" x1="759" y1="440.8" x2="687" y2="440.8" />
	<line class="st1" x1="795" y1="377.8" x2="804" y2="377.8" />
	<line class="st1" x1="795" y1="413.8" x2="804" y2="413.8" />
	<line class="st1" x1="804" y1="377.8" x2="804" y2="413.8" />
	<line class="st1" x1="651" y1="377.8" x2="642" y2="377.8" />
	<line class="st1" x1="651" y1="413.8" x2="642" y2="413.8" />
	<line class="st1" x1="642" y1="377.8" x2="642" y2="413.8" />
	<line class="st1" x1="687" y1="440.8" x2="669" y2="431.8" />
	<line class="st1" x1="795" y1="359.8" x2="777" y2="359.8" />
	<line class="st1" x1="777" y1="359.8" x2="759" y2="350.8" />
	<line class="st1" x1="759" y1="350.8" x2="687" y2="350.8" />
	<line class="st1" x1="669" y1="359.8" x2="651" y2="359.8" />
	<line class="st1" x1="687" y1="350.8" x2="669" y2="359.8" />
	<polyline class="st1" points="723,404.8 723,413.8 705,413.8 705,377.8 723,377.8 723,386.8  " />
	<rect x="720.8" y="389" class="st1" width="2.3" height="13.5" />
	<rect x="718.5" y="386.8" class="st1" width="6.8" height="2.3" />
	<rect x="718.5" y="402.5" class="st1" width="6.8" height="2.3" />
	<line class="st1" x1="687" y1="355.3" x2="759" y2="355.3" />
	<line class="st1" x1="687" y1="436.3" x2="759" y2="436.3" />
	<line class="st1" x1="651" y1="377.8" x2="651" y2="359.8" />
	<line class="st1" x1="651" y1="382.3" x2="651" y2="409.3" />
	<line class="st1" x1="651" y1="427.3" x2="651" y2="413.8" />
	<line class="st1" x1="795" y1="359.8" x2="795" y2="377.8" />
	<line class="st1" x1="795" y1="431.8" x2="795" y2="413.8" />
	<line class="st1" x1="795" y1="409.3" x2="795" y2="382.3" />
	<path class="st3" d="M768,395.8c0,5-4,9-9,9s-9-4-9-9s9-9,9-15.8C759,386.8,768,390.8,768,395.8z" />
	<path class="st1" d="M601.5,431.8v0.8c1.4-0.5,2.9-0.8,4.5-0.8c1.6,0,3.2,0.3,4.6,0.8v-4.7c-1.5-0.4-3-0.6-4.6-0.6   c-1.6,0-3.1,0.2-4.5,0.6V431.8" />
	<path class="st1" d="M606,458.8c-1.6,0-3.1-0.3-4.5-0.8v3.7v1c1.4,0.4,2.9,0.6,4.5,0.6c1.6,0,3.1-0.2,4.6-0.6v-4.7   C609.2,458.5,607.6,458.8,606,458.8z" />
	<path class="st1" d="M606,431.8c-6.8,0-13.5,6-13.5,13.5s6,13.5,13.5,13.5s13.5-6,13.5-13.5S613.5,431.8,606,431.8" />
	<circle class="st1" cx="606" cy="445.3" r="20.3" />
	<line class="st1" x1="596.5" y1="442.1" x2="609.2" y2="454.8" />
	<line class="st1" x1="612.4" y1="451.6" x2="599.6" y2="438.9" />
	<line class="st1" x1="602.8" y1="435.7" x2="615.5" y2="448.4" />
	<line class="st1" x1="615.5" y1="442.1" x2="602.8" y2="454.8" />
	<line class="st1" x1="599.6" y1="451.6" x2="612.4" y2="438.9" />
	<line class="st1" x1="609.2" y1="435.7" x2="596.5" y2="448.4" />
</g>

<svg version="1.1" xmlns="http://www.w3.org/2000/svg" xmlns:xlink="http://www.w3.org/1999/xlink" x="649" y="426" viewBox="0 0 20 8" width="20" height="8" style="enable-background:new 0 0 20 8;" xml:space="preserve" id="Monitoring.State.EntranceDoor5Close">
<style type="text/css">
    .entranceDoor{fill:none;stroke:#1D1D1B;stroke-miterlimit:10;}
</style>
<g>
	<rect x="3.3" y="2.8" class="entranceDoor" width="13.5" height="2.3" />
	<rect x="1" y="0.5" class="entranceDoor" width="2.3" height="6.8" />
	<rect x="16.8" y="0.5" class="entranceDoor" width="2.3" height="6.8" />
</g>
</svg><svg version="1.1" xmlns="http://www.w3.org/2000/svg" xmlns:xlink="http://www.w3.org/1999/xlink" x="649" y="426" viewBox="0 0 20 17" width="20" height="17" style="enable-background:new 0 0 20 17;" xml:space="preserve" id="Monitoring.State.EntranceDoor5Open">
<style type="text/css">
    .entranceDoorDown{fill:none;stroke:#1D1D1B;stroke-miterlimit:10;}
</style>
<rect x="7.9" y="3.1" transform="matrix(0.829 -0.5592 0.5592 0.829 -3.9834 6.721)" class="entranceDoorDown" width="2.3" height="13.5" />
<rect x="1" y="0.5" class="entranceDoorDown" width="2.3" height="6.8" />
<rect x="16.8" y="0.5" class="entranceDoorDown" width="2.3" height="6.8" />
</svg></svg>