<svg version="1.1" xmlns="http://www.w3.org/2000/svg" xmlns:xlink="http://www.w3.org/1999/xlink" x="0px" y="0px" viewBox="0 0 1200 600" style="enable-background:new 0 0 1200 600;" xml:space="preserve" width="1200" height="600">
<style type="text/css">
	.st0{fill:#1D71B8;stroke:#1D71B8;stroke-width:2;stroke-miterlimit:10;}
	.st1{fill:none;stroke:#BE1622;stroke-width:2;stroke-miterlimit:10;}
	.st2{fill:none;stroke:#BE1622;stroke-width:1.7805;stroke-miterlimit:10;}
	.st3{fill:none;stroke:#020202;stroke-miterlimit:10;}
	.st4{fill:none;stroke:#020202;stroke-width:0.5;stroke-miterlimit:10;}
	.st5{fill:none;stroke:#1D71B8;stroke-width:2;stroke-miterlimit:10;}
	.st6{fill:#BE1622;stroke:#BE1622;stroke-width:1.4534;stroke-miterlimit:10;}
	.st7{fill:#1D71B8;stroke:#1D71B8;stroke-width:1.4534;stroke-miterlimit:10;}
	.st8{fill:none;stroke:#010202;stroke-miterlimit:10;}
	.st9{fill:#BE1622;stroke:#BE1622;stroke-width:2;stroke-miterlimit:10;}
	.st10{fill:#010202;stroke:#010202;stroke-miterlimit:10;}
	.st12{font-size:12px;}
	.st13{fill:none;stroke:#010202;stroke-width:3;stroke-miterlimit:10;}
	.st14{fill:#BE1622;}
	.st16{fill:#1D71B8;}
</style><script />
<g id="MainLayer">
	<ellipse class="st0" cx="543.5" cy="283.9" rx="1.9" ry="1.9" />
	<line class="st1" x1="250.1" y1="138.6" x2="595.7" y2="138.6" />
	<line class="st2" x1="10" y1="138.1" x2="224" y2="138.1" />
	<g>
		<line class="st3" x1="420.6" y1="154.8" x2="420.6" y2="208.8" />
		<line class="st3" x1="420.2" y1="154.8" x2="510.2" y2="154.8" />
		<line class="st3" x1="420.2" y1="208.4" x2="509.8" y2="208.4" />
		<line class="st3" x1="510.4" y1="154.6" x2="510.4" y2="208.6" />
		<line class="st4" x1="431" y1="161.6" x2="431" y2="200.4" />
		<line class="st4" x1="443" y1="161.6" x2="443" y2="200.4" />
		<line class="st4" x1="437" y1="161.6" x2="437" y2="200.4" />
		<line class="st4" x1="449" y1="161.6" x2="449" y2="200.4" />
		<line class="st4" x1="455" y1="161.6" x2="455" y2="200.4" />
		<line class="st4" x1="461" y1="161.6" x2="461" y2="200.4" />
		<line class="st4" x1="467" y1="161.6" x2="467" y2="200.4" />
		<line class="st4" x1="473" y1="161.6" x2="473" y2="200.4" />
		<line class="st4" x1="479" y1="161.6" x2="479" y2="200.4" />
		<line class="st4" x1="485" y1="161.6" x2="485" y2="200.4" />
		<line class="st4" x1="491" y1="161.6" x2="491" y2="200.4" />
		<line class="st4" x1="497" y1="161.6" x2="497" y2="200.4" />
		<line class="st4" x1="503" y1="161.6" x2="503" y2="200.4" />
	</g>
	<line class="st1" x1="369.4" y1="168" x2="369.4" y2="137.7" />
	<line class="st1" x1="369" y1="166.9" x2="419.9" y2="166.9" />
	<line class="st5" x1="511" y1="195.7" x2="544.5" y2="195.7" />
	<line class="st5" x1="543.6" y1="284.5" x2="543.6" y2="195" />
	<polygon class="st6" points="45.2,138.8 32.1,148.3 32.1,129.3  " />
	<line class="st5" x1="12" y1="284" x2="602" y2="284" />
	<polygon class="st7" points="29.6,283.3 42.7,273.8 42.7,292.8  " />
	<g transform="translate(52.134,-5.3932)">
		<g>
			<ellipse class="st8" cx="186.2" cy="143.5" rx="12.4" ry="12.5" />
		</g>
		<polyline class="st8" points="191.6,154.8 173.3,143.8 191.6,132.2   " />
	</g>
	<ellipse class="st9" cx="369.5" cy="138.9" rx="1.9" ry="1.9" />
	<g>
		<line class="st8" x1="86.1" y1="117.9" x2="86.1" y2="137.7" />
		<ellipse class="st10" cx="86.1" cy="113.6" rx="4.9" ry="4.4" />
	</g>
	<g>
		<line class="st8" x1="82.1" y1="263.4" x2="82.1" y2="283.2" />
		<ellipse class="st10" cx="82.1" cy="259.1" rx="4.9" ry="4.4" />
	</g>
	<text transform="matrix(1 0 0 1 65.5 154.5)" class="st11 st12">подача</text>
	<text transform="matrix(1 0 0 1 64.5 302.5)" class="st11 st12">обратка</text>
	<g transform="translate(52.134,-5.3932)">
		<line class="st13" x1="258.2" y1="135.1" x2="275.7" y2="135.1" />
		<line class="st8" x1="266.9" y1="134.6" x2="266.9" y2="115.1" />
	</g>
	<g transform="translate(52.134,-5.3932)">
		<line class="st13" x1="262.7" y1="281.1" x2="280.2" y2="281.1" />
		<line class="st8" x1="271.4" y1="280.6" x2="271.4" y2="261.1" />
	</g>
</g>
<text transform="matrix(1 0 0 1 328.5 104)" class="st11 st12" data-core-parameter="HeatSys.Pressure.SupplyPipe" id="HeatSys.Pressure.SupplyPipe">P1</text>
<text transform="matrix(1 0 0 1 333 254)" class="st11 st12" data-core-parameter="HeatSys.Pressure.ReturnPipe" id="HeatSys.Pressure.ReturnPipe">P2</text>
<text transform="matrix(1 0 0 1 232 114)" class="st11 st12" data-core-parameter="HeatSys.VolumeFlow.SupplyPipe" id="HeatSys.VolumeFlow.SupplyPipe">G1</text>
<text transform="matrix(1 0 0 1 101.5 109)" class="st14 st15 st12" data-core-parameter="HeatSys.Temper.SupplyPipe" id="HeatSys.Temper.SupplyPipe">T3</text>
<text transform="matrix(1 0 0 1 93.5 250.5)" class="st16 st15 st12" data-core-parameter="HeatSys.Temper.ReturnPipe" id="HeatSys.Temper.ReturnPipe">T5</text>
</svg>