<svg version="1.1" id="Layer_1" xmlns="http://www.w3.org/2000/svg" xmlns:xlink="http://www.w3.org/1999/xlink" x="0px" y="0px"
     width="1400" height="700" viewBox="-30 -30 1200 600"  enable-background="new 0 0 565 264" xml:space="preserve" description="Ключ A230.2c Независимое подключение системы охлаждения, постоянный поток на стороне подачи охлаждения" deviceId="8" internalNumber="none">
<rect x="235.284" y="94" fill="none" stroke="#000000" stroke-miterlimit="10" width="91.716" height="147.333" />
<line fill="none" stroke="#000000" stroke-miterlimit="10" x1="236.243" y1="112.989" x2="32.747" y2="112.989" />
<polygon stroke="#000000" stroke-miterlimit="10" points="24.698,108.947 33.698,112.989 24.698,117.03 " />
<polygon stroke="#000000" stroke-miterlimit="10" points="33.698,223.179 24.698,219.137 33.698,215.096 " />
<polygon fill="none" stroke="#000000" stroke-miterlimit="10" points="145.447,216.336 154.203,219.918 145.447,223.5 " />
<polygon fill="none" stroke="#000000" stroke-miterlimit="10" points="188.362,223.5 179.606,219.917 188.362,216.336 " />
<circle fill="none" stroke="#000000" stroke-miterlimit="10" cx="166.904" cy="238.817" r="8.75" />
<g>
	<polygon fill="none" stroke="#000000" stroke-miterlimit="10" points="154.203,225.489 166.904,220.293 154.203,215.097  " />
	<polygon fill="none" stroke="#000000" stroke-miterlimit="10" points="179.606,215.097 166.904,220.293 179.606,225.489  " />
	<line fill="none" stroke="#000000" stroke-miterlimit="10" x1="166.904" y1="230.067" x2="166.904" y2="220.293" />
</g>
<text transform="matrix(1 0 0 1 162.8843 241.3335)" font-size="10">M</text>
<line fill="none" stroke="#000000" stroke-miterlimit="10" x1="187.515" y1="220.899" x2="234.75" y2="220.989" />
<g>
	<line fill="none" stroke="#000000" stroke-miterlimit="10" x1="77.081" y1="115.82" x2="86.04" y2="106.768" />
	<circle stroke="#000000" stroke-miterlimit="10" cx="88.842" cy="103.963" r="3.762" />
	<text transform="matrix(1 0 0 1 91.3638 97.4033)" font-size="10">T4</text>
</g>
<text transform="matrix(1 0 0 1 181.7769 247.5674)" font-size="10">M1</text>
<g>
	<line fill="none" stroke="#000000" stroke-miterlimit="10" x1="380.762" y1="225.081" x2="371.803" y2="216.028" />
	<circle stroke="#000000" stroke-miterlimit="10" cx="369" cy="213.224" r="3.762" />
	<text transform="matrix(1 0 0 1 356.3789 206.6641)" font-size="10">T6</text>
</g>
<line fill="none" stroke="#000000" stroke-miterlimit="10" x1="327" y1="220.989" x2="415.605" y2="220.989" />
<g>
	<line fill="none" stroke="#000000" stroke-miterlimit="10" x1="320.571" y1="119.582" x2="329.53" y2="110.529" />
	<circle stroke="#000000" stroke-miterlimit="10" cx="332.333" cy="107.725" r="3.762" />
	<text transform="matrix(1 0 0 1 334.8545 101.165)" font-size="10">T3</text>
</g>
<g>
	<circle fill="none" stroke="#000000" stroke-miterlimit="10" cx="427.855" cy="220.989" r="12.25" />
	<polygon stroke="#000000" stroke-miterlimit="10" points="425.352,216.516 417.605,220.989 425.352,225.461  " />
</g>
<text transform="matrix(1 0 0 1 422.6309 206.1201)" font-size="10">P1</text>
<line fill="none" stroke="#000000" stroke-miterlimit="10" x1="327" y1="113.899" x2="495.601" y2="113.995" />
<g>
	<line fill="none" stroke="#000000" stroke-miterlimit="10" x1="84.363" y1="53.438" x2="93.322" y2="44.386" />
	<circle stroke="#000000" stroke-miterlimit="10" cx="96.125" cy="41.582" r="3.762" />
	<text transform="matrix(1 0 0 1 98.646 35.022)" font-size="10">T1</text>
</g>
<g>
	<line fill="none" stroke="#000000" stroke-miterlimit="10" x1="409.269" y1="50.637" x2="418.228" y2="41.584" />
	<circle stroke="#000000" stroke-miterlimit="10" cx="421.03" cy="38.78" r="3.762" />
	<text transform="matrix(1 0 0 1 423.5518 32.2202)" font-size="10">T2</text>
</g>
<g>
	<line fill="none" stroke="#000000" stroke-miterlimit="10" x1="109.916" y1="16.845" x2="109.916" y2="64.845" />
	<line fill="none" stroke="#000000" stroke-miterlimit="10" x1="123.049" y1="16.845" x2="123.049" y2="64.845" />
	<line fill="none" stroke="#000000" stroke-miterlimit="10" x1="109.916" y1="64.845" x2="123.021" y2="51.74" />
	<line fill="none" stroke="#000000" stroke-miterlimit="10" x1="119.185" y1="65.576" x2="123.021" y2="61.74" />
	<line fill="none" stroke="#000000" stroke-miterlimit="10" x1="109.916" y1="54.845" x2="123.021" y2="41.74" />
	<line fill="none" stroke="#000000" stroke-miterlimit="10" x1="109.916" y1="44.845" x2="123.021" y2="31.74" />
	<line fill="none" stroke="#000000" stroke-miterlimit="10" x1="109.916" y1="34.845" x2="123.021" y2="21.74" />
	<line fill="none" stroke="#000000" stroke-miterlimit="10" x1="109.916" y1="24.845" x2="117.211" y2="17.55" />
</g>
<rect x="192.101" y="24.845" fill="none" stroke="#000000" stroke-miterlimit="10" width="56" height="28.593" />
<rect x="192.101" y="32.22" fill="none" stroke="#000000" stroke-miterlimit="10" width="56" height="13.891" />
<line fill="none" stroke="#000000" stroke-miterlimit="10" x1="213.101" y1="32.22" x2="213.101" y2="46.111" />
<line fill="none" stroke="#000000" stroke-miterlimit="10" x1="230.101" y1="32.22" x2="230.101" y2="46.111" />
<circle fill="none" stroke="#000000" stroke-miterlimit="10" cx="239.101" cy="39.147" r="4.125" />
<circle fill="none" stroke="#000000" stroke-miterlimit="10" cx="239.101" cy="39.142" r="5.625" />
<path fill="none" stroke="#000000" stroke-miterlimit="10" d="M244.726,32.333c0,0,1.781,3.062,1.781,6.594  s-1.781,6.969-1.781,6.969" />
<text transform="matrix(1 0 0 1 203.186 19.3223)" font-size="10">ECL210</text>
<g>
	<g>
		<circle fill="#FFFFFF" stroke="#000000" stroke-miterlimit="10" cx="495.6" cy="169.725" r="15" />
		<circle fill="#FFFFFF" stroke="#000000" stroke-miterlimit="10" cx="495.6" cy="169.725" r="12.5" />
		<line fill="none" stroke="#000000" stroke-miterlimit="10" x1="485.182" y1="162.816" x2="506.015" y2="176.632" />
	</g>
	<g>
		<g>
			<line fill="none" stroke="#000000" stroke-miterlimit="10" x1="495.6" y1="112.989" x2="495.6" y2="118.989" />
			
				<line fill="none" stroke="#000000" stroke-miterlimit="10" stroke-dasharray="9.9121,9.9121" x1="495.6" y1="128.901" x2="495.6" y2="143.769" />
			<line fill="none" stroke="#000000" stroke-miterlimit="10" x1="495.6" y1="148.725" x2="495.6" y2="154.725" />
		</g>
	</g>
	<g>
		<g>
			<line fill="none" stroke="#000000" stroke-miterlimit="10" x1="495.6" y1="184.725" x2="495.6" y2="190.725" />
			
				<line fill="none" stroke="#000000" stroke-miterlimit="10" stroke-dasharray="8.0879,8.0879" x1="495.6" y1="198.813" x2="495.6" y2="210.945" />
			<line fill="none" stroke="#000000" stroke-miterlimit="10" x1="495.6" y1="214.989" x2="495.6" y2="220.989" />
		</g>
	</g>
</g>
<line fill="none" stroke="#000000" stroke-miterlimit="10" x1="235.284" y1="241.333" x2="327" y2="94" />
<line fill="none" stroke="#000000" stroke-miterlimit="10" x1="247.901" y1="232.137" x2="235.284" y2="218.961" />
<circle stroke="#000000" stroke-miterlimit="10" cx="232.481" cy="216.157" r="3.762" />
<text transform="matrix(1 0 0 1 219.8604 209.5972)" font-size="10">T5</text>
<line fill="none" stroke="#000000" stroke-miterlimit="10" x1="31.453" y1="219.137" x2="33.698" y2="219.137" />
<line fill="none" stroke="#000000" stroke-miterlimit="10" x1="145.022" y1="219.277" x2="33.698" y2="219.277" />
<g>
	<g>
		<g>
			
				<line fill="none" stroke="#000000" stroke-width="0.25" stroke-miterlimit="10" x1="62.316" y1="161.576" x2="47.231" y2="161.576" />
			<g>
				
					<line fill="none" stroke="#000000" stroke-width="0.25" stroke-miterlimit="10" x1="54.214" y1="163.175" x2="51.666" y2="161.576" />
				
					<line fill="none" stroke="#000000" stroke-width="0.25" stroke-miterlimit="10" x1="55.304" y1="161.576" x2="59.511" y2="164.147" />
				
					<line fill="none" stroke="#000000" stroke-width="0.25" stroke-miterlimit="10" x1="61.671" y1="162.861" x2="59.511" y2="161.576" />
			</g>
			<g>
				
					<line fill="none" stroke="#000000" stroke-width="0.25" stroke-miterlimit="10" x1="62.316" y1="161.506" x2="47.231" y2="161.506" />
			</g>
			<g>
				
					<line fill="none" stroke="#000000" stroke-width="0.25" stroke-miterlimit="10" x1="54.214" y1="159.563" x2="51.666" y2="161.506" />
				
					<line fill="none" stroke="#000000" stroke-width="0.25" stroke-miterlimit="10" x1="55.305" y1="161.506" x2="59.512" y2="158.378" />
				
					<line fill="none" stroke="#000000" stroke-width="0.25" stroke-miterlimit="10" x1="61.671" y1="159.943" x2="59.512" y2="161.506" />
			</g>
		</g>
		<g>
			
				<line fill="none" stroke="#000000" stroke-width="0.25" stroke-miterlimit="10" x1="34.435" y1="161.576" x2="49.52" y2="161.576" />
			<g>
				
					<line fill="none" stroke="#000000" stroke-width="0.25" stroke-miterlimit="10" x1="42.536" y1="163.174" x2="45.085" y2="161.576" />
				
					<line fill="none" stroke="#000000" stroke-width="0.25" stroke-miterlimit="10" x1="41.447" y1="161.576" x2="37.239" y2="164.147" />
				
					<line fill="none" stroke="#000000" stroke-width="0.25" stroke-miterlimit="10" x1="35.08" y1="162.862" x2="37.24" y2="161.576" />
			</g>
			<g>
				
					<line fill="none" stroke="#000000" stroke-width="0.25" stroke-miterlimit="10" x1="34.435" y1="161.506" x2="49.52" y2="161.507" />
			</g>
			<g>
				
					<line fill="none" stroke="#000000" stroke-width="0.25" stroke-miterlimit="10" x1="42.537" y1="159.563" x2="45.085" y2="161.506" />
				
					<line fill="none" stroke="#000000" stroke-width="0.25" stroke-miterlimit="10" x1="41.447" y1="161.506" x2="37.24" y2="158.379" />
				
					<line fill="none" stroke="#000000" stroke-width="0.25" stroke-miterlimit="10" x1="35.08" y1="159.943" x2="37.24" y2="161.507" />
			</g>
		</g>
	</g>
	<g>
		<g>
			
				<line fill="none" stroke="#000000" stroke-width="0.25" stroke-miterlimit="10" x1="55.112" y1="149.436" x2="47.569" y2="162.5" />
			<g>
				
					<line fill="none" stroke="#000000" stroke-width="0.25" stroke-miterlimit="10" x1="52.446" y1="157.252" x2="49.787" y2="158.66" />
				
					<line fill="none" stroke="#000000" stroke-width="0.25" stroke-miterlimit="10" x1="51.606" y1="155.509" x2="55.936" y2="153.151" />
				
					<line fill="none" stroke="#000000" stroke-width="0.25" stroke-miterlimit="10" x1="55.903" y1="150.637" x2="53.709" y2="151.866" />
			</g>
			<g>
				
					<line fill="none" stroke="#000000" stroke-width="0.25" stroke-miterlimit="10" x1="55.051" y1="149.402" x2="47.509" y2="162.466" />
			</g>
			<g>
				
					<line fill="none" stroke="#000000" stroke-width="0.25" stroke-miterlimit="10" x1="49.317" y1="155.446" x2="49.727" y2="158.625" />
				
					<line fill="none" stroke="#000000" stroke-width="0.25" stroke-miterlimit="10" x1="51.546" y1="155.474" x2="50.941" y2="150.267" />
				
					<line fill="none" stroke="#000000" stroke-width="0.25" stroke-miterlimit="10" x1="53.375" y1="149.178" x2="53.65" y2="151.831" />
			</g>
		</g>
		<g>
			
				<line fill="none" stroke="#000000" stroke-width="0.25" stroke-miterlimit="10" x1="41.171" y1="173.583" x2="48.714" y2="160.519" />
			<g>
				
					<line fill="none" stroke="#000000" stroke-width="0.25" stroke-miterlimit="10" x1="46.606" y1="167.366" x2="46.497" y2="164.359" />
				
					<line fill="none" stroke="#000000" stroke-width="0.25" stroke-miterlimit="10" x1="44.678" y1="167.51" x2="44.8" y2="172.439" />
				
					<line fill="none" stroke="#000000" stroke-width="0.25" stroke-miterlimit="10" x1="42.607" y1="173.667" x2="42.574" y2="171.153" />
			</g>
			<g>
				
					<line fill="none" stroke="#000000" stroke-width="0.25" stroke-miterlimit="10" x1="41.111" y1="173.547" x2="48.654" y2="160.484" />
			</g>
			<g>
				
					<line fill="none" stroke="#000000" stroke-width="0.25" stroke-miterlimit="10" x1="43.479" y1="165.559" x2="46.437" y2="164.324" />
				
					<line fill="none" stroke="#000000" stroke-width="0.25" stroke-miterlimit="10" x1="44.617" y1="167.475" x2="39.805" y2="169.555" />
				
					<line fill="none" stroke="#000000" stroke-width="0.25" stroke-miterlimit="10" x1="40.08" y1="172.208" x2="42.514" y2="171.119" />
			</g>
		</g>
	</g>
	<g>
		<g>
			
				<line fill="none" stroke="#000000" stroke-width="0.25" stroke-miterlimit="10" x1="54.805" y1="173.32" x2="47.262" y2="160.255" />
			<g>
				
					<line fill="none" stroke="#000000" stroke-width="0.25" stroke-miterlimit="10" x1="49.369" y1="167.103" x2="49.479" y2="164.096" />
				
					<line fill="none" stroke="#000000" stroke-width="0.25" stroke-miterlimit="10" x1="51.298" y1="167.247" x2="51.175" y2="172.176" />
				
					<line fill="none" stroke="#000000" stroke-width="0.25" stroke-miterlimit="10" x1="53.369" y1="173.404" x2="53.402" y2="170.89" />
			</g>
			<g>
				
					<line fill="none" stroke="#000000" stroke-width="0.25" stroke-miterlimit="10" x1="54.865" y1="173.284" x2="47.322" y2="160.221" />
			</g>
			<g>
				
					<line fill="none" stroke="#000000" stroke-width="0.25" stroke-miterlimit="10" x1="52.498" y1="165.296" x2="49.54" y2="164.061" />
				
					<line fill="none" stroke="#000000" stroke-width="0.25" stroke-miterlimit="10" x1="51.359" y1="167.212" x2="56.171" y2="169.292" />
				
					<line fill="none" stroke="#000000" stroke-width="0.25" stroke-miterlimit="10" x1="55.896" y1="171.944" x2="53.462" y2="170.856" />
			</g>
		</g>
		<g>
			
				<line fill="none" stroke="#000000" stroke-width="0.25" stroke-miterlimit="10" x1="40.864" y1="149.173" x2="48.406" y2="162.238" />
			<g>
				
					<line fill="none" stroke="#000000" stroke-width="0.25" stroke-miterlimit="10" x1="43.53" y1="156.989" x2="46.189" y2="158.397" />
				
					<line fill="none" stroke="#000000" stroke-width="0.25" stroke-miterlimit="10" x1="44.37" y1="155.246" x2="40.039" y2="152.888" />
				
					<line fill="none" stroke="#000000" stroke-width="0.25" stroke-miterlimit="10" x1="40.073" y1="150.375" x2="42.267" y2="151.603" />
			</g>
			<g>
				
					<line fill="none" stroke="#000000" stroke-width="0.25" stroke-miterlimit="10" x1="40.924" y1="149.139" x2="48.466" y2="162.203" />
			</g>
			<g>
				
					<line fill="none" stroke="#000000" stroke-width="0.25" stroke-miterlimit="10" x1="46.659" y1="155.184" x2="46.25" y2="158.362" />
				
					<line fill="none" stroke="#000000" stroke-width="0.25" stroke-miterlimit="10" x1="44.43" y1="155.211" x2="45.035" y2="150.004" />
				
					<line fill="none" stroke="#000000" stroke-width="0.25" stroke-miterlimit="10" x1="42.601" y1="148.916" x2="42.326" y2="151.568" />
			</g>
		</g>
	</g>
</g>
<polygon fill="#FFFFFF" stroke="#000000" stroke-miterlimit="10" points="172.101,207.758 166.904,220.459 161.708,207.758 " />
<line fill="none" stroke="#000000" stroke-miterlimit="10" x1="166.904" y1="207.758" x2="166.904" y2="113.899" />
<polyline stroke="#000000" stroke-miterlimit="10" points="197.698,108.947 206.698,112.989 197.698,117.03 " />
<polyline stroke="#000000" stroke-miterlimit="10" points="206.698,225.03 197.698,220.989 206.698,216.947 " />
<line fill="none" stroke="#000000" stroke-miterlimit="10" x1="440.105" y1="220.989" x2="495.6" y2="220.989" />
</svg>