<svg version="1.1" id="Layer_1" xmlns="http://www.w3.org/2000/svg" xmlns:xlink="http://www.w3.org/1999/xlink" x="0px" y="0px" 
     width="1400" height="700" viewBox="-30 -30 1200 600"
     enable-background="new 0 0 565 264" xml:space="preserve" description="Ключ A230.1b Зависимое подключение системы отопления" deviceId="8" internalNumber="none">
<line fill="none" stroke="#000000" stroke-miterlimit="10" x1="266.768" y1="112.989" x2="54.601" y2="112.989" />
<line fill="none" stroke="#000000" stroke-miterlimit="10" x1="95.025" y1="220.989" x2="54.601" y2="220.989" />
<polygon stroke="#000000" stroke-miterlimit="10" points="54.601,104.906 72.601,112.989 54.601,121.072 " />
<polygon stroke="#000000" stroke-miterlimit="10" points="72.601,229.072 54.601,220.989 72.601,212.906 " />
<polygon fill="none" stroke="#000000" stroke-miterlimit="10" points="103.781,215.563 116.483,220.76 103.781,225.956 " />
<polygon fill="none" stroke="#000000" stroke-miterlimit="10" points="129.185,225.956 116.483,220.759 129.185,215.563 " />
<polygon fill="none" stroke="#000000" stroke-miterlimit="10" points="95.025,217.178 103.781,220.76 95.025,224.341 " />
<polygon fill="none" stroke="#000000" stroke-miterlimit="10" points="137.94,224.341 129.185,220.759 137.94,217.178 " />
<circle fill="none" stroke="#000000" stroke-miterlimit="10" cx="116.483" cy="202.235" r="8.75" />
<line fill="none" stroke="#000000" stroke-miterlimit="10" x1="116.483" y1="210.985" x2="116.483" y2="220.76" />
<text transform="matrix(1 0 0 1 112.4629 205.4854)" font-size="10">M</text>
<line fill="none" stroke="#000000" stroke-miterlimit="10" x1="137.94" y1="220.759" x2="498.5" y2="220.759" />
<g>
	<line fill="none" stroke="#000000" stroke-miterlimit="10" x1="74.813" y1="117.461" x2="86.511" y2="106.897" />
	<ellipse stroke="#000000" stroke-miterlimit="10" cx="90.171" cy="103.625" rx="4.912" ry="4.389" />
	<text transform="matrix(1.1189 0 0 1 93.4629 95.9692)" font-size="11.6697">T4</text>
</g>
<text transform="matrix(1 0 0 1 122.5996 189.4888)" font-size="10">M1</text>
<g>
	<line fill="none" stroke="#000000" stroke-miterlimit="10" x1="252.185" y1="226.805" x2="243.226" y2="217.753" />
	<circle stroke="#000000" stroke-miterlimit="10" cx="240.423" cy="214.949" r="3.762" />
	<text transform="matrix(1 0 0 1 227.8018 208.3887)" font-size="10">T5</text>
</g>
<line fill="none" stroke="#000000" stroke-miterlimit="10" x1="261.601" y1="112.989" x2="317.771" y2="112.989" />
<g>
	<line fill="none" stroke="#000000" stroke-miterlimit="10" x1="233.559" y1="117.86" x2="242.518" y2="108.808" />
	<circle stroke="#000000" stroke-miterlimit="10" cx="245.321" cy="106.004" r="3.762" />
	<text transform="matrix(1 0 0 1 247.8423 99.4438)" font-size="10">T3</text>
</g>
<g>
	<circle fill="none" stroke="#000000" stroke-miterlimit="10" cx="330.021" cy="112.989" r="12.25" />
	<polygon stroke="#000000" stroke-miterlimit="10" points="332.524,108.516 340.271,112.989 332.524,117.461  " />
</g>
<text transform="matrix(1 0 0 1 325.542 96.9888)" font-size="10">P1</text>
<line fill="none" stroke="#000000" stroke-miterlimit="10" x1="342.271" y1="112.989" x2="495.6" y2="112.989" />
<rect x="383.267" y="142.118" fill="none" stroke="#000000" stroke-miterlimit="10" width="94.333" height="48.833" />
<line fill="none" stroke="#000000" stroke-miterlimit="10" x1="392.6" y1="149.118" x2="392.6" y2="183.784" />
<line fill="none" stroke="#000000" stroke-miterlimit="10" x1="403.267" y1="149.201" x2="403.267" y2="183.867" />
<line fill="none" stroke="#000000" stroke-miterlimit="10" x1="414.017" y1="149.16" x2="414.017" y2="183.826" />
<line fill="none" stroke="#000000" stroke-miterlimit="10" x1="424.684" y1="149.243" x2="424.684" y2="183.909" />
<line fill="none" stroke="#000000" stroke-miterlimit="10" x1="435.934" y1="149.138" x2="435.934" y2="183.805" />
<line fill="none" stroke="#000000" stroke-miterlimit="10" x1="446.601" y1="149.221" x2="446.601" y2="183.888" />
<line fill="none" stroke="#000000" stroke-miterlimit="10" x1="457.351" y1="149.18" x2="457.351" y2="183.847" />
<line fill="none" stroke="#000000" stroke-miterlimit="10" x1="468.018" y1="149.263" x2="468.018" y2="183.93" />
<circle fill="none" stroke="#000000" stroke-miterlimit="10" cx="370.423" cy="147.232" r="6.219" />
<polygon stroke="#000000" stroke-miterlimit="10" points="366.146,149.884 370.423,142.475 374.699,149.884 " />
<line fill="none" stroke="#000000" stroke-miterlimit="10" x1="383.267" y1="147.232" x2="376.642" y2="147.232" />
<line fill="none" stroke="#000000" stroke-miterlimit="10" x1="364.204" y1="147.232" x2="359.017" y2="147.232" />
<line fill="none" stroke="#000000" stroke-miterlimit="10" x1="359.017" y1="147.232" x2="359.017" y2="112.989" />
<line fill="none" stroke="#000000" stroke-miterlimit="10" x1="477.6" y1="185.989" x2="483.767" y2="185.989" />
<line fill="none" stroke="#000000" stroke-miterlimit="10" x1="483.767" y1="185.989" x2="483.767" y2="220.989" />
<g>
	<line fill="none" stroke="#000000" stroke-miterlimit="10" x1="84.363" y1="53.438" x2="93.322" y2="44.386" />
	<circle stroke="#000000" stroke-miterlimit="10" cx="96.125" cy="41.582" r="3.762" />
	<text transform="matrix(1 0 0 1 98.646 35.022)" font-size="10">T1</text>
</g>
<g>
	<line fill="none" stroke="#000000" stroke-miterlimit="10" x1="409.269" y1="50.637" x2="418.228" y2="41.584" />
	<circle stroke="#000000" stroke-miterlimit="10" cx="421.03" cy="38.78" r="3.762" />
	<text transform="matrix(1 0 0 1 423.5518 32.2202)" font-size="10">T2</text>
</g>
<line fill="none" stroke="#000000" stroke-miterlimit="10" x1="51.457" y1="29.404" x2="51.457" y2="53.759" />
<g>
	<g>
		
			<ellipse transform="matrix(0.8979 0.4402 -0.4402 0.8979 21.8419 -22.9658)" fill="none" stroke="#000000" stroke-miterlimit="10" cx="60.426" cy="35.6" rx="3.75" ry="6.25" />
		<path stroke="#000000" stroke-miterlimit="10" d="M67.895,42.506l-3.21-0.45c0,0,1.032-0.618,2.276-3.156s1.102-3.732,1.102-3.732    l2.291,2.323c0,0,0.081,0.789-0.837,2.663C68.598,42.027,67.895,42.506,67.895,42.506z" />
		<path stroke="#000000" stroke-miterlimit="10" d="M72.895,43.438l-1.757-0.246c0,0,0.564-0.339,1.246-1.729    c0.681-1.39,0.604-2.044,0.604-2.044l1.254,1.272c0,0,0.044,0.432-0.459,1.458C73.279,43.175,72.895,43.438,72.895,43.438z" />
		<line fill="none" stroke="#000000" stroke-miterlimit="10" x1="72.987" y1="39.419" x2="63.702" y2="30.245" />
		<line fill="none" stroke="#000000" stroke-miterlimit="10" x1="57.675" y1="41.211" x2="72.135" y2="43.331" />
	</g>
	<line fill="none" stroke="#000000" stroke-miterlimit="10" x1="57.675" y1="41.211" x2="51.401" y2="29.967" />
	<line fill="none" stroke="#000000" stroke-miterlimit="10" x1="51.401" y1="29.967" x2="63.178" y2="29.988" />
</g>
<text transform="matrix(1 0 0 1 55.2607 52.0708)" font-size="10">S8</text>
<g>
	<line fill="none" stroke="#000000" stroke-miterlimit="10" x1="109.916" y1="16.845" x2="109.916" y2="64.845" />
	<line fill="none" stroke="#000000" stroke-miterlimit="10" x1="123.049" y1="16.845" x2="123.049" y2="64.845" />
	<line fill="none" stroke="#000000" stroke-miterlimit="10" x1="109.916" y1="64.845" x2="123.021" y2="51.74" />
	<line fill="none" stroke="#000000" stroke-miterlimit="10" x1="119.185" y1="65.576" x2="123.021" y2="61.74" />
	<line fill="none" stroke="#000000" stroke-miterlimit="10" x1="109.916" y1="54.845" x2="123.021" y2="41.74" />
	<line fill="none" stroke="#000000" stroke-miterlimit="10" x1="109.916" y1="44.845" x2="123.021" y2="31.74" />
	<line fill="none" stroke="#000000" stroke-miterlimit="10" x1="109.916" y1="34.845" x2="123.021" y2="21.74" />
	<line fill="none" stroke="#000000" stroke-miterlimit="10" x1="109.916" y1="24.845" x2="117.211" y2="17.55" />
</g>
<rect x="192.101" y="24.845" fill="none" stroke="#000000" stroke-miterlimit="10" width="56" height="28.593" />
<rect x="192.101" y="32.22" fill="none" stroke="#000000" stroke-miterlimit="10" width="56" height="13.891" />
<line fill="none" stroke="#000000" stroke-miterlimit="10" x1="213.101" y1="32.22" x2="213.101" y2="46.111" />
<line fill="none" stroke="#000000" stroke-miterlimit="10" x1="230.101" y1="32.22" x2="230.101" y2="46.111" />
<circle fill="none" stroke="#000000" stroke-miterlimit="10" cx="239.101" cy="39.147" r="4.125" />
<circle fill="none" stroke="#000000" stroke-miterlimit="10" cx="239.101" cy="39.142" r="5.625" />
<path fill="none" stroke="#000000" stroke-miterlimit="10" d="M244.726,32.333c0,0,1.781,3.062,1.781,6.594  s-1.781,6.969-1.781,6.969" />
<text transform="matrix(1 0 0 1 203.186 19.3223)" font-size="10">ECL210</text>
<rect x="282.101" y="39.166" fill="none" stroke="#000000" stroke-miterlimit="10" width="14.25" height="2.419" />
<path fill="none" stroke="#000000" stroke-miterlimit="10" d="M282.101,39.166c0,0,1.44,0.044,2.137-1.124s1.945-5.788,2.363-7.043  c0.375-1.333,1.093-2.039,2.843-2.039s2.326,0.768,2.699,2.206s1.541,5.25,1.958,6.583s2.25,1.417,2.25,1.417" />
<path stroke="#000000" stroke-miterlimit="10" d="M291.257,41.584c0,1.122-0.908,2.031-2.031,2.031  c-1.121,0-2.031-0.909-2.031-2.031c0,0,0.91,0,2.031,0C290.349,41.584,291.257,41.584,291.257,41.584z" />
<text transform="matrix(1 0 0 1 284.0127 51.9888)" font-size="10">R4</text>
<polygon stroke="#000000" stroke-miterlimit="10" points="178.696,149.707 173.5,162.408 168.304,149.707 " />
<polygon fill="#FFFFFF" stroke="#000000" stroke-miterlimit="10" points="168.304,175.11 173.5,162.408 178.696,175.11 " />
<line fill="none" stroke="#000000" stroke-miterlimit="10" x1="173.5" y1="112.989" x2="173.5" y2="149.707" />
<line fill="none" stroke="#000000" stroke-miterlimit="10" x1="173.5" y1="175.11" x2="173.5" y2="220.989" />
<polygon stroke="#000000" stroke-miterlimit="10" points="486.6,104.097 504.6,112.18 486.6,120.263 " />
<polygon stroke="#000000" stroke-miterlimit="10" points="506.766,229.072 488.766,220.989 506.766,212.906 " />
</svg>