<svg version="1.1" id="Layer_1" xmlns="http://www.w3.org/2000/svg" xmlns:xlink="http://www.w3.org/1999/xlink" x="0px" y="0px"
     width="1400" height="700" viewBox="-30 -30 1200 600" 
     enable-background="new 0 0 565 264" xml:space="preserve" description="Ключ A260.1c Зависимое присоединение систем отопления (обычно при централизованном теплоснабжении)" deviceId="8" internalNumber="none">
<line fill="none" x1="141" y1="-140" x2="141" y2="-158.976" />
<line fill="none" x1="141" y1="-133" x2="141" y2="-168.464" />
<line fill="none" x1="-198" y1="242.814" x2="-198" y2="207.352" />
<line fill="none" x1="665" y1="99.78" x2="1047.822" y2="104.78" />
<polygon stroke="#000000" stroke-miterlimit="10" points="19.657,84.399 28.97,88.458 19.657,92.516 " />
<polygon stroke="#000000" stroke-miterlimit="10" points="28.97,155.924 19.657,151.866 28.97,147.809 " />
<g>
	<polygon fill="none" stroke="#000000" stroke-miterlimit="10" points="98.865,244.559 112.01,249.775 98.865,254.993  " />
	<polygon fill="none" stroke="#000000" stroke-miterlimit="10" points="125.154,254.993 112.01,249.775 125.154,244.559  " />
	<polygon fill="none" stroke="#000000" stroke-miterlimit="10" points="89.804,246.18 98.865,249.775 89.804,253.372  " />
	<polygon fill="none" stroke="#000000" stroke-miterlimit="10" points="134.215,253.372 125.154,249.775 134.215,246.18  " />
	<ellipse fill="none" stroke="#000000" stroke-miterlimit="10" cx="112.01" cy="231.176" rx="9.055" ry="8.786" />
	<line fill="none" stroke="#000000" stroke-miterlimit="10" x1="112.01" y1="239.962" x2="112.01" y2="249.775" />
	<text transform="matrix(1.0307 0 0 1 107.8496 234.4395)" font-size="10.0405">M</text>
</g>
<text transform="matrix(1.0307 0 0 1 105.1958 119.2354)" font-size="10.0405">M1</text>
<g>
	<g>
		<path fill="none" stroke="#000000" stroke-miterlimit="10" d="M86.781,52.611l9.271-9.089L86.781,52.611z" />
		<ellipse stroke="#000000" stroke-miterlimit="10" cx="98.953" cy="40.706" rx="3.893" ry="3.776" />
	</g>
	<text transform="matrix(1.0307 0 0 1 101.562 34.1191)" font-size="10.0405">T1</text>
</g>
<g>
	<line fill="none" stroke="#000000" stroke-miterlimit="10" x1="423.015" y1="49.797" x2="432.286" y2="40.708" />
	<ellipse stroke="#000000" stroke-miterlimit="10" cx="435.188" cy="37.893" rx="3.893" ry="3.776" />
	<text transform="matrix(1.0307 0 0 1 437.7959 31.3066)" font-size="10.0405">T2</text>
</g>
<g>
	<line fill="none" stroke="#000000" stroke-miterlimit="10" x1="112.527" y1="15.869" x2="112.527" y2="56.441" />
	<line fill="none" stroke="#000000" stroke-miterlimit="10" x1="119.721" y1="15.869" x2="119.721" y2="56.441" />
	<line fill="none" stroke="#000000" stroke-miterlimit="10" x1="112.527" y1="56.441" x2="119.706" y2="45.364" />
	<line fill="none" stroke="#000000" stroke-miterlimit="10" x1="117.604" y1="57.059" x2="119.706" y2="53.817" />
	<line fill="none" stroke="#000000" stroke-miterlimit="10" x1="112.527" y1="47.988" x2="119.706" y2="36.912" />
	<line fill="none" stroke="#000000" stroke-miterlimit="10" x1="112.527" y1="39.536" x2="119.706" y2="28.459" />
	<line fill="none" stroke="#000000" stroke-miterlimit="10" x1="112.527" y1="31.084" x2="119.706" y2="20.006" />
	<line fill="none" stroke="#000000" stroke-miterlimit="10" x1="112.527" y1="22.631" x2="116.523" y2="16.465" />
</g>
<rect x="198.275" y="23.901" fill="none" stroke="#000000" stroke-miterlimit="10" width="57.953" height="28.709" />
<rect x="198.275" y="31.307" fill="none" stroke="#000000" stroke-miterlimit="10" width="57.953" height="13.947" />
<line fill="none" stroke="#000000" stroke-miterlimit="10" x1="220.007" y1="31.307" x2="220.007" y2="45.253" />
<line fill="none" stroke="#000000" stroke-miterlimit="10" x1="237.6" y1="31.307" x2="237.6" y2="45.253" />
<ellipse fill="none" stroke="#000000" stroke-miterlimit="10" cx="246.914" cy="38.261" rx="4.269" ry="4.142" />
<ellipse fill="none" stroke="#000000" stroke-miterlimit="10" cx="246.914" cy="38.256" rx="5.821" ry="5.648" />
<path fill="none" stroke="#000000" stroke-miterlimit="10" d="M252.735,31.419c0,0,1.843,3.075,1.843,6.621  s-1.843,6.997-1.843,6.997" />
<text transform="matrix(1.0307 0 0 1 209.7476 18.3564)" font-size="10.0405">ECL210</text>
<rect x="291.413" y="38.28" fill="none" stroke="#000000" stroke-miterlimit="10" width="14.747" height="2.429" />
<path fill="none" stroke="#000000" stroke-miterlimit="10" d="M291.413,38.28c0,0,1.491,0.045,2.211-1.128  c0.72-1.173,2.013-5.811,2.446-7.072c0.388-1.339,1.131-2.047,2.94-2.047c1.813,0,2.407,0.771,2.794,2.215  c0.387,1.443,1.596,5.271,2.026,6.61c0.431,1.339,2.328,1.422,2.328,1.422" />
<path stroke="#000000" stroke-miterlimit="10" d="M300.889,40.708c0,1.127-0.938,2.04-2.102,2.04c-1.16,0-2.102-0.913-2.102-2.04  c0,0,0.941,0,2.102,0C299.949,40.708,300.889,40.708,300.889,40.708z" />
<text transform="matrix(1.0307 0 0 1 293.3926 51.1553)" font-size="10.0405">R4</text>
<g>
	<polygon fill="none" stroke="#000000" stroke-miterlimit="10" points="98.865,146.981 112.01,152.2 98.865,157.415  " />
	<polygon fill="none" stroke="#000000" stroke-miterlimit="10" points="125.154,157.415 112.01,152.198 125.154,146.981  " />
	<polygon fill="none" stroke="#000000" stroke-miterlimit="10" points="89.804,148.603 98.865,152.2 89.804,155.795  " />
	<polygon fill="none" stroke="#000000" stroke-miterlimit="10" points="134.215,155.795 125.154,152.198 134.215,148.603  " />
	<ellipse fill="none" stroke="#000000" stroke-miterlimit="10" cx="112.01" cy="133.6" rx="9.055" ry="8.786" />
	<line fill="none" stroke="#000000" stroke-miterlimit="10" x1="112.01" y1="142.385" x2="112.01" y2="152.2" />
	<text transform="matrix(1.0307 0 0 1 107.8496 136.8633)" font-size="10.0405">M</text>
</g>
<line fill="none" stroke="#000000" stroke-miterlimit="10" x1="89.804" y1="249.616" x2="56.513" y2="249.616" />
<text transform="matrix(1.0307 0 0 1 105.1958 218.0127)" font-size="10.0405">M2</text>
<line fill="none" stroke="#000000" stroke-miterlimit="10" x1="89.804" y1="151.866" x2="23.222" y2="151.866" />
<g>
	<line fill="none" stroke="#000000" stroke-miterlimit="10" x1="353.491" y1="88.458" x2="24.982" y2="88.458" />
</g>
<g>
	<line fill="none" stroke="#000000" stroke-miterlimit="10" x1="236.12" y1="156.796" x2="226.848" y2="147.707" />
	<ellipse stroke="#000000" stroke-miterlimit="10" cx="223.948" cy="144.891" rx="3.893" ry="3.777" />
	<text transform="matrix(1.0307 0 0 1 210.8862 138.3047)" font-size="10.0405">T5</text>
</g>
<g>
	<line fill="none" stroke="#000000" stroke-miterlimit="10" x1="218.37" y1="193.269" x2="227.642" y2="184.181" />
	<ellipse stroke="#000000" stroke-miterlimit="10" cx="230.542" cy="181.365" rx="3.893" ry="3.776" />
	<text transform="matrix(1.0307 0 0 1 233.1514 174.7773)" font-size="10.0405">T4</text>
</g>
<g>
	<line fill="none" stroke="#000000" stroke-miterlimit="10" x1="353.049" y1="189.212" x2="72.953" y2="189.212" />
</g>
<g>
	<path fill="none" stroke="#000000" stroke-miterlimit="10" d="M220.87,184.023" />
	<path fill="none" stroke="#000000" stroke-miterlimit="10" d="M221.315,239.744" />
</g>
<g>
	<line fill="none" stroke="#000000" stroke-miterlimit="10" x1="233.486" y1="255.426" x2="224.215" y2="246.336" />
	<ellipse stroke="#000000" stroke-miterlimit="10" cx="221.315" cy="243.521" rx="3.893" ry="3.776" />
	<text transform="matrix(1.0307 0 0 1 208.2534 236.9346)" font-size="10.0405">T6</text>
</g>
<rect x="434.476" y="102.421" fill="none" stroke="#000000" stroke-miterlimit="10" width="72.188" height="40.368" />
<line fill="none" stroke="#000000" stroke-miterlimit="10" x1="499.758" y1="105.828" x2="499.758" y2="137.165" />
<line fill="none" stroke="#000000" stroke-miterlimit="10" x1="487.713" y1="105.79" x2="487.713" y2="137.127" />
<line fill="none" stroke="#000000" stroke-miterlimit="10" x1="475.761" y1="105.865" x2="475.761" y2="137.203" />
<line fill="none" stroke="#000000" stroke-miterlimit="10" x1="463.154" y1="105.77" x2="463.154" y2="137.107" />
<line fill="none" stroke="#000000" stroke-miterlimit="10" x1="451.202" y1="105.846" x2="451.202" y2="137.184" />
<line fill="none" stroke="#000000" stroke-miterlimit="10" x1="439.157" y1="105.81" x2="439.157" y2="137.146" />
<line fill="none" stroke="#000000" stroke-miterlimit="10" x1="434.476" y1="103.92" x2="434.476" y2="142.954" />
<ellipse fill="none" stroke="#000000" stroke-miterlimit="10" cx="409.959" cy="105.865" rx="6.851" ry="6.046" />
<polygon stroke="#000000" stroke-miterlimit="10" points="405.246,108.443 409.959,101.241 414.67,108.443 " />
<line fill="none" stroke="#000000" stroke-miterlimit="10" x1="549.235" y1="146.499" x2="393.26" y2="146.499" />
<line fill="none" stroke="#000000" stroke-miterlimit="10" x1="134.215" y1="151.945" x2="549.266" y2="151.945" />
<g>
	<line fill="none" stroke="#000000" stroke-miterlimit="10" x1="218.371" y1="93.645" x2="227.643" y2="84.556" />
	<ellipse stroke="#000000" stroke-miterlimit="10" cx="230.542" cy="81.741" rx="3.893" ry="3.776" />
	<text transform="matrix(1.0307 0 0 1 233.1519 75.1533)" font-size="10.0405">T3</text>
</g>
<path fill="none" stroke="#000000" stroke-miterlimit="10" d="M353.329,97.983" />
<path fill="none" stroke="#000000" stroke-miterlimit="10" d="M225.01,87.787" />
<g>
	<ellipse fill="none" stroke="#000000" stroke-miterlimit="10" cx="366.988" cy="89.286" rx="13.497" ry="13.497" />
	<polygon stroke="#000000" stroke-miterlimit="10" points="369.747,84.357 378.281,89.286 369.747,94.215  " />
</g>
<text transform="matrix(1.1333 0 0 1 363.9893 119.332)" font-size="9.7221">P1</text>
<path fill="none" stroke="#000000" stroke-miterlimit="10" d="M394.13,146.982" />
<line fill="none" stroke="#000000" stroke-miterlimit="10" x1="394.168" y1="88.458" x2="380.448" y2="88.458" />
<line fill="none" stroke="#000000" stroke-miterlimit="10" x1="409.959" y1="146.499" x2="409.959" y2="111.97" />
<line fill="none" stroke="#000000" stroke-miterlimit="10" x1="416.811" y1="103.978" x2="434.476" y2="103.92" />
<line fill="none" stroke="#000000" stroke-miterlimit="10" x1="506.664" y1="139.354" x2="511.601" y2="139.354" />
<line fill="none" stroke="#000000" stroke-miterlimit="10" x1="511.186" y1="139.354" x2="511.186" y2="142.609" />
<line fill="none" stroke="#000000" stroke-miterlimit="10" x1="511.601" y1="148.428" x2="511.601" y2="151.945" />
<g>
	<ellipse fill="none" stroke="#000000" stroke-miterlimit="10" cx="366.546" cy="187.423" rx="13.497" ry="13.497" />
	<polygon stroke="#000000" stroke-miterlimit="10" points="369.305,182.494 377.84,187.422 369.305,192.352  " />
</g>
<text transform="matrix(1.1333 0 0 1 363.5469 219.083)" font-size="9.7221">P2</text>
<rect x="434.033" y="202.171" fill="none" stroke="#000000" stroke-miterlimit="10" width="72.188" height="40.369" />
<line fill="none" stroke="#000000" stroke-miterlimit="10" x1="499.315" y1="205.578" x2="499.315" y2="236.914" />
<line fill="none" stroke="#000000" stroke-miterlimit="10" x1="487.271" y1="205.541" x2="487.271" y2="236.878" />
<line fill="none" stroke="#000000" stroke-miterlimit="10" x1="475.319" y1="205.616" x2="475.319" y2="236.953" />
<line fill="none" stroke="#000000" stroke-miterlimit="10" x1="462.712" y1="205.521" x2="462.712" y2="236.857" />
<line fill="none" stroke="#000000" stroke-miterlimit="10" x1="450.761" y1="205.596" x2="450.761" y2="236.934" />
<line fill="none" stroke="#000000" stroke-miterlimit="10" x1="438.716" y1="205.559" x2="438.716" y2="236.896" />
<line fill="none" stroke="#000000" stroke-miterlimit="10" x1="434.033" y1="203.67" x2="434.033" y2="242.704" />
<ellipse fill="none" stroke="#000000" stroke-miterlimit="10" cx="409.517" cy="205.616" rx="6.854" ry="6.046" />
<polygon stroke="#000000" stroke-miterlimit="10" points="404.804,208.193 409.517,200.99 414.229,208.193 " />
<line fill="none" stroke="#000000" stroke-miterlimit="10" x1="548.794" y1="246.249" x2="393.688" y2="246.249" />
<line fill="none" stroke="#000000" stroke-miterlimit="10" x1="393.688" y1="246.732" x2="393.548" y2="189.212" />
<line fill="none" stroke="#000000" stroke-miterlimit="10" x1="134.215" y1="251.695" x2="548.823" y2="251.695" />
<line fill="none" stroke="#000000" stroke-miterlimit="10" x1="394.13" y1="189.212" x2="380.485" y2="189.212" />
<line fill="none" stroke="#000000" stroke-miterlimit="10" x1="409.517" y1="246.249" x2="409.517" y2="211.72" />
<line fill="none" stroke="#000000" stroke-miterlimit="10" x1="416.369" y1="203.729" x2="434.033" y2="203.67" />
<line fill="none" stroke="#000000" stroke-miterlimit="10" x1="506.222" y1="239.105" x2="511.157" y2="239.105" />
<line fill="none" stroke="#000000" stroke-miterlimit="10" x1="510.743" y1="239.105" x2="510.743" y2="242.359" />
<line fill="none" stroke="#000000" stroke-miterlimit="10" x1="511.157" y1="248.178" x2="511.157" y2="251.695" />
<g>
	<line fill="none" stroke="#000000" stroke-miterlimit="10" x1="433.696" y1="187.184" x2="443.566" y2="178.383" />
	<ellipse stroke="#000000" stroke-miterlimit="10" cx="446.655" cy="175.656" rx="4.145" ry="3.657" />
	<text transform="matrix(1.1333 0 0 1 449.4541 169.2793)" font-size="9.7221">Т8</text>
</g>
<line fill="none" stroke="#000000" stroke-miterlimit="10" x1="56.513" y1="151.866" x2="56.513" y2="249.616" />
<line fill="none" x1="72.953" y1="88.458" x2="72.953" y2="143.053" />
<line fill="none" x1="72.953" y1="153.486" x2="72.953" y2="189.212" />
<line fill="none" x1="72.953" y1="189.212" x2="72.953" y2="224.938" />
<line fill="none" x1="72.953" y1="208.266" x2="72.953" y2="166.579" />
<line fill="none" x1="72.953" y1="186.468" x2="72.953" y2="156.277" />
<line fill="none" x1="72.953" y1="183.609" x2="72.953" y2="148.001" />
<line fill="none" x1="72.953" y1="148.001" x2="72.953" y2="176.941" />
<line fill="none" stroke="#000000" stroke-miterlimit="10" x1="72.953" y1="156.277" x2="72.953" y2="189.212" />
<line fill="none" stroke="#000000" stroke-miterlimit="10" x1="72.953" y1="88.458" x2="72.953" y2="148.001" />
<line fill="none" stroke="#000000" stroke-miterlimit="10" x1="149.977" y1="88.458" x2="149.977" y2="105.085" />
<polygon fill="none" stroke="#000000" stroke-miterlimit="10" points="155.194,131.374 149.975,118.229 144.76,131.374 " />
<polygon fill="#1D1D1B" stroke="#000000" stroke-miterlimit="10" points="144.76,105.085 149.977,118.229 155.194,105.085 " />
<line fill="none" stroke="#000000" stroke-miterlimit="10" x1="149.977" y1="132" x2="149.977" y2="151.866" />
<line fill="none" stroke="#000000" stroke-miterlimit="10" x1="149.977" y1="189.58" x2="149.977" y2="206.207" />
<polygon fill="none" stroke="#000000" stroke-miterlimit="10" points="155.194,232.496 149.975,219.352 144.76,232.496 " />
<polygon fill="#1D1D1B" stroke="#000000" stroke-miterlimit="10" points="144.76,206.207 149.977,219.352 155.194,206.207 " />
<line fill="none" stroke="#000000" stroke-miterlimit="10" x1="149.977" y1="233.122" x2="149.977" y2="252.988" />
<line fill="none" stroke="#000000" stroke-miterlimit="10" x1="394.13" y1="88.161" x2="394.13" y2="146.499" />
<polygon stroke="#000000" stroke-miterlimit="10" points="539.51,141.9 548.823,145.959 539.51,150.017 " />
<polygon stroke="#000000" stroke-miterlimit="10" points="539.51,242.122 548.824,246.181 539.51,250.238 " />
<polygon stroke="#000000" stroke-miterlimit="10" points="529.432,255.753 520.117,251.695 529.432,247.638 " />
<polygon stroke="#000000" stroke-miterlimit="10" points="529.432,155.822 520.117,151.765 529.432,147.707 " />
</svg>