<svg version="1.1" id="Layer_1" xmlns="http://www.w3.org/2000/svg" xmlns:xlink="http://www.w3.org/1999/xlink" x="0px" y="0px"
     width="1400" height="700" viewBox="-30 -30 1200 600" 
     enable-background="new 0 0 565 264" xml:space="preserve" description="Ключ A260.1d Независимое присоединение систем отопления (обычно при централизованном теплоснабжении). Контур 2 - напольное отопление" deviceId="8" internalNumber="none">
<line fill="none" x1="141" y1="-140" x2="141" y2="-158.976" />
<line fill="none" x1="141" y1="-133" x2="141" y2="-168.464" />
<line fill="none" x1="-198" y1="242.814" x2="-198" y2="207.352" />
<line fill="none" x1="665" y1="99.78" x2="1047.822" y2="104.78" />
<polygon stroke="#000000" stroke-miterlimit="10" points="16.329,83.519 25.642,87.577 16.329,91.635 " />
<polygon stroke="#000000" stroke-miterlimit="10" points="26.311,151.448 16.997,147.391 26.311,143.333 " />
<text transform="matrix(1.0307 0 0 1 101.8677 118.3545)" font-size="10.0405">M1</text>
<g>
	<g>
		<path fill="none" stroke="#000000" stroke-miterlimit="10" d="M83.453,51.73l9.271-9.09L83.453,51.73z" />
		<ellipse stroke="#000000" stroke-miterlimit="10" cx="95.625" cy="39.825" rx="3.893" ry="3.776" />
	</g>
	<text transform="matrix(1.0307 0 0 1 98.2339 33.2383)" font-size="10.0405">T1</text>
</g>
<g>
	<line fill="none" stroke="#000000" stroke-miterlimit="10" x1="419.687" y1="48.916" x2="428.958" y2="39.827" />
	<ellipse stroke="#000000" stroke-miterlimit="10" cx="431.859" cy="37.012" rx="3.893" ry="3.776" />
	<text transform="matrix(1.0307 0 0 1 434.4678 30.4258)" font-size="10.0405">T2</text>
</g>
<g>
	<line fill="none" stroke="#000000" stroke-miterlimit="10" x1="109.199" y1="14.988" x2="109.199" y2="55.561" />
	<line fill="none" stroke="#000000" stroke-miterlimit="10" x1="116.393" y1="14.988" x2="116.393" y2="55.561" />
	<line fill="none" stroke="#000000" stroke-miterlimit="10" x1="109.199" y1="55.561" x2="116.378" y2="44.483" />
	<line fill="none" stroke="#000000" stroke-miterlimit="10" x1="114.276" y1="56.178" x2="116.378" y2="52.936" />
	<line fill="none" stroke="#000000" stroke-miterlimit="10" x1="109.199" y1="47.107" x2="116.378" y2="36.031" />
	<line fill="none" stroke="#000000" stroke-miterlimit="10" x1="109.199" y1="38.655" x2="116.378" y2="27.578" />
	<line fill="none" stroke="#000000" stroke-miterlimit="10" x1="109.199" y1="30.203" x2="116.378" y2="19.125" />
	<line fill="none" stroke="#000000" stroke-miterlimit="10" x1="109.199" y1="21.75" x2="113.195" y2="15.584" />
</g>
<rect x="194.947" y="23.02" fill="none" stroke="#000000" stroke-miterlimit="10" width="57.953" height="28.709" />
<rect x="194.947" y="30.426" fill="none" stroke="#000000" stroke-miterlimit="10" width="57.953" height="13.947" />
<line fill="none" stroke="#000000" stroke-miterlimit="10" x1="216.679" y1="30.426" x2="216.679" y2="44.372" />
<line fill="none" stroke="#000000" stroke-miterlimit="10" x1="234.272" y1="30.426" x2="234.272" y2="44.372" />
<ellipse fill="none" stroke="#000000" stroke-miterlimit="10" cx="243.586" cy="37.38" rx="4.269" ry="4.142" />
<ellipse fill="none" stroke="#000000" stroke-miterlimit="10" cx="243.586" cy="37.375" rx="5.821" ry="5.648" />
<path fill="none" stroke="#000000" stroke-miterlimit="10" d="M249.407,30.538c0,0,1.843,3.075,1.843,6.621  s-1.843,6.997-1.843,6.997" />
<text transform="matrix(1.0307 0 0 1 206.4194 17.4756)" font-size="10.0405">ECL210</text>
<rect x="288.085" y="37.399" fill="none" stroke="#000000" stroke-miterlimit="10" width="14.747" height="2.429" />
<path fill="none" stroke="#000000" stroke-miterlimit="10" d="M288.085,37.399c0,0,1.491,0.045,2.211-1.128  c0.72-1.174,2.013-5.812,2.446-7.072c0.388-1.339,1.131-2.047,2.94-2.047c1.813,0,2.407,0.771,2.794,2.215s1.596,5.271,2.026,6.609  c0.431,1.34,2.328,1.423,2.328,1.423" />
<path stroke="#000000" stroke-miterlimit="10" d="M297.561,39.827c0,1.127-0.938,2.04-2.102,2.04c-1.16,0-2.102-0.913-2.102-2.04  c0,0,0.941,0,2.102,0C296.621,39.827,297.561,39.827,297.561,39.827z" />
<text transform="matrix(1.0307 0 0 1 290.0645 50.2744)" font-size="10.0405">R4</text>
<g>
	<polygon fill="none" stroke="#000000" stroke-miterlimit="10" points="95.537,142.172 108.682,147.391 95.537,152.605  " />
	<polygon fill="none" stroke="#000000" stroke-miterlimit="10" points="121.826,152.605 108.682,147.389 121.826,142.172  " />
	<polygon fill="none" stroke="#000000" stroke-miterlimit="10" points="86.476,143.793 95.537,147.391 86.476,150.985  " />
	<polygon fill="none" stroke="#000000" stroke-miterlimit="10" points="130.887,150.985 121.826,147.389 130.887,143.793  " />
	<ellipse fill="none" stroke="#000000" stroke-miterlimit="10" cx="108.682" cy="128.79" rx="9.055" ry="8.786" />
	<line fill="none" stroke="#000000" stroke-miterlimit="10" x1="108.682" y1="137.575" x2="108.682" y2="147.391" />
	<text transform="matrix(1.0307 0 0 1 104.5215 132.0537)" font-size="10.0405">M</text>
</g>
<text transform="matrix(1.0307 0 0 1 286.543 164.7676)" font-size="10.0405">M2</text>
<line fill="none" stroke="#000000" stroke-miterlimit="10" x1="86.476" y1="147.391" x2="19.894" y2="147.391" />
<g>
	<line fill="none" stroke="#000000" stroke-miterlimit="10" x1="164.683" y1="87.577" x2="21.654" y2="87.577" />
</g>
<g>
	<line fill="none" stroke="#000000" stroke-miterlimit="10" x1="171.151" y1="154.797" x2="161.879" y2="145.708" />
	<ellipse stroke="#000000" stroke-miterlimit="10" cx="158.979" cy="142.892" rx="3.893" ry="3.777" />
	<text transform="matrix(1.0307 0 0 1 145.917 136.3057)" font-size="10.0405">T5</text>
</g>
<rect x="164.419" y="82.822" fill="none" stroke="#000000" stroke-miterlimit="10" width="53.123" height="73.631" />
<g>
	<line fill="none" stroke="#000000" stroke-miterlimit="10" x1="164.419" y1="156.453" x2="217.542" y2="82.822" />
</g>
<g>
	<line fill="none" stroke="#000000" stroke-miterlimit="10" x1="210.903" y1="102.96" x2="220.175" y2="93.871" />
	<ellipse stroke="#000000" stroke-miterlimit="10" cx="223.075" cy="91.056" rx="3.893" ry="3.776" />
	<text transform="matrix(1.0307 0 0 1 225.6841 84.4688)" font-size="10.0405">T3</text>
</g>
<line fill="none" stroke="#000000" stroke-miterlimit="10" x1="217.542" y1="97.102" x2="350.001" y2="97.102" />
<g>
	<ellipse fill="none" stroke="#000000" stroke-miterlimit="10" cx="363.66" cy="97.103" rx="13.497" ry="13.497" />
	<polygon stroke="#000000" stroke-miterlimit="10" points="366.419,92.174 374.953,97.102 366.419,102.031  " />
</g>
<text transform="matrix(1.1333 0 0 1 360.6611 118.4512)" font-size="9.7221">P1</text>
<rect x="431.147" y="101.54" fill="none" stroke="#000000" stroke-miterlimit="10" width="72.188" height="40.368" />
<line fill="none" stroke="#000000" stroke-miterlimit="10" x1="496.43" y1="104.947" x2="496.43" y2="136.284" />
<line fill="none" stroke="#000000" stroke-miterlimit="10" x1="484.385" y1="104.909" x2="484.385" y2="136.246" />
<line fill="none" stroke="#000000" stroke-miterlimit="10" x1="472.433" y1="104.984" x2="472.433" y2="136.322" />
<line fill="none" stroke="#000000" stroke-miterlimit="10" x1="459.826" y1="104.889" x2="459.826" y2="136.227" />
<line fill="none" stroke="#000000" stroke-miterlimit="10" x1="447.874" y1="104.965" x2="447.874" y2="136.303" />
<line fill="none" stroke="#000000" stroke-miterlimit="10" x1="435.829" y1="104.93" x2="435.829" y2="136.266" />
<line fill="none" stroke="#000000" stroke-miterlimit="10" x1="431.147" y1="103.039" x2="431.147" y2="142.073" />
<ellipse fill="none" stroke="#000000" stroke-miterlimit="10" cx="406.631" cy="104.984" rx="6.851" ry="6.046" />
<polygon stroke="#000000" stroke-miterlimit="10" points="401.918,107.563 406.631,100.36 411.342,107.563 " />
<line fill="none" stroke="#000000" stroke-miterlimit="10" x1="545.907" y1="145.618" x2="390.802" y2="145.618" />
<line fill="none" stroke="#000000" stroke-miterlimit="10" x1="390.802" y1="146.102" x2="390.662" y2="97.102" />
<line fill="none" stroke="#000000" stroke-miterlimit="10" x1="390.709" y1="97.102" x2="376.989" y2="97.102" />
<line fill="none" stroke="#000000" stroke-miterlimit="10" x1="406.631" y1="145.618" x2="406.631" y2="111.089" />
<line fill="none" stroke="#000000" stroke-miterlimit="10" x1="413.482" y1="103.098" x2="431.147" y2="103.039" />
<line fill="none" stroke="#000000" stroke-miterlimit="10" x1="503.336" y1="138.473" x2="508.272" y2="138.473" />
<line fill="none" stroke="#000000" stroke-miterlimit="10" x1="507.857" y1="138.473" x2="507.857" y2="141.729" />
<path fill="none" stroke="#000000" stroke-miterlimit="10" d="M508.272,151.064" />
<line fill="none" stroke="#000000" stroke-miterlimit="10" x1="221.983" y1="248.895" x2="548.672" y2="248.895" />
<line fill="none" stroke="#000000" stroke-miterlimit="10" x1="545.907" y1="196.853" x2="420.889" y2="196.853" />
<g>
	<line fill="none" stroke="#000000" stroke-miterlimit="10" x1="430.368" y1="186.303" x2="440.238" y2="177.502" />
	<ellipse stroke="#000000" stroke-miterlimit="10" cx="443.327" cy="174.775" rx="4.145" ry="3.657" />
	<text transform="matrix(1.1333 0 0 1 446.126 168.3984)" font-size="9.7221">S8</text>
</g>
<line fill="none" stroke="#000000" stroke-miterlimit="10" x1="164.419" y1="147.391" x2="130.887" y2="147.391" />
<line fill="none" x1="69.625" y1="87.577" x2="69.625" y2="142.172" />
<line fill="none" x1="69.625" y1="152.605" x2="69.625" y2="188.331" />
<line fill="none" x1="69.625" y1="188.331" x2="69.625" y2="224.057" />
<line fill="none" x1="69.625" y1="207.385" x2="69.625" y2="165.698" />
<line fill="none" x1="69.625" y1="185.587" x2="69.625" y2="155.396" />
<line fill="none" x1="69.625" y1="182.729" x2="69.625" y2="147.12" />
<line fill="none" x1="69.625" y1="147.12" x2="69.625" y2="176.061" />
<g>
	<line fill="none" stroke="#000000" stroke-miterlimit="10" x1="431.859" y1="196.853" x2="431.859" y2="205.434" />
	<line fill="none" stroke="#000000" stroke-miterlimit="10" x1="431.859" y1="205.434" x2="508.272" y2="205.434" />
	<line fill="none" stroke="#000000" stroke-miterlimit="10" x1="508.272" y1="205.434" x2="508.272" y2="214.017" />
	<line fill="none" stroke="#000000" stroke-miterlimit="10" x1="431.859" y1="214.017" x2="508.272" y2="214.017" />
	<line fill="none" stroke="#000000" stroke-miterlimit="10" x1="431.859" y1="214.017" x2="431.859" y2="222.598" />
	<line fill="none" stroke="#000000" stroke-miterlimit="10" x1="431.859" y1="222.598" x2="508.272" y2="222.598" />
	<line fill="none" stroke="#000000" stroke-miterlimit="10" x1="508.272" y1="222.598" x2="508.272" y2="231.179" />
	<line fill="none" stroke="#000000" stroke-miterlimit="10" x1="431.859" y1="231.179" x2="508.272" y2="231.179" />
	<line fill="none" stroke="#000000" stroke-miterlimit="10" x1="508.272" y1="240.313" x2="508.272" y2="248.895" />
	<line fill="none" stroke="#000000" stroke-miterlimit="10" x1="431.859" y1="231.446" x2="431.859" y2="240.029" />
	<line fill="none" stroke="#000000" stroke-miterlimit="10" x1="431.859" y1="240.029" x2="508.272" y2="240.029" />
</g>
<g>
	<line fill="none" stroke="#000000" stroke-miterlimit="10" x1="355.877" y1="201.397" x2="365.148" y2="192.31" />
	<ellipse stroke="#000000" stroke-miterlimit="10" cx="368.049" cy="189.494" rx="3.893" ry="3.776" />
	<text transform="matrix(1.0307 0 0 1 370.6582 182.9063)" font-size="10.0405">T4</text>
</g>
<line fill="none" stroke="#000000" stroke-miterlimit="10" x1="280.636" y1="196.822" x2="394.565" y2="196.822" />
<g>
	<ellipse fill="none" stroke="#000000" stroke-miterlimit="10" cx="408.063" cy="196.501" rx="13.497" ry="13.497" />
	<polygon stroke="#000000" stroke-miterlimit="10" points="410.821,191.572 419.356,196.5 410.821,201.43  " />
</g>
<text transform="matrix(1.1333 0 0 1 405.0635 216.7275)" font-size="9.7221">P2</text>
<line fill="none" stroke="#000000" stroke-miterlimit="10" x1="280.636" y1="154.768" x2="280.636" y2="196.822" />
<polygon fill="#FFFFFF" stroke="#000000" stroke-miterlimit="10" points="301.057,191.284 314.201,196.501 301.057,201.719 " />
<polygon fill="#FFFFFF" stroke="#000000" stroke-miterlimit="10" points="327.346,201.719 314.201,196.501 327.346,191.284 " />
<polygon fill="#FFFFFF" stroke="#000000" stroke-miterlimit="10" points="291.996,192.905 301.057,196.501 291.996,200.098 " />
<polygon fill="#FFFFFF" stroke="#000000" stroke-miterlimit="10" points="336.406,200.098 327.346,196.501 336.406,192.905 " />
<ellipse fill="none" stroke="#000000" stroke-miterlimit="10" cx="314.201" cy="177.902" rx="9.055" ry="8.786" />
<line fill="none" stroke="#000000" stroke-miterlimit="10" x1="314.201" y1="186.688" x2="314.201" y2="196.501" />
<text transform="matrix(1.0307 0 0 1 310.041 181.165)" font-size="10.0405">M</text>
<line fill="none" stroke="#000000" stroke-miterlimit="10" x1="280.636" y1="145.088" x2="280.636" y2="96.571" />
<path fill="none" stroke="#000000" stroke-miterlimit="10" d="M223.075,191.402" />
<path fill="none" stroke="#000000" stroke-miterlimit="10" d="M223.075,165.268" />
<polygon fill="none" stroke="#000000" stroke-miterlimit="10" points="228.292,217.691 223.073,204.547 217.858,217.691 " />
<polygon fill="#1D1D1B" stroke="#000000" stroke-miterlimit="10" points="217.858,191.402 223.075,204.547 228.292,191.402 " />
<line fill="none" stroke="#000000" stroke-miterlimit="10" x1="221.983" y1="217.691" x2="221.983" y2="249.013" />
<line fill="none" stroke="#000000" stroke-miterlimit="10" x1="223.075" y1="151.183" x2="223.075" y2="191.402" />
<line fill="none" stroke="#000000" stroke-miterlimit="10" x1="218.624" y1="151.183" x2="235.251" y2="151.183" />
<polygon fill="none" stroke="#000000" stroke-miterlimit="10" points="261.54,145.966 248.396,151.185 261.54,156.399 " />
<polygon fill="#1D1D1B" stroke="#000000" stroke-miterlimit="10" points="235.251,156.399 248.396,151.183 235.251,145.966 " />
<line fill="none" stroke="#000000" stroke-miterlimit="10" x1="262.166" y1="151.183" x2="545.717" y2="151.183" />
<line fill="none" stroke="#000000" stroke-miterlimit="10" x1="507.857" y1="147.125" x2="507.857" y2="151.064" />
<polygon stroke="#000000" stroke-miterlimit="10" points="536.594,141.029 545.907,145.088 536.594,149.146 " />
<polygon stroke="#000000" stroke-miterlimit="10" points="541.25,192.794 550.564,196.853 541.25,200.91 " />
<polygon stroke="#000000" stroke-miterlimit="10" points="550.563,253.07 541.25,249.013 550.563,244.955 " />
<polygon stroke="#000000" stroke-miterlimit="10" points="529,155.24 519.687,151.183 529,147.125 " />
</svg>