<svg version="1.1" id="Layer_1" xmlns="http://www.w3.org/2000/svg" xmlns:xlink="http://www.w3.org/1999/xlink" x="0px" y="0px"
     width="1400" height="700" viewBox="-30 -30 1200 600" 
     enable-background="new 0 0 565 264" xml:space="preserve" description="Ключ A260.1b Независимое присоединение систем отопления (обычно при централизованном теплоснабжении)" deviceId="8" internalNumber="none">
<line fill="none" x1="141" y1="-140" x2="141" y2="-158.976" />
<line fill="none" x1="141" y1="-133" x2="141" y2="-168.464" />
<line fill="none" x1="-198" y1="242.814" x2="-198" y2="207.352" />
<line fill="none" x1="665" y1="99.78" x2="1047.822" y2="104.78" />
<polygon stroke="#000000" stroke-miterlimit="10" points="19.657,84.399 28.97,88.458 19.657,92.516 " />
<polygon stroke="#000000" stroke-miterlimit="10" points="28.97,154.073 19.657,150.016 28.97,145.958 " />
<g>
	<polygon fill="none" stroke="#000000" stroke-miterlimit="10" points="98.865,244.559 112.01,249.775 98.865,254.993  " />
	<polygon fill="none" stroke="#000000" stroke-miterlimit="10" points="125.154,254.993 112.01,249.775 125.154,244.559  " />
	<polygon fill="none" stroke="#000000" stroke-miterlimit="10" points="89.804,246.18 98.865,249.775 89.804,253.372  " />
	<polygon fill="none" stroke="#000000" stroke-miterlimit="10" points="134.215,253.372 125.154,249.775 134.215,246.18  " />
	<ellipse fill="none" stroke="#000000" stroke-miterlimit="10" cx="112.01" cy="231.176" rx="9.055" ry="8.786" />
	<line fill="none" stroke="#000000" stroke-miterlimit="10" x1="112.01" y1="239.962" x2="112.01" y2="249.775" />
	<text transform="matrix(1.0307 0 0 1 107.8496 234.4395)" font-size="10.0405">M</text>
</g>
<text transform="matrix(1.0307 0 0 1 105.1958 119.2354)" font-size="10.0405">M1</text>
<g>
	<g>
		<path fill="none" stroke="#000000" stroke-miterlimit="10" d="M86.781,52.611l9.271-9.089L86.781,52.611z" />
		<ellipse stroke="#000000" stroke-miterlimit="10" cx="98.953" cy="40.706" rx="3.893" ry="3.776" />
	</g>
	<text transform="matrix(1.0307 0 0 1 101.562 34.1191)" font-size="10.0405">T1</text>
</g>
<g>
	<line fill="none" stroke="#000000" stroke-miterlimit="10" x1="423.015" y1="49.797" x2="432.286" y2="40.708" />
	<ellipse stroke="#000000" stroke-miterlimit="10" cx="435.188" cy="37.893" rx="3.893" ry="3.776" />
	<text transform="matrix(1.0307 0 0 1 437.7959 31.3066)" font-size="10.0405">T2</text>
</g>
<g>
	<line fill="none" stroke="#000000" stroke-miterlimit="10" x1="112.527" y1="15.869" x2="112.527" y2="56.441" />
	<line fill="none" stroke="#000000" stroke-miterlimit="10" x1="119.721" y1="15.869" x2="119.721" y2="56.441" />
	<line fill="none" stroke="#000000" stroke-miterlimit="10" x1="112.527" y1="56.441" x2="119.706" y2="45.364" />
	<line fill="none" stroke="#000000" stroke-miterlimit="10" x1="117.604" y1="57.059" x2="119.706" y2="53.817" />
	<line fill="none" stroke="#000000" stroke-miterlimit="10" x1="112.527" y1="47.988" x2="119.706" y2="36.912" />
	<line fill="none" stroke="#000000" stroke-miterlimit="10" x1="112.527" y1="39.536" x2="119.706" y2="28.459" />
	<line fill="none" stroke="#000000" stroke-miterlimit="10" x1="112.527" y1="31.084" x2="119.706" y2="20.006" />
	<line fill="none" stroke="#000000" stroke-miterlimit="10" x1="112.527" y1="22.631" x2="116.523" y2="16.465" />
</g>
<rect x="198.275" y="23.901" fill="none" stroke="#000000" stroke-miterlimit="10" width="57.953" height="28.709" />
<rect x="198.275" y="31.307" fill="none" stroke="#000000" stroke-miterlimit="10" width="57.953" height="13.947" />
<line fill="none" stroke="#000000" stroke-miterlimit="10" x1="220.007" y1="31.307" x2="220.007" y2="45.253" />
<line fill="none" stroke="#000000" stroke-miterlimit="10" x1="237.6" y1="31.307" x2="237.6" y2="45.253" />
<ellipse fill="none" stroke="#000000" stroke-miterlimit="10" cx="246.914" cy="38.261" rx="4.269" ry="4.142" />
<ellipse fill="none" stroke="#000000" stroke-miterlimit="10" cx="246.914" cy="38.256" rx="5.821" ry="5.648" />
<path fill="none" stroke="#000000" stroke-miterlimit="10" d="M252.735,31.419c0,0,1.843,3.075,1.843,6.621  s-1.843,6.997-1.843,6.997" />
<text transform="matrix(1.0307 0 0 1 209.7476 18.3564)" font-size="10.0405">ECL210</text>
<rect x="291.413" y="38.28" fill="none" stroke="#000000" stroke-miterlimit="10" width="14.747" height="2.429" />
<path fill="none" stroke="#000000" stroke-miterlimit="10" d="M291.413,38.28c0,0,1.491,0.045,2.211-1.128  c0.72-1.173,2.013-5.811,2.446-7.072c0.388-1.339,1.131-2.047,2.94-2.047c1.813,0,2.407,0.771,2.794,2.215  c0.387,1.443,1.596,5.271,2.026,6.61c0.431,1.339,2.328,1.422,2.328,1.422" />
<path stroke="#000000" stroke-miterlimit="10" d="M300.889,40.708c0,1.127-0.938,2.04-2.102,2.04c-1.16,0-2.102-0.913-2.102-2.04  c0,0,0.941,0,2.102,0C299.949,40.708,300.889,40.708,300.889,40.708z" />
<text transform="matrix(1.0307 0 0 1 293.3926 51.1553)" font-size="10.0405">R4</text>
<g>
	<polygon fill="none" stroke="#000000" stroke-miterlimit="10" points="98.865,143.053 112.01,148.271 98.865,153.486  " />
	<polygon fill="none" stroke="#000000" stroke-miterlimit="10" points="125.154,153.486 112.01,148.27 125.154,143.053  " />
	<polygon fill="none" stroke="#000000" stroke-miterlimit="10" points="89.804,144.674 98.865,148.271 89.804,151.866  " />
	<polygon fill="none" stroke="#000000" stroke-miterlimit="10" points="134.215,151.866 125.154,148.27 134.215,144.674  " />
	<ellipse fill="none" stroke="#000000" stroke-miterlimit="10" cx="112.01" cy="129.671" rx="9.055" ry="8.786" />
	<line fill="none" stroke="#000000" stroke-miterlimit="10" x1="112.01" y1="138.456" x2="112.01" y2="148.271" />
	<text transform="matrix(1.0307 0 0 1 107.8496 132.9346)" font-size="10.0405">M</text>
</g>
<line fill="none" stroke="#000000" stroke-miterlimit="10" x1="89.804" y1="249.616" x2="56.513" y2="249.616" />
<text transform="matrix(1.0307 0 0 1 105.1958 218.0127)" font-size="10.0405">M2</text>
<line fill="none" stroke="#000000" stroke-miterlimit="10" x1="89.804" y1="148.271" x2="23.222" y2="148.271" />
<g>
	<line fill="none" stroke="#000000" stroke-miterlimit="10" x1="168.011" y1="88.458" x2="24.982" y2="88.458" />
</g>
<g>
	<line fill="none" stroke="#000000" stroke-miterlimit="10" x1="174.479" y1="155.678" x2="165.207" y2="146.589" />
	<ellipse stroke="#000000" stroke-miterlimit="10" cx="162.307" cy="143.773" rx="3.893" ry="3.777" />
	<text transform="matrix(1.0307 0 0 1 149.2451 137.1865)" font-size="10.0405">T5</text>
</g>
<g>
	<line fill="none" stroke="#000000" stroke-miterlimit="10" x1="214.963" y1="202.63" x2="224.235" y2="193.542" />
	<ellipse stroke="#000000" stroke-miterlimit="10" cx="227.135" cy="190.726" rx="3.893" ry="3.776" />
	<text transform="matrix(1.0307 0 0 1 229.7441 184.1387)" font-size="10.0405">T4</text>
</g>
<rect x="167.747" y="83.703" fill="none" stroke="#000000" stroke-miterlimit="10" width="53.123" height="73.631" />
<g>
	<line fill="none" stroke="#000000" stroke-miterlimit="10" x1="167.747" y1="157.334" x2="220.87" y2="83.703" />
</g>
<g>
	<line fill="none" stroke="#000000" stroke-miterlimit="10" x1="168.011" y1="189.212" x2="72.953" y2="189.212" />
</g>
<rect x="167.747" y="184.025" fill="none" stroke="#000000" stroke-miterlimit="10" width="53.123" height="73.631" />
<g>
	<line fill="none" stroke="#000000" stroke-miterlimit="10" x1="167.747" y1="257.655" x2="220.87" y2="184.023" />
</g>
<g>
	<line fill="none" stroke="#000000" stroke-miterlimit="10" x1="175.21" y1="256.367" x2="165.939" y2="247.277" />
	<ellipse stroke="#000000" stroke-miterlimit="10" cx="163.039" cy="244.462" rx="3.893" ry="3.776" />
	<text transform="matrix(1.0307 0 0 1 149.9771 237.876)" font-size="10.0405">T6</text>
</g>
<g>
	<line fill="none" stroke="#000000" stroke-miterlimit="10" x1="214.231" y1="103.841" x2="223.503" y2="94.752" />
	<ellipse stroke="#000000" stroke-miterlimit="10" cx="226.403" cy="91.937" rx="3.893" ry="3.776" />
	<text transform="matrix(1.0307 0 0 1 229.0122 85.3496)" font-size="10.0405">T3</text>
</g>
<line fill="none" stroke="#000000" stroke-miterlimit="10" x1="220.87" y1="97.983" x2="353.329" y2="97.983" />
<g>
	<ellipse fill="none" stroke="#000000" stroke-miterlimit="10" cx="366.988" cy="97.983" rx="13.497" ry="13.497" />
	<polygon stroke="#000000" stroke-miterlimit="10" points="369.747,93.055 378.281,97.983 369.747,102.912  " />
</g>
<text transform="matrix(1.1333 0 0 1 363.9893 119.332)" font-size="9.7221">P1</text>
<rect x="434.476" y="102.421" fill="none" stroke="#000000" stroke-miterlimit="10" width="72.188" height="40.368" />
<line fill="none" stroke="#000000" stroke-miterlimit="10" x1="499.758" y1="105.828" x2="499.758" y2="137.165" />
<line fill="none" stroke="#000000" stroke-miterlimit="10" x1="487.713" y1="105.79" x2="487.713" y2="137.127" />
<line fill="none" stroke="#000000" stroke-miterlimit="10" x1="475.761" y1="105.865" x2="475.761" y2="137.203" />
<line fill="none" stroke="#000000" stroke-miterlimit="10" x1="463.154" y1="105.77" x2="463.154" y2="137.107" />
<line fill="none" stroke="#000000" stroke-miterlimit="10" x1="451.202" y1="105.846" x2="451.202" y2="137.184" />
<line fill="none" stroke="#000000" stroke-miterlimit="10" x1="439.157" y1="105.81" x2="439.157" y2="137.146" />
<line fill="none" stroke="#000000" stroke-miterlimit="10" x1="434.476" y1="103.92" x2="434.476" y2="142.954" />
<ellipse fill="none" stroke="#000000" stroke-miterlimit="10" cx="409.959" cy="105.865" rx="6.851" ry="6.046" />
<polygon stroke="#000000" stroke-miterlimit="10" points="405.246,108.443 409.959,101.241 414.67,108.443 " />
<line fill="none" stroke="#000000" stroke-miterlimit="10" x1="549.235" y1="146.499" x2="394.13" y2="146.499" />
<line fill="none" stroke="#000000" stroke-miterlimit="10" x1="394.13" y1="146.982" x2="393.99" y2="97.983" />
<line fill="none" stroke="#000000" stroke-miterlimit="10" x1="220.87" y1="151.945" x2="549.266" y2="151.945" />
<line fill="none" stroke="#000000" stroke-miterlimit="10" x1="394.037" y1="97.983" x2="380.317" y2="97.983" />
<line fill="none" stroke="#000000" stroke-miterlimit="10" x1="409.959" y1="146.499" x2="409.959" y2="111.97" />
<line fill="none" stroke="#000000" stroke-miterlimit="10" x1="416.811" y1="103.978" x2="434.476" y2="103.92" />
<line fill="none" stroke="#000000" stroke-miterlimit="10" x1="506.664" y1="139.354" x2="511.601" y2="139.354" />
<line fill="none" stroke="#000000" stroke-miterlimit="10" x1="511.186" y1="139.354" x2="511.186" y2="142.609" />
<line fill="none" stroke="#000000" stroke-miterlimit="10" x1="511.601" y1="148.428" x2="511.601" y2="151.945" />
<line fill="none" stroke="#000000" stroke-miterlimit="10" x1="220.007" y1="197.732" x2="352.887" y2="197.732" />
<g>
	<ellipse fill="none" stroke="#000000" stroke-miterlimit="10" cx="366.546" cy="197.733" rx="13.497" ry="13.497" />
	<polygon stroke="#000000" stroke-miterlimit="10" points="369.305,192.805 377.84,197.732 369.305,202.662  " />
</g>
<text transform="matrix(1.1333 0 0 1 363.5469 219.083)" font-size="9.7221">P2</text>
<rect x="434.033" y="202.171" fill="none" stroke="#000000" stroke-miterlimit="10" width="72.188" height="40.369" />
<line fill="none" stroke="#000000" stroke-miterlimit="10" x1="499.315" y1="205.578" x2="499.315" y2="236.914" />
<line fill="none" stroke="#000000" stroke-miterlimit="10" x1="487.271" y1="205.541" x2="487.271" y2="236.878" />
<line fill="none" stroke="#000000" stroke-miterlimit="10" x1="475.319" y1="205.616" x2="475.319" y2="236.953" />
<line fill="none" stroke="#000000" stroke-miterlimit="10" x1="462.712" y1="205.521" x2="462.712" y2="236.857" />
<line fill="none" stroke="#000000" stroke-miterlimit="10" x1="450.761" y1="205.596" x2="450.761" y2="236.934" />
<line fill="none" stroke="#000000" stroke-miterlimit="10" x1="438.716" y1="205.559" x2="438.716" y2="236.896" />
<line fill="none" stroke="#000000" stroke-miterlimit="10" x1="434.033" y1="203.67" x2="434.033" y2="242.704" />
<ellipse fill="none" stroke="#000000" stroke-miterlimit="10" cx="409.517" cy="205.616" rx="6.854" ry="6.046" />
<polygon stroke="#000000" stroke-miterlimit="10" points="404.804,208.193 409.517,200.99 414.229,208.193 " />
<line fill="none" stroke="#000000" stroke-miterlimit="10" x1="548.794" y1="246.249" x2="393.688" y2="246.249" />
<line fill="none" stroke="#000000" stroke-miterlimit="10" x1="393.688" y1="246.732" x2="393.548" y2="197.732" />
<line fill="none" stroke="#000000" stroke-miterlimit="10" x1="220.87" y1="251.695" x2="548.823" y2="251.695" />
<line fill="none" stroke="#000000" stroke-miterlimit="10" x1="393.594" y1="197.732" x2="379.876" y2="197.732" />
<line fill="none" stroke="#000000" stroke-miterlimit="10" x1="409.517" y1="246.249" x2="409.517" y2="211.72" />
<line fill="none" stroke="#000000" stroke-miterlimit="10" x1="416.369" y1="203.729" x2="434.033" y2="203.67" />
<line fill="none" stroke="#000000" stroke-miterlimit="10" x1="506.222" y1="239.105" x2="511.157" y2="239.105" />
<line fill="none" stroke="#000000" stroke-miterlimit="10" x1="510.743" y1="239.105" x2="510.743" y2="242.359" />
<line fill="none" stroke="#000000" stroke-miterlimit="10" x1="511.157" y1="248.178" x2="511.157" y2="251.695" />
<g>
	<line fill="none" stroke="#000000" stroke-miterlimit="10" x1="433.696" y1="187.184" x2="443.566" y2="178.383" />
	<ellipse stroke="#000000" stroke-miterlimit="10" cx="446.655" cy="175.656" rx="4.145" ry="3.657" />
	<text transform="matrix(1.1333 0 0 1 449.4541 169.2793)" font-size="9.7221">Т8</text>
</g>
<line fill="none" stroke="#000000" stroke-miterlimit="10" x1="167.747" y1="249.775" x2="134.215" y2="249.775" />
<line fill="none" stroke="#000000" stroke-miterlimit="10" x1="167.747" y1="148.271" x2="134.215" y2="148.271" />
<line fill="none" stroke="#000000" stroke-miterlimit="10" x1="56.513" y1="148.678" x2="56.513" y2="249.616" />
<line fill="none" x1="72.953" y1="88.458" x2="72.953" y2="143.053" />
<line fill="none" x1="72.953" y1="153.486" x2="72.953" y2="189.212" />
<line fill="none" x1="72.953" y1="189.212" x2="72.953" y2="224.938" />
<line fill="none" x1="72.953" y1="208.266" x2="72.953" y2="166.579" />
<line fill="none" x1="72.953" y1="186.468" x2="72.953" y2="156.277" />
<line fill="none" x1="72.953" y1="183.609" x2="72.953" y2="148.001" />
<line fill="none" x1="72.953" y1="148.001" x2="72.953" y2="176.941" />
<line fill="none" stroke="#000000" stroke-miterlimit="10" x1="72.953" y1="151.866" x2="72.953" y2="189.212" />
<line fill="none" stroke="#000000" stroke-miterlimit="10" x1="72.953" y1="88.458" x2="72.953" y2="140.26" />
<line fill="none" stroke="#000000" stroke-miterlimit="10" x1="56.513" y1="148.678" x2="56.513" y2="198.676" />
<polygon stroke="#000000" stroke-miterlimit="10" points="530.528,155.924 521.216,151.866 530.528,147.809 " />
<polygon stroke="#000000" stroke-miterlimit="10" points="546.111,255.88 536.799,251.822 546.111,247.765 " />
<polygon stroke="#000000" stroke-miterlimit="10" points="521.215,242.121 530.529,246.18 521.215,250.237 " />
<polygon stroke="#000000" stroke-miterlimit="10" points="539.479,141.899 548.794,145.958 539.479,150.016 " />
</svg>