<svg version="1.1" id="Layer_1" xmlns="http://www.w3.org/2000/svg" xmlns:xlink="http://www.w3.org/1999/xlink" x="0px" y="0px"
     width="1400" height="700" viewBox="-30 -30 1200 600"
     enable-background="new 0 0 565 264" xml:space="preserve" description="Ключ A266.9 Независимое присоединение системы отопления и ГВС с датчиком давления и универсальным датчиком сигнализации" deviceId="8" internalNumber="A2669">
<line fill="none" x1="141" y1="-140" x2="141" y2="-158.976" />
<line fill="none" x1="141" y1="-133" x2="141" y2="-168.464" />
<line fill="none" x1="-198" y1="242.814" x2="-198" y2="207.352" />
<line fill="none" x1="665" y1="99.78" x2="1047.822" y2="104.78" />
<polygon stroke="#000000" stroke-miterlimit="10" points="28.977,128.92 19.659,125.426 28.977,121.932 " />
<polygon fill="none" stroke="#000000" stroke-miterlimit="10" points="98.902,198.316 112.053,202.809 98.902,207.301 " />
<polygon fill="none" stroke="#000000" stroke-miterlimit="10" points="125.202,207.301 112.053,202.809 125.202,198.316 " />
<polygon fill="none" stroke="#000000" stroke-miterlimit="10" points="89.837,199.713 98.902,202.809 89.837,205.906 " />
<polygon fill="none" stroke="#000000" stroke-miterlimit="10" points="134.268,205.906 125.202,202.809 134.268,199.713 " />
<ellipse fill="none" stroke="#000000" stroke-miterlimit="10" cx="112.053" cy="184.908" rx="9.059" ry="9.348" />
<line fill="none" stroke="#000000" stroke-miterlimit="10" x1="112.053" y1="194.359" x2="112.053" y2="202.809" />
<text transform="matrix(1.1975 0 0 1 107.8916 189.6025)" font-size="8.6454">M</text>
<g>
	<g>
		<path fill="none" stroke="#000000" stroke-miterlimit="10" d="M86.813,46.684l9.275-7.826L86.813,46.684z" />
		<ellipse stroke="#000000" stroke-miterlimit="10" cx="98.99" cy="36.433" rx="3.895" ry="3.251" />
	</g>
	<text transform="matrix(1.1975 0 0 1 101.6011 30.7617)" font-size="8.6454">T1</text>
</g>
<g>
	<line fill="none" stroke="#000000" stroke-miterlimit="10" x1="112.57" y1="15.047" x2="112.57" y2="49.981" />
	<line fill="none" stroke="#000000" stroke-miterlimit="10" x1="119.767" y1="15.047" x2="119.767" y2="49.981" />
	<line fill="none" stroke="#000000" stroke-miterlimit="10" x1="112.57" y1="49.981" x2="119.752" y2="40.444" />
	<line fill="none" stroke="#000000" stroke-miterlimit="10" x1="117.649" y1="50.514" x2="119.752" y2="47.722" />
	<line fill="none" stroke="#000000" stroke-miterlimit="10" x1="112.57" y1="42.703" x2="119.752" y2="33.166" />
	<line fill="none" stroke="#000000" stroke-miterlimit="10" x1="112.57" y1="35.426" x2="119.752" y2="25.888" />
	<line fill="none" stroke="#000000" stroke-miterlimit="10" x1="112.57" y1="28.148" x2="119.752" y2="18.609" />
	<line fill="none" stroke="#000000" stroke-miterlimit="10" x1="112.57" y1="20.869" x2="116.568" y2="15.56" />
</g>
<g>
	<rect x="198.355" y="21.963" fill="none" stroke="#000000" stroke-miterlimit="10" width="57.979" height="24.72" />
	<rect x="198.355" y="28.34" fill="none" stroke="#000000" stroke-miterlimit="10" width="57.979" height="12.009" />
	<line fill="none" stroke="#000000" stroke-miterlimit="10" x1="220.097" y1="28.34" x2="220.097" y2="40.348" />
	<line fill="none" stroke="#000000" stroke-miterlimit="10" x1="237.698" y1="28.34" x2="237.698" y2="40.348" />
	<ellipse fill="none" stroke="#000000" stroke-miterlimit="10" cx="247.016" cy="34.328" rx="4.271" ry="3.566" />
	<ellipse fill="none" stroke="#000000" stroke-miterlimit="10" cx="247.016" cy="34.323" rx="5.823" ry="4.863" />
	<path fill="none" stroke="#000000" stroke-miterlimit="10" d="M252.839,28.437c0,0,1.844,2.647,1.844,5.701   c0,3.053-1.844,6.024-1.844,6.024" />
</g>
<text transform="matrix(1.1975 0 0 1 209.8345 17.189)" font-size="8.6454">ECL210</text>
<rect x="291.535" y="34.344" fill="none" stroke="#000000" stroke-miterlimit="10" width="14.753" height="2.091" />
<path fill="none" stroke="#000000" stroke-miterlimit="10" d="M291.535,34.344c0,0,1.491,0.039,2.212-0.972  c0.72-1.01,2.014-5.003,2.447-6.089c0.388-1.153,1.131-1.763,2.941-1.763c1.813,0,2.408,0.664,2.795,1.907  c0.388,1.242,1.597,4.539,2.027,5.691c0.431,1.153,2.329,1.225,2.329,1.225" />
<path stroke="#000000" stroke-miterlimit="10" d="M301.015,36.435c0,0.971-0.938,1.757-2.103,1.757  c-1.161,0-2.103-0.786-2.103-1.757c0,0,0.941,0,2.103,0C300.075,36.435,301.015,36.435,301.015,36.435z" />
<text transform="matrix(1.1975 0 0 1 293.5166 45.4307)" font-size="8.6454">R4</text>
<line fill="none" stroke="#000000" stroke-miterlimit="10" x1="89.837" y1="202.672" x2="56.531" y2="202.672" />
<text transform="matrix(1.1975 0 0 1 105.2363 171.7324)" font-size="8.6454">M1</text>
<line fill="none" stroke="#000000" stroke-miterlimit="10" x1="89.837" y1="125.426" x2="28.977" y2="125.426" />
<g>
	<line fill="none" stroke="#000000" stroke-miterlimit="10" x1="167.814" y1="127.674" x2="159.191" y2="120.355" />
	<ellipse stroke="#000000" stroke-miterlimit="10" cx="157.413" cy="118.923" rx="3.895" ry="3.252" />
	<text transform="matrix(1.1904 0 0 1 144.3452 112.7827)" font-size="8.0861">T5</text>
</g>
<g>
	<line fill="none" stroke="#000000" stroke-miterlimit="10" x1="216.538" y1="154.154" x2="225.814" y2="146.33" />
	<ellipse stroke="#000000" stroke-miterlimit="10" cx="228.715" cy="143.905" rx="3.895" ry="3.251" />
	<text transform="matrix(1.1975 0 0 1 231.3271 138.2334)" font-size="8.6454">T4</text>
</g>
<g>
	<line fill="none" stroke="#000000" stroke-miterlimit="10" x1="168.079" y1="150.66" x2="72.979" y2="150.66" />
</g>
<g>
	<rect x="167.814" y="146.193" fill="none" stroke="#000000" stroke-miterlimit="10" width="53.146" height="63.4" />
	<g>
		<line fill="none" stroke="#000000" stroke-miterlimit="10" x1="167.814" y1="209.594" x2="220.961" y2="146.191" />
	</g>
</g>
<g>
	<line fill="none" stroke="#000000" stroke-miterlimit="10" x1="173.929" y1="205.559" x2="164.654" y2="197.732" />
	<ellipse stroke="#000000" stroke-miterlimit="10" cx="161.753" cy="195.308" rx="3.895" ry="3.251" />
	<text transform="matrix(1.1975 0 0 1 148.686 189.6367)" font-size="8.6454">(T5)</text>
</g>
<line fill="none" stroke="#000000" stroke-miterlimit="10" x1="549.471" y1="117.689" x2="394.297" y2="117.689" />
<line fill="none" stroke="#000000" stroke-miterlimit="10" x1="394.297" y1="117.689" x2="394.157" y2="73.91" />
<g>
	<rect x="437.823" y="73.761" fill="none" stroke="#000000" stroke-miterlimit="10" width="72.221" height="40.23" />
	<line fill="none" stroke="#000000" stroke-miterlimit="10" x1="503.135" y1="77.157" x2="503.135" y2="108.387" />
	<line fill="none" stroke="#000000" stroke-miterlimit="10" x1="491.084" y1="77.119" x2="491.084" y2="108.349" />
	<line fill="none" stroke="#000000" stroke-miterlimit="10" x1="479.127" y1="77.193" x2="479.127" y2="108.424" />
	<line fill="none" stroke="#000000" stroke-miterlimit="10" x1="466.515" y1="77.098" x2="466.515" y2="108.329" />
	<line fill="none" stroke="#000000" stroke-miterlimit="10" x1="454.558" y1="77.174" x2="454.558" y2="108.405" />
	<line fill="none" stroke="#000000" stroke-miterlimit="10" x1="442.507" y1="77.139" x2="442.507" y2="108.368" />
	<line fill="none" stroke="#000000" stroke-miterlimit="10" x1="437.823" y1="75.255" x2="437.823" y2="114.156" />
	<ellipse fill="none" stroke="#000000" stroke-miterlimit="10" cx="413.296" cy="76.062" rx="6.854" ry="6.761" />
	<polygon stroke="#000000" stroke-miterlimit="10" points="408.581,79.763 413.296,72.585 418.009,79.763  " />
	<line fill="none" stroke="#000000" stroke-miterlimit="10" x1="413.296" y1="117.689" x2="413.296" y2="83.277" />
	<line fill="none" stroke="#000000" stroke-miterlimit="10" x1="420.15" y1="75.313" x2="437.823" y2="75.255" />
	<line fill="none" stroke="#000000" stroke-miterlimit="10" x1="510.044" y1="110.567" x2="514.982" y2="110.567" />
	<line fill="none" stroke="#000000" stroke-miterlimit="10" x1="514.567" y1="110.567" x2="514.567" y2="113.812" />
</g>
<path fill="none" stroke="#000000" stroke-miterlimit="10" d="M220.097,157.996" />
<g>
	<path fill="none" stroke="#000000" stroke-miterlimit="10" d="M366.701,147.742" />
</g>
<path fill="none" stroke="#000000" stroke-miterlimit="10" d="M506.438,161.818" />
<path fill="none" stroke="#000000" stroke-miterlimit="10" d="M434.218,161.818" />
<path fill="none" stroke="#000000" stroke-miterlimit="10" d="M409.69,159.578" />
<path stroke="#000000" stroke-miterlimit="10" d="M409.69,160.801" />
<path fill="none" stroke="#000000" stroke-miterlimit="10" d="M393.715,157.996" />
<path fill="none" stroke="#000000" stroke-miterlimit="10" d="M220.961,204.461" />
<path fill="none" stroke="#000000" stroke-miterlimit="10" d="M393.761,157.996" />
<g>
	<path fill="none" stroke="#000000" stroke-miterlimit="10" d="M433.881,148.914" />
</g>
<line fill="none" stroke="#000000" stroke-miterlimit="10" x1="167.814" y1="202.809" x2="134.268" y2="202.809" />
<line fill="none" stroke="#000000" stroke-miterlimit="10" x1="56.531" y1="125.54" x2="56.531" y2="202.672" />
<line fill="none" x1="72.979" y1="119.898" x2="72.979" y2="150.66" />
<line fill="none" x1="72.979" y1="150.66" x2="72.979" y2="181.422" />
<line fill="none" x1="72.979" y1="167.066" x2="72.979" y2="131.171" />
<line fill="none" x1="72.979" y1="148.297" x2="72.979" y2="122.301" />
<line fill="none" x1="72.979" y1="145.836" x2="72.979" y2="115.175" />
<line fill="none" x1="72.979" y1="115.175" x2="72.979" y2="140.094" />
<line fill="none" stroke="#000000" stroke-miterlimit="10" x1="72.979" y1="128.82" x2="72.979" y2="150.66" />
<g>
	<g>
		<line fill="none" stroke="#000000" stroke-miterlimit="10" x1="500" y1="150.66" x2="506" y2="150.66" />
		<line fill="none" stroke="#000000" stroke-miterlimit="10" x1="518" y1="150.66" x2="524" y2="150.66" />
	</g>
</g>
<g>
	<g>
		<line fill="none" stroke="#000000" stroke-miterlimit="10" x1="486" y1="150.66" x2="492" y2="150.66" />
		<line fill="none" stroke="#000000" stroke-miterlimit="10" x1="494" y1="150.66" x2="500" y2="150.66" />
	</g>
</g>
<line fill="none" stroke="#000000" stroke-miterlimit="10" x1="220.097" y1="150.66" x2="486" y2="150.66" />
<g>
	<path fill="none" stroke="#000000" stroke-miterlimit="10" d="M383.406,202.672c0-7.458-6.045-13.504-13.503-13.504   c-7.457,0-13.503,6.046-13.503,13.504" />
	<path fill="none" stroke="#000000" stroke-miterlimit="10" d="M356.4,202.672c0,7.456,6.046,13.502,13.503,13.502   c7.458,0,13.503-6.046,13.503-13.502" />
	<polyline stroke="#000000" stroke-miterlimit="10" points="358.605,202.672 367.144,207.601 367.144,197.741 358.605,202.672  " />
</g>
<g>
	<polygon fill="#1D1D1B" stroke="#000000" stroke-miterlimit="10" points="276.663,196.992 289.813,201.484 276.663,205.979  " />
	<polygon fill="none" stroke="#000000" stroke-miterlimit="10" points="302.963,205.979 289.813,201.484 302.963,196.992  " />
	<line fill="none" stroke="#000000" stroke-miterlimit="10" x1="221.467" y1="201.486" x2="277.621" y2="201.486" />
	<line fill="none" stroke="#000000" stroke-miterlimit="10" x1="303.262" y1="201.623" x2="356.906" y2="201.486" />
</g>
<g>
	<g>
		<line fill="none" stroke="#000000" stroke-miterlimit="10" x1="383.406" y1="202.672" x2="389.406" y2="202.678" />
		
			<line fill="none" stroke="#000000" stroke-miterlimit="10" stroke-dasharray="11.6903,11.6903" x1="401.097" y1="202.689" x2="512.155" y2="202.797" />
		<line fill="none" stroke="#000000" stroke-miterlimit="10" x1="518" y1="202.803" x2="524" y2="202.809" />
	</g>
</g>
<g>
	<g>
		<line fill="none" stroke="#000000" stroke-miterlimit="10" x1="524" y1="202.809" x2="524" y2="196.809" />
		
			<line fill="none" stroke="#000000" stroke-miterlimit="10" stroke-dasharray="10.6667,10.6667" x1="524" y1="186.143" x2="524" y2="170.143" />
		<line fill="none" stroke="#000000" stroke-miterlimit="10" x1="524" y1="164.809" x2="524" y2="158.809" />
	</g>
</g>
<text transform="matrix(1.1183 0 0 1 340.3428 185.0303)" font-size="10.7449">P1</text>
<polygon stroke="#000000" stroke-miterlimit="10" points="19.659,70.416 28.977,73.911 19.659,77.404 " />
<g>
	<line fill="none" stroke="#000000" stroke-miterlimit="10" x1="353.049" y1="73.91" x2="214.319" y2="73.91" />
</g>
<g>
	<polygon fill="none" stroke="#000000" stroke-miterlimit="10" points="98.903,121.048 112.053,125.542 98.903,130.032  " />
	<polygon fill="none" stroke="#000000" stroke-miterlimit="10" points="125.203,130.032 112.053,125.541 125.203,121.048  " />
	<polygon fill="none" stroke="#000000" stroke-miterlimit="10" points="89.837,122.444 98.903,125.542 89.837,128.637  " />
	<polygon fill="none" stroke="#000000" stroke-miterlimit="10" points="134.268,128.637 125.203,125.541 134.268,122.444  " />
	<line fill="none" stroke="#000000" stroke-miterlimit="10" x1="112.053" y1="117.09" x2="112.053" y2="125.542" />
	<text transform="matrix(1.1975 0 0 1 107.8921 112.3364)" font-size="8.6454">M</text>
	<text transform="matrix(1.1975 0 0 1 105.478 95.5327)" font-size="8.6454">M2</text>
	<ellipse fill="none" stroke="#000000" stroke-miterlimit="10" cx="112.797" cy="108.676" rx="9.115" ry="8.959" />
</g>
<g>
	<line fill="none" stroke="#000000" stroke-miterlimit="10" x1="207.333" y1="79.404" x2="216.608" y2="71.578" />
	<ellipse stroke="#000000" stroke-miterlimit="10" cx="219.51" cy="69.154" rx="3.895" ry="3.251" />
	<text transform="matrix(1.1975 0 0 1 222.1211 63.4814)" font-size="8.6454">T3</text>
</g>
<g>
	<ellipse fill="none" stroke="#000000" stroke-miterlimit="10" cx="367.144" cy="71.442" rx="13.503" ry="13.503" />
	<polygon stroke="#000000" stroke-miterlimit="10" points="369.903,66.512 378.441,71.442 369.903,76.374  " />
</g>
<line fill="none" stroke="#000000" stroke-miterlimit="10" x1="394.204" y1="73.91" x2="380.479" y2="73.91" />
<line fill="none" x1="72.979" y1="65.709" x2="72.979" y2="112.718" />
<line fill="none" stroke="#000000" stroke-miterlimit="10" x1="73.184" y1="73.91" x2="73.184" y2="124.177" />
<text transform="matrix(1.1183 0 0 1 360.3369 93.3145)" font-size="10.7449">P2</text>
<g>
	<path fill="none" stroke="#000000" stroke-miterlimit="10" d="M245.734,128.443l-9.275-7.826L245.734,128.443z" />
	<ellipse stroke="#000000" stroke-miterlimit="10" cx="233.557" cy="118.192" rx="3.895" ry="3.251" />
</g>
<text transform="matrix(1.1975 0 0 1 230.9448 112.5215)" font-size="8.6454">T2</text>
<line fill="none" stroke="#000000" stroke-miterlimit="10" x1="262.333" y1="201.485" x2="262.333" y2="244.141" />
<line fill="none" stroke="#000000" stroke-miterlimit="10" x1="262.333" y1="244.141" x2="276.157" y2="244.141" />
<polygon fill="#1D1D1B" stroke="#000000" stroke-miterlimit="10" points="276.158,239.648 289.309,244.141 276.158,248.633 " />
<polygon fill="none" stroke="#000000" stroke-miterlimit="10" points="302.458,248.633 289.309,244.141 302.458,239.648 " />
<line fill="none" stroke="#000000" stroke-miterlimit="10" x1="302.458" y1="244.749" x2="443.031" y2="244.749" />
<polygon stroke="#000000" stroke-miterlimit="10" points="453.106,248.242 443.79,244.75 453.106,241.256 " />
<line fill="none" stroke="#000000" stroke-miterlimit="10" x1="514.567" y1="119.649" x2="514.567" y2="125.426" />
<path fill="none" stroke="#000000" stroke-miterlimit="10" d="M448.448,160.807" />
<path fill="none" stroke="#000000" stroke-miterlimit="10" d="M448.448,160.807" />
<path fill="none" stroke="#000000" stroke-miterlimit="10" d="M445.678,159.578" />
<path stroke="#000000" stroke-miterlimit="10" d="M445.678,160.801" />
<path fill="none" stroke="#000000" stroke-miterlimit="10" d="M480.284,160.807" />
<path fill="none" stroke="#000000" stroke-miterlimit="10" d="M429.973,161.809" />
<path fill="none" stroke="#000000" stroke-miterlimit="10" d="M405.445,159.57" />
<path stroke="#000000" stroke-miterlimit="10" d="M405.445,160.793" />
<path fill="none" stroke="#000000" stroke-miterlimit="10" d="M468.73,163.037" />
<path fill="none" stroke="#000000" stroke-miterlimit="10" d="M468.73,163.037" />
<path fill="none" stroke="#000000" stroke-miterlimit="10" d="M441.433,159.57" />
<path stroke="#000000" stroke-miterlimit="10" d="M441.433,160.793" />
<path fill="none" stroke="#000000" stroke-miterlimit="10" d="M476.039,160.799" />
<path stroke="#000000" stroke-miterlimit="10" d="M476.039,162.021" />
<g>
	<line fill="none" stroke="#000000" stroke-miterlimit="10" x1="409.051" y1="150.65" x2="409.05" y2="166.031" />
	<line fill="none" stroke="#000000" stroke-miterlimit="10" x1="408.466" y1="165.676" x2="416.293" y2="165.676" />
	<g>
		<ellipse stroke="#000000" stroke-miterlimit="10" cx="424" cy="165.43" rx="1.645" ry="2.432" />
		<rect x="423.741" y="158.338" stroke="#000000" stroke-miterlimit="10" width="0.518" height="4.662" />
		<rect x="419.716" y="155.705" fill="#1D1D1B" stroke="#1D1D1B" stroke-miterlimit="10" width="8.568" height="2.633" />
		<path stroke="#000000" stroke-miterlimit="10" d="M432.717,172.969c0,0-0.201-5.789-8.976-5.893c0-2.703,0-2.703,0-2.703    c12.458,0.289,10.563,8.596,10.563,8.596C433.481,172.969,432.717,172.969,432.717,172.969z" />
		<rect x="415.776" y="164.373" stroke="#000000" stroke-miterlimit="10" width="7.965" height="2.678" />
	</g>
</g>
<path fill="none" stroke="#000000" stroke-miterlimit="10" d="M466.728,162.334" />
<path fill="none" stroke="#000000" stroke-miterlimit="10" d="M503.669,163.889" />
<path fill="none" stroke="#000000" stroke-miterlimit="10" d="M503.669,163.889" />
<path fill="none" stroke="#000000" stroke-miterlimit="10" d="M501.666,163.184" />
<g>
	<line fill="none" stroke="#000000" stroke-miterlimit="10" x1="443.032" y1="151.174" x2="443.031" y2="166.555" />
	<line fill="none" stroke="#000000" stroke-miterlimit="10" x1="442.447" y1="166.199" x2="450.274" y2="166.199" />
	<g>
		<ellipse stroke="#000000" stroke-miterlimit="10" cx="457.981" cy="165.953" rx="1.645" ry="2.432" />
		<rect x="457.723" y="158.861" stroke="#000000" stroke-miterlimit="10" width="0.518" height="4.662" />
		<rect x="453.697" y="156.229" fill="#1D1D1B" stroke="#1D1D1B" stroke-miterlimit="10" width="8.568" height="2.633" />
		<path stroke="#000000" stroke-miterlimit="10" d="M466.698,173.492c0,0-0.201-5.789-8.976-5.893c0-2.703,0-2.703,0-2.703    c12.458,0.289,10.563,8.596,10.563,8.596C467.463,173.492,466.698,173.492,466.698,173.492z" />
		<rect x="449.758" y="164.896" stroke="#000000" stroke-miterlimit="10" width="7.965" height="2.678" />
	</g>
</g>
<g>
	<line fill="none" stroke="#000000" stroke-miterlimit="10" x1="476.895" y1="151.457" x2="476.894" y2="166.838" />
	<line fill="none" stroke="#000000" stroke-miterlimit="10" x1="476.31" y1="166.482" x2="484.137" y2="166.482" />
	<g>
		<ellipse stroke="#000000" stroke-miterlimit="10" cx="491.844" cy="166.236" rx="1.645" ry="2.432" />
		<rect x="491.585" y="159.145" stroke="#000000" stroke-miterlimit="10" width="0.518" height="4.662" />
		<rect x="487.56" y="156.512" fill="#1D1D1B" stroke="#1D1D1B" stroke-miterlimit="10" width="8.568" height="2.633" />
		<path stroke="#000000" stroke-miterlimit="10" d="M500.561,173.775c0,0-0.201-5.789-8.976-5.893c0-2.703,0-2.703,0-2.703    c12.458,0.289,10.563,8.596,10.563,8.596C501.325,173.775,500.561,173.775,500.561,173.775z" />
		<rect x="483.62" y="165.18" stroke="#000000" stroke-miterlimit="10" width="7.965" height="2.678" />
	</g>
</g>
<line fill="none" stroke="#000000" stroke-miterlimit="10" x1="215.368" y1="125.426" x2="549.471" y2="125.426" />
<line fill="none" stroke="#000000" stroke-miterlimit="10" x1="134.268" y1="125.426" x2="162.222" y2="125.426" />
<g>
	<rect x="162.222" y="67.344" fill="none" stroke="#000000" stroke-miterlimit="10" width="53.146" height="63.401" />
	<g>
		<line fill="none" stroke="#000000" stroke-miterlimit="10" x1="162.222" y1="130.743" x2="215.368" y2="67.342" />
	</g>
</g>
<line fill="none" stroke="#000000" stroke-miterlimit="10" x1="161.308" y1="73.91" x2="28.977" y2="73.911" />
<line fill="none" x1="414.408" y1="19.351" x2="414.408" y2="10.315" />
<line fill="none" stroke="#000000" stroke-width="0.5" stroke-miterlimit="10" x1="414.408" y1="13.528" x2="434.442" y2="13.528" />
<line fill="none" stroke="#000000" stroke-width="0.5" stroke-miterlimit="10" x1="414.408" y1="13.528" x2="414.408" y2="19.351" />
<circle fill="#1D1E1C" stroke="#1D1E1C" stroke-miterlimit="10" cx="414.408" cy="19.351" r="1" />
<line fill="none" x1="414.408" y1="26.372" x2="414.408" y2="35.407" />
<line fill="none" stroke="#000000" stroke-width="0.5" stroke-miterlimit="10" x1="414.408" y1="32.194" x2="434.442" y2="32.194" />
<line fill="none" stroke="#000000" stroke-width="0.5" stroke-miterlimit="10" x1="414.408" y1="32.194" x2="414.408" y2="26.372" />
<circle fill="#1D1E1C" stroke="#1D1E1C" stroke-miterlimit="10" cx="414.408" cy="26.372" r="1" />
<line fill="none" stroke="#000000" stroke-miterlimit="10" x1="410.27" y1="18.351" x2="410.27" y2="27.372" />
<text transform="matrix(1.0607 0 0 1 412.0361 43.8936)" font-size="10.553">S8</text>
<line fill="none" stroke="#000000" stroke-miterlimit="10" x1="273.663" y1="113.577" x2="273.663" y2="125.292" />
<circle fill="none" stroke="#000000" stroke-miterlimit="10" cx="273.663" cy="111.079" r="3" />
<text transform="matrix(1.2211 0 0 1 266.333 103.3555)" font-size="9.5189">P7</text>
<g>
	<path fill="none" stroke="#000000" stroke-miterlimit="10" d="M239.363,206.545l-9.275-7.826L239.363,206.545z" />
	<ellipse stroke="#000000" stroke-miterlimit="10" cx="227.186" cy="196.294" rx="3.895" ry="3.251" />
</g>
<text transform="matrix(1.1975 0 0 1 224.5737 190.623)" font-size="8.6454">T6</text>
<polygon stroke="#000000" stroke-miterlimit="10" points="535,114.195 544.318,117.689 535,121.183 " />
<polygon stroke="#000000" stroke-miterlimit="10" points="528.659,128.786 519.341,125.292 528.659,121.798 " />
</svg>