<svg version="1.1" xmlns="http://www.w3.org/2000/svg" xmlns:xlink="http://www.w3.org/1999/xlink" x="0px" y="0px" viewBox="0 0 1200 600" style="enable-background:new 0 0 1200 600;" xml:space="preserve" width="1200" height="600">
<style type="text/css">
	.st0{fill:none;stroke:#1D71B8;stroke-width:2;stroke-miterlimit:10;}
	.st1{fill:#1D71B8;stroke:#1D71B8;stroke-width:2;stroke-miterlimit:10;}
	.st2{fill:none;stroke:#BE1622;stroke-width:2;stroke-miterlimit:10;}
	.st3{fill:none;stroke:#000000;stroke-miterlimit:10;}
	.st4{fill:none;stroke:#050505;stroke-width:2;stroke-miterlimit:10;}
	.st5{fill:none;stroke:#050505;stroke-width:4.0927;stroke-miterlimit:10;}
	.st6{fill:none;stroke:#010202;stroke-miterlimit:10;}
	.st7{fill:#010202;stroke:#010202;stroke-miterlimit:10;}
	.st8{fill:none;stroke:#020202;stroke-miterlimit:10;}
	.st9{fill:none;stroke:#020202;stroke-width:0.5;stroke-miterlimit:10;}
	.st10{fill:#BE1622;stroke:#BE1622;stroke-width:2;stroke-miterlimit:10;}
	.st11{fill:#BE1622;stroke:#BE1622;stroke-width:1.4534;stroke-miterlimit:10;}
	.st12{fill:#FFFFFF;stroke:#0F0F0F;stroke-width:1.453;stroke-miterlimit:10;}
	.st13{fill:#FFFFFF;stroke:#000000;stroke-width:1.4534;stroke-miterlimit:10;}
	.st14{fill:none;stroke:#0F0F0F;stroke-width:1.453;stroke-miterlimit:10;}
	.st15{fill:#1D71B8;stroke:#1D71B8;stroke-width:1.4534;stroke-miterlimit:10;}
	.st16{fill:#010101;stroke:#010101;stroke-miterlimit:10;}
	.st17{fill:#1D1D1B;stroke:#1D1D1B;stroke-miterlimit:10;}
	.st18{fill:none;stroke:#BE1622;stroke-miterlimit:10;}
	.st19{fill:#010202;stroke:#0F0F0F;stroke-miterlimit:10;}
	.st20{fill:#FFFFFF;stroke:#000000;stroke-width:1.453;stroke-miterlimit:10;}
	.st21{fill:none;stroke:#1D71B8;stroke-width:1.824;stroke-miterlimit:10;}
	.st22{fill:none;stroke:#050505;stroke-width:0.5;stroke-miterlimit:10;}
	.st24{font-size:12px;}
	.st25{font-size:9.3585px;}
	.st26{fill:#BE1622;}
	.st27{fill:#1D71B8;}
	.st28{fill:#117A14;}
</style>
<g id="MainLayer">
	<line class="st0" x1="354.3" y1="397.2" x2="435.3" y2="397.2" />
	<line class="st0" x1="401" y1="194.2" x2="981" y2="194.2" />
	<ellipse class="st1" cx="896.5" cy="194.3" rx="1.9" ry="1.9" />
	<line class="st2" x1="404" y1="138.6" x2="523" y2="138.6" />
	<g>
		<rect x="328.6" y="120.2" class="st3" width="73.8" height="92.5" />
		<g>
			<line class="st3" x1="328.6" y1="212.6" x2="402.4" y2="120.2" />
		</g>
	</g>
	<line class="st2" x1="10" y1="138.1" x2="327" y2="138.1" />
	<g>
		<line class="st4" x1="395" y1="147.7" x2="410.7" y2="126" />
		
			<ellipse transform="matrix(0.9983 -5.872202e-02 5.872202e-02 0.9983 -6.5892 24.4555)" class="st5" cx="412.8" cy="124.3" rx="3.1" ry="3.1" />
	</g>
	<g>
		<ellipse class="st6" cx="533.6" cy="137.7" rx="9.6" ry="9.5" />
		<polygon class="st7" points="541.6,137.7 535.5,141.2 535.5,134.2   " />
	</g>
	<line class="st2" x1="544" y1="137.8" x2="698.7" y2="137.8" />
	<g>
		<line class="st8" x1="773.6" y1="83.8" x2="773.6" y2="137.8" />
		<line class="st8" x1="773.2" y1="83.8" x2="863.2" y2="83.8" />
		<line class="st8" x1="773.2" y1="137.4" x2="862.8" y2="137.4" />
		<line class="st8" x1="863.4" y1="83.6" x2="863.4" y2="137.6" />
		<line class="st9" x1="784" y1="90.6" x2="784" y2="129.4" />
		<line class="st9" x1="796" y1="90.6" x2="796" y2="129.4" />
		<line class="st9" x1="790" y1="90.6" x2="790" y2="129.4" />
		<line class="st9" x1="802" y1="90.6" x2="802" y2="129.4" />
		<line class="st9" x1="808" y1="90.6" x2="808" y2="129.4" />
		<line class="st9" x1="814" y1="90.6" x2="814" y2="129.4" />
		<line class="st9" x1="820" y1="90.6" x2="820" y2="129.4" />
		<line class="st9" x1="826" y1="90.6" x2="826" y2="129.4" />
		<line class="st9" x1="832" y1="90.6" x2="832" y2="129.4" />
		<line class="st9" x1="838" y1="90.6" x2="838" y2="129.4" />
		<line class="st9" x1="844" y1="90.6" x2="844" y2="129.4" />
		<line class="st9" x1="850" y1="90.6" x2="850" y2="129.4" />
		<line class="st9" x1="856" y1="90.6" x2="856" y2="129.4" />
	</g>
	<line class="st2" x1="698.9" y1="167.5" x2="698.9" y2="136.7" />
	<line class="st2" x1="697.6" y1="167.1" x2="980.8" y2="167.1" />
	<line class="st2" x1="747.9" y1="166.1" x2="747.9" y2="94.8" />
	<ellipse class="st10" cx="748.3" cy="167.3" rx="1.9" ry="1.9" />
	<line class="st2" x1="746.8" y1="94.9" x2="772.9" y2="94.9" />
	<line class="st0" x1="864" y1="124.7" x2="897.5" y2="124.7" />
	<line class="st0" x1="897.3" y1="160" x2="897.3" y2="124" />
	<line class="st0" x1="896.9" y1="194" x2="896.9" y2="171.5" />
	<polygon class="st11" points="45.2,138.8 32.1,148.3 32.1,129.3  " />
	<line class="st0" x1="172" y1="192.9" x2="329" y2="192.9" />
	<g>
		<line class="st4" x1="339.6" y1="197.9" x2="318" y2="182.2" />
		
			<ellipse transform="matrix(0.9983 -5.872202e-02 5.872202e-02 0.9983 -10.03 18.8852)" class="st5" cx="316.3" cy="180.1" rx="3.1" ry="3.1" />
	</g>
	<g>
		<polygon class="st12" points="159.7,193.3 172.9,183.8 172.9,202.8   " />
	</g>
	<polygon class="st13" points="159.7,193.3 146.6,202.8 146.6,183.8  " />
	<line class="st14" x1="160" y1="191.5" x2="160" y2="174.5" />
	<circle class="st14" cx="159.5" cy="164" r="10.5" />
	<line class="st0" x1="12" y1="192" x2="146" y2="192" />
	<polygon class="st15" points="29.6,191.3 42.7,181.8 42.7,200.8  " />
	<g>
		<rect x="280.6" y="326.2" class="st3" width="73.8" height="92.5" />
		<g>
			<line class="st3" x1="280.6" y1="418.6" x2="354.4" y2="326.2" />
		</g>
	</g>
	<line class="st2" x1="96" y1="186.5" x2="96" y2="139.2" />
	<line class="st2" x1="95.5" y1="345.5" x2="95.5" y2="197.2" />
	<line class="st2" x1="95" y1="344.9" x2="280.5" y2="344.9" />
	<g>
		<polygon class="st12" points="158.3,397.9 171.5,388.4 171.5,407.4   " />
	</g>
	<polygon class="st13" points="158.3,397.9 145.2,407.4 145.2,388.4  " />
	<line class="st14" x1="158.6" y1="396.1" x2="158.6" y2="379.1" />
	<circle class="st14" cx="158.1" cy="368.6" r="10.5" />
	<line class="st0" x1="172.6" y1="397.9" x2="281.1" y2="397.9" />
	<line class="st0" x1="172.6" y1="397.9" x2="281.1" y2="397.9" />
	<g>
		<ellipse class="st16" cx="692.7" cy="375.3" rx="1.9" ry="2.8" />
		<rect x="692.3" y="367" class="st16" width="0.6" height="5.5" />
		<rect x="687.6" y="364" class="st17" width="10" height="3" />
		<path class="st16" d="M702.8,384c0,0-0.2-6.8-10.5-6.9c0-3.1,0-3.1,0-3.1c14.6,0.4,12.4,10,12.4,10C703.8,384,702.8,384,702.8,384    z" />
		<rect x="683.1" y="374" class="st16" width="9.3" height="3.1" />
	</g>
	<line class="st0" x1="63.4" y1="398.9" x2="144.7" y2="398.9" />
	<line class="st0" x1="63.9" y1="399.2" x2="63.9" y2="191.8" />
	<ellipse class="st1" cx="64.6" cy="192.4" rx="1.9" ry="1.9" />
	<g>
		<line class="st4" x1="290.6" y1="404.3" x2="269" y2="388.6" />
		
			<ellipse transform="matrix(0.9983 -5.872202e-02 5.872202e-02 0.9983 -22.2348 16.364)" class="st5" cx="267.3" cy="386.5" rx="3.1" ry="3.1" />
	</g>
	<line class="st2" x1="354.7" y1="344.7" x2="891.8" y2="344.7" />
	<g>
		<line class="st4" x1="348" y1="354.1" x2="363.7" y2="332.4" />
		
			<ellipse transform="matrix(0.9983 -5.872202e-02 5.872202e-02 0.9983 -18.7905 22.0517)" class="st5" cx="365.8" cy="330.7" rx="3.1" ry="3.1" />
	</g>
	<g>
		<ellipse class="st16" cx="748.7" cy="375.3" rx="1.9" ry="2.8" />
		<rect x="748.3" y="367" class="st16" width="0.6" height="5.5" />
		<rect x="743.6" y="364" class="st17" width="10" height="3" />
		<path class="st16" d="M758.8,384c0,0-0.2-6.8-10.5-6.9c0-3.1,0-3.1,0-3.1c14.6,0.4,12.4,10,12.4,10C759.8,384,758.8,384,758.8,384    z" />
		<rect x="739.1" y="374" class="st16" width="9.3" height="3.1" />
	</g>
	<g>
		<ellipse class="st16" cx="804.7" cy="375.3" rx="1.9" ry="2.8" />
		<rect x="804.3" y="367" class="st16" width="0.6" height="5.5" />
		<rect x="799.6" y="364" class="st17" width="10" height="3" />
		<path class="st16" d="M814.8,384c0,0-0.2-6.8-10.5-6.9c0-3.1,0-3.1,0-3.1c14.6,0.4,12.4,10,12.4,10C815.8,384,814.8,384,814.8,384    z" />
		<rect x="795.1" y="374" class="st16" width="9.3" height="3.1" />
	</g>
	<line class="st18" x1="723.6" y1="375.6" x2="738.2" y2="375.6" />
	<line class="st18" x1="780.6" y1="375.4" x2="795.2" y2="375.4" />
	<line class="st18" x1="668.6" y1="376.2" x2="683.2" y2="376.2" />
	<line class="st18" x1="669.3" y1="376.8" x2="669.3" y2="345" />
	<line class="st18" x1="723.7" y1="376" x2="723.7" y2="344.2" />
	<line class="st18" x1="780.5" y1="376.4" x2="780.5" y2="344.6" />
	<line class="st2" x1="892.1" y1="396.9" x2="892.1" y2="344.4" />
	<g>
		<polygon class="st19" points="448.3,396.5 435.1,406 435.1,387   " />
	</g>
	<polygon class="st20" points="448.3,396.5 461.4,387 461.4,406  " />
	<polygon class="st20" points="449.7,474.2 462.8,464.7 462.8,483.7  " />
	<g>
		<ellipse class="st6" cx="525" cy="396.8" rx="9.6" ry="9.5" />
		<polygon class="st7" points="516.9,396.8 523,393.3 523,400.3   " />
	</g>
	<line class="st0" x1="461.9" y1="397.2" x2="515" y2="397.2" />
	<line class="st0" x1="535" y1="396.5" x2="892.3" y2="396.5" />
	<line class="st0" x1="463.3" y1="473.2" x2="587.7" y2="473.2" />
	<line class="st21" x1="376.7" y1="473.8" x2="436" y2="473.8" />
	<g>
		<polygon class="st19" points="449.7,474.2 436.5,483.7 436.5,464.7   " />
	</g>
	<line class="st0" x1="377.4" y1="473.3" x2="377.4" y2="396.3" />
	<ellipse class="st1" cx="377.9" cy="397.3" rx="1.9" ry="1.9" />
	<polygon class="st15" points="588,473.3 601.1,463.8 601.1,482.8  " />
	<g>
		<line class="st4" x1="81.7" y1="56.7" x2="97.3" y2="35" />
		
			<ellipse transform="matrix(0.9983 -5.872202e-02 5.872202e-02 0.9983 -1.7862 5.8989)" class="st5" cx="99.5" cy="33.3" rx="3.1" ry="3.1" />
	</g>
	<ellipse class="st10" cx="96.3" cy="137.3" rx="1.9" ry="1.9" />
	<line class="st22" x1="114" y1="10.3" x2="114" y2="75" />
	<line class="st22" x1="123" y1="9.7" x2="123" y2="74.3" />
	<line class="st22" x1="122.7" y1="9.7" x2="114.7" y2="20.3" />
	<line class="st22" x1="122.7" y1="17.7" x2="114.7" y2="28.3" />
	<line class="st22" x1="122.3" y1="27" x2="114.3" y2="37.7" />
	<line class="st22" x1="122.7" y1="36" x2="114.7" y2="46.7" />
	<line class="st22" x1="122.7" y1="46" x2="114.7" y2="56.7" />
	<line class="st22" x1="122.7" y1="54.7" x2="114.7" y2="65.3" />
	<line class="st22" x1="122.3" y1="64" x2="114.3" y2="74.7" />
	<text transform="matrix(1 0 0 1 75.6665 72.6665)" class=" st24">S1</text>
	<text transform="matrix(1 0 0 1 122.9998 166.0002)" class=" st24">M2</text>
	<text transform="matrix(1 0 0 1 119.6668 370)" class=" st24">M1</text>
	<text transform="matrix(1 0 0 1 255 415.6667)" class=" st24">S6</text>
	<text transform="matrix(1 0 0 1 337.0002 319.6663)" class=" st24">S4</text>
	<text transform="matrix(1 0 0 1 538.6665 385.3333)" class=" st24">P1</text>
	<text transform="matrix(1 0 0 1 303.3332 209.0002)" class=" st24">S5</text>
	<text transform="matrix(1 0 0 1 382.9998 109.9998)" class=" st24">S3</text>
	<text transform="matrix(1.2504 0 0 1 510.6875 162.9858)" class=" st25">P2</text>
</g>
<text transform="matrix(1 0 0 1 53 21)" class=" st24" data-core-parameter="Monitoring.Temper.OutdoorAir" id="Monitoring.Temper.OutdoorAir">Tout</text>
<text transform="matrix(1 0 0 1 421 94)" class="st26  st24" data-core-parameter="Monitoring.Temper.SupplyPipe" id="Monitoring.Temper.SupplyPipe">T3</text>
<text transform="matrix(1 0 0 1 258 157)" class="st27  st24" data-core-parameter="Monitoring.Temper.ReturnPipe" id="Monitoring.Temper.ReturnPipe">T5</text>
<text transform="matrix(1 0 0 1 382 306)" class="st26  st24" data-core-parameter="Monitoring.Temper.HwsSupplyPipe" id="Monitoring.Temper.HwsSupplyPipe">T4</text>
<text transform="matrix(1 0 0 1 210 384)" class="st28  st24" data-core-parameter="Monitoring.Temper.CalcHwsReturnPipe" id="Monitoring.Temper.CalcHwsReturnPipe">Tc6</text>
<text transform="matrix(1 0 0 1 210 365)" class="st27  st24" data-core-parameter="Monitoring.Temper.HwsReturnPipe" id="Monitoring.Temper.HwsReturnPipe">T6</text>
<text transform="matrix(1 0 0 1 421 112)" class="st28  st24" data-core-parameter="Monitoring.Temper.CalcSupplyPipe" id="Monitoring.Temper.CalcSupplyPipe">Tc3</text>
<text transform="matrix(1 0 0 1 258 175)" class="st28  st24" data-core-parameter="Monitoring.Temper.CalcReturnPipe" id="Monitoring.Temper.CalcReturnPipe">Tc5</text>
<text transform="matrix(1 0 0 1 380 325)" class="st28  st24" data-core-parameter="Monitoring.Temper.CalcHwsSupplyPipe" id="Monitoring.Temper.CalcHwsSupplyPipe">Tc4</text>
</svg>