<svg version="1.1" id="Layer_1" xmlns="http://www.w3.org/2000/svg" xmlns:xlink="http://www.w3.org/1999/xlink" x="0px" y="0px"
     width="1400" height="700" viewBox="-30 -30 1200 600"
     enable-background="new 0 0 565 409.5" xml:space="preserve" description="Ключ A361.2 Независимое присоединение системы отопления с управлением двумя насосами и функцией подпитки (измерение температуры первичного контура предоставляет дополнительные возможности по управлению / ограничению)" deviceId="8" internalNumber="A3612">
<line fill="none" x1="141" y1="-140" x2="141" y2="-158.976" />
<line fill="none" x1="141" y1="-133" x2="141" y2="-168.464" />
<line fill="none" x1="-198" y1="242.814" x2="-198" y2="207.352" />
<line fill="none" x1="665" y1="99.78" x2="1047.822" y2="104.78" />
<g>
	<g>
		<path fill="none" stroke="#000000" stroke-miterlimit="10" d="M86.813,46.684l9.275-7.826L86.813,46.684z" />
		<ellipse stroke="#000000" stroke-miterlimit="10" cx="98.99" cy="36.433" rx="3.895" ry="3.251" />
	</g>
	<text transform="matrix(1.1975 0 0 1 101.6011 30.7617)" font-size="8.6454">T1</text>
</g>
<g>
	<line fill="none" stroke="#000000" stroke-miterlimit="10" x1="112.57" y1="15.047" x2="112.57" y2="49.981" />
	<line fill="none" stroke="#000000" stroke-miterlimit="10" x1="119.767" y1="15.047" x2="119.767" y2="49.981" />
	<line fill="none" stroke="#000000" stroke-miterlimit="10" x1="112.57" y1="49.981" x2="119.752" y2="40.444" />
	<line fill="none" stroke="#000000" stroke-miterlimit="10" x1="117.649" y1="50.514" x2="119.752" y2="47.722" />
	<line fill="none" stroke="#000000" stroke-miterlimit="10" x1="112.57" y1="42.703" x2="119.752" y2="33.166" />
	<line fill="none" stroke="#000000" stroke-miterlimit="10" x1="112.57" y1="35.426" x2="119.752" y2="25.888" />
	<line fill="none" stroke="#000000" stroke-miterlimit="10" x1="112.57" y1="28.148" x2="119.752" y2="18.609" />
	<line fill="none" stroke="#000000" stroke-miterlimit="10" x1="112.57" y1="20.869" x2="116.568" y2="15.56" />
</g>
<g>
	<rect x="198.355" y="21.963" fill="none" stroke="#000000" stroke-miterlimit="10" width="57.979" height="24.72" />
	<rect x="198.355" y="28.34" fill="none" stroke="#000000" stroke-miterlimit="10" width="57.979" height="12.009" />
	<line fill="none" stroke="#000000" stroke-miterlimit="10" x1="220.097" y1="28.34" x2="220.097" y2="40.348" />
	<line fill="none" stroke="#000000" stroke-miterlimit="10" x1="237.698" y1="28.34" x2="237.698" y2="40.348" />
	<ellipse fill="none" stroke="#000000" stroke-miterlimit="10" cx="247.016" cy="34.328" rx="4.271" ry="3.566" />
	<ellipse fill="none" stroke="#000000" stroke-miterlimit="10" cx="247.016" cy="34.323" rx="5.823" ry="4.863" />
	<path fill="none" stroke="#000000" stroke-miterlimit="10" d="M252.839,28.437c0,0,1.844,2.647,1.844,5.701   c0,3.053-1.844,6.024-1.844,6.024" />
</g>
<text transform="matrix(1.1975 0 0 1 209.8345 17.189)" font-size="8.6454">ECL310</text>
<rect x="291.535" y="34.344" fill="none" stroke="#000000" stroke-miterlimit="10" width="14.753" height="2.091" />
<path fill="none" stroke="#000000" stroke-miterlimit="10" d="M291.535,34.344c0,0,1.491,0.039,2.212-0.972  c0.72-1.01,2.014-5.003,2.447-6.089c0.388-1.153,1.131-1.763,2.941-1.763c1.813,0,2.408,0.664,2.795,1.907  c0.388,1.242,1.597,4.539,2.027,5.691c0.431,1.153,2.329,1.225,2.329,1.225" />
<path stroke="#000000" stroke-miterlimit="10" d="M301.015,36.435c0,0.971-0.938,1.757-2.103,1.757  c-1.161,0-2.103-0.786-2.103-1.757c0,0,0.941,0,2.103,0C300.075,36.435,301.015,36.435,301.015,36.435z" />
<text transform="matrix(1.1975 0 0 1 293.5166 45.4307)" font-size="8.6454">R6</text>
<polygon stroke="#000000" stroke-miterlimit="10" points="37.059,178.316 27.741,174.822 37.059,171.328 " />
<polygon fill="none" stroke="#000000" stroke-miterlimit="10" points="97.667,169.979 110.817,174.473 97.667,178.963 " />
<polygon fill="none" stroke="#000000" stroke-miterlimit="10" points="123.967,178.963 110.817,174.471 123.967,169.979 " />
<polygon fill="none" stroke="#000000" stroke-miterlimit="10" points="88.602,171.375 97.667,174.473 88.602,177.566 " />
<polygon fill="none" stroke="#000000" stroke-miterlimit="10" points="133.032,177.566 123.967,174.471 133.032,171.375 " />
<line fill="none" stroke="#000000" stroke-miterlimit="10" x1="110.817" y1="166.02" x2="110.817" y2="174.473" />
<text transform="matrix(1.1975 0 0 1 106.6563 161.2656)" font-size="8.6454">M</text>
<line fill="none" stroke="#000000" stroke-miterlimit="10" x1="88.602" y1="174.822" x2="16.765" y2="174.822" />
<g>
	<g>
		<line fill="none" stroke="#000000" stroke-miterlimit="10" x1="171.566" y1="178.125" x2="162.291" y2="170.301" />
		<ellipse stroke="#000000" stroke-miterlimit="10" cx="159.389" cy="167.876" rx="3.895" ry="3.253" />
	</g>
	<text transform="matrix(0.9401 0 0 1 144.9463 164.623)" font-size="8.6454">T5</text>
</g>
<line fill="none" stroke="#000000" stroke-miterlimit="10" x1="393.062" y1="163.107" x2="392.922" y2="119.33" />
<line fill="none" stroke="#000000" stroke-miterlimit="10" x1="166.843" y1="174.471" x2="133.032" y2="174.822" />
<path fill="none" stroke="#000000" stroke-miterlimit="10" d="M144.949,173.732" />
<polygon stroke="#000000" stroke-miterlimit="10" points="27.741,115.836 37.059,119.33 27.741,122.824 " />
<text transform="matrix(1.1975 0 0 1 104.2422 144.4629)" font-size="8.6454">M1</text>
<ellipse fill="none" stroke="#000000" stroke-miterlimit="10" cx="110.817" cy="158.138" rx="9.059" ry="8.759" />
<g>
	<line fill="none" stroke="#000000" stroke-miterlimit="10" x1="166.843" y1="119.33" x2="16.765" y2="119.33" />
</g>
<g>
	<g>
		<line fill="none" stroke="#000000" stroke-miterlimit="10" x1="214.323" y1="126.08" x2="223.599" y2="118.254" />
		<ellipse stroke="#000000" stroke-miterlimit="10" cx="226.5" cy="115.83" rx="3.895" ry="3.251" />
	</g>
	<text transform="matrix(1.1975 0 0 1 227.8721 108.4521)" font-size="8.6454">T3</text>
</g>
<line fill="none" stroke="#000000" stroke-miterlimit="10" x1="392.969" y1="119.33" x2="347.018" y2="119.33" />
<line fill="none" x1="71.743" y1="111.128" x2="71.743" y2="158.137" />
<line fill="none" stroke="#000000" stroke-miterlimit="10" x1="72.634" y1="119.33" x2="72.634" y2="169.596" />
<path fill="#1D1D1B" stroke="#000000" stroke-miterlimit="10" d="M140.456,160.635" />
<path fill="none" stroke="#000000" stroke-miterlimit="10" d="M140.456,132.16" />
<path fill="none" stroke="#000000" stroke-miterlimit="10" d="M144.949,119.702" />
<g>
	<line fill="none" stroke="#000000" stroke-miterlimit="10" x1="548.235" y1="163.107" x2="393.062" y2="163.107" />
	<g>
		<rect x="436.588" y="119.18" fill="none" stroke="#000000" stroke-miterlimit="10" width="72.221" height="40.23" />
		<line fill="none" stroke="#000000" stroke-miterlimit="10" x1="501.899" y1="122.576" x2="501.899" y2="153.807" />
		<line fill="none" stroke="#000000" stroke-miterlimit="10" x1="489.849" y1="122.538" x2="489.849" y2="153.768" />
		<line fill="none" stroke="#000000" stroke-miterlimit="10" x1="477.892" y1="122.613" x2="477.892" y2="153.844" />
		<line fill="none" stroke="#000000" stroke-miterlimit="10" x1="465.279" y1="122.518" x2="465.279" y2="153.748" />
		<line fill="none" stroke="#000000" stroke-miterlimit="10" x1="453.322" y1="122.594" x2="453.322" y2="153.824" />
		<line fill="none" stroke="#000000" stroke-miterlimit="10" x1="441.271" y1="122.558" x2="441.271" y2="153.787" />
		<line fill="none" stroke="#000000" stroke-miterlimit="10" x1="436.588" y1="120.674" x2="436.588" y2="159.574" />
		<ellipse fill="none" stroke="#000000" stroke-miterlimit="10" cx="412.061" cy="121.482" rx="6.854" ry="6.761" />
		<polygon stroke="#000000" stroke-miterlimit="10" points="407.346,125.182 412.061,118.004 416.773,125.182   " />
		<line fill="none" stroke="#000000" stroke-miterlimit="10" x1="412.061" y1="163.107" x2="412.061" y2="128.696" />
		<line fill="none" stroke="#000000" stroke-miterlimit="10" x1="418.915" y1="120.732" x2="436.588" y2="120.674" />
		<line fill="none" stroke="#000000" stroke-miterlimit="10" x1="508.809" y1="155.986" x2="513.747" y2="155.986" />
		<line fill="none" stroke="#000000" stroke-miterlimit="10" x1="513.332" y1="155.986" x2="513.332" y2="159.23" />
	</g>
	<line fill="none" stroke="#000000" stroke-miterlimit="10" x1="513.747" y1="167.957" x2="513.747" y2="173.732" />
</g>
<g>
	<rect x="166.579" y="116.549" fill="none" stroke="#000000" stroke-miterlimit="10" width="53.146" height="63.399" />
	<g>
		<line fill="none" stroke="#000000" stroke-miterlimit="10" x1="166.579" y1="179.947" x2="219.726" y2="116.548" />
	</g>
</g>
<line fill="none" stroke="#000000" stroke-miterlimit="10" x1="245.515" y1="120.46" x2="220.226" y2="120.567" />
<line fill="none" stroke="#000000" stroke-miterlimit="10" x1="218.961" y1="174.822" x2="548.235" y2="174.822" />
<line fill="none" x1="275.763" y1="144.221" x2="270.264" y2="144.221" />
<line fill="none" stroke="#000000" stroke-miterlimit="10" x1="289.139" y1="85.22" x2="301.715" y2="93.845" />
<line fill="none" x1="270.264" y1="144.221" x2="269.261" y2="144.221" />
<g>
	<line fill="none" x1="280.764" y1="144.221" x2="275.763" y2="144.221" />
	<line fill="none" x1="281.592" y1="144.036" x2="280.811" y2="144.036" />
	<path fill="none" stroke="#000000" stroke-miterlimit="10" d="M269.26,144.219c0-5.763,4.672-10.437,10.437-10.437   c5.764,0,10.438,4.674,10.438,10.437" />
	<path fill="none" stroke="#000000" stroke-miterlimit="10" d="M290.135,144.219c0,5.767-4.674,10.438-10.438,10.438   c-5.765,0-10.437-4.672-10.437-10.438" />
</g>
<polyline stroke="#000000" stroke-miterlimit="10" points="282.799,144.037 282.799,140.373 289.398,144.035 " />
<polyline stroke="#000000" stroke-miterlimit="10" points="289.398,144.035 282.799,147.699 282.799,144.037 " />
<path fill="none" stroke="#000000" stroke-miterlimit="10" d="M379.41,144.221" />
<path fill="none" stroke="#000000" stroke-miterlimit="10" d="M245.514,144.221" />
<polygon fill="#FFFFFF" stroke="#000000" stroke-miterlimit="10" points="306.434,139.551 319.584,144.043 306.434,148.535 " />
<g>
	<polygon fill="#1D1D1B" stroke="#000000" stroke-miterlimit="10" points="332.995,139.551 319.845,144.043 332.995,148.535  " />
</g>
<path fill="none" stroke="#000000" stroke-miterlimit="10" d="M312.845,126.042" />
<path fill="none" stroke="#000000" stroke-miterlimit="10" d="M504.875,253.422" />
<g>
	<polygon fill="#FFFFFF" stroke="#000000" stroke-miterlimit="10" points="135.194,202.285 148.345,206.777 135.194,211.27  " />
	<g>
		<polygon fill="#1D1D1B" stroke="#000000" stroke-miterlimit="10" points="161.756,202.285 148.605,206.777 161.756,211.27   " />
	</g>
</g>
<text transform="matrix(1.0961 0 0 1 261.5356 105.8809)" font-size="8.4734">P1</text>
<line fill="none" stroke="#000000" stroke-miterlimit="10" x1="333.938" y1="112.58" x2="347.018" y2="112.58" />
<line fill="none" x1="320.788" y1="112.58" x2="333.938" y2="112.58" />
<line fill="none" stroke="#000000" stroke-miterlimit="10" x1="291.222" y1="112.58" x2="306.788" y2="112.58" />
<g>
	<g>
		<ellipse fill="none" stroke="#000000" stroke-miterlimit="10" cx="281.057" cy="112.579" rx="10.437" ry="10.437" />
		<polygon stroke="#000000" stroke-miterlimit="10" points="283.19,108.769 289.79,112.579 283.19,116.39   " />
	</g>
	<line fill="none" x1="278.351" y1="112.58" x2="281.851" y2="112.58" />
	<line fill="none" x1="272.101" y1="112.58" x2="278.351" y2="112.58" />
</g>
<line fill="none" x1="270.348" y1="112.58" x2="272.101" y2="112.58" />
<line fill="none" stroke="#000000" stroke-miterlimit="10" x1="246.602" y1="112.58" x2="270.348" y2="112.58" />
<path fill="none" stroke="#000000" stroke-miterlimit="10" d="M333.938,108.087" />
<path fill="none" stroke="#000000" stroke-miterlimit="10" d="M320.789,112.579" />
<path fill="none" stroke="#000000" stroke-miterlimit="10" d="M333.938,117.072" />
<path fill="none" stroke="#000000" stroke-miterlimit="10" d="M333.938,112.58" />
<path fill="none" stroke="#000000" stroke-miterlimit="10" d="M333.938,108.087" />
<path fill="none" stroke="#000000" stroke-miterlimit="10" d="M333.938,117.072" />
<path fill="none" stroke="#000000" stroke-miterlimit="10" d="M333.938,112.58" />
<polygon fill="none" stroke="#000000" stroke-miterlimit="10" points="307.377,108.087 320.527,112.58 307.377,117.073 " />
<g>
	<polygon fill="#1D1D1B" stroke="#000000" stroke-miterlimit="10" points="333.938,108.087 320.788,112.58 333.938,117.073  " />
</g>
<text transform="matrix(1.0961 0 0 1 260.4487 132.1602)" font-size="8.4734">P2</text>
<rect x="264.89" y="72.544" fill="none" stroke="#000000" stroke-miterlimit="10" width="14.058" height="10" />
<polygon fill="none" stroke="#000000" stroke-miterlimit="10" points="266.725,79.794 268.511,75.294 270.297,79.794 " />
<text transform="matrix(0.9967 0 0 1 272.2651 79.7451)" font-size="7.6684">P</text>
<text transform="matrix(1.039 0 0 1 298.2939 77.7285)" fill="#1D1D1B" font-size="7.6233">dP7</text>
<line fill="none" stroke="#000000" stroke-miterlimit="10" x1="79.5" y1="174.822" x2="79.5" y2="206.777" />
<line fill="none" stroke="#000000" stroke-miterlimit="10" x1="79.5" y1="206.777" x2="96.087" y2="206.777" />
<line fill="none" stroke="#000000" stroke-miterlimit="10" x1="117.093" y1="206.776" x2="135.054" y2="206.777" />
<g>
	<g>
		<ellipse fill="none" stroke="#000000" stroke-miterlimit="10" cx="106.657" cy="206.777" rx="10.437" ry="10.033" />
		<polygon stroke="#000000" stroke-miterlimit="10" points="108.79,203.114 115.389,206.776 108.79,210.44   " />
	</g>
	<line fill="none" x1="103.95" y1="206.777" x2="107.45" y2="206.777" />
	<line fill="none" x1="97.7" y1="206.777" x2="103.95" y2="206.777" />
</g>
<line fill="none" stroke="#000000" stroke-miterlimit="10" x1="162.291" y1="206.776" x2="177" y2="206.777" />
<line fill="none" stroke="#000000" stroke-miterlimit="10" x1="203.562" y1="206.777" x2="232.87" y2="206.777" />
<line fill="none" stroke="#000000" stroke-miterlimit="10" x1="232.87" y1="206.777" x2="232.87" y2="174.213" />
<g>
	<g>
		<polygon stroke="#000000" stroke-miterlimit="10" points="177,202.285 190.15,206.777 177,211.27   " />
		<g>
			<polygon stroke="#000000" stroke-miterlimit="10" points="203.562,202.285 190.411,206.777 203.562,211.27    " />
		</g>
	</g>
	<line fill="none" stroke="#000000" stroke-miterlimit="10" x1="190.15" y1="200.584" x2="190.15" y2="206.777" />
	<rect x="185.106" y="190.495" fill="none" stroke="#000000" stroke-miterlimit="10" width="10.088" height="10.088" />
</g>
<text transform="matrix(1.0961 0 0 1 101.7583 195.5391)" font-size="8.4734">P4</text>
<text transform="matrix(1.3219 0 0 1 207 194.6797)" font-size="7.4361">V1</text>
<line fill="none" stroke="#000000" stroke-miterlimit="10" x1="256.334" y1="163.107" x2="256.334" y2="174.822" />
<circle fill="none" stroke="#000000" stroke-miterlimit="10" cx="256.334" cy="160.609" r="3" />
<text transform="matrix(1.4894 0 0 1 248.7324 155.832)" font-size="5.8262">P10</text>
<polygon fill="none" stroke="#000000" stroke-miterlimit="10" points="98.575,325.169 111.733,329.648 98.575,334.128 " />
<polygon fill="none" stroke="#000000" stroke-miterlimit="10" points="124.891,334.128 111.733,329.648 124.891,325.169 " />
<polygon fill="none" stroke="#000000" stroke-miterlimit="10" points="89.503,326.562 98.575,329.648 89.503,332.737 " />
<polygon fill="none" stroke="#000000" stroke-miterlimit="10" points="133.962,332.737 124.891,329.648 133.962,326.562 " />
<ellipse fill="none" stroke="#000000" stroke-miterlimit="10" cx="111.733" cy="311.799" rx="9.064" ry="9.321" />
<line fill="none" stroke="#000000" stroke-miterlimit="10" x1="111.733" y1="321.224" x2="111.733" y2="329.648" />
<text transform="matrix(1.2017 0 0 1 107.5693 316.4824)" font-size="8.6208">M</text>
<line fill="none" stroke="#000000" stroke-miterlimit="10" x1="89.503" y1="329.513" x2="56.177" y2="329.513" />
<text transform="matrix(1.2017 0 0 1 104.9126 298.6621)" font-size="8.6208">M2</text>
<g>
	<line fill="none" stroke="#000000" stroke-miterlimit="10" x1="216.037" y1="282.677" x2="225.319" y2="274.874" />
	<ellipse stroke="#000000" stroke-miterlimit="10" cx="228.222" cy="272.457" rx="3.897" ry="3.242" />
	<text transform="matrix(1.2017 0 0 1 230.835 266.8018)" font-size="8.6208">T4</text>
</g>
<g>
	<line fill="none" stroke="#000000" stroke-miterlimit="10" x1="167.794" y1="277.648" x2="72.634" y2="277.648" />
</g>
<g>
	<rect x="167.53" y="273.194" fill="none" stroke="#000000" stroke-miterlimit="10" width="53.18" height="63.221" />
	<g>
		<line fill="none" stroke="#000000" stroke-miterlimit="10" x1="167.53" y1="336.415" x2="220.71" y2="273.192" />
	</g>
</g>
<g>
	<line fill="none" stroke="#000000" stroke-miterlimit="10" x1="174.386" y1="333.024" x2="165.104" y2="325.221" />
	<ellipse stroke="#000000" stroke-miterlimit="10" cx="162.202" cy="322.802" rx="3.897" ry="3.242" />
	<text transform="matrix(1.2017 0 0 1 149.1265 317.1484)" font-size="8.6208">T6</text>
</g>
<path fill="none" stroke="#000000" stroke-miterlimit="10" d="M219.846,284.964" />
<path fill="none" stroke="#000000" stroke-miterlimit="10" d="M220.71,331.297" />
<line fill="none" stroke="#000000" stroke-miterlimit="10" x1="167.53" y1="329.648" x2="133.962" y2="329.648" />
<line fill="none" stroke="#000000" stroke-miterlimit="10" x1="56.177" y1="174.473" x2="56.177" y2="329.513" />
<line fill="none" x1="72.634" y1="246.975" x2="72.634" y2="277.648" />
<line fill="none" x1="72.634" y1="277.648" x2="72.634" y2="308.323" />
<line fill="none" x1="72.634" y1="294.008" x2="72.634" y2="258.216" />
<line fill="none" x1="72.634" y1="275.292" x2="72.634" y2="249.37" />
<line fill="none" x1="72.634" y1="272.838" x2="72.634" y2="242.263" />
<line fill="none" x1="72.634" y1="242.263" x2="72.634" y2="267.112" />
<line fill="none" stroke="#000000" stroke-miterlimit="10" x1="72.634" y1="177.566" x2="72.634" y2="278.566" />
<path fill="none" stroke="#000000" stroke-miterlimit="10" d="M485.915,277.648" />
<path fill="none" stroke="#000000" stroke-miterlimit="10" d="M219.846,277.648" />
<path fill="none" stroke="#000000" stroke-miterlimit="10" d="M270.608,323.848" />
<path fill="none" stroke="#000000" stroke-miterlimit="10" d="M270.608,332.809" />
<path fill="none" stroke="#000000" stroke-miterlimit="10" d="M270.608,328.329" />
<path fill="none" stroke="#000000" stroke-miterlimit="10" d="M270.608,323.848" />
<path fill="none" stroke="#000000" stroke-miterlimit="10" d="M270.608,332.809" />
<path fill="none" stroke="#000000" stroke-miterlimit="10" d="M270.608,328.329" />
<line fill="none" stroke="#000000" stroke-miterlimit="10" x1="220.71" y1="328.327" x2="346.511" y2="328.087" />
<path fill="none" stroke="#000000" stroke-miterlimit="10" d="M337.649,346.769" />
<path fill="none" stroke="#000000" stroke-miterlimit="10" d="M337.649,346.769" />
<line fill="none" x1="485.915" y1="277.648" x2="485.915" y2="328.329" />
<line fill="none" stroke="#000000" stroke-miterlimit="10" x1="346.511" y1="328.087" x2="497" y2="328.329" />
<path fill="none" stroke="#000000" stroke-miterlimit="10" d="M244.073,371.532" />
<path fill="none" stroke="#000000" stroke-miterlimit="10" d="M235.083,371.532" />
<line fill="none" stroke="#000000" stroke-miterlimit="10" x1="169.575" y1="206.777" x2="169.646" y2="236.167" />
<line fill="none" stroke="#000000" stroke-miterlimit="10" x1="169.646" y1="236.167" x2="148.345" y2="236.167" />
<line fill="none" stroke="#000000" stroke-miterlimit="10" x1="148.345" y1="236.167" x2="148.345" y2="274.874" />
<line fill="none" stroke="#000000" stroke-miterlimit="10" x1="148.605" y1="282.167" x2="148.605" y2="325.436" />
<line fill="none" stroke="#000000" stroke-miterlimit="10" x1="148.345" y1="333.59" x2="148.345" y2="364.64" />
<line fill="none" stroke="#000000" stroke-miterlimit="10" x1="148.345" y1="364.64" x2="245.823" y2="364.64" />
<line fill="none" stroke="#000000" stroke-miterlimit="10" x1="245.823" y1="328.207" x2="245.823" y2="364.64" />
<line fill="none" stroke="#000000" stroke-miterlimit="10" x1="220.71" y1="278.78" x2="256.334" y2="278.771" />
<line fill="none" stroke="#000000" stroke-miterlimit="10" x1="345.498" y1="278.566" x2="357" y2="278.566" />
<line fill="none" stroke="#000000" stroke-miterlimit="10" x1="357" y1="278.566" x2="357" y2="317.719" />
<line fill="none" stroke="#000000" stroke-miterlimit="10" x1="497" y1="317.543" x2="357.88" y2="317.543" />
<g>
	<rect x="401.406" y="273.615" fill="none" stroke="#000000" stroke-miterlimit="10" width="72.221" height="40.23" />
	<line fill="none" stroke="#000000" stroke-miterlimit="10" x1="466.718" y1="277.012" x2="466.718" y2="308.242" />
	<line fill="none" stroke="#000000" stroke-miterlimit="10" x1="454.667" y1="276.974" x2="454.667" y2="308.203" />
	<line fill="none" stroke="#000000" stroke-miterlimit="10" x1="442.71" y1="277.049" x2="442.71" y2="308.279" />
	<line fill="none" stroke="#000000" stroke-miterlimit="10" x1="430.098" y1="276.953" x2="430.098" y2="308.184" />
	<line fill="none" stroke="#000000" stroke-miterlimit="10" x1="418.141" y1="277.029" x2="418.141" y2="308.26" />
	<line fill="none" stroke="#000000" stroke-miterlimit="10" x1="406.09" y1="276.994" x2="406.09" y2="308.223" />
	<line fill="none" stroke="#000000" stroke-miterlimit="10" x1="401.406" y1="275.109" x2="401.406" y2="314.01" />
	<ellipse fill="none" stroke="#000000" stroke-miterlimit="10" cx="376.879" cy="275.917" rx="6.854" ry="6.761" />
	<polygon stroke="#000000" stroke-miterlimit="10" points="372.164,279.617 376.879,272.439 381.592,279.617  " />
	<line fill="none" stroke="#000000" stroke-miterlimit="10" x1="376.879" y1="317.543" x2="376.879" y2="283.132" />
	<line fill="none" stroke="#000000" stroke-miterlimit="10" x1="383.733" y1="275.168" x2="401.406" y2="275.109" />
	<line fill="none" stroke="#000000" stroke-miterlimit="10" x1="473.627" y1="310.422" x2="478.565" y2="310.422" />
	<line fill="none" stroke="#000000" stroke-miterlimit="10" x1="478.15" y1="310.422" x2="478.15" y2="313.666" />
</g>
<line fill="none" stroke="#000000" stroke-miterlimit="10" x1="478.565" y1="322.393" x2="478.565" y2="328.168" />
<g>
	<g>
		<polygon stroke="#000000" stroke-miterlimit="10" points="185.106,360.904 198.257,365.396 185.106,369.889   " />
		<g>
			<polygon stroke="#000000" stroke-miterlimit="10" points="211.668,360.904 198.518,365.396 211.668,369.889    " />
		</g>
	</g>
	<line fill="none" stroke="#000000" stroke-miterlimit="10" x1="198.257" y1="359.203" x2="198.257" y2="365.396" />
	<rect x="193.213" y="349.114" fill="none" stroke="#000000" stroke-miterlimit="10" width="10.088" height="10.088" />
</g>
<text transform="matrix(1.3219 0 0 1 163.2837 354.1582)" font-size="7.4361">       V2</text>
<line fill="none" stroke="#000000" stroke-miterlimit="10" x1="253.588" y1="317.341" x2="253.588" y2="329.056" />
<circle fill="none" stroke="#000000" stroke-miterlimit="10" cx="253.588" cy="314.843" r="3" />
<text transform="matrix(1.4894 0 0 1 245.9863 310.0654)" font-size="5.8262"> P9</text>
<line fill="none" x1="286.885" y1="301.071" x2="286.104" y2="301.071" />
<line fill="none" stroke="#000000" stroke-miterlimit="10" x1="292.29" y1="242.509" x2="304.866" y2="251.135" />
<line fill="none" x1="275.556" y1="301.249" x2="274.553" y2="301.249" />
<line fill="none" stroke="#000000" stroke-miterlimit="10" x1="337.146" y1="271.201" x2="345.498" y2="271.201" />
<line fill="none" x1="323.996" y1="271.201" x2="337.146" y2="271.201" />
<line fill="none" stroke="#000000" stroke-miterlimit="10" x1="294.43" y1="271.201" x2="309.996" y2="271.201" />
<g>
	<g>
		<ellipse fill="none" stroke="#000000" stroke-miterlimit="10" cx="284.265" cy="271.201" rx="10.437" ry="10.437" />
		<polygon stroke="#000000" stroke-miterlimit="10" points="286.398,267.391 292.998,271.2 286.398,275.012   " />
	</g>
	<line fill="none" x1="281.559" y1="271.201" x2="285.059" y2="271.201" />
	<line fill="none" x1="275.309" y1="271.201" x2="281.559" y2="271.201" />
</g>
<line fill="none" x1="273.556" y1="271.201" x2="275.309" y2="271.201" />
<line fill="none" stroke="#000000" stroke-miterlimit="10" x1="256.334" y1="271.201" x2="273.556" y2="271.201" />
<g>
	<line fill="none" x1="286.057" y1="301.249" x2="281.055" y2="301.249" />
	<path fill="none" stroke="#000000" stroke-miterlimit="10" d="M274.552,301.247c0-5.763,4.672-10.437,10.437-10.437   c5.764,0,10.438,4.674,10.438,10.437" />
	<path fill="none" stroke="#000000" stroke-miterlimit="10" d="M295.427,301.247c0,5.767-4.674,10.438-10.438,10.438   c-5.765,0-10.437-4.672-10.437-10.438" />
</g>
<polyline stroke="#000000" stroke-miterlimit="10" points="287.123,301.249 287.123,297.585 293.722,301.247 " />
<polyline stroke="#000000" stroke-miterlimit="10" points="293.722,301.247 287.123,304.911 287.123,301.249 " />
<path fill="none" stroke="#000000" stroke-miterlimit="10" d="M338.144,256.675" />
<path fill="none" stroke="#000000" stroke-miterlimit="10" d="M323.997,271.2" />
<path fill="none" stroke="#000000" stroke-miterlimit="10" d="M337.146,275.694" />
<path fill="none" stroke="#000000" stroke-miterlimit="10" d="M337.146,271.202" />
<path fill="none" stroke="#000000" stroke-miterlimit="10" d="M338.144,256.675" />
<path fill="none" stroke="#000000" stroke-miterlimit="10" d="M337.146,275.694" />
<path fill="none" stroke="#000000" stroke-miterlimit="10" d="M337.146,271.202" />
<polygon fill="#FFFFFF" stroke="#000000" stroke-miterlimit="10" points="311.726,296.579 324.876,301.071 311.726,305.563 " />
<g>
	<polygon fill="#1D1D1B" stroke="#000000" stroke-miterlimit="10" points="338.287,296.579 325.137,301.071 338.287,305.563  " />
</g>
<path fill="none" stroke="#000000" stroke-miterlimit="10" d="M318.137,283.071" />
<polygon fill="none" stroke="#000000" stroke-miterlimit="10" points="310.585,266.709 323.735,271.201 310.585,275.694 " />
<g>
	<polygon fill="#1D1D1B" stroke="#000000" stroke-miterlimit="10" points="337.146,266.709 323.996,271.201 337.146,275.694  " />
</g>
<text transform="matrix(1.0961 0 0 1 265.7407 289.1885)" font-size="8.4734">P5</text>
<g>
	<rect x="270.183" y="227.322" fill="none" stroke="#000000" stroke-miterlimit="10" width="14.058" height="10" />
	<polygon fill="none" stroke="#000000" stroke-miterlimit="10" points="272.017,234.572 273.803,230.072 275.59,234.572  " />
	<text transform="matrix(0.9967 0 0 1 277.5576 234.5225)" font-size="7.6684">P</text>
	<text transform="matrix(1.039 0 0 1 303.5859 232.5059)" fill="#1D1D1B" font-size="7.6233">dP8</text>
</g>
<text transform="matrix(1.0961 0 0 1 265.6392 262.3311)" font-size="8.4734">P3</text>
<g>
	<g>
		<line fill="none" stroke="#000000" stroke-miterlimit="10" x1="52.465" y1="121.156" x2="61.741" y2="113.33" />
		<ellipse stroke="#000000" stroke-miterlimit="10" cx="64.642" cy="110.906" rx="3.895" ry="3.251" />
	</g>
	<text transform="matrix(1.1975 0 0 1 66.0137 103.5283)" font-size="8.6454">T2</text>
</g>
<line fill="none" stroke="#000000" stroke-miterlimit="10" x1="304.405" y1="251.135" x2="345.347" y2="251.135" />
<line fill="none" stroke="#000000" stroke-miterlimit="10" x1="345.498" y1="251.135" x2="345.498" y2="301.249" />
<line fill="none" stroke="#000000" stroke-miterlimit="10" x1="345.498" y1="301.249" x2="338.287" y2="300.338" />
<line fill="none" stroke="#000000" stroke-miterlimit="10" x1="311.726" y1="301.247" x2="295.427" y2="301.247" />
<line fill="none" stroke="#000000" stroke-miterlimit="10" x1="274.553" y1="301.249" x2="256.334" y2="301.249" />
<line fill="none" stroke="#000000" stroke-miterlimit="10" x1="256.334" y1="301.249" x2="256.334" y2="251.992" />
<line fill="none" stroke="#000000" stroke-miterlimit="10" x1="256.334" y1="251.992" x2="291.056" y2="251.992" />
<line fill="none" stroke="#000000" stroke-miterlimit="10" x1="301.715" y1="93.839" x2="347.018" y2="93.828" />
<line fill="none" stroke="#000000" stroke-miterlimit="10" x1="347.018" y1="93.833" x2="347.018" y2="144.221" />
<line fill="none" stroke="#000000" stroke-miterlimit="10" x1="347.018" y1="144.221" x2="332.995" y2="144.221" />
<line fill="none" stroke="#000000" stroke-miterlimit="10" x1="306.434" y1="144.036" x2="290.135" y2="144.219" />
<line fill="none" stroke="#000000" stroke-miterlimit="10" x1="269.261" y1="144.221" x2="247.016" y2="144.221" />
<line fill="none" stroke="#000000" stroke-miterlimit="10" x1="247.016" y1="144.221" x2="247.016" y2="93.833" />
<line fill="none" stroke="#000000" stroke-miterlimit="10" x1="247.351" y1="93.833" x2="286.099" y2="93.833" />
<polygon stroke="#000000" stroke-miterlimit="10" points="501.659,332.55 492.341,329.056 501.659,325.562 " />
<polygon stroke="#000000" stroke-miterlimit="10" points="548.235,178.316 538.917,174.822 548.235,171.328 " />
<polygon stroke="#000000" stroke-miterlimit="10" points="538.917,160.115 548.235,163.609 538.917,167.104 " />
<polygon stroke="#000000" stroke-miterlimit="10" points="492.341,314.225 501.659,317.719 492.341,321.213 " />
</svg>