<svg version="1.1" id="Layer_1" xmlns="http://www.w3.org/2000/svg" xmlns:xlink="http://www.w3.org/1999/xlink" x="0px" y="0px"
     width="1400" height="700" viewBox="-30 -30 1200 600"
     enable-background="new 0 0 565 401.167" xml:space="preserve" description="Ключ A368.2 Независимое присоединение системы отопления и ГВС с управлением двумя насосами и функцией подпитки (измерение температуры первичного контура предоставляет дополнительные возможности по управлению / ограничению)" deviceId="8" internalNumber="A3682">
<line fill="none" x1="141" y1="-140" x2="141" y2="-158.976" />
<line fill="none" x1="141" y1="-133" x2="141" y2="-168.464" />
<line fill="none" x1="-198" y1="242.814" x2="-198" y2="207.352" />
<line fill="none" x1="665" y1="99.78" x2="1047.822" y2="104.78" />
<g>
	<g>
		<path fill="none" stroke="#000000" stroke-miterlimit="10" d="M86.813,46.684l9.275-7.826L86.813,46.684z" />
		<ellipse stroke="#000000" stroke-miterlimit="10" cx="98.99" cy="36.433" rx="3.895" ry="3.251" />
	</g>
	<text transform="matrix(1.1975 0 0 1 101.6011 30.7617)" font-size="8.6454">T1</text>
</g>
<g>
	<line fill="none" stroke="#000000" stroke-miterlimit="10" x1="112.57" y1="15.047" x2="112.57" y2="49.981" />
	<line fill="none" stroke="#000000" stroke-miterlimit="10" x1="119.767" y1="15.047" x2="119.767" y2="49.981" />
	<line fill="none" stroke="#000000" stroke-miterlimit="10" x1="112.57" y1="49.981" x2="119.752" y2="40.444" />
	<line fill="none" stroke="#000000" stroke-miterlimit="10" x1="117.649" y1="50.514" x2="119.752" y2="47.722" />
	<line fill="none" stroke="#000000" stroke-miterlimit="10" x1="112.57" y1="42.703" x2="119.752" y2="33.166" />
	<line fill="none" stroke="#000000" stroke-miterlimit="10" x1="112.57" y1="35.426" x2="119.752" y2="25.888" />
	<line fill="none" stroke="#000000" stroke-miterlimit="10" x1="112.57" y1="28.148" x2="119.752" y2="18.609" />
	<line fill="none" stroke="#000000" stroke-miterlimit="10" x1="112.57" y1="20.869" x2="116.568" y2="15.56" />
</g>
<g>
	<rect x="198.355" y="21.963" fill="none" stroke="#000000" stroke-miterlimit="10" width="57.979" height="24.72" />
	<rect x="198.355" y="28.34" fill="none" stroke="#000000" stroke-miterlimit="10" width="57.979" height="12.009" />
	<line fill="none" stroke="#000000" stroke-miterlimit="10" x1="220.097" y1="28.34" x2="220.097" y2="40.348" />
	<line fill="none" stroke="#000000" stroke-miterlimit="10" x1="237.698" y1="28.34" x2="237.698" y2="40.348" />
	<ellipse fill="none" stroke="#000000" stroke-miterlimit="10" cx="247.016" cy="34.328" rx="4.271" ry="3.566" />
	<ellipse fill="none" stroke="#000000" stroke-miterlimit="10" cx="247.016" cy="34.323" rx="5.823" ry="4.863" />
	<path fill="none" stroke="#000000" stroke-miterlimit="10" d="M252.839,28.437c0,0,1.844,2.647,1.844,5.701   c0,3.053-1.844,6.024-1.844,6.024" />
</g>
<text transform="matrix(1.1975 0 0 1 209.8345 17.189)" font-size="8.6454">ECL310</text>
<rect x="291.535" y="34.344" fill="none" stroke="#000000" stroke-miterlimit="10" width="14.753" height="2.091" />
<path fill="none" stroke="#000000" stroke-miterlimit="10" d="M291.535,34.344c0,0,1.491,0.039,2.212-0.972  c0.72-1.01,2.014-5.003,2.447-6.089c0.388-1.153,1.131-1.763,2.941-1.763c1.813,0,2.408,0.664,2.795,1.907  c0.388,1.242,1.597,4.539,2.027,5.691c0.431,1.153,2.329,1.225,2.329,1.225" />
<path stroke="#000000" stroke-miterlimit="10" d="M301.015,36.435c0,0.971-0.938,1.757-2.103,1.757  c-1.161,0-2.103-0.786-2.103-1.757c0,0,0.941,0,2.103,0C300.075,36.435,301.015,36.435,301.015,36.435z" />
<text transform="matrix(1.1975 0 0 1 293.5166 45.4307)" font-size="8.6454">R6</text>
<polygon stroke="#000000" stroke-miterlimit="10" points="37.059,178.316 27.741,174.822 37.059,171.328 " />
<polygon fill="none" stroke="#000000" stroke-miterlimit="10" points="97.667,169.979 110.817,174.473 97.667,178.963 " />
<polygon fill="none" stroke="#000000" stroke-miterlimit="10" points="123.967,178.963 110.817,174.471 123.967,169.979 " />
<polygon fill="none" stroke="#000000" stroke-miterlimit="10" points="88.602,171.375 97.667,174.473 88.602,177.566 " />
<polygon fill="none" stroke="#000000" stroke-miterlimit="10" points="133.032,177.566 123.967,174.471 133.032,171.375 " />
<line fill="none" stroke="#000000" stroke-miterlimit="10" x1="110.817" y1="166.02" x2="110.817" y2="174.473" />
<text transform="matrix(1.1975 0 0 1 106.6563 161.2656)" font-size="8.6454">M</text>
<line fill="none" stroke="#000000" stroke-miterlimit="10" x1="88.602" y1="174.822" x2="32.4" y2="174.822" />
<g>
	<g>
		<line fill="none" stroke="#000000" stroke-miterlimit="10" x1="171.566" y1="178.125" x2="162.291" y2="170.301" />
		<ellipse stroke="#000000" stroke-miterlimit="10" cx="159.389" cy="167.876" rx="3.895" ry="3.253" />
	</g>
	<text transform="matrix(0.9401 0 0 1 144.9463 164.623)" font-size="8.6454">T5</text>
</g>
<line fill="none" stroke="#000000" stroke-miterlimit="10" x1="548.235" y1="163.107" x2="393.062" y2="163.107" />
<line fill="none" stroke="#000000" stroke-miterlimit="10" x1="393.062" y1="163.107" x2="392.922" y2="119.33" />
<g>
	<rect x="436.588" y="119.18" fill="none" stroke="#000000" stroke-miterlimit="10" width="72.221" height="40.23" />
	<line fill="none" stroke="#000000" stroke-miterlimit="10" x1="501.899" y1="122.576" x2="501.899" y2="153.807" />
	<line fill="none" stroke="#000000" stroke-miterlimit="10" x1="489.849" y1="122.538" x2="489.849" y2="153.768" />
	<line fill="none" stroke="#000000" stroke-miterlimit="10" x1="477.892" y1="122.613" x2="477.892" y2="153.844" />
	<line fill="none" stroke="#000000" stroke-miterlimit="10" x1="465.279" y1="122.518" x2="465.279" y2="153.748" />
	<line fill="none" stroke="#000000" stroke-miterlimit="10" x1="453.322" y1="122.594" x2="453.322" y2="153.824" />
	<line fill="none" stroke="#000000" stroke-miterlimit="10" x1="441.271" y1="122.558" x2="441.271" y2="153.787" />
	<line fill="none" stroke="#000000" stroke-miterlimit="10" x1="436.588" y1="120.674" x2="436.588" y2="159.574" />
	<ellipse fill="none" stroke="#000000" stroke-miterlimit="10" cx="412.061" cy="121.482" rx="6.854" ry="6.761" />
	<polygon stroke="#000000" stroke-miterlimit="10" points="407.346,125.182 412.061,118.004 416.773,125.182  " />
	<line fill="none" stroke="#000000" stroke-miterlimit="10" x1="412.061" y1="163.107" x2="412.061" y2="128.696" />
	<line fill="none" stroke="#000000" stroke-miterlimit="10" x1="418.915" y1="120.732" x2="436.588" y2="120.674" />
	<line fill="none" stroke="#000000" stroke-miterlimit="10" x1="508.809" y1="155.986" x2="513.747" y2="155.986" />
	<line fill="none" stroke="#000000" stroke-miterlimit="10" x1="513.332" y1="155.986" x2="513.332" y2="159.23" />
</g>
<line fill="none" stroke="#000000" stroke-miterlimit="10" x1="166.843" y1="174.471" x2="133.032" y2="174.822" />
<path fill="none" stroke="#000000" stroke-miterlimit="10" d="M144.949,173.732" />
<polygon stroke="#000000" stroke-miterlimit="10" points="27.741,115.836 37.059,119.33 27.741,122.824 " />
<text transform="matrix(1.1975 0 0 1 104.2422 144.4629)" font-size="8.6454">M2</text>
<ellipse fill="none" stroke="#000000" stroke-miterlimit="10" cx="110.817" cy="158.138" rx="9.059" ry="8.759" />
<g>
	<line fill="none" stroke="#000000" stroke-miterlimit="10" x1="166.843" y1="119.33" x2="23.306" y2="119.33" />
</g>
<g>
	<g>
		<line fill="none" stroke="#000000" stroke-miterlimit="10" x1="214.323" y1="126.08" x2="223.599" y2="118.254" />
		<ellipse stroke="#000000" stroke-miterlimit="10" cx="226.5" cy="115.83" rx="3.895" ry="3.251" />
	</g>
	<text transform="matrix(1.1975 0 0 1 227.8721 108.4521)" font-size="8.6454">T3</text>
</g>
<line fill="none" stroke="#000000" stroke-miterlimit="10" x1="392.969" y1="119.33" x2="345.931" y2="119.33" />
<line fill="none" x1="71.743" y1="111.128" x2="71.743" y2="158.137" />
<line stroke="#000000" stroke-miterlimit="10" x1="71.949" y1="119.33" x2="71.949" y2="169.596" />
<text transform="matrix(1.0961 0 0 1 260.4487 97.4404)" font-size="8.4734">P3</text>
<path fill="#1D1D1B" stroke="#000000" stroke-miterlimit="10" d="M140.456,160.635" />
<path fill="none" stroke="#000000" stroke-miterlimit="10" d="M140.456,132.16" />
<path fill="none" stroke="#000000" stroke-miterlimit="10" d="M144.949,119.702" />
<line fill="none" stroke="#000000" stroke-miterlimit="10" x1="513.747" y1="167.957" x2="513.747" y2="173.732" />
<line fill="none" stroke="#000000" stroke-miterlimit="10" x1="16.765" y1="119.33" x2="23.306" y2="119.33" />
<line fill="none" stroke="#000000" stroke-miterlimit="10" x1="16.965" y1="174.822" x2="27.741" y2="174.822" />
<g>
	<rect x="166.579" y="116.549" fill="none" stroke="#000000" stroke-miterlimit="10" width="53.146" height="63.399" />
	<g>
		<line fill="none" stroke="#000000" stroke-miterlimit="10" x1="166.579" y1="179.947" x2="219.726" y2="116.548" />
	</g>
</g>
<line fill="none" stroke="#000000" stroke-miterlimit="10" x1="245.515" y1="120.46" x2="220.226" y2="120.567" />
<line fill="none" stroke="#000000" stroke-miterlimit="10" x1="218.961" y1="174.822" x2="548.235" y2="174.822" />
<line fill="none" x1="275.763" y1="144.221" x2="270.264" y2="144.221" />
<line fill="none" x1="281.592" y1="144.043" x2="280.811" y2="144.043" />
<line fill="none" stroke="#000000" stroke-miterlimit="10" x1="288.438" y1="76.594" x2="301.014" y2="85.22" />
<line fill="none" x1="270.264" y1="144.221" x2="269.261" y2="144.221" />
<line fill="none" stroke="#000000" stroke-miterlimit="10" x1="332.852" y1="104.14" x2="345.931" y2="104.14" />
<line fill="none" x1="319.701" y1="104.14" x2="332.852" y2="104.14" />
<line fill="none" stroke="#000000" stroke-miterlimit="10" x1="290.135" y1="104.14" x2="305.701" y2="104.14" />
<g>
	<g>
		<ellipse fill="none" stroke="#000000" stroke-miterlimit="10" cx="279.97" cy="104.139" rx="10.437" ry="10.437" />
		<polygon stroke="#000000" stroke-miterlimit="10" points="282.104,100.329 288.703,104.139 282.104,107.95   " />
	</g>
	<line fill="none" x1="277.264" y1="104.14" x2="280.764" y2="104.14" />
	<line fill="none" x1="271.014" y1="104.14" x2="277.264" y2="104.14" />
</g>
<line fill="none" x1="269.261" y1="104.14" x2="271.014" y2="104.14" />
<line fill="none" stroke="#000000" stroke-miterlimit="10" x1="245.515" y1="104.14" x2="269.261" y2="104.14" />
<g>
	<line fill="none" x1="280.764" y1="144.221" x2="275.763" y2="144.221" />
	<path fill="none" stroke="#000000" stroke-miterlimit="10" d="M269.26,144.219c0-5.763,4.672-10.437,10.437-10.437   c5.764,0,10.438,4.674,10.438,10.437" />
	<path fill="none" stroke="#000000" stroke-miterlimit="10" d="M290.135,144.219c0,5.767-4.674,10.438-10.438,10.438   c-5.765,0-10.437-4.672-10.437-10.438" />
</g>
<polyline stroke="#000000" stroke-miterlimit="10" points="281.831,144.221 281.831,140.557 288.43,144.219 " />
<polyline stroke="#000000" stroke-miterlimit="10" points="288.43,144.219 281.831,147.883 281.831,144.221 " />
<path fill="none" stroke="#000000" stroke-miterlimit="10" d="M379.41,144.221" />
<path fill="none" stroke="#000000" stroke-miterlimit="10" d="M245.514,144.221" />
<path fill="none" stroke="#000000" stroke-miterlimit="10" d="M332.852,99.647" />
<path fill="none" stroke="#000000" stroke-miterlimit="10" d="M319.702,104.139" />
<path fill="none" stroke="#000000" stroke-miterlimit="10" d="M332.852,108.632" />
<path fill="none" stroke="#000000" stroke-miterlimit="10" d="M332.852,104.14" />
<path fill="none" stroke="#000000" stroke-miterlimit="10" d="M332.852,99.647" />
<path fill="none" stroke="#000000" stroke-miterlimit="10" d="M332.852,108.632" />
<path fill="none" stroke="#000000" stroke-miterlimit="10" d="M332.852,104.14" />
<polygon stroke="#000000" stroke-miterlimit="10" points="306.434,139.551 319.584,144.043 306.434,148.535 " />
<g>
	<polygon fill="#FFFFFF" stroke="#000000" stroke-miterlimit="10" points="332.995,139.551 319.845,144.043 332.995,148.535  " />
</g>
<path fill="none" stroke="#000000" stroke-miterlimit="10" d="M312.845,126.042" />
<polygon fill="none" stroke="#000000" stroke-miterlimit="10" points="97.34,289.92 110.49,294.412 97.34,298.904 " />
<polygon fill="none" stroke="#000000" stroke-miterlimit="10" points="123.64,298.904 110.49,294.412 123.64,289.92 " />
<polygon fill="none" stroke="#000000" stroke-miterlimit="10" points="88.274,291.316 97.34,294.412 88.274,297.51 " />
<polygon fill="none" stroke="#000000" stroke-miterlimit="10" points="132.705,297.51 123.64,294.412 132.705,291.316 " />
<ellipse fill="none" stroke="#000000" stroke-miterlimit="10" cx="110.49" cy="276.512" rx="9.348" ry="9.348" />
<line fill="none" stroke="#000000" stroke-miterlimit="10" x1="110.49" y1="285.963" x2="110.49" y2="294.412" />
<text transform="matrix(1.1975 0 0 1 106.3291 281.207)" font-size="8.6454">M</text>
<line fill="none" stroke="#000000" stroke-miterlimit="10" x1="88.274" y1="294.275" x2="54.969" y2="294.275" />
<text transform="matrix(1.1975 0 0 1 103.6738 263.3359)" font-size="8.6454">M1</text>
<g>
	<line fill="none" stroke="#000000" stroke-miterlimit="10" x1="213.488" y1="253.816" x2="222.765" y2="245.992" />
	<ellipse stroke="#000000" stroke-miterlimit="10" cx="225.666" cy="243.567" rx="3.895" ry="3.251" />
	<text transform="matrix(1.1975 0 0 1 228.2773 237.8955)" font-size="8.6454">T4</text>
</g>
<g>
	<line fill="none" stroke="#000000" stroke-miterlimit="10" x1="166.516" y1="242.264" x2="71.416" y2="242.264" />
</g>
<g>
	<rect x="166.252" y="237.797" fill="none" stroke="#000000" stroke-miterlimit="10" width="53.146" height="63.4" />
	<g>
		<line fill="none" stroke="#000000" stroke-miterlimit="10" x1="166.252" y1="301.197" x2="219.398" y2="237.795" />
	</g>
</g>
<g>
	<line fill="none" stroke="#000000" stroke-miterlimit="10" x1="173.718" y1="300.088" x2="164.443" y2="292.262" />
	<ellipse stroke="#000000" stroke-miterlimit="10" cx="161.542" cy="289.837" rx="3.895" ry="3.251" />
	<text transform="matrix(1.1975 0 0 1 148.4751 284.166)" font-size="8.6454">T6</text>
</g>
<path fill="none" stroke="#000000" stroke-miterlimit="10" d="M218.535,249.6" />
<g>
	<path fill="none" stroke="#000000" stroke-miterlimit="10" d="M365.139,239.346" />
</g>
<path fill="none" stroke="#000000" stroke-miterlimit="10" d="M504.875,253.422" />
<path fill="none" stroke="#000000" stroke-miterlimit="10" d="M392.152,249.6" />
<path fill="none" stroke="#000000" stroke-miterlimit="10" d="M219.398,296.064" />
<path fill="none" stroke="#000000" stroke-miterlimit="10" d="M392.198,249.6" />
<g>
	<path fill="none" stroke="#000000" stroke-miterlimit="10" d="M432.318,240.518" />
</g>
<line fill="none" stroke="#000000" stroke-miterlimit="10" x1="166.252" y1="294.412" x2="132.705" y2="294.412" />
<line fill="#1D1D1B" stroke="#000000" stroke-miterlimit="10" x1="54.969" y1="174.074" x2="54.969" y2="294.275" />
<line fill="none" x1="71.416" y1="211.502" x2="71.416" y2="242.264" />
<line fill="none" x1="71.416" y1="242.264" x2="71.416" y2="273.025" />
<line fill="none" x1="71.416" y1="258.67" x2="71.416" y2="222.775" />
<line fill="none" x1="71.416" y1="239.9" x2="71.416" y2="213.904" />
<line fill="none" x1="71.416" y1="237.439" x2="71.416" y2="206.777" />
<line fill="none" x1="71.416" y1="206.777" x2="71.416" y2="231.697" />
<line fill="none" stroke="#000000" stroke-miterlimit="10" x1="71.416" y1="178.416" x2="71.416" y2="242.264" />
<line fill="none" stroke="#000000" stroke-miterlimit="10" x1="218.535" y1="242.264" x2="484.438" y2="242.264" />
<line fill="none" stroke="#000000" stroke-miterlimit="10" x1="238.256" y1="292.846" x2="238.256" y2="352.934" />
<line fill="none" stroke="#000000" stroke-miterlimit="10" x1="238.256" y1="352.934" x2="274.413" y2="352.934" />
<line fill="none" stroke="#000000" stroke-miterlimit="10" x1="300.833" y1="352.934" x2="353.533" y2="352.934" />
<polygon stroke="#000000" stroke-miterlimit="10" points="362.852,356.426 353.533,352.934 362.852,349.439 " />
<g>
	<polygon fill="#1D1D1B" stroke="#000000" stroke-miterlimit="10" points="135.194,202.285 148.345,206.777 135.194,211.27  " />
	<g>
		<polygon fill="none" stroke="#000000" stroke-miterlimit="10" points="161.756,202.285 148.605,206.777 161.756,211.27   " />
	</g>
</g>
<polygon stroke="#000000" stroke-miterlimit="10" points="306.29,99.647 319.44,104.14 306.29,108.633 " />
<g>
	<polygon fill="none" stroke="#000000" stroke-miterlimit="10" points="332.852,99.647 319.701,104.14 332.852,108.633  " />
</g>
<text transform="matrix(1.0961 0 0 1 260.4487 132.1602)" font-size="8.4734">P5</text>
<rect x="265.639" y="65.294" fill="none" stroke="#000000" stroke-miterlimit="10" width="14.058" height="10" />
<polygon fill="none" stroke="#000000" stroke-miterlimit="10" points="267.474,72.544 269.26,68.044 271.046,72.544 " />
<text transform="matrix(0.9967 0 0 1 273.0142 72.4951)" font-size="7.6684">P</text>
<text transform="matrix(1.039 0 0 1 299.043 70.4785)" font-size="7.6233">dP7</text>
<line fill="none" stroke="#000000" stroke-miterlimit="10" x1="79.5" y1="174.822" x2="79.5" y2="206.777" />
<line fill="none" stroke="#000000" stroke-miterlimit="10" x1="79.5" y1="206.777" x2="96.087" y2="206.777" />
<line fill="none" stroke="#000000" stroke-miterlimit="10" x1="117.093" y1="206.776" x2="135.054" y2="206.777" />
<g>
	<g>
		<ellipse fill="none" stroke="#000000" stroke-miterlimit="10" cx="106.657" cy="206.777" rx="10.437" ry="10.437" />
		<polygon stroke="#000000" stroke-miterlimit="10" points="108.79,202.967 115.389,206.776 108.79,210.588   " />
	</g>
	<line fill="none" x1="103.95" y1="206.777" x2="107.45" y2="206.777" />
	<line fill="none" x1="97.7" y1="206.777" x2="103.95" y2="206.777" />
</g>
<line fill="none" stroke="#000000" stroke-miterlimit="10" x1="162.291" y1="206.776" x2="177" y2="206.777" />
<g>
	<polygon stroke="#000000" stroke-miterlimit="10" points="177,202.285 190.15,206.777 177,211.27  " />
	<g>
		<polygon stroke="#000000" stroke-miterlimit="10" points="203.562,202.285 190.411,206.777 203.562,211.27   " />
	</g>
</g>
<line fill="none" stroke="#000000" stroke-miterlimit="10" x1="203.562" y1="206.777" x2="232.87" y2="206.777" />
<line fill="none" stroke="#000000" stroke-miterlimit="10" x1="232.87" y1="206.777" x2="232.87" y2="174.213" />
<line fill="none" stroke="#000000" stroke-miterlimit="10" x1="190.15" y1="200.584" x2="190.15" y2="206.777" />
<rect x="185.106" y="190.495" fill="none" stroke="#000000" stroke-miterlimit="10" width="10.088" height="10.088" />
<text transform="matrix(1.0961 0 0 1 101.7583 195.5391)" font-size="8.4734">P4</text>
<text transform="matrix(1.3219 0 0 1 207 194.6797)" font-size="7.4361">V1</text>
<line fill="none" stroke="#000000" stroke-miterlimit="10" x1="256.334" y1="163.107" x2="256.334" y2="174.822" />
<circle fill="none" stroke="#000000" stroke-miterlimit="10" cx="256.334" cy="160.609" r="3" />
<text transform="matrix(1.4894 0 0 1 248.7324 155.832)" font-size="5.8262">S10</text>
<path fill="none" stroke="#000000" stroke-miterlimit="10" d="M396.952,253.412" />
<path fill="none" stroke="#000000" stroke-miterlimit="10" d="M372.425,251.173" />
<path stroke="#000000" stroke-miterlimit="10" d="M372.425,252.396" />
<path fill="none" stroke="#000000" stroke-miterlimit="10" d="M435.71,254.641" />
<path fill="none" stroke="#000000" stroke-miterlimit="10" d="M435.71,254.641" />
<path fill="none" stroke="#000000" stroke-miterlimit="10" d="M408.412,251.173" />
<path stroke="#000000" stroke-miterlimit="10" d="M408.412,252.396" />
<path fill="none" stroke="#000000" stroke-miterlimit="10" d="M443.019,252.401" />
<path stroke="#000000" stroke-miterlimit="10" d="M443.019,253.624" />
<line fill="none" stroke="#000000" stroke-miterlimit="10" x1="376.03" y1="242.254" x2="376.029" y2="257.635" />
<line fill="none" stroke="#000000" stroke-miterlimit="10" x1="375.445" y1="257.279" x2="383.272" y2="257.279" />
<ellipse stroke="#000000" stroke-miterlimit="10" cx="390.979" cy="257.032" rx="1.645" ry="2.432" />
<rect x="390.721" y="249.941" stroke="#000000" stroke-miterlimit="10" width="0.518" height="4.661" />
<rect x="386.695" y="247.308" fill="#1D1D1B" stroke="#1D1D1B" stroke-miterlimit="10" width="8.568" height="2.634" />
<path stroke="#000000" stroke-miterlimit="10" d="M399.696,264.572c0,0-0.201-5.79-8.976-5.894c0-2.702,0-2.702,0-2.702  c12.458,0.289,10.563,8.596,10.563,8.596C400.461,264.572,399.696,264.572,399.696,264.572z" />
<rect x="382.756" y="255.977" stroke="#000000" stroke-miterlimit="10" width="7.965" height="2.678" />
<path fill="none" stroke="#000000" stroke-miterlimit="10" d="M433.707,253.937" />
<path fill="none" stroke="#000000" stroke-miterlimit="10" d="M470.648,255.491" />
<path fill="none" stroke="#000000" stroke-miterlimit="10" d="M470.648,255.491" />
<path fill="none" stroke="#000000" stroke-miterlimit="10" d="M468.646,254.787" />
<g>
	<line fill="none" stroke="#000000" stroke-miterlimit="10" x1="410.012" y1="242.777" x2="410.011" y2="258.158" />
	<line fill="none" stroke="#000000" stroke-miterlimit="10" x1="409.427" y1="257.803" x2="417.254" y2="257.803" />
	<g>
		<ellipse stroke="#000000" stroke-miterlimit="10" cx="424.961" cy="257.556" rx="1.645" ry="2.432" />
		<rect x="424.702" y="250.465" stroke="#000000" stroke-miterlimit="10" width="0.518" height="4.661" />
		<rect x="420.677" y="247.831" fill="#1D1D1B" stroke="#1D1D1B" stroke-miterlimit="10" width="8.568" height="2.634" />
		<path stroke="#000000" stroke-miterlimit="10" d="M433.678,265.096c0,0-0.201-5.79-8.976-5.894c0-2.702,0-2.702,0-2.702    c12.458,0.289,10.563,8.596,10.563,8.596C434.442,265.096,433.678,265.096,433.678,265.096z" />
		<rect x="416.737" y="256.5" stroke="#000000" stroke-miterlimit="10" width="7.965" height="2.678" />
	</g>
</g>
<g>
	<line fill="none" stroke="#000000" stroke-miterlimit="10" x1="443.874" y1="243.061" x2="443.873" y2="258.441" />
	<line fill="none" stroke="#000000" stroke-miterlimit="10" x1="443.289" y1="258.086" x2="451.116" y2="258.086" />
	<g>
		<ellipse stroke="#000000" stroke-miterlimit="10" cx="458.823" cy="257.839" rx="1.645" ry="2.432" />
		<rect x="458.564" y="250.748" stroke="#000000" stroke-miterlimit="10" width="0.518" height="4.661" />
		<rect x="454.539" y="248.114" fill="#1D1D1B" stroke="#1D1D1B" stroke-miterlimit="10" width="8.568" height="2.634" />
		<path stroke="#000000" stroke-miterlimit="10" d="M467.54,265.379c0,0-0.201-5.79-8.976-5.894c0-2.702,0-2.702,0-2.702    c12.458,0.289,10.563,8.596,10.563,8.596C468.305,265.379,467.54,265.379,467.54,265.379z" />
		<rect x="450.6" y="256.783" stroke="#000000" stroke-miterlimit="10" width="7.965" height="2.678" />
	</g>
</g>
<line fill="none" stroke="#000000" stroke-miterlimit="10" x1="293.042" y1="268.875" x2="305.618" y2="277.501" />
<path fill="none" stroke="#000000" stroke-miterlimit="10" d="M324.616,302.882" />
<line fill="none" x1="282.677" y1="293.088" x2="295.827" y2="293.088" />
<line fill="none" stroke="#000000" stroke-miterlimit="10" x1="311.982" y1="293.088" x2="296.416" y2="293.088" />
<g>
	<g>
		<ellipse fill="none" stroke="#000000" stroke-miterlimit="10" cx="322.146" cy="293.087" rx="10.437" ry="10.437" />
		<polygon stroke="#000000" stroke-miterlimit="10" points="320.014,289.277 313.414,293.087 320.014,296.898   " />
	</g>
	<line fill="none" x1="324.854" y1="293.088" x2="321.354" y2="293.088" />
	<line fill="none" x1="331.104" y1="293.088" x2="324.854" y2="293.088" />
</g>
<path fill="none" stroke="#000000" stroke-miterlimit="10" d="M269.266,288.595" />
<path fill="none" stroke="#000000" stroke-miterlimit="10" d="M282.678,293.087" />
<path fill="none" stroke="#000000" stroke-miterlimit="10" d="M269.266,297.581" />
<path fill="none" stroke="#000000" stroke-miterlimit="10" d="M269.266,293.089" />
<path fill="none" stroke="#000000" stroke-miterlimit="10" d="M269.266,288.595" />
<path fill="none" stroke="#000000" stroke-miterlimit="10" d="M269.266,297.581" />
<path fill="none" stroke="#000000" stroke-miterlimit="10" d="M269.266,293.089" />
<polygon stroke="#000000" stroke-miterlimit="10" points="269.266,288.596 282.416,293.088 269.266,297.581 " />
<g>
	<polygon fill="none" stroke="#000000" stroke-miterlimit="10" points="295.827,288.596 282.677,293.088 295.827,297.581  " />
</g>
<line fill="none" stroke="#000000" stroke-miterlimit="10" x1="219.726" y1="292.846" x2="269.266" y2="293.089" />
<line fill="none" stroke="#000000" stroke-miterlimit="10" x1="332.584" y1="293.087" x2="345.12" y2="292.846" />
<path fill="none" stroke="#000000" stroke-miterlimit="10" d="M336.266,302.595" />
<path fill="none" stroke="#000000" stroke-miterlimit="10" d="M336.266,311.581" />
<path fill="none" stroke="#000000" stroke-miterlimit="10" d="M336.266,307.089" />
<path fill="none" stroke="#000000" stroke-miterlimit="10" d="M336.266,302.595" />
<path fill="none" stroke="#000000" stroke-miterlimit="10" d="M336.266,311.581" />
<path fill="none" stroke="#000000" stroke-miterlimit="10" d="M336.266,307.089" />
<line fill="none" x1="282.929" y1="319.471" x2="296.079" y2="319.471" />
<line fill="none" stroke="#000000" stroke-miterlimit="10" x1="312.234" y1="319.471" x2="296.668" y2="319.471" />
<g>
	<g>
		<ellipse fill="none" stroke="#000000" stroke-miterlimit="10" cx="322.398" cy="319.47" rx="10.437" ry="10.437" />
		<polygon stroke="#000000" stroke-miterlimit="10" points="320.266,315.66 313.666,319.47 320.266,323.281   " />
	</g>
	<line fill="none" x1="325.105" y1="319.471" x2="321.605" y2="319.471" />
	<line fill="none" x1="331.355" y1="319.471" x2="325.105" y2="319.471" />
</g>
<path fill="none" stroke="#000000" stroke-miterlimit="10" d="M282.93,319.47" />
<polygon stroke="#000000" stroke-miterlimit="10" points="269.518,314.979 282.668,319.471 269.518,323.964 " />
<g>
	<polygon fill="none" stroke="#000000" stroke-miterlimit="10" points="296.079,314.979 282.929,319.471 296.079,323.964  " />
</g>
<line fill="none" stroke="#000000" stroke-miterlimit="10" x1="332.836" y1="319.47" x2="345.372" y2="319.229" />
<line fill="none" stroke="#000000" stroke-miterlimit="10" x1="269.266" y1="319.471" x2="260.449" y2="319.471" />
<line fill="none" stroke="#000000" stroke-miterlimit="10" x1="260.449" y1="319.471" x2="260.449" y2="277.501" />
<line fill="none" stroke="#000000" stroke-miterlimit="10" x1="260.449" y1="277.501" x2="293.042" y2="277.501" />
<line fill="none" stroke="#000000" stroke-miterlimit="10" x1="305.618" y1="277.501" x2="345.12" y2="277.501" />
<line fill="none" stroke="#000000" stroke-miterlimit="10" x1="345.12" y1="277.501" x2="345.372" y2="319.229" />
<text transform="matrix(1.0961 0 0 1 332.8359 285.1602)" font-size="8.4734">P1</text>
<text transform="matrix(1.0961 0 0 1 332.584 309.4375)" font-size="8.4734">P2</text>
<line fill="none" x1="484.438" y1="242.264" x2="484.438" y2="293.089" />
<line fill="none" stroke="#000000" stroke-miterlimit="10" x1="345.12" y1="292.846" x2="484.438" y2="293.089" />
<line fill="none" stroke="#000000" stroke-miterlimit="10" x1="484.438" y1="242.264" x2="484.438" y2="293.089" />
<rect x="273.433" y="259.572" fill="none" stroke="#000000" stroke-miterlimit="10" width="14.059" height="10" />
<polygon fill="none" stroke="#000000" stroke-miterlimit="10" points="275.268,266.822 277.054,262.322 278.841,266.822 " />
<text transform="matrix(0.9967 0 0 1 280.8081 266.7725)" font-size="7.6684">P</text>
<text transform="matrix(1.039 0 0 1 306.8369 264.7559)" font-size="7.6233">dP8</text>
<line fill="none" x1="365.139" y1="20.869" x2="365.139" y2="11.833" />
<line fill="none" stroke="#000000" stroke-width="0.5" stroke-miterlimit="10" x1="365.139" y1="15.047" x2="385.173" y2="15.047" />
<line fill="none" stroke="#000000" stroke-width="0.5" stroke-miterlimit="10" x1="365.139" y1="15.047" x2="365.139" y2="20.869" />
<circle fill="#1D1D1B" stroke="#1D1D1B" stroke-miterlimit="10" cx="365.139" cy="20.869" r="1" />
<line fill="none" x1="365.139" y1="27.891" x2="365.139" y2="36.926" />
<line fill="none" stroke="#000000" stroke-width="0.5" stroke-miterlimit="10" x1="365.139" y1="33.713" x2="385.173" y2="33.713" />
<line fill="none" stroke="#000000" stroke-width="0.5" stroke-miterlimit="10" x1="365.139" y1="33.713" x2="365.139" y2="27.891" />
<circle fill="#1D1D1B" stroke="#1D1D1B" stroke-miterlimit="10" cx="365.139" cy="27.891" r="1" />
<line fill="none" stroke="#000000" stroke-miterlimit="10" x1="361" y1="19.869" x2="361" y2="28.891" />
<text transform="matrix(1.039 0 0 1 362.21 42.9785)" font-size="7.6233">S9</text>
<line fill="none" x1="287.621" y1="352.934" x2="300.771" y2="352.934" />
<path fill="none" stroke="#000000" stroke-miterlimit="10" d="M287.622,352.933" />
<polygon stroke="#000000" stroke-miterlimit="10" points="274.21,348.441 287.36,352.934 274.21,357.427 " />
<g>
	<polygon fill="none" stroke="#000000" stroke-miterlimit="10" points="300.771,348.441 287.621,352.934 300.771,357.427  " />
</g>
<g>
	<g>
		<line fill="none" stroke="#000000" stroke-miterlimit="10" x1="46.933" y1="121.393" x2="56.209" y2="113.567" />
		<ellipse stroke="#000000" stroke-miterlimit="10" cx="59.11" cy="111.144" rx="3.895" ry="3.251" />
	</g>
	<text transform="matrix(1.1975 0 0 1 60.4819 103.7646)" font-size="8.6454">T2</text>
</g>
<line fill="none" stroke="#000000" stroke-miterlimit="10" x1="301.014" y1="85.22" x2="345.931" y2="85.22" />
<line fill="none" stroke="#000000" stroke-miterlimit="10" x1="345.372" y1="143.672" x2="332.995" y2="143.672" />
<line fill="none" stroke="#000000" stroke-miterlimit="10" x1="306.29" y1="143.672" x2="290.135" y2="143.672" />
<line fill="none" stroke="#000000" stroke-miterlimit="10" x1="345.931" y1="85.22" x2="345.931" y2="144.221" />
<polygon stroke="#000000" stroke-miterlimit="10" points="538.917,159.613 548.235,163.107 538.917,166.602 " />
<polygon stroke="#000000" stroke-miterlimit="10" points="548.235,178.316 538.917,174.822 548.235,171.328 " />
<line fill="none" stroke="#000000" stroke-miterlimit="10" x1="269.261" y1="144.221" x2="245.515" y2="144.221" />
<line fill="none" stroke="#000000" stroke-miterlimit="10" x1="245.515" y1="144.221" x2="245.515" y2="85.22" />
<line fill="none" stroke="#000000" stroke-miterlimit="10" x1="244.733" y1="85.22" x2="284.982" y2="85.22" />
</svg>