<svg version="1.1" xmlns="http://www.w3.org/2000/svg" xmlns:xlink="http://www.w3.org/1999/xlink" x="0px" y="0px" viewBox="0 0 1200 600" style="enable-background:new 0 0 1200 600;" xml:space="preserve" width="1200" height="600">
<style type="text/css">
	.st0{fill:none;stroke:#1D71B8;stroke-width:2;stroke-miterlimit:10;}
	.st1{fill:#1D71B8;stroke:#1D71B8;stroke-width:2;stroke-miterlimit:10;}
	.st2{fill:none;stroke:#BE1622;stroke-width:2;stroke-miterlimit:10;}
	.st3{fill:none;stroke:#000000;stroke-miterlimit:10;}
	.st4{fill:none;stroke:#050505;stroke-width:2;stroke-miterlimit:10;}
	.st5{fill:none;stroke:#050505;stroke-width:4.0927;stroke-miterlimit:10;}
	.st6{fill:none;stroke:#020202;stroke-miterlimit:10;}
	.st7{fill:none;stroke:#020202;stroke-width:0.5;stroke-miterlimit:10;}
	.st8{fill:#BE1622;stroke:#BE1622;stroke-width:2;stroke-miterlimit:10;}
	.st9{fill:#BE1622;stroke:#BE1622;stroke-width:1.4534;stroke-miterlimit:10;}
	.st10{fill:#1D71B8;stroke:#1D71B8;stroke-width:1.4534;stroke-miterlimit:10;}
	.st11{fill:none;stroke:#050505;stroke-width:0.5;stroke-miterlimit:10;}
	.st13{font-size:12px;}
	.st14{fill:#BE1622;}
	.st15{fill:#1D71B8;}
	.st16{fill:#117A14;}
</style><script />
<g id="MainLayer">
	<line class="st0" x1="354.9" y1="194.2" x2="981" y2="194.2" />
	<ellipse class="st1" cx="896.5" cy="194.3" rx="1.9" ry="1.9" />
	<line class="st2" x1="354.1" y1="138.6" x2="699.7" y2="138.6" />
	<g>
		<rect x="280.6" y="120.2" class="st3" width="73.8" height="92.5" />
		<g>
			<line class="st3" x1="280.6" y1="212.6" x2="354.4" y2="120.2" />
		</g>
	</g>
	<line class="st2" x1="10" y1="138.1" x2="280" y2="138.1" />
	<g>
		<line class="st4" x1="347" y1="147.7" x2="362.7" y2="126" />
		
			<ellipse transform="matrix(0.9983 -5.872202e-02 5.872202e-02 0.9983 -6.672 21.6368)" class="st5" cx="364.8" cy="124.3" rx="3.1" ry="3.1" />
	</g>
	<g>
		<line class="st6" x1="773.6" y1="83.8" x2="773.6" y2="137.8" />
		<line class="st6" x1="773.2" y1="83.8" x2="863.2" y2="83.8" />
		<line class="st6" x1="773.2" y1="137.4" x2="862.8" y2="137.4" />
		<line class="st6" x1="863.4" y1="83.6" x2="863.4" y2="137.6" />
		<line class="st7" x1="784" y1="90.6" x2="784" y2="129.4" />
		<line class="st7" x1="796" y1="90.6" x2="796" y2="129.4" />
		<line class="st7" x1="790" y1="90.6" x2="790" y2="129.4" />
		<line class="st7" x1="802" y1="90.6" x2="802" y2="129.4" />
		<line class="st7" x1="808" y1="90.6" x2="808" y2="129.4" />
		<line class="st7" x1="814" y1="90.6" x2="814" y2="129.4" />
		<line class="st7" x1="820" y1="90.6" x2="820" y2="129.4" />
		<line class="st7" x1="826" y1="90.6" x2="826" y2="129.4" />
		<line class="st7" x1="832" y1="90.6" x2="832" y2="129.4" />
		<line class="st7" x1="838" y1="90.6" x2="838" y2="129.4" />
		<line class="st7" x1="844" y1="90.6" x2="844" y2="129.4" />
		<line class="st7" x1="850" y1="90.6" x2="850" y2="129.4" />
		<line class="st7" x1="856" y1="90.6" x2="856" y2="129.4" />
	</g>
	<line class="st2" x1="698.9" y1="167.5" x2="698.9" y2="137.3" />
	<line class="st2" x1="698.7" y1="167.1" x2="980.8" y2="167.1" />
	<line class="st2" x1="747.9" y1="166.1" x2="747.9" y2="94.8" />
	<ellipse class="st8" cx="748.3" cy="167.3" rx="1.9" ry="1.9" />
	<line class="st2" x1="746.8" y1="94.9" x2="772.9" y2="94.9" />
	<line class="st0" x1="864" y1="124.7" x2="897.5" y2="124.7" />
	<line class="st0" x1="897.3" y1="160" x2="897.3" y2="124" />
	<line class="st0" x1="896.9" y1="194" x2="896.9" y2="171.5" />
	<polygon class="st9" points="45.2,138.8 32.1,148.3 32.1,129.3  " />
	<line class="st0" x1="142.7" y1="192" x2="280.5" y2="192" />
	<g>
		<line class="st4" x1="289.6" y1="197.9" x2="268" y2="182.2" />
		
			<ellipse transform="matrix(0.9983 -5.872202e-02 5.872202e-02 0.9983 -10.1163 15.9491)" class="st5" cx="266.3" cy="180.1" rx="3.1" ry="3.1" />
	</g>
	<line class="st0" x1="12" y1="192" x2="146" y2="192" />
	<polygon class="st10" points="29.6,191.3 42.7,181.8 42.7,200.8  " />
	<g>
		<line class="st4" x1="81.7" y1="56.7" x2="97.3" y2="35" />
		
			<ellipse transform="matrix(0.9983 -5.872202e-02 5.872202e-02 0.9983 -1.7862 5.8989)" class="st5" cx="99.5" cy="33.3" rx="3.1" ry="3.1" />
	</g>
	<line class="st11" x1="114" y1="10.3" x2="114" y2="75" />
	<line class="st11" x1="123" y1="9.7" x2="123" y2="74.3" />
	<line class="st11" x1="122.7" y1="9.7" x2="114.7" y2="20.3" />
	<line class="st11" x1="122.7" y1="17.7" x2="114.7" y2="28.3" />
	<line class="st11" x1="122.3" y1="27" x2="114.3" y2="37.7" />
	<line class="st11" x1="122.7" y1="36" x2="114.7" y2="46.7" />
	<line class="st11" x1="122.7" y1="46" x2="114.7" y2="56.7" />
	<line class="st11" x1="122.7" y1="54.7" x2="114.7" y2="65.3" />
	<line class="st11" x1="122.3" y1="64" x2="114.3" y2="74.7" />
	<text transform="matrix(1 0 0 1 75.6665 72.6665)" class="st12 st13">S1</text>
	<g>
		<line class="st4" x1="420.1" y1="45.9" x2="398.5" y2="30.2" />
		
			<ellipse transform="matrix(0.9983 -5.872202e-02 5.872202e-02 0.9983 -0.9653 23.35)" class="st5" cx="396.8" cy="28.1" rx="3.1" ry="3.1" />
	</g>
</g>
<text transform="matrix(1 0 0 1 423.5 34)" class="st12 st13" data-core-parameter="Monitoring.Temper.IndoorAir" id="Monitoring.Temper.IndoorAir">S2</text>
<text transform="matrix(1 0 0 1 53 21)" class="st12 st13" data-core-parameter="Monitoring.Temper.OutdoorAir" id="Monitoring.Temper.OutdoorAir">Tout</text>
<text transform="matrix(1 0 0 1 366 92)" class="st14 st12 st13" data-core-parameter="Monitoring.Temper.SupplyPipe" id="Monitoring.Temper.SupplyPipe">T3</text>
<text transform="matrix(1 0 0 1 218 157)" class="st15 st12 st13" data-core-parameter="Monitoring.Temper.ReturnPipe" id="Monitoring.Temper.ReturnPipe">T5</text>
<text transform="matrix(1 0 0 1 366 111)" class="st16 st12 st13" data-core-parameter="Monitoring.Temper.CalcSupplyPipe" id="Monitoring.Temper.CalcSupplyPipe">Tc3</text>
<text transform="matrix(1 0 0 1 218 175)" class="st16 st12 st13" data-core-parameter="Monitoring.Temper.CalcReturnPipe" id="Monitoring.Temper.CalcReturnPipe">Tc5</text>
</svg>