<?xml version="1.0" encoding="utf-8"?>
<!-- Generator: Adobe Illustrator 21.0.0, SVG Export Plug-In . SVG Version: 6.00 Build 0)  -->
<svg version="1.1" id="Слой_1" xmlns="http://www.w3.org/2000/svg" xmlns:xlink="http://www.w3.org/1999/xlink" x="0px" y="0px"
	 viewBox="0 0 27.6 28.5" style="enable-background:new 0 0 27.6 28.5;" xml:space="preserve">
<style type="text/css">
	.st0{fill:none;stroke:#000000;stroke-miterlimit:10;}
	.st1{stroke:#000000;stroke-miterlimit:10;}
</style>
<line class="st0" x1="0.5" y1="0.1" x2="0.5" y2="28.5"/>
<g>
	<g>
		<ellipse transform="matrix(0.4402 -0.8979 0.8979 0.4402 -0.4388 13.9488)" class="st0" cx="11" cy="7.3" rx="7.3" ry="4.4"/>
		<path class="st1" d="M19.7,15.4l-3.7-0.5c0,0,1.2-0.7,2.7-3.7c1.5-3,1.3-4.4,1.3-4.4l2.7,2.7c0,0,0.1,0.9-1,3.1
			C20.5,14.8,19.7,15.4,19.7,15.4z"/>
		<path class="st1" d="M25.5,16.5l-2-0.3c0,0,0.7-0.4,1.5-2c0.8-1.6,0.7-2.4,0.7-2.4l1.5,1.5c0,0,0.1,0.5-0.5,1.7
			C26,16.2,25.5,16.5,25.5,16.5z"/>
		<line class="st0" x1="25.6" y1="11.8" x2="14.8" y2="1.1"/>
		<line class="st0" x1="7.8" y1="13.9" x2="24.6" y2="16.3"/>
	</g>
	<line class="st0" x1="7.8" y1="13.9" x2="0.4" y2="0.8"/>
	<line class="st0" x1="0.4" y1="0.8" x2="14.2" y2="0.8"/>
</g>
</svg>
