<?xml version="1.0" encoding="utf-8"?>
<!-- Generator: Adobe Illustrator 21.0.0, SVG Export Plug-In . SVG Version: 6.00 Build 0)  -->
<svg version="1.1" id="Слой_1" xmlns="http://www.w3.org/2000/svg" xmlns:xlink="http://www.w3.org/1999/xlink" x="0px" y="0px"
	 viewBox="0 0 18.2 15.8" style="enable-background:new 0 0 18.2 15.8;" xml:space="preserve">
<style type="text/css">
	.st0{fill:none;stroke:#000000;stroke-miterlimit:10;}
	.st1{stroke:#000000;stroke-miterlimit:10;}
</style>
<rect x="0.5" y="10.8" class="st0" width="17.2" height="2.4"/>
<path class="st0" d="M0.5,10.8c0,0,1.7,0,2.6-1.1c0.8-1.2,2.3-5.8,2.9-7.1c0.5-1.3,1.3-2.1,3.4-2.1c2.1,0,2.8,0.8,3.3,2.2
	C13.1,4.2,14.5,8,15,9.4c0.5,1.3,2.7,1.4,2.7,1.4"/>
<path class="st1" d="M11.6,13.2c0,1.1-1.1,2-2.5,2c-1.4,0-2.5-0.9-2.5-2c0,0,1.1,0,2.5,0C10.5,13.2,11.6,13.2,11.6,13.2z"/>
</svg>
