<?xml version="1.0" encoding="utf-8"?>
<!-- Generator: Adobe Illustrator 21.0.0, SVG Export Plug-In . SVG Version: 6.00 Build 0)  -->
<svg version="1.1" id="Слой_1" xmlns="http://www.w3.org/2000/svg" xmlns:xlink="http://www.w3.org/1999/xlink" x="0px" y="0px"
	 viewBox="0 0 32.84 26.337" style="enable-background:new 0 0 32.84 26.337;" xml:space="preserve">
<style type="text/css">
	.st0{fill:none;stroke:#000000;stroke-miterlimit:10;}
	.st1{fill:#FFFFFF;stroke:#000000;stroke-miterlimit:10;}
</style>
<line class="st0" x1="13.17" y1="0.5" x2="32.84" y2="0.5"/>
<line class="st0" x1="25.17" y1="13.17" x2="32.84" y2="13.17"/>
<path class="st0" d="M25.84,13.17c0,7.001-5.666,12.667-12.667,12.667"/>
<path class="st0" d="M0.5,13.17c0-7.001,5.666-12.667,12.667-12.667"/>
<path class="st0" d="M0.5,13.17c0,7.001,5.666,12.667,12.667,12.667"/>
<circle class="st1" cx="13.17" cy="13.17" r="10.792"/>
<circle class="st1" cx="13.17" cy="13.17" r="3.063"/>
<path class="st0" d="M13.17,10.11c0-3.535,2.324-6.396,5.196-6.396"/>
<path class="st0" d="M12.99,16.04c-0.328,3.521-2.908,6.151-5.767,5.886"/>
<path class="st0" d="M16.28,12.64c3.536-0.039,6.421,2.253,6.453,5.125"/>
<path class="st0" d="M10.1,13.17c-3.535,0.088-6.451-2.166-6.521-5.037"/>
</svg>
