<?xml version="1.0" encoding="utf-8"?>
<!-- Generator: Adobe Illustrator 21.0.0, SVG Export Plug-In . SVG Version: 6.00 Build 0)  -->
<svg version="1.1" id="Слой_1" xmlns="http://www.w3.org/2000/svg" xmlns:xlink="http://www.w3.org/1999/xlink" x="0px" y="0px"
	 viewBox="0 0 138.1 164.1" style="enable-background:new 0 0 138.1 164.1;" xml:space="preserve">
<style type="text/css">
	.st0{fill:none;stroke:#000000;stroke-miterlimit:10;}
	.st1{fill:none;stroke:#000000;stroke-width:0.5;stroke-miterlimit:10;}
</style>
<line class="st0" x1="10.6" y1="134.3" x2="10.6" y2="142.7"/>
<ellipse class="st0" cx="10.6" cy="148" rx="10.1" ry="5.3"/>
<line class="st0" x1="0.5" y1="148" x2="20.7" y2="148"/>
<g>
	<path class="st1" d="M55.1,133.9c0-6.7-4.9-12.1-10.9-12.1"/>
	<path class="st1" d="M33.3,133.9c0-6.7,4.9-12.1,10.9-12.1"/>
</g>
<path class="st1" d="M33.3,133.9c0,5.8-6.8,10.5-15.3,10.5"/>
<g>
	<path class="st1" d="M137.9,10.1c0-5.5-4.9-9.9-10.9-9.9"/>
	<path class="st1" d="M116.1,10.1c0-5.5,4.9-9.9,10.9-9.9"/>
</g>
<path class="st1" d="M18,152.1c0,28.1,101.9-0.6,98-17.8"/>
<line class="st1" x1="116" y1="134.3" x2="116.1" y2="10.1"/>
</svg>
