<?xml version="1.0" encoding="utf-8"?>
<!-- Generator: Adobe Illustrator 21.0.0, SVG Export Plug-In . SVG Version: 6.00 Build 0)  -->
<svg version="1.1" id="Слой_1" xmlns="http://www.w3.org/2000/svg" xmlns:xlink="http://www.w3.org/1999/xlink" x="0px" y="0px"
	 viewBox="0 0 32.5 28.9" style="enable-background:new 0 0 32.5 28.9;" xml:space="preserve">
<style type="text/css">
	.st0{fill:none;stroke:#000000;stroke-width:0.25;stroke-miterlimit:10;}
</style>
<g>
	<g>
		<g>
			<line class="st0" x1="32.5" y1="14.8" x2="14.9" y2="14.8"/>
			<g>
				<line class="st0" x1="23.1" y1="16.6" x2="20.1" y2="14.8"/>
				<line class="st0" x1="24.3" y1="14.8" x2="29.3" y2="17.8"/>
				<line class="st0" x1="31.8" y1="16.3" x2="29.3" y2="14.8"/>
			</g>
			<g>
				<line class="st0" x1="32.5" y1="14.7" x2="14.9" y2="14.7"/>
			</g>
			<g>
				<line class="st0" x1="23.1" y1="12.4" x2="20.1" y2="14.7"/>
				<line class="st0" x1="24.3" y1="14.7" x2="29.3" y2="11.1"/>
				<line class="st0" x1="31.8" y1="12.9" x2="29.3" y2="14.7"/>
			</g>
		</g>
		<g>
			<line class="st0" x1="0" y1="14.8" x2="17.6" y2="14.8"/>
			<g>
				<line class="st0" x1="9.5" y1="16.6" x2="12.4" y2="14.8"/>
				<line class="st0" x1="8.2" y1="14.8" x2="3.3" y2="17.8"/>
				<line class="st0" x1="0.8" y1="16.3" x2="3.3" y2="14.8"/>
			</g>
			<g>
				<line class="st0" x1="0" y1="14.7" x2="17.6" y2="14.7"/>
			</g>
			<g>
				<line class="st0" x1="9.5" y1="12.4" x2="12.4" y2="14.7"/>
				<line class="st0" x1="8.2" y1="14.7" x2="3.3" y2="11.1"/>
				<line class="st0" x1="0.8" y1="12.9" x2="3.3" y2="14.7"/>
			</g>
		</g>
	</g>
	<g>
		<g>
			<line class="st0" x1="24.1" y1="0.6" x2="15.3" y2="15.9"/>
			<g>
				<line class="st0" x1="21" y1="9.7" x2="17.9" y2="11.4"/>
				<line class="st0" x1="20" y1="7.7" x2="25.1" y2="5"/>
				<line class="st0" x1="25" y1="2" x2="22.5" y2="3.5"/>
			</g>
			<g>
				<line class="st0" x1="24.1" y1="0.6" x2="15.3" y2="15.8"/>
			</g>
			<g>
				<line class="st0" x1="17.4" y1="7.6" x2="17.8" y2="11.3"/>
				<line class="st0" x1="20" y1="7.7" x2="19.3" y2="1.6"/>
				<line class="st0" x1="22.1" y1="0.3" x2="22.4" y2="3.4"/>
			</g>
		</g>
		<g>
			<line class="st0" x1="7.9" y1="28.8" x2="16.7" y2="13.5"/>
			<g>
				<line class="st0" x1="14.2" y1="21.5" x2="14.1" y2="18"/>
				<line class="st0" x1="12" y1="21.7" x2="12.1" y2="27.5"/>
				<line class="st0" x1="9.5" y1="28.9" x2="9.5" y2="26"/>
			</g>
			<g>
				<line class="st0" x1="7.8" y1="28.7" x2="16.6" y2="13.5"/>
			</g>
			<g>
				<line class="st0" x1="10.6" y1="19.4" x2="14" y2="18"/>
				<line class="st0" x1="11.9" y1="21.7" x2="6.3" y2="24.1"/>
				<line class="st0" x1="6.6" y1="27.2" x2="9.4" y2="25.9"/>
			</g>
		</g>
	</g>
	<g>
		<g>
			<line class="st0" x1="23.8" y1="28.5" x2="15" y2="13.2"/>
			<g>
				<line class="st0" x1="17.4" y1="21.2" x2="17.6" y2="17.7"/>
				<line class="st0" x1="19.7" y1="21.4" x2="19.5" y2="27.1"/>
				<line class="st0" x1="22.1" y1="28.6" x2="22.1" y2="25.6"/>
			</g>
			<g>
				<line class="st0" x1="23.8" y1="28.4" x2="15" y2="13.2"/>
			</g>
			<g>
				<line class="st0" x1="21.1" y1="19.1" x2="17.6" y2="17.7"/>
				<line class="st0" x1="19.7" y1="21.4" x2="25.4" y2="23.8"/>
				<line class="st0" x1="25" y1="26.9" x2="22.2" y2="25.6"/>
			</g>
		</g>
		<g>
			<line class="st0" x1="7.5" y1="0.3" x2="16.3" y2="15.6"/>
			<g>
				<line class="st0" x1="10.6" y1="9.4" x2="13.7" y2="11.1"/>
				<line class="st0" x1="11.6" y1="7.4" x2="6.5" y2="4.6"/>
				<line class="st0" x1="6.6" y1="1.7" x2="9.1" y2="3.1"/>
			</g>
			<g>
				<line class="st0" x1="7.6" y1="0.3" x2="16.4" y2="15.5"/>
			</g>
			<g>
				<line class="st0" x1="14.3" y1="7.3" x2="13.8" y2="11"/>
				<line class="st0" x1="11.7" y1="7.4" x2="12.4" y2="1.3"/>
				<line class="st0" x1="9.5" y1="0" x2="9.2" y2="3.1"/>
			</g>
		</g>
	</g>
</g>
</svg>
