<svg version="1.1" xmlns="http://www.w3.org/2000/svg" xmlns:xlink="http://www.w3.org/1999/xlink" x="0px" y="0px" viewBox="0 0 1200 600" style="enable-background:new 0 0 1200 600;" xml:space="preserve" width="1200" height="600">
<style type="text/css">
	.st0{fill:#EA5B0C;stroke:#EA5B0C;stroke-width:3;stroke-miterlimit:10;}
	.st1{fill:none;stroke:#010202;stroke-miterlimit:10;}
	.st2{fill:none;stroke:#EA5B0C;stroke-width:2.083;stroke-miterlimit:10;}
	.st3{fill:none;stroke:#EA5B0C;stroke-width:2;stroke-miterlimit:10;}
	.st4{fill:#EA5B0C;stroke:#EA5B0C;stroke-width:2;stroke-miterlimit:10;}
	.st5{fill:none;stroke:#000000;stroke-miterlimit:10;}
	.st6{fill:#FFFFFF;stroke:#000000;stroke-miterlimit:10;}
	.st8{font-size:12px;}
	.st9{fill:#1D71B8;stroke:#1D71B8;stroke-width:2;stroke-miterlimit:10;}
	.st10{fill:none;stroke:#1D71B8;stroke-width:2;stroke-miterlimit:10;}
	.st11{fill:#010202;stroke:#010202;stroke-miterlimit:10;}
	.st12{fill:none;stroke:#010202;stroke-width:3;stroke-miterlimit:10;}
	.st13{fill:#BE1622;stroke:#BE1622;stroke-width:2;stroke-miterlimit:10;}
	.st14{fill:none;stroke:#BE1622;stroke-width:2;stroke-miterlimit:10;}
	.st16{font-size:9px;}
	.st17{fill:none;stroke:#1D71B8;stroke-width:2.0069;stroke-miterlimit:10;}
	.st18{fill:none;stroke:#1D71B8;stroke-width:1.6155;stroke-miterlimit:10;}
	.st19{fill:none;stroke:#1D71B8;stroke-width:2.0161;stroke-miterlimit:10;}
	.st20{fill:#1D71B8;stroke:#1D71B8;stroke-width:3;stroke-miterlimit:10;}
	.st21{fill:#BE1622;stroke:#BE1622;stroke-width:3;stroke-miterlimit:10;}
	.st22{fill:none;stroke:#1D71B8;stroke-miterlimit:10;}
	.st23{fill:none;stroke:#1D71B8;stroke-width:2.429;stroke-miterlimit:10;}
	.st24{fill:none;stroke:#1D71B8;stroke-width:2;stroke-miterlimit:10;stroke-dasharray:3.7427,3.7427;}
	.st25{fill:none;stroke:#1D71B8;stroke-width:2;stroke-miterlimit:10;stroke-dasharray:4.9088,4.9088;}
	.st26{fill:#1D71B8;stroke:#1D71B8;stroke-miterlimit:10;}
	.st27{fill:none;stroke:#1D71B8;stroke-width:1.5659;stroke-miterlimit:10;}
	.st28{font-size:18px;}
</style>
<g id="MainLayer">
	<polygon class="st0" points="20.6,93.8 28.3,92.3 20.6,90.8  " />
	<g transform="translate(52.134,-5.3932)">
		<g>
			<ellipse class="st1" cx="112.4" cy="97.7" rx="12.4" ry="12.6" />
		</g>
		<polyline class="st1" points="117.8,109 99.5,98 117.8,86.4   " />
	</g>
	<line class="st2" x1="196.3" y1="92.3" x2="177.7" y2="92.3" />
	<line class="st3" x1="194.9" y1="93" x2="194.9" y2="137.6" />
	<ellipse class="st4" cx="194.9" cy="139.5" rx="1.9" ry="1.9" />
	<line class="st3" x1="194.9" y1="141.4" x2="194.9" y2="233.4" />
	<ellipse class="st4" cx="194.9" cy="235.3" rx="1.9" ry="1.9" />
	<line class="st3" x1="196.8" y1="139.5" x2="234.4" y2="139.5" />
	<g>
		<line class="st5" x1="247.1" y1="126.8" x2="266.7" y2="126.8" />
		<line class="st5" x1="259.1" y1="139.5" x2="266.7" y2="139.5" />
		<path class="st5" d="M259.7,139.5c0,7-5.7,12.7-12.7,12.7" />
		<path class="st5" d="M234.4,139.5c0-7,5.7-12.7,12.7-12.7" />
		<path class="st5" d="M234.4,139.5c0,7,5.7,12.7,12.7,12.7" />
		<circle class="st6" cx="247.1" cy="139.5" r="10.8" />
		<circle class="st6" cx="247.1" cy="139.5" r="3.1" />
		<path class="st5" d="M247.1,136.4c0-3.5,2.3-6.4,5.2-6.4" />
		<path class="st5" d="M246.9,142.3c-0.3,3.5-2.9,6.2-5.8,5.9" />
		<path class="st5" d="M250.2,138.9c3.5,0,6.4,2.3,6.5,5.1" />
		<path class="st5" d="M244,139.5c-3.5,0.1-6.5-2.2-6.5-5" />
	</g>
	<rect x="266.7" y="59.8" class="st5" width="73.8" height="92.5" />
	<text transform="matrix(1 0 0 1 271.8767 73.0248)" class=" st8">Котел №1</text>
	<line class="st3" x1="196.8" y1="235.3" x2="234.4" y2="235.3" />
	<g>
		<line class="st5" x1="247.1" y1="222.7" x2="266.7" y2="222.7" />
		<line class="st5" x1="259.1" y1="235.3" x2="266.7" y2="235.3" />
		<path class="st5" d="M259.7,235.3c0,7-5.7,12.7-12.7,12.7" />
		<path class="st5" d="M234.4,235.3c0-7,5.7-12.7,12.7-12.7" />
		<path class="st5" d="M234.4,235.3c0,7,5.7,12.7,12.7,12.7" />
		<circle class="st6" cx="247.1" cy="235.3" r="10.8" />
		<circle class="st6" cx="247.1" cy="235.3" r="3.1" />
		<path class="st5" d="M247.1,232.3c0-3.5,2.3-6.4,5.2-6.4" />
		<path class="st5" d="M246.9,238.2c-0.3,3.5-2.9,6.2-5.8,5.9" />
		<path class="st5" d="M250.2,234.8c3.5,0,6.4,2.3,6.5,5.1" />
		<path class="st5" d="M244,235.3c-3.5,0.1-6.5-2.2-6.5-5" />
	</g>
	<text transform="matrix(1 0 0 1 271.8767 168.8811)" class=" st8">Котел №2</text>
	<line class="st3" x1="194.8" y1="237.2" x2="194.8" y2="331.2" />
	<line class="st3" x1="194.8" y1="331.2" x2="234.4" y2="331.2" />
	<g>
		<line class="st5" x1="247" y1="318.5" x2="266.7" y2="318.5" />
		<line class="st5" x1="259" y1="331.2" x2="266.7" y2="331.2" />
		<path class="st5" d="M259.7,331.2c0,7-5.7,12.7-12.7,12.7" />
		<path class="st5" d="M234.4,331.2c0-7,5.7-12.7,12.7-12.7" />
		<path class="st5" d="M234.4,331.2c0,7,5.7,12.7,12.7,12.7" />
		<circle class="st6" cx="247" cy="331.2" r="10.8" />
		<circle class="st6" cx="247" cy="331.2" r="3.1" />
		<path class="st5" d="M247,328.1c0-3.5,2.3-6.4,5.2-6.4" />
		<path class="st5" d="M246.9,334c-0.3,3.5-2.9,6.2-5.8,5.9" />
		<path class="st5" d="M250.1,330.6c3.5,0,6.4,2.3,6.5,5.1" />
		<path class="st5" d="M244,331.2c-3.5,0.1-6.5-2.2-6.5-5" />
	</g>
	<ellipse class="st9" cx="425.5" cy="139.5" rx="1.9" ry="1.9" />
	<line class="st10" x1="340.5" y1="139.5" x2="425.5" y2="139.5" />
	<ellipse class="st9" cx="425.5" cy="235.3" rx="1.9" ry="1.9" />
	<line class="st10" x1="340.5" y1="235.3" x2="425.5" y2="235.3" />
	<line class="st10" x1="340.5" y1="331.2" x2="425.5" y2="331.2" />
	<line class="st10" x1="425.5" y1="331.1" x2="425.5" y2="234.7" />
	<line class="st10" x1="425.5" y1="234.3" x2="425.5" y2="137.8" />
	<line class="st10" x1="425.5" y1="139.5" x2="498.6" y2="139.5" />
	<g>
		<line class="st1" x1="47.6" y1="72.5" x2="47.6" y2="92.3" />
		<ellipse class="st11" cx="47.6" cy="68.2" rx="4.9" ry="4.4" />
	</g>
	<line class="st3" x1="151.7" y1="92.3" x2="34.3" y2="92.3" />
	<g transform="translate(52.134,-5.3932)">
		<line class="st12" x1="52.7" y1="93.4" x2="70.2" y2="93.4" />
		<line class="st1" x1="61.4" y1="92.9" x2="61.4" y2="73.4" />
	</g>
	<text transform="matrix(1 0 0 1 271.877 264.2451)" class=" st8">Котел №3</text>
	<ellipse class="st13" cx="392.2" cy="201.9" rx="1.9" ry="1.9" />
	<line class="st14" x1="341" y1="201.9" x2="392.2" y2="201.9" />
	<rect x="266.7" y="155.6" class="st5" width="73.8" height="92.5" />
	<ellipse class="st13" cx="392.2" cy="106" rx="1.9" ry="1.9" />
	<line class="st14" x1="341" y1="106" x2="392.2" y2="106" />
	<line class="st14" x1="341" y1="297.7" x2="392.2" y2="297.7" />
	<rect x="266.7" y="251.5" class="st5" width="73.8" height="92.5" />
	<line class="st14" x1="392.2" y1="297.7" x2="392.2" y2="239.7" />
	<line class="st14" x1="392.2" y1="231" x2="392.2" y2="143.8" />
	<line class="st14" x1="391.3" y1="106" x2="648" y2="106" />
	<text transform="matrix(1 0 0 1 40.4814 107.221)" class=" st16">    </text>
	<text transform="matrix(1 0 0 1 40.4814 107.221)" class=" st16">от газоснабжающей</text>
	<text transform="matrix(1 0 0 1 54.0944 118.0211)" class=" st16">организации</text>
	<g>
		<path class="st14" d="M396.6,235.3c0,2.4-2,4.4-4.4,4.4" />
		<path class="st14" d="M396.6,235.3c0-2.4-2-4.4-4.4-4.4" />
	</g>
	<g>
		<path class="st14" d="M396.2,139.5c0,2.4-2,4.4-4.4,4.4" />
		<path class="st14" d="M396.2,139.5c0-2.4-2-4.4-4.4-4.4" />
	</g>
	<line class="st14" x1="392.2" y1="135.1" x2="392.2" y2="106" />
	<ellipse class="st9" cx="500.5" cy="139.6" rx="1.9" ry="1.9" />
	<line class="st10" x1="521.3" y1="139.5" x2="500.5" y2="139.5" />
	<g>
		<ellipse class="st1" cx="531.1" cy="139.5" rx="9.6" ry="9.5" />
		<polygon class="st11" points="523.1,139.5 529.1,136.1 529.1,143   " />
	</g>
	<ellipse class="st9" cx="561.8" cy="139.5" rx="1.9" ry="1.9" />
	<line class="st17" x1="500.5" y1="183.6" x2="500.5" y2="141.7" />
	<line class="st10" x1="561.8" y1="183" x2="561.8" y2="141.7" />
	<line class="st18" x1="522.6" y1="183.1" x2="499.4" y2="183.1" />
	<line class="st10" x1="562.8" y1="183.2" x2="541.9" y2="183.2" />
	<g>
		<ellipse class="st1" cx="532.1" cy="182.2" rx="9.6" ry="9.5" />
		<polygon class="st11" points="524.1,182.2 530.1,178.7 530.1,185.7   " />
	</g>
	<line class="st10" x1="540.8" y1="139.5" x2="592.6" y2="139.5" />
	<ellipse class="st9" cx="605.6" cy="139.5" rx="1.9" ry="1.9" />
	<line class="st10" x1="605.6" y1="385.9" x2="605.6" y2="139.5" />
	<line class="st19" x1="592.6" y1="139.5" x2="628.4" y2="139.5" />
	<line class="st10" x1="671.9" y1="183.4" x2="917.6" y2="183.4" />
	<g transform="translate(52.134,-5.3932)">
		<g>
			<ellipse class="st1" cx="607" cy="188.7" rx="12.4" ry="12.6" />
		</g>
		<polyline class="st1" points="601.6,177.4 619.9,188.4 601.6,200   " />
	</g>
	<polygon class="st20" points="929.8,181.8 922.1,183.3 929.8,184.8  " />
	<g>
		<line class="st1" x1="903.5" y1="162.5" x2="903.5" y2="182.3" />
		<ellipse class="st11" cx="903.5" cy="158.2" rx="4.9" ry="4.4" />
	</g>
	<g transform="translate(52.134,-5.3932)">
		<line class="st12" x1="694.1" y1="184.5" x2="711.6" y2="184.5" />
		<line class="st1" x1="702.8" y1="184" x2="702.8" y2="164.5" />
	</g>
	<text transform="matrix(1 0 0 1 906.9071 195.4514)" class=" st16">обратка</text>
	<g transform="translate(52.134,-5.3932)">
		<g>
			<ellipse class="st1" cx="608.3" cy="111.5" rx="12.4" ry="12.6" />
		</g>
		<polyline class="st1" points="613.7,122.8 595.4,111.8 613.7,100.2   " />
	</g>
	<polygon class="st21" points="919.1,107.6 926.8,106.1 919.1,104.6  " />
	<g>
		<line class="st1" x1="904.5" y1="86.3" x2="904.5" y2="106.1" />
		<ellipse class="st11" cx="904.5" cy="82" rx="4.9" ry="4.4" />
	</g>
	<g transform="translate(52.134,-5.3932)">
		<line class="st12" x1="695.1" y1="106.9" x2="712.6" y2="106.9" />
		<line class="st1" x1="703.8" y1="106.4" x2="703.8" y2="86.9" />
	</g>
	<line class="st14" x1="672.8" y1="106.1" x2="918.4" y2="106.1" />
	<text transform="matrix(1 0 0 1 909.1929 117.1151)" class=" st16">подача</text>
	<line class="st10" x1="582" y1="385.9" x2="606.6" y2="385.9" />
	<line class="st10" x1="521.3" y1="385.9" x2="557" y2="385.9" />
	<g transform="translate(52.134,-5.3932)">
		<g>
			<ellipse class="st1" cx="517.4" cy="390.3" rx="12.4" ry="12.5" />
		</g>
		<polyline class="st1" points="522.8,401.7 504.5,390.6 522.8,379   " />
	</g>
	<ellipse class="st9" cx="539.5" cy="385.9" rx="1.9" ry="1.9" />
	<line class="st10" x1="482.2" y1="385.9" x2="500.7" y2="385.9" />
	<g>
		<ellipse class="st1" cx="510.9" cy="385.9" rx="9.6" ry="9.5" />
		<polygon class="st11" points="519,385.9 512.9,389.4 512.9,382.5   " />
	</g>
	<ellipse class="st9" cx="482.2" cy="385.9" rx="1.9" ry="1.9" />
	<line class="st10" x1="539.5" y1="346.1" x2="539.5" y2="383.8" />
	<line class="st10" x1="482.2" y1="346.1" x2="482.2" y2="383.8" />
	<line class="st10" x1="520.4" y1="346.3" x2="540.5" y2="346.3" />
	<line class="st10" x1="481.6" y1="346.3" x2="501" y2="346.3" />
	<g>
		<ellipse class="st1" cx="510.9" cy="346.3" rx="9.6" ry="9.5" />
		<polygon class="st11" points="519,346.3 512.9,349.8 512.9,342.8   " />
	</g>
	<line class="st10" x1="462.1" y1="386.5" x2="480.6" y2="386.5" />
	<line class="st10" x1="457.5" y1="386" x2="450" y2="386" />
	<path class="st22" d="M407.9,386" />
	<line class="st23" x1="401" y1="380.2" x2="401" y2="392.1" />
	<line class="st10" x1="229.6" y1="385.9" x2="400.4" y2="385.9" />
	<line class="st10" x1="405.6" y1="385.9" x2="415.6" y2="385.9" />
	<g transform="translate(52.134,-5.3932)">
		<path class="st10" d="M363.1,395.2c0-9.1,4.8-16.4,10.6-16.4h13.4c5.9,0,10.6,7.4,10.6,16.4v59.6c0,9.1-4.8,16.4-10.6,16.4h-13.4    c-5.9,0-10.6-7.4-10.6-16.4C363.1,454.8,363.1,395.2,363.1,395.2z" />
	</g>
	<g>
		<g transform="translate(52.134,-5.3932)">
			<g>
				<polyline class="st10" points="349.2,470.3 349.2,472.3 347.2,472.3     " />
				<line class="st24" x1="343.5" y1="472.3" x2="300.4" y2="472.3" />
				<polyline class="st10" points="298.5,472.3 296.5,472.3 296.5,470.3     " />
				<line class="st25" x1="296.5" y1="465.4" x2="296.5" y2="458" />
				<polyline class="st10" points="296.5,455.6 296.5,453.6 298.5,453.6     " />
				<line class="st24" x1="302.3" y1="453.6" x2="345.3" y2="453.6" />
				<polyline class="st10" points="347.2,453.6 349.2,453.6 349.2,455.6     " />
				<line class="st25" x1="349.2" y1="460.5" x2="349.2" y2="467.8" />
			</g>
		</g>
		<text transform="matrix(1 0 0 1 355.0373 459.9782)" class=" st16">Блок ХВО</text>
	</g>
	<ellipse class="st26" cx="385.8" cy="386.1" rx="1.9" ry="1.9" />
	<line class="st10" x1="385.8" y1="385.9" x2="385.8" y2="448.2" />
	<line class="st10" x1="335.3" y1="457.4" x2="349" y2="457.4" />
	<ellipse class="st9" cx="336.5" cy="457.4" rx="1.9" ry="1.9" />
	<line class="st10" x1="309" y1="505.3" x2="338" y2="505.3" />
	<line class="st10" x1="254.7" y1="506.3" x2="288" y2="506.3" />
	<g>
		<ellipse class="st1" cx="298.4" cy="505.3" rx="9.6" ry="9.5" />
		<polygon class="st11" points="306.5,505.3 300.4,508.8 300.4,501.9   " />
	</g>
	<ellipse class="st9" cx="255.2" cy="457.4" rx="1.9" ry="1.9" />
	<line class="st10" x1="337" y1="457.7" x2="337" y2="504.5" />
	<line class="st10" x1="254.7" y1="457.7" x2="254.7" y2="507.5" />
	<line class="st10" x1="306.5" y1="457.7" x2="337" y2="457.7" />
	<g>
		<ellipse class="st1" cx="297.4" cy="457.7" rx="9.6" ry="9.5" />
		<polygon class="st11" points="305.5,457.7 299.4,461.2 299.4,454.2   " />
	</g>
	<line class="st10" x1="231" y1="457.5" x2="287" y2="457.5" />
	<line class="st10" x1="205.6" y1="457.4" x2="44.3" y2="457.4" />
	<polygon class="st20" points="40.5,459.2 48.2,457.7 40.5,456.2  " />
	<text transform="matrix(1 0 0 1 43.4429 471.5117)" class=" st16">скважина </text>
	<text transform="matrix(1 0 0 1 43.4429 482.3117)" class=" st16">артезианской воды</text>
	<line class="st27" x1="203.7" y1="386.1" x2="44.3" y2="386.1" />
	<polygon class="st20" points="40.5,387.2 48.2,385.7 40.5,384.2  " />
	<text transform="matrix(1 0 0 1 43.4429 399.5631)" class=" st16">ввод холодной</text>
	<text transform="matrix(1 0 0 1 43.4429 410.3631)" class=" st16">воды</text>
	<g transform="translate(52.134,-5.3932)">
		<g>
			<ellipse class="st1" cx="165.1" cy="391.5" rx="12.4" ry="12.5" />
		</g>
		<polyline class="st1" points="170.5,402.8 152.2,391.8 170.5,380.2   " />
	</g>
	<g transform="translate(52.134,-5.3932)">
		<g>
			<ellipse class="st1" cx="166.1" cy="463.4" rx="12.4" ry="12.5" />
		</g>
		<polyline class="st1" points="171.5,474.7 153.2,463.7 171.5,452.1   " />
	</g>
	<text transform="matrix(1 0 0 1 409.3409 481.8746)" class=" st16">Блок запаса</text>
	<text transform="matrix(1 0 0 1 409.3409 492.6746)" class=" st16">подпиточной</text>
	<text transform="matrix(1 0 0 1 409.3409 503.4746)" class=" st16">воды</text>
	<line class="st23" x1="405.3" y1="379.9" x2="405.3" y2="391.9" />
	<line class="st23" x1="457.4" y1="380.3" x2="457.4" y2="392.3" />
	<line class="st23" x1="462.1" y1="380.3" x2="462.1" y2="392.3" />
	<line class="st10" x1="626.7" y1="184" x2="645.9" y2="184" />
	<line class="st10" x1="627.4" y1="183.7" x2="627.4" y2="139.6" />
</g>
<text transform="matrix(1 0 0 1 765.333 161.0002)" class=" st28" data-core-parameter="HeatSys.Pressure.ReturnPipe" id="HeatSys.Pressure.ReturnPipe">P2</text>
<text transform="matrix(1 0 0 1 631.3337 82.3335)" class=" st28" data-core-parameter="HeatSys.VolumeFlow.SupplyPipe" id="HeatSys.VolumeFlow.SupplyPipe">G1</text>
<text transform="matrix(1 0 0 1 638.333 159)" class=" st28" data-core-parameter="HeatSys.VolumeFlow.ReturnPipe" id="HeatSys.VolumeFlow.ReturnPipe">G2</text>
<text transform="matrix(1 0 0 1 13.6667 54.3333)" class=" st28" data-core-parameter="Gas.Temperature" id="Gas.Temperature">Tgas</text>
<text transform="matrix(1 0 0 1 95 57.6667)" class=" st28" data-core-parameter="Gas.Pressure" id="Gas.Pressure">Pgas</text>
<text transform="matrix(1 0 0 1 179.6665 78.3332)" class=" st28" data-core-parameter="Gas.VolumeFlow.Standard" id="Gas.VolumeFlow.Standard">Gstd</text>
<text transform="matrix(1 0 0 1 928.333 81.6665)" class=" st28" data-core-parameter="HeatSys.Temper.SupplyPipe" id="HeatSys.Temper.SupplyPipe">T1</text>
<text transform="matrix(1 0 0 1 927.667 159)" class=" st28" data-core-parameter="HeatSys.Temper.ReturnPipe" id="HeatSys.Temper.ReturnPipe">T2</text>
<text transform="matrix(1 0 0 1 769.0003 83.6667)" class=" st28" data-core-parameter="HeatSys.Pressure.SupplyPipe" id="HeatSys.Pressure.SupplyPipe">P1</text>
</svg>