<svg version="1.1" xmlns="http://www.w3.org/2000/svg" xmlns:xlink="http://www.w3.org/1999/xlink" x="0px" y="0px" viewBox="0 0 1200.3 600" style="enable-background:new 0 0 1200.3 600;" xml:space="preserve" width="1200.3" height="600">
<style type="text/css">
	.st0{fill:#EA5B0C;stroke:#EA5B0C;stroke-width:2;stroke-miterlimit:10;}
	.st1{fill:none;stroke:#010202;stroke-miterlimit:10;}
	.st2{fill:none;stroke:#EA5B0C;stroke-width:2;stroke-miterlimit:10;}
	.st3{fill:none;stroke:#EA5B0C;stroke-width:2.0854;stroke-miterlimit:10;}
	.st4{fill:none;stroke:#EA5B0C;stroke-width:2.1752;stroke-miterlimit:10;}
	.st5{fill:none;stroke:#000000;stroke-miterlimit:10;}
	.st6{fill:#FFFFFF;stroke:#000000;stroke-miterlimit:10;}
	.st8{font-size:12px;}
	.st9{fill:none;stroke:#1D71B8;stroke-width:2;stroke-miterlimit:10;}
	.st10{fill:#1D71B8;stroke:#1D71B8;stroke-width:2;stroke-miterlimit:10;}
	.st11{fill:none;stroke:#1D71B8;stroke-width:2;stroke-miterlimit:10;stroke-dasharray:3.7427,3.7427;}
	.st12{fill:none;stroke:#1D71B8;stroke-width:2;stroke-miterlimit:10;stroke-dasharray:4.9088,4.9088;}
	.st13{font-size:9px;}
	.st14{fill:#010202;stroke:#010202;stroke-miterlimit:10;}
	.st15{fill:#1D71B8;stroke:#1D71B8;stroke-miterlimit:10;}
	.st16{fill:none;stroke:#1D71B8;stroke-width:2.0106;stroke-miterlimit:10;}
	.st17{fill:none;stroke:#010202;stroke-width:3;stroke-miterlimit:10;}
	.st18{fill:none;stroke:#1D71B8;stroke-miterlimit:10;}
	.st19{fill:none;stroke:#1D71B8;stroke-width:2.3524;stroke-miterlimit:10;}
	.st20{fill:none;stroke:#1D71B8;stroke-width:2.2068;stroke-miterlimit:10;}
	.st21{fill:none;stroke:#1D71B8;stroke-width:1.8335;stroke-miterlimit:10;}
	.st22{fill:none;stroke:#1D71B8;stroke-width:2.2008;stroke-miterlimit:10;}
	.st23{fill:none;stroke:#1D71B8;stroke-width:2.1156;stroke-miterlimit:10;}
	.st24{fill:none;stroke:#1D71B8;stroke-width:2.1831;stroke-miterlimit:10;}
	.st25{fill:none;stroke:#1D71B8;stroke-width:1.9275;stroke-miterlimit:10;}
	.st26{fill:none;stroke:#1D71B8;stroke-width:2.3423;stroke-miterlimit:10;}
	.st27{fill:none;stroke:#1D71B8;stroke-width:1.6473;stroke-miterlimit:10;}
	.st28{fill:#BE1622;stroke:#BE1622;stroke-miterlimit:10;}
	.st29{fill:none;stroke:#BE1622;stroke-width:2;stroke-miterlimit:10;}
	.st30{fill:#BE1622;stroke:#BE1622;stroke-width:2;stroke-miterlimit:10;}
	.st31{fill:none;stroke:#BE1622;stroke-width:2.1579;stroke-miterlimit:10;}
	.st32{fill:none;stroke:#BE1622;stroke-width:2.3446;stroke-miterlimit:10;}
	.st33{fill:#010202;}
	.st34{font-size:10.8px;}
	.st35{fill:none;stroke:#BE1622;stroke-width:2.4151;stroke-miterlimit:10;}
	.st36{fill:none;stroke:#1D71B8;stroke-width:2.0102;stroke-miterlimit:10;}
	.st37{fill:none;stroke:#1D71B8;stroke-width:2.4564;stroke-miterlimit:10;}
	.st39{font-size:18px;}
</style>
<g id="MainLayer">
	<polygon class="st0" points="32,101.9 39.7,100.4 32,98.9  " />
	<g transform="translate(52.134,-5.3932)">
		<g>
			<ellipse class="st1" cx="139.8" cy="106.8" rx="12.4" ry="12.6" />
		</g>
		<polyline class="st1" points="145.2,118.1 126.9,107.1 145.2,95.5   " />
	</g>
	<line class="st2" x1="225.2" y1="101.4" x2="205.3" y2="101.4" />
	<line class="st3" x1="225.2" y1="101.4" x2="225.2" y2="184.3" />
	<ellipse class="st0" cx="225.2" cy="207.6" rx="1.9" ry="1.9" />
	<line class="st4" x1="225.2" y1="184.2" x2="225.2" y2="293" />
	<ellipse class="st0" cx="225.2" cy="312.4" rx="1.9" ry="1.9" />
	<line class="st2" x1="227.1" y1="207.6" x2="264.8" y2="207.6" />
	<g>
		<line class="st5" x1="277.4" y1="196.9" x2="297.1" y2="196.9" />
		<line class="st5" x1="289.4" y1="209.6" x2="297.1" y2="209.6" />
		<path class="st5" d="M290.1,209.6c0,7-5.7,12.7-12.7,12.7" />
		<path class="st5" d="M264.8,209.6c0-7,5.7-12.7,12.7-12.7" />
		<path class="st5" d="M264.8,209.6c0,7,5.7,12.7,12.7,12.7" />
		<circle class="st6" cx="277.4" cy="209.6" r="10.8" />
		<circle class="st6" cx="277.4" cy="209.6" r="3.1" />
		<path class="st5" d="M277.4,206.5c0-3.5,2.3-6.4,5.2-6.4" />
		<path class="st5" d="M277.3,212.5c-0.3,3.5-2.9,6.2-5.8,5.9" />
		<path class="st5" d="M280.6,209.1c3.5,0,6.4,2.3,6.5,5.1" />
		<path class="st5" d="M274.4,209.6c-3.5,0.1-6.5-2.2-6.5-5" />
	</g>
	<rect x="297.1" y="129.9" class="st5" width="73.8" height="92.5" />
	<text transform="matrix(1 0 0 1 302.2513 143.1514)" class=" st8">Котел №1</text>
	<line class="st2" x1="227.1" y1="312.5" x2="264.8" y2="312.5" />
	<g>
		<line class="st5" x1="277.4" y1="300.8" x2="297.1" y2="300.8" />
		<line class="st5" x1="289.4" y1="313.5" x2="297.1" y2="313.5" />
		<path class="st5" d="M290.1,313.5c0,7-5.7,12.7-12.7,12.7" />
		<path class="st5" d="M264.8,313.5c0-7,5.7-12.7,12.7-12.7" />
		<path class="st5" d="M264.8,313.5c0,7,5.7,12.7,12.7,12.7" />
		<circle class="st6" cx="277.4" cy="313.5" r="10.8" />
		<circle class="st6" cx="277.4" cy="313.5" r="3.1" />
		<path class="st5" d="M277.4,310.4c0-3.5,2.3-6.4,5.2-6.4" />
		<path class="st5" d="M277.3,316.3c-0.3,3.5-2.9,6.2-5.8,5.9" />
		<path class="st5" d="M280.6,312.9c3.5,0,6.4,2.3,6.5,5.1" />
		<path class="st5" d="M274.4,313.5c-3.5,0.1-6.5-2.2-6.5-5" />
	</g>
	<text transform="matrix(1 0 0 1 302.2513 247.0077)" class=" st8">Котел №2</text>
	<line class="st2" x1="225.2" y1="277.3" x2="225.2" y2="412.3" />
	<line class="st2" x1="225.2" y1="413.3" x2="264.7" y2="413.3" />
	<g>
		<line class="st5" x1="277.4" y1="400.6" x2="297.1" y2="400.6" />
		<line class="st5" x1="289.4" y1="413.3" x2="297.1" y2="413.3" />
		<path class="st5" d="M290.1,413.3c0,7-5.7,12.7-12.7,12.7" />
		<path class="st5" d="M264.7,413.3c0-7,5.7-12.7,12.7-12.7" />
		<path class="st5" d="M264.7,413.3c0,7,5.7,12.7,12.7,12.7" />
		<circle class="st6" cx="277.4" cy="413.3" r="10.8" />
		<circle class="st6" cx="277.4" cy="413.3" r="3.1" />
		<path class="st5" d="M277.4,410.2c0-3.5,2.3-6.4,5.2-6.4" />
		<path class="st5" d="M277.2,416.2c-0.3,3.5-2.9,6.2-5.8,5.9" />
		<path class="st5" d="M280.5,412.8c3.5,0,6.4,2.3,6.5,5.1" />
		<path class="st5" d="M274.3,413.3c-3.5,0.1-6.5-2.2-6.5-5" />
	</g>
	<g>
		<path class="st9" d="M211.4,504.2c0,2.4-2,4.4-4.4,4.4" />
		<path class="st9" d="M211.4,504.2c0-2.4-2-4.4-4.4-4.4" />
	</g>
	<ellipse class="st10" cx="455.8" cy="204.6" rx="1.9" ry="1.9" />
	<path class="st9" d="M478.7,179.7" />
	<line class="st9" x1="470.7" y1="200.6" x2="470.7" y2="208.7" />
	<line class="st9" x1="465.9" y1="200.6" x2="465.9" y2="208.8" />
	<g>
		<g transform="translate(52.134,-5.3932)">
			<g>
				<polyline class="st9" points="467.7,517.6 467.7,519.6 465.7,519.6     " />
				<line class="st11" x1="462" y1="519.6" x2="418.9" y2="519.6" />
				<polyline class="st9" points="417,519.6 415,519.6 415,517.6     " />
				<line class="st12" x1="415" y1="512.7" x2="415" y2="505.4" />
				<polyline class="st9" points="415,502.9 415,500.9 417,500.9     " />
				<line class="st11" x1="420.8" y1="500.9" x2="463.8" y2="500.9" />
				<polyline class="st9" points="465.7,500.9 467.7,500.9 467.7,502.9     " />
				<line class="st12" x1="467.7" y1="507.8" x2="467.7" y2="515.2" />
			</g>
		</g>
		<text transform="matrix(1 0 0 1 473.5392 507.3215)" class=" st13">Блок ХВО</text>
	</g>
	<line class="st9" x1="370.9" y1="204.6" x2="390.3" y2="204.6" />
	<line class="st9" x1="409.5" y1="204.6" x2="455.8" y2="204.6" />
	<g>
		<ellipse class="st1" cx="399.9" cy="203.6" rx="9.6" ry="9.5" />
		<polygon class="st14" points="391.8,203.6 397.9,200.1 397.9,207.1   " />
	</g>
	<ellipse class="st15" cx="455.8" cy="313.5" rx="1.9" ry="1.9" />
	<line class="st9" x1="370.9" y1="313.5" x2="390.3" y2="313.5" />
	<line class="st9" x1="409.5" y1="313.5" x2="455.8" y2="313.5" />
	<g>
		<ellipse class="st1" cx="399.9" cy="313.5" rx="9.6" ry="9.5" />
		<polygon class="st14" points="391.8,313.5 397.9,310 397.9,316.9   " />
	</g>
	<line class="st9" x1="370.9" y1="413.3" x2="390.3" y2="413.3" />
	<line class="st9" x1="409.5" y1="413.3" x2="455.8" y2="413.3" />
	<g>
		<ellipse class="st1" cx="399.9" cy="413.3" rx="9.6" ry="9.5" />
		<polygon class="st14" points="391.8,413.3 397.9,409.8 397.9,416.8   " />
	</g>
	<line class="st16" x1="455.8" y1="414.3" x2="455.8" y2="314" />
	<line class="st9" x1="455.8" y1="312.4" x2="455.8" y2="206" />
	<line class="st9" x1="456.3" y1="204.8" x2="465.3" y2="204.8" />
	<line class="st9" x1="471.7" y1="204.9" x2="482.7" y2="204.9" />
	<g>
		<line class="st1" x1="61.9" y1="81.6" x2="61.9" y2="101.4" />
		<ellipse class="st14" cx="61.9" cy="77.3" rx="4.9" ry="4.4" />
	</g>
	<line class="st2" x1="178.7" y1="100.5" x2="40.8" y2="100.5" />
	<g transform="translate(52.134,-5.3932)">
		<line class="st17" x1="68.1" y1="100.5" x2="85.6" y2="100.5" />
		<line class="st1" x1="76.8" y1="100" x2="76.8" y2="80.5" />
	</g>
	<path class="st18" d="M544.3,202.8" />
	<line class="st9" x1="525.3" y1="207.9" x2="525.3" y2="199.8" />
	<line class="st9" x1="530.1" y1="207.9" x2="530.1" y2="199.8" />
	<line class="st9" x1="581.3" y1="204.9" x2="529.7" y2="204.9" />
	<line class="st9" x1="524" y1="204.9" x2="517.6" y2="204.9" />
	<ellipse class="st10" cx="563.1" cy="204.9" rx="1.9" ry="1.9" />
	<g transform="translate(52.134,-5.3932)">
		<g>
			<ellipse class="st1" cx="592.4" cy="209.1" rx="12.4" ry="12.6" />
		</g>
		<polyline class="st1" points="587,197.8 605.3,208.8 587,220.4   " />
	</g>
	<ellipse class="st10" cx="675.9" cy="203.9" rx="1.9" ry="1.9" />
	<line class="st9" x1="632" y1="204.8" x2="579.7" y2="204.8" />
	<ellipse class="st10" cx="702.1" cy="203.9" rx="1.9" ry="1.9" />
	<polygon class="st10" points="1063.7,202.5 1056,204 1063.7,205.5  " />
	<line class="st9" x1="675.9" y1="450.7" x2="675.9" y2="203" />
	<line class="st9" x1="676" y1="449.8" x2="207.3" y2="449.8" />
	<line class="st19" x1="206.4" y1="499.8" x2="206.4" y2="448.3" />
	<line class="st20" x1="206" y1="560" x2="206" y2="508.3" />
	<line class="st9" x1="702.1" y1="506" x2="702.1" y2="202.3" />
	<line class="st21" x1="147.3" y1="504.2" x2="71.2" y2="504.2" />
	<polygon class="st10" points="70,505.7 77.7,504.2 70,502.7  " />
	<line class="st22" x1="254.9" y1="504.2" x2="174" y2="504.2" />
	<g transform="translate(52.134,-5.3932)">
		<g>
			<ellipse class="st1" cx="109.1" cy="509.6" rx="12.4" ry="12.5" />
		</g>
		<polyline class="st1" points="114.5,520.9 96.2,509.9 114.5,498.3   " />
	</g>
	<polygon class="st10" points="70,561.5 77.7,560 70,558.5  " />
	<line class="st9" x1="147.3" y1="560.8" x2="73.8" y2="560.8" />
	<line class="st9" x1="206.1" y1="560" x2="168.6" y2="560" />
	<g>
		<ellipse class="st1" cx="158" cy="560" rx="9.6" ry="9.5" />
		<polygon class="st14" points="166,560 160,563.5 160,556.6   " />
	</g>
	<ellipse class="st10" cx="206" cy="560" rx="1.9" ry="1.9" />
	<line class="st9" x1="315.3" y1="504.3" x2="254.9" y2="504.3" />
	<line class="st9" x1="229.3" y1="560" x2="208.7" y2="560" />
	<line class="st9" x1="268.7" y1="560" x2="249" y2="560" />
	<g>
		<ellipse class="st1" cx="238.9" cy="560" rx="9.6" ry="9.5" />
		<polygon class="st14" points="246.9,560 240.8,563.5 240.8,556.6   " />
	</g>
	<g transform="translate(52.134,-5.3932)">
		<g>
			<ellipse class="st1" cx="230.7" cy="565.4" rx="12.4" ry="12.5" />
		</g>
		<polyline class="st1" points="236.1,576.7 217.8,565.7 236.1,554.1   " />
	</g>
	<line class="st23" x1="318" y1="560" x2="296.1" y2="560" />
	<line class="st24" x1="317" y1="559.7" x2="317" y2="503.9" />
	<ellipse class="st10" cx="316.3" cy="504.2" rx="1.9" ry="1.9" />
	<line class="st9" x1="337.6" y1="504.2" x2="317.4" y2="504.2" />
	<ellipse class="st10" cx="335.6" cy="504.2" rx="1.9" ry="1.9" />
	<line class="st9" x1="372" y1="504.9" x2="338" y2="504.9" />
	<line class="st9" x1="425.3" y1="504.2" x2="392" y2="504.2" />
	<g>
		<ellipse class="st1" cx="382.2" cy="504.2" rx="9.6" ry="9.5" />
		<polygon class="st14" points="390.2,504.2 384.1,507.7 384.1,500.7   " />
	</g>
	<ellipse class="st10" cx="428.1" cy="504.7" rx="1.9" ry="1.9" />
	<line class="st25" x1="335.7" y1="540.7" x2="335.7" y2="505.9" />
	<line class="st26" x1="428.6" y1="541.3" x2="428.6" y2="506.4" />
	<line class="st9" x1="371.6" y1="541.6" x2="335.3" y2="541.6" />
	<line class="st9" x1="429.3" y1="541.3" x2="393" y2="541.3" />
	<g>
		<ellipse class="st1" cx="382.2" cy="541.9" rx="9.6" ry="9.5" />
		<polygon class="st14" points="390.2,541.9 384.1,545.3 384.1,538.4   " />
	</g>
	<line class="st27" x1="466.2" y1="504.2" x2="427.3" y2="504.2" />
	<line class="st9" x1="572" y1="504.8" x2="519.3" y2="504.8" />
	<line class="st9" x1="700.7" y1="504.3" x2="596.7" y2="504.3" />
	<g transform="translate(52.134,-5.3932)">
		<g>
			<ellipse class="st1" cx="531.6" cy="509.6" rx="12.4" ry="12.5" />
		</g>
		<polyline class="st1" points="537,520.9 518.7,509.9 537,498.3   " />
	</g>
	<g>
		<line class="st1" x1="981.3" y1="184" x2="981.3" y2="203.8" />
		<ellipse class="st14" cx="981.3" cy="179.7" rx="4.9" ry="4.4" />
	</g>
	<line class="st9" x1="657.7" y1="204.3" x2="1051.8" y2="204.3" />
	<g transform="translate(52.134,-5.3932)">
		<line class="st17" x1="777" y1="205" x2="794.5" y2="205" />
		<line class="st1" x1="785.7" y1="204.5" x2="785.7" y2="185" />
	</g>
	<text transform="matrix(1 0 0 1 302.2516 346.3716)" class=" st8">Котел №3</text>
	<ellipse class="st28" cx="422.6" cy="280" rx="1.9" ry="1.9" />
	<g>
		<path class="st9" d="M608.2,203.9c0,2.4-2,4.4-4.4,4.4" />
		<path class="st9" d="M608.2,203.9c0-2.4-2-4.4-4.4-4.4" />
	</g>
	<line class="st29" x1="371.4" y1="280" x2="422.6" y2="280" />
	<rect x="297.1" y="233.8" class="st5" width="73.8" height="92.5" />
	<ellipse class="st30" cx="422.6" cy="146.1" rx="1.9" ry="1.9" />
	<line class="st29" x1="371.4" y1="146.1" x2="422.6" y2="146.1" />
	<line class="st29" x1="371.4" y1="379.8" x2="422.6" y2="379.8" />
	<rect x="297.1" y="333.6" class="st5" width="73.8" height="92.5" />
	<line class="st29" x1="422.6" y1="380.7" x2="422.6" y2="318" />
	<line class="st31" x1="422.6" y1="309.1" x2="422.6" y2="207.7" />
	<line class="st29" x1="421.7" y1="146.5" x2="467.7" y2="146.5" />
	<path class="st18" d="M488.9,146.3" />
	<line class="st29" x1="472.9" y1="142.1" x2="472.9" y2="150.2" />
	<line class="st29" x1="468.1" y1="142.2" x2="468.1" y2="150.3" />
	<line class="st29" x1="474" y1="146.1" x2="481.3" y2="146.1" />
	<line class="st29" x1="539" y1="146.3" x2="531.3" y2="146.3" />
	<path class="st18" d="M538.3,146" />
	<line class="st29" x1="525.3" y1="150.2" x2="525.3" y2="142.1" />
	<line class="st29" x1="530.1" y1="150.1" x2="530.1" y2="142" />
	<line class="st29" x1="525.2" y1="146.2" x2="517.9" y2="146.2" />
	<g transform="translate(52.134,-5.3932)">
		<path class="st9" d="M464.8,207.3c0,9.1-4.8,16.4-10.6,16.4h-13.4c-5.9,0-10.6-7.4-10.6-16.4v-59.6c0-9.1,4.8-16.4,10.6-16.4h13.4    c5.9,0,10.6,7.4,10.6,16.4C464.8,147.7,464.8,207.3,464.8,207.3z" />
	</g>
	<line class="st9" x1="563.1" y1="155.3" x2="563.1" y2="202.3" />
	<polygon class="st1" points="563.1,146.3 566.2,155.3 560,155.3  " />
	<line class="st32" x1="603.7" y1="146.2" x2="587.3" y2="146.2" />
	<g>
		<polygon class="st1" points="563.1,146.1 550,150.6 550,141.6   " />
		<polygon class="st1" points="563.1,146.1 576.3,141.6 576.3,150.6   " />
		<polygon class="st1" points="548.7,146.1 539.6,149.2 539.6,143   " />
		<polygon class="st1" points="577.7,146.1 586.8,143 586.8,149.2   " />
		<circle class="st1" cx="563.1" cy="127.9" r="9.7" />
		<line class="st1" x1="563.1" y1="137.6" x2="563.1" y2="146.1" />
		<text transform="matrix(1 0 0 1 555.5895 131.6146)" class="st33  st34">M1</text>
	</g>
	<ellipse class="st30" cx="605.1" cy="146" rx="1.9" ry="1.9" />
	<line class="st29" x1="630" y1="106.3" x2="603.7" y2="106.3" />
	<line class="st29" x1="677.3" y1="106" x2="650.7" y2="106" />
	<g>
		<ellipse class="st1" cx="640.6" cy="106" rx="9.6" ry="9.5" />
		<polygon class="st14" points="648.7,106 642.6,109.5 642.6,102.5   " />
	</g>
	<line class="st29" x1="605.1" y1="143" x2="605.1" y2="106.8" />
	<line class="st35" x1="676.3" y1="146.7" x2="676.3" y2="106.3" />
	<line class="st29" x1="631.5" y1="146.3" x2="604.7" y2="146.3" />
	<line class="st29" x1="674.8" y1="146.2" x2="650" y2="146.2" />
	<g>
		<ellipse class="st1" cx="641.1" cy="146.2" rx="9.6" ry="9.5" />
		<polygon class="st14" points="649.1,146.2 643,149.7 643,142.8   " />
	</g>
	<ellipse class="st30" cx="676.3" cy="146.4" rx="1.9" ry="1.9" />
	<line class="st29" x1="729.7" y1="146" x2="1054.3" y2="146" />
	<line class="st29" x1="678.7" y1="146.7" x2="705.3" y2="146.7" />
	<g transform="translate(52.134,-5.3932)">
		<g>
			<ellipse class="st1" cx="665.4" cy="151.3" rx="12.4" ry="12.6" />
		</g>
		<polyline class="st1" points="670.8,162.7 652.5,151.6 670.8,140   " />
	</g>
	<polygon class="st30" points="1054.3,147.4 1062,145.9 1054.3,144.4  " />
	<g>
		<line class="st1" x1="982" y1="125.1" x2="982" y2="144.9" />
		<ellipse class="st14" cx="982" cy="120.8" rx="4.9" ry="4.4" />
	</g>
	<g transform="translate(52.134,-5.3932)">
		<line class="st17" x1="778" y1="147.1" x2="795.5" y2="147.1" />
		<line class="st1" x1="786.7" y1="146.6" x2="786.7" y2="127.1" />
	</g>
	<line class="st9" x1="604.3" y1="199" x2="604.3" y2="148.2" />
	<line class="st9" x1="603.8" y1="445.5" x2="603.8" y2="208" />
	<g>
		<path class="st9" d="M608.2,449.7c0,2.4-2,4.4-4.4,4.4" />
		<path class="st9" d="M608.2,449.7c0-2.4-2-4.4-4.4-4.4" />
	</g>
	<line class="st9" x1="603.8" y1="467.6" x2="603.8" y2="454" />
	<line class="st36" x1="603.3" y1="467.6" x2="254.9" y2="467.6" />
	<line class="st37" x1="254.9" y1="501.7" x2="254.9" y2="467.6" />
	<ellipse class="st10" cx="254.9" cy="504.2" rx="1.9" ry="1.9" />
	<text transform="matrix(1 0 0 1 70.8559 116.3475)" class=" st13">    </text>
	<text transform="matrix(1 0 0 1 70.8559 129.3475)" class=" st8">от газоснабжающей</text>
	<text transform="matrix(1 0 0 1 635.4252 297.7238)" class=" st13">    </text>
	<text transform="matrix(1 0 0 1 84.469 140.1476)" class=" st8">организации</text>
	<text transform="matrix(1 0 0 1 618.3863 308.5239)" class=" st13">   </text>
	<text transform="matrix(1 0 0 1 69.9611 516.7493)" class=" st13">от водоканала</text>
	<text transform="matrix(1 0 0 1 70.8562 572.5829)" class=" st13">скважина </text>
	<text transform="matrix(1 0 0 1 70.8562 583.3829)" class=" st13">артезианской воды</text>
	<g>
		<path class="st29" d="M425.9,313.5c0,2.4-2,4.4-4.4,4.4" />
		<path class="st29" d="M425.9,313.5c0-2.4-2-4.4-4.4-4.4" />
	</g>
	<g>
		<path class="st29" d="M425.6,204.6c0,2.4-2,4.4-4.4,4.4" />
		<path class="st29" d="M425.6,204.6c0-2.4-2-4.4-4.4-4.4" />
	</g>
	<line class="st29" x1="422.6" y1="200.7" x2="422.6" y2="147.5" />
	<text transform="matrix(1 0 0 1 962.667 222.5002)" class=" st8">в систему теплоснабжения</text>
</g>
<text transform="matrix(1 0 0 1 234.8333 101)" class=" st39" data-core-parameter="Gas.VolumeFlow.Standard" id="Gas.VolumeFlow.Standard">Gstd</text>
<text transform="matrix(1 0 0 1 139.8333 76.5)" class=" st39" data-core-parameter="Gas.Pressure" id="Gas.Pressure">Pgas</text>
<text transform="matrix(1 0 0 1 38.3333 57.5)" class=" st39" data-core-parameter="Gas.Temperature" id="Gas.Temperature">Tgas</text>
<text transform="matrix(1 0 0 1 849.8333 126)" class=" st39" data-core-parameter="HeatSys.Pressure.SupplyPipe" id="HeatSys.Pressure.SupplyPipe">P1</text>
<text transform="matrix(1 0 0 1 846.8333 185.5)" class=" st39" data-core-parameter="HeatSys.Pressure.ReturnPipe" id="HeatSys.Pressure.ReturnPipe">P2</text>
<text transform="matrix(1 0 0 1 716.8333 124.5)" class=" st39" data-core-parameter="HeatSys.VolumeFlow.SupplyPipe" id="HeatSys.VolumeFlow.SupplyPipe">G1</text>
<text transform="matrix(1 0 0 1 661.3333 187)" class=" st39" data-core-parameter="HeatSys.VolumeFlow.ReturnPipe" id="HeatSys.VolumeFlow.ReturnPipe">G2</text>
<text transform="matrix(1 0 0 1 992.9997 182.3332)" class=" st39" data-core-parameter="HeatSys.Temper.ReturnPipe" id="HeatSys.Temper.ReturnPipe">T2</text>
<text transform="matrix(1 0 0 1 993.9997 124.9998)" class=" st39" data-core-parameter="HeatSys.Temper.SupplyPipe" id="HeatSys.Temper.SupplyPipe">T1</text>
</svg>