<svg version="1.1" xmlns="http://www.w3.org/2000/svg" xmlns:xlink="http://www.w3.org/1999/xlink" x="0px" y="0px" viewBox="0 0 1200 700" style="enable-background:new 0 0 1200 700;" xml:space="preserve" width="1200" height="700">
<style type="text/css">
	.st0{fill:none;stroke:#000000;stroke-width:4;stroke-miterlimit:10;}
	.st1{fill:none;stroke:#000000;stroke-width:2;stroke-miterlimit:10;}
	.st2{fill:none;stroke:#000000;stroke-width:3;stroke-miterlimit:10;}
	.st4{font-size:18px;}
	.st5{font-size:24px;}
	.st6{fill:#FFFFFF;stroke:#000000;stroke-width:3;stroke-miterlimit:10;}
	.st7{fill:none;stroke:#000000;stroke-miterlimit:10;}
</style><script />
<g id="MainLayer">
	<line class="st0" x1="158.2" y1="54" x2="454.2" y2="54" />
	<line class="st0" x1="452.2" y1="54" x2="748.2" y2="54" />
	<line class="st0" x1="746.2" y1="54" x2="1042.2" y2="54" />
	<line class="st0" x1="1042.1" y1="52.1" x2="1042.2" y2="179" />
	<line class="st0" x1="156.2" y1="180" x2="452.2" y2="180" />
	<line class="st0" x1="453.2" y1="180" x2="749.2" y2="180" />
	<line class="st0" x1="748.2" y1="180" x2="1044.2" y2="180" />
	<line class="st0" x1="745.2" y1="310" x2="1041.2" y2="310" />
	<line class="st1" x1="746.2" y1="54" x2="746.2" y2="180" />
	<line class="st1" x1="452.2" y1="55" x2="452.2" y2="181" />
	<line class="st1" x1="157.2" y1="52.1" x2="157.2" y2="182" />
	<line class="st1" x1="746.2" y1="182" x2="746.2" y2="308" />
	<line class="st0" x1="1042.2" y1="182" x2="1042.2" y2="309.1" />
	<line class="st0" x1="1042.2" y1="309" x2="1042.2" y2="435" />
	<line class="st0" x1="878.2" y1="433" x2="1041.2" y2="433" />
	<line class="st0" x1="1042.2" y1="435" x2="1042.2" y2="598" />
	<line class="st1" x1="157.2" y1="182" x2="157.2" y2="308" />
	<line class="st2" x1="156.8" y1="306.8" x2="929.7" y2="598" />
	<line class="st1" x1="746.2" y1="309" x2="746.2" y2="528.5" />
	<line class="st1" x1="452.2" y1="178" x2="452.2" y2="418" />
	<line class="st2" x1="1062.2" y1="598" x2="895.2" y2="598" />
	<line class="st2" x1="1064.2" y1="669" x2="897.2" y2="669" />
	<line class="st2" x1="896.2" y1="597" x2="896.2" y2="670.2" />
	<line class="st2" x1="1063.4" y1="596.2" x2="1063.4" y2="670.2" />
	<line class="st2" x1="801.2" y1="548" x2="801.2" y2="428" />
	<text transform="matrix(1 0 0 1 563.1712 76.9955)" class=" st4">ул. Г. Тукая (четные)</text>
	<text transform="matrix(1 0 0 1 530.1712 206.9955)" class=" st4">ул. Г. Тукая (нечетные)</text>
	<text transform="matrix(1 0 0 1 844.1712 333.9955)" class=" st4">ул. Ф. Шаляпина</text>
	<text transform="matrix(1 0 0 1 896.1712 457.9955)" class=" st4">ул. М. Джалиля</text>
	<text transform="matrix(1 0 0 1 954.1712 637.9955)" class=" st5">ВЗУ</text>
	<rect x="20.2" y="223" class="st6" width="88" height="55" />
	<line class="st1" x1="110.2" y1="253" x2="157.2" y2="253" />
	<text transform="matrix(1 0 0 1 12.1712 204.9955)" class=" st5">котельная</text>
	<circle cx="452.7" cy="178.5" r="7.5" />
	<circle cx="1042.7" cy="54.5" r="7.5" />
	<circle cx="1042.7" cy="178.5" r="7.5" />
	<circle cx="1040.7" cy="308.5" r="7.5" />
	<circle cx="1043.7" cy="433.5" r="7.5" />
	<circle cx="800.7" cy="548.5" r="7.5" />
	<g>
		<line class="st7" x1="201.2" y1="53" x2="201.2" y2="24" />
		<line class="st7" x1="244.2" y1="52" x2="244.2" y2="23" />
		<line class="st7" x1="286.2" y1="52" x2="286.2" y2="23" />
		<line class="st7" x1="327.2" y1="52" x2="327.2" y2="23" />
		<line class="st7" x1="369.2" y1="52" x2="369.2" y2="23" />
		<line class="st7" x1="410.2" y1="52" x2="410.2" y2="23" />
	</g>
	<g>
		<line class="st7" x1="493.8" y1="52.6" x2="493.8" y2="23.6" />
		<line class="st7" x1="536.8" y1="51.6" x2="536.8" y2="22.6" />
		<line class="st7" x1="578.8" y1="51.6" x2="578.8" y2="22.6" />
		<line class="st7" x1="619.8" y1="51.6" x2="619.8" y2="22.6" />
		<line class="st7" x1="661.8" y1="51.6" x2="661.8" y2="22.6" />
		<line class="st7" x1="702.8" y1="51.6" x2="702.8" y2="22.6" />
	</g>
	<g>
		<line class="st7" x1="790.2" y1="53" x2="790.2" y2="24" />
		<line class="st7" x1="833.2" y1="52" x2="833.2" y2="23" />
		<line class="st7" x1="875.2" y1="52" x2="875.2" y2="23" />
		<line class="st7" x1="916.2" y1="52" x2="916.2" y2="23" />
		<line class="st7" x1="958.2" y1="52" x2="958.2" y2="23" />
		<line class="st7" x1="999.2" y1="52" x2="999.2" y2="23" />
	</g>
	<g>
		<line class="st7" x1="789.8" y1="179" x2="789.8" y2="150" />
		<line class="st7" x1="832.8" y1="178" x2="832.8" y2="149" />
		<line class="st7" x1="874.8" y1="178" x2="874.8" y2="149" />
		<line class="st7" x1="915.8" y1="178" x2="915.8" y2="149" />
		<line class="st7" x1="957.8" y1="178" x2="957.8" y2="149" />
		<line class="st7" x1="998.8" y1="178" x2="998.8" y2="149" />
	</g>
	<g>
		<line class="st7" x1="496.2" y1="179" x2="496.2" y2="150" />
		<line class="st7" x1="539.2" y1="178" x2="539.2" y2="149" />
		<line class="st7" x1="581.2" y1="178" x2="581.2" y2="149" />
		<line class="st7" x1="622.2" y1="178" x2="622.2" y2="149" />
		<line class="st7" x1="664.2" y1="178" x2="664.2" y2="149" />
		<line class="st7" x1="705.2" y1="178" x2="705.2" y2="149" />
	</g>
	<g>
		<line class="st7" x1="789" y1="309.6" x2="789" y2="280.6" />
		<line class="st7" x1="832" y1="308.6" x2="832" y2="279.6" />
		<line class="st7" x1="874" y1="308.6" x2="874" y2="279.6" />
		<line class="st7" x1="915" y1="308.6" x2="915" y2="279.6" />
		<line class="st7" x1="957" y1="308.6" x2="957" y2="279.6" />
		<line class="st7" x1="998" y1="308.6" x2="998" y2="279.6" />
	</g>
	<line class="st7" x1="878.8" y1="431.8" x2="878.8" y2="402.8" />
	<line class="st7" x1="913" y1="431" x2="913" y2="402" />
	<line class="st7" x1="943.8" y1="431.8" x2="943.8" y2="402.8" />
	<line class="st7" x1="974.8" y1="431.8" x2="974.8" y2="402.8" />
	<line class="st7" x1="1006.8" y1="431.8" x2="1006.8" y2="402.8" />
	<circle cx="156.7" cy="251.5" r="7.5" />
</g>
<text transform="matrix(1 0 0 1 1061.1711 51.9955)" class=" st5" data-core-parameter="Monitoring.Pressure1" id="Monitoring.Pressure1">P1</text>
<text transform="matrix(1 0 0 1 1060.1711 181.9955)" class=" st5" data-core-parameter="Monitoring.Pressure5" id="Monitoring.Pressure5">P5</text>
<text transform="matrix(1 0 0 1 1061.1711 301.9955)" class=" st5" data-core-parameter="Monitoring.Pressure3" id="Monitoring.Pressure3">P3</text>
<text transform="matrix(1 0 0 1 1059.1711 435.9955)" class=" st5" data-core-parameter="Monitoring.Pressure6" id="Monitoring.Pressure6">P6</text>
<text transform="matrix(1 0 0 1 815.1712 534.9955)" class=" st5" data-core-parameter="Monitoring.Pressure4" id="Monitoring.Pressure4">P4</text>
<text transform="matrix(1 0 0 1 469.1712 130.9955)" class=" st5" data-core-parameter="Monitoring.Pressure2" id="Monitoring.Pressure2">P2</text>
<text transform="matrix(1 0 0 1 177.1712 258.9955)" class=" st5" data-core-parameter="Monitoring.Pressure.Makeup" id="Monitoring.Pressure.Makeup">P</text>
</svg>