<svg xmlns="http://www.w3.org/2000/svg" xmlns:xlink="http://www.w3.org/1999/xlink" version="1.1" x="0px" y="0px" viewBox="0 0 1200 700" width="1200" height="700" style="enable-background:new 0 0 1062 666;" xml:space="preserve">
	<style type="text/css">
	.st0{fill:none;stroke:#EA5B0C;stroke-miterlimit:10;}
	.st1{fill:none;stroke:#000000;stroke-miterlimit:10;}
	.st2{stroke:#010202;stroke-miterlimit:10;}
	.st3{fill:#010202;stroke:#010202;stroke-miterlimit:10;}
	.st4{fill:#BE1622;stroke:#BE1622;stroke-miterlimit:10;}
	.st5{fill:#E30613;stroke:#E30613;stroke-miterlimit:10;}
	.st6{fill:none;stroke:#E30613;stroke-miterlimit:10;}
	.st8{font-size:12px;}
	.st9{stroke:#E30613;stroke-miterlimit:10;}
	.st10{fill:#E30613;}
	.st11{fill:#EA5B0C;stroke:#EA5B0C;stroke-miterlimit:10;}
	.st12{stroke:#010202;stroke-miterlimit:10;}
	.st14{fill:none;stroke:#BE1622;stroke-miterlimit:10;}
	.st16{fill:#FFFFFF;stroke:#000000;stroke-miterlimit:10;}	
	.st19{font-size:10.8px;}
	.st20{fill:#008D36;stroke:#008D36;stroke-miterlimit:10;}
	.st21{fill:#1D71B8;stroke:#E30613;stroke-miterlimit:10;}
	.st22{fill:#312783;stroke:#312783;stroke-miterlimit:10;}
	.st23{stroke:#010202;stroke-miterlimit:10;}
	.st24{enable-background:new    ;}
	.st25{font-size:9px;}
	.st26{fill:none;stroke:#010202;stroke-width:3;stroke-miterlimit:10;}
	.st27{fill:none;stroke:#008D36;stroke-miterlimit:10;}
	.st28{fill:#008D36;stroke:#3AAA35;stroke-miterlimit:10;}
	.st29{fill:none;stroke:#008D36;stroke-miterlimit:10;stroke-dasharray:3.7427,3.7427;}
	.st30{fill:none;stroke:#008D36;stroke-miterlimit:10;stroke-dasharray:4.9089,4.9089;}
	.st31{fill:none;stroke:#1D71B8;stroke-miterlimit:10;}
	.st32{fill:none;stroke:#312783;stroke-miterlimit:10;}
	.st33{font-size:11px;}
	.st34{fill:#312783;}
	.st35{fill:#1D71B8;stroke:#1D71B8;stroke-miterlimit:10;}
</style>
	<script>       	
    jQuery(Core.Common.Mnemoscheme.Selector).on(Core.Common.EventTypes.MnemoschemeWidgetManager.MnemoschemeLoadComplete, 
		function()
      	{      		    
      		jQuery(this).data(Core.Common.Mnemoscheme.CustomAppearanceContainerKey, {
                ellipse:
                {
                    states:
                    [
                        {
                            dictionaryValueCode: "PowerOff",
                            attributes:
                            [
                                { name: "fill", value: "gray" }
                            ]
                        },
                        {
                            dictionaryValueCode: "PowerOn",
                            attributes:
                            [
                                { name: "fill", value: "#3ec83e" }
                            ]
                        }
                    ]
                }
            });  
      
      		Core.Common.Mnemoscheme.MissingParameterRenderer = function(tagName, jQElement, parameterName)
            {
              	// ? - \ue195
              	// ! - \ue505
              	// ! - \uE197
                            
              	if (tagName === "text" || tagName === "tspan")
            	{
                  jQElement.text("\uE197");
                  jQElement.css
                  	({
                    	"font-family": "Glyphicons",  "font-size": "9px",
                      	"fill": "#0072C6"
					});
                } else if(tagName === "ellipse")
                {                      	
                  	var jt = jQuery("svg text[data-core-parameter-proxy=&apos;{0}&apos;]".format(jQElement.attr("data-core-parameter")));
                  	if(jt.length == 0)
                    {
                      var jText = jQuery(document.createElementNS("http://www.w3.org/2000/svg", "text"));                  
                      var b = (jQElement[Number.zero]).getBBox();

                      jText.css({                      			
                                  "fill": "#0072C6",
                                  "font-size": "9px",
                                  "font-family": "Glyphicons"
                                 });                                    
                      jText.attr("transform", "translate(" + (b.x + b.width/2 + 7) + " " + (b.y + b.height/2 - 8) + ")");                    
                      jText.attr("data-core-parameter-proxy", jQElement.attr("data-core-parameter"));
                      jText.text("\uE197");           

                      jText.insertAfter(jQElement);     
                    }
                  else
                  {
                    jt.text("\uE197");
                  }
                }
            };
		});
  	
	</script>
	<g id="Котел-5">
		<path class="st0" d="M235.4,471.2" />
	</g>
	<g id="Котел-4">
		<rect x="297.9" y="411.1" class="st1" width="73.8" height="92.5" />
		<line class="st1" x1="278.3" y1="466.1" x2="297.9" y2="466.1" />
		<line class="st1" x1="290.3" y1="478.8" x2="297.9" y2="478.8" />
		<path class="st1" d="M290.9,478.8c0,7-5.7,12.7-12.7,12.7" />
		<path class="st1" d="M265.6,478.8c0-7,5.7-12.7,12.7-12.7" />
		<path class="st1" d="M265.6,478.8c0,7,5.7,12.7,12.7,12.7" />
		<g>
			<ellipse class="st2" cx="397.2" cy="462.9" rx="9.5" ry="9.6" fill="none" data-core-parameter="Monitoring.State.RecirculatingPump4" />
			<polygon class="st3" points="400.7,464.8 397.2,470.9 393.7,464.8   " />
		</g>
		<line class="st4" x1="371.7" y1="434.9" x2="432.2" y2="434.9" />
		<line class="st5" x1="371.7" y1="487.6" x2="410.7" y2="487.6" />
		<line class="st4" x1="397.2" y1="453.3" x2="397.2" y2="434.9" />
		<line class="st5" x1="397.2" y1="472.5" x2="397.2" y2="487.6" />
		<ellipse class="st4" cx="397.4" cy="434.9" rx="1.9" ry="1.9" />
		<ellipse class="st5" cx="397.2" cy="487.6" rx="1.9" ry="1.9" />
		<ellipse class="st4" cx="432.2" cy="339.9" rx="1.9" ry="1.9" />
		<g>
			<path class="st6" d="M415.1,434.9c0,2.4-2,4.4-4.4,4.4" />
			<path class="st6" d="M415.1,434.9c0-2.4-2-4.4-4.4-4.4" />
		</g>
		<line class="st5" x1="410.7" y1="439.2" x2="410.7" y2="487.6" />
		<text transform="matrix(1 0 0 1 309.9243 425.3726)" class="st7 st8">Котел №4</text>
		<line class="st4" x1="432.2" y1="339.9" x2="432.2" y2="434.9" />
		<text transform="matrix(1 0 0 1 312 461)" class="st8" data-core-parameter="Monitoring.EmergencyState.Boiler4">НОРМА</text>
		<line class="st0" x1="267.5" y1="471.2" x2="235.4" y2="471.2" />
		<line class="st0" x1="235.4" y1="471.2" x2="235.4" y2="377.2" />
		<ellipse class="st11" cx="235.4" cy="377.2" rx="1.9" ry="1.9" />
		<line class="st5" x1="410.7" y1="392.6" x2="410.7" y2="430.5" />
		<ellipse class="st5" cx="410.7" cy="392.6" rx="1.9" ry="1.9" />
	</g>
	<g id="Котел-3">
		<line class="st5" x1="371.7" y1="392.6" x2="410.7" y2="392.6" />
		<g>
			<path class="st6" d="M415.1,339.9c0,2.4-2,4.4-4.4,4.4" />
			<path class="st6" d="M415.1,339.9c0-2.4-2-4.4-4.4-4.4" />
		</g>
		<line class="st5" x1="410.7" y1="392.6" x2="410.7" y2="344.2" />
		<rect x="297.9" y="316.1" class="st1" width="73.8" height="92.5" />
		<line class="st1" x1="278.3" y1="371.1" x2="297.9" y2="371.1" />
		<line class="st1" x1="290.3" y1="383.8" x2="297.9" y2="383.8" />
		<path class="st1" d="M290.9,383.8c0,7-5.7,12.7-12.7,12.7" />
		<path class="st1" d="M265.6,383.8c0-7,5.7-12.7,12.7-12.7" />
		<path class="st1" d="M265.6,383.8c0,7,5.7,12.7,12.7,12.7" />
		<line class="st4" x1="371.7" y1="339.9" x2="432.2" y2="339.9" />
		<line class="st4" x1="397.2" y1="358.3" x2="397.2" y2="339.9" />
		<line class="st5" x1="397.2" y1="377.5" x2="397.2" y2="392.6" />
		<ellipse class="st4" cx="397.4" cy="339.9" rx="1.9" ry="1.9" />
		<ellipse class="st5" cx="397.2" cy="392.6" rx="1.9" ry="1.9" />
		<ellipse class="st4" cx="432.2" cy="243.5" rx="1.9" ry="1.9" />
		<ellipse class="st5" cx="410.7" cy="296.2" rx="1.9" ry="1.9" />
		<line class="st5" x1="410.7" y1="296.2" x2="410.7" y2="335.5" />
		<text transform="matrix(1 0 0 1 309.8657 327.3726)" class="st7 st8">Котел №3</text>
		<g>
			<ellipse class="st12" cx="397.4" cy="367.4" rx="9.5" ry="9.6" fill="none" data-core-parameter="Monitoring.State.RecirculatingPump3" />
			<polygon class="st3" points="400.8,369.4 397.4,375.4 393.9,369.4   " />
		</g>
		<line class="st4" x1="432.2" y1="243.5" x2="432.2" y2="339.9" />
		<text transform="matrix(1 0 0 1 312 365)" class="st13 st8" data-core-parameter="Monitoring.EmergencyState.Boiler3">НОРМА</text>
		<line class="st0" x1="267.5" y1="377.2" x2="235.4" y2="377.2" />
		<line class="st0" x1="235.4" y1="377.2" x2="235.4" y2="280.2" />
		<ellipse class="st11" cx="235.4" cy="280.2" rx="1.9" ry="1.9" />
	</g>
	<g id="Котел-2">
		<line class="st4" x1="371.7" y1="243.5" x2="432.2" y2="243.5" />
		<rect x="297.9" y="219.8" class="st1" width="73.8" height="92.5" />
		<line class="st1" x1="278.3" y1="274.8" x2="297.9" y2="274.8" />
		<line class="st1" x1="290.3" y1="287.4" x2="297.9" y2="287.4" />
		<path class="st1" d="M290.9,287.4c0,7-5.7,12.7-12.7,12.7" />
		<path class="st1" d="M265.6,287.4c0-7,5.7-12.7,12.7-12.7" />
		<path class="st1" d="M265.6,287.4c0,7,5.7,12.7,12.7,12.7" />
		<line class="st5" x1="371.7" y1="296.2" x2="410.7" y2="296.2" />
		<line class="st4" x1="397.2" y1="261.9" x2="397.2" y2="243.5" />
		<line class="st5" x1="397.2" y1="281.1" x2="397.2" y2="296.2" />
		<ellipse class="st4" cx="397.4" cy="243.5" rx="1.9" ry="1.9" />
		<ellipse class="st5" cx="397.2" cy="296.2" rx="1.9" ry="1.9" />
		<ellipse class="st4" cx="432.2" cy="146.9" rx="1.9" ry="1.9" />
		<ellipse class="st5" cx="410.7" cy="199.6" rx="1.9" ry="1.9" />
		<g>
			<path class="st6" d="M415.1,243.5c0,2.4-2,4.4-4.4,4.4" />
			<path class="st6" d="M415.1,243.5c0-2.4-2-4.4-4.4-4.4" />
		</g>
		<line class="st5" x1="410.7" y1="247.9" x2="410.7" y2="296.2" />
		<line class="st5" x1="410.7" y1="239.1" x2="410.7" y2="199.6" />
		<g>
			<path class="st14" d="M436.3,199.6c0,2.4-2,4.4-4.4,4.4" />
			<path class="st14" d="M436.3,199.6c0-2.4-2-4.4-4.4-4.4" />
		</g>
		<line class="st4" x1="431.9" y1="195.2" x2="432.2" y2="146.9" />
		<text transform="matrix(1 0 0 1 309.8657 233.0005)" class="st7 st8">Котел №2</text>
		<g>
			<ellipse class="st12" cx="397.2" cy="271.8" rx="9.5" ry="9.6" data-core-parameter="Monitoring.State.RecirculatingPump2" fill="none" />
			<polygon class="st3" points="400.7,273.8 397.2,279.8 393.7,273.8   " />
		</g>
		<line class="st4" x1="432.2" y1="243.5" x2="432.2" y2="203.9" />
		<text transform="matrix(1 0 0 1 312 270)" class="st15 st7 st8" data-core-parameter="Monitoring.EmergencyState.Boiler2">НОРМА</text>
		<line class="st0" x1="267.5" y1="280.2" x2="235.4" y2="280.2" />
		<line class="st0" x1="235.4" y1="280.2" x2="235.4" y2="183.2" />
		<ellipse class="st11" cx="235.4" cy="183.4" rx="1.9" ry="1.9" />
		<text transform="matrix(1 0 0 1 422.8447 33.6768)">
			<tspan x="0" y="0" class="st7 st8">Состояние датчиков загазованности:</tspan>
			<tspan x="62.6" y="28.8" class="st7 st8">Статус сетевого питания:</tspan>
		</text>
	</g>
	<g id="Главный_слой">
		<rect x="297.9" y="123.1" class="st1" width="73.8" height="92.5" />
		<line class="st1" x1="278.3" y1="178.1" x2="297.9" y2="178.1" />
		<line class="st1" x1="290.3" y1="190.8" x2="297.9" y2="190.8" />
		<path class="st1" d="M290.9,190.8c0,7-5.7,12.7-12.7,12.7" />
		<path class="st1" d="M265.6,190.8c0-7,5.7-12.7,12.7-12.7" />
		<path class="st1" d="M265.6,190.8c0,7,5.7,12.7,12.7,12.7" />
		<circle class="st16" cx="278.3" cy="190.8" r="3.1" />
		<line class="st4" x1="371.7" y1="146.9" x2="473.4" y2="146.9" />
		<line class="st5" x1="371.7" y1="199.6" x2="410.7" y2="199.6" />
		<line class="st4" x1="397.2" y1="165.3" x2="397.2" y2="146.9" />
		<line class="st5" x1="397.2" y1="184.5" x2="397.2" y2="199.6" />
		<ellipse class="st4" cx="397.4" cy="146.9" rx="1.9" ry="1.9" />
		<ellipse class="st5" cx="397.2" cy="199.6" rx="1.9" ry="1.9" />
		<line class="st5" x1="410.7" y1="199.6" x2="492.9" y2="199.6" />
		<text transform="matrix(1 0 0 1 309.8657 136.9829)" class="st7 st8">Котел №1</text>
		<polygon class="st2" points="515.5,173.5 520,160.3 524.5,173.5  " fill="none" />
		<polygon class="st2" points="524.5,147.2 520,160.3 515.5,147.2  " fill="none" />
		<polygon class="st2" points="516.9,182.6 520,173.5 523.1,182.6  " fill="none" />
		<polygon class="st2" points="523.1,138.1 520,147.2 516.9,138.1  " fill="none" />
		<ellipse transform="matrix(-1 -1.035834e-003 1.035834e-003 -1 1076.0225 321.2131)" class="st2" cx="538.1" cy="160.3" rx="9.7" ry="9.1" fill="none" />
		<line class="st2" x1="519.9" y1="160.3" x2="528.4" y2="160.3" />
		<text transform="matrix(1 1.030000e-003 -1.030000e-003 1 531.6243 164.1774)" class="st17 st18 st19">M1</text>
		<g>
			<path class="st14" d="M477.8,199.6c0,2.4-2,4.4-4.4,4.4" />
			<path class="st14" d="M477.8,199.6c0-2.4-2-4.4-4.4-4.4" />
		</g>
		<line class="st4" x1="473.4" y1="195.2" x2="473.4" y2="124.2" />
		<ellipse class="st4" cx="473.4" cy="146.9" rx="1.9" ry="1.9" />
		<ellipse class="st5" cx="453" cy="199.6" rx="1.9" ry="1.9" />
		<g>
			<ellipse class="st2" cx="533.1" cy="578.5" rx="9.6" ry="9.5" fill="none" data-core-parameter="Monitoring.State.MakeupPump1" />
			<polygon class="st3" points="535.1,575 541.1,578.5 535.1,582   " />
		</g>
		<line class="st20" x1="542.7" y1="578.5" x2="552.6" y2="578.5" />
		<line class="st20" x1="552.6" y1="578.5" x2="552.5" y2="603.7" />
		<line class="st20" x1="552.5" y1="603.7" x2="542.7" y2="603.7" />
		<line class="st20" x1="523.5" y1="578.5" x2="516.5" y2="578.5" />
		<line class="st20" x1="516.5" y1="578.5" x2="516.5" y2="603.7" />
		<line class="st20" x1="516.5" y1="603.7" x2="523.5" y2="603.7" />
		<line class="st20" x1="569.6" y1="604.1" x2="552.5" y2="604.1" />
		<line class="st20" x1="516.5" y1="604.1" x2="448.4" y2="604.1" />
		<line class="st5" x1="492.9" y1="199.6" x2="601.2" y2="199.6" />
		<line class="st21" x1="601" y1="199.6" x2="581.3" y2="199.6" />
		<g>
			<ellipse fill="none" class="st12" cx="397.2" cy="175.4" rx="9.5" ry="9.6" data-core-parameter="Monitoring.State.RecirculatingPump1" />
			<polygon class="st3" points="400.7,177.3 397.2,183.4 393.7,177.3   " />
		</g>
		<g>
			<ellipse class="st12" cx="533.1" cy="603.7" rx="9.6" ry="9.5" fill="none" data-core-parameter="Monitoring.State.MakeupPump2" />
			<polygon class="st3" points="535.1,600.2 541.1,603.7 535.1,607.1   " />
		</g>
		<line class="st21" x1="636.9" y1="199.6" x2="700" y2="199.6" />
		<line class="st21" x1="700" y1="199.6" x2="791.4" y2="199.6" />
		<g>
			<ellipse class="st12" cx="719.3" cy="357.7" rx="9.6" ry="9.5" fill="none" data-core-parameter="Monitoring.State.HwsPump1Circuit2" />
			<polygon class="st3" points="717.3,361.1 711.2,357.7 717.3,354.2   " />
		</g>
		<line class="st22" x1="709.7" y1="382.8" x2="699.7" y2="382.8" />
		<line class="st22" x1="699.9" y1="357.7" x2="709.7" y2="357.7" />
		<line class="st22" x1="728.9" y1="382.8" x2="735.9" y2="382.8" />
		<line class="st22" x1="735.9" y1="630.3" x2="735.9" y2="357.7" />
		<line class="st22" x1="735.9" y1="357.7" x2="728.9" y2="357.7" />
		<line class="st22" x1="710.1" y1="407.4" x2="700.2" y2="407.4" />
		<line class="st22" x1="729.3" y1="407.4" x2="736.3" y2="407.4" />
		<line class="st22" x1="710.1" y1="432.1" x2="700.2" y2="432.1" />
		<line class="st22" x1="729.3" y1="432.1" x2="736.3" y2="432.1" />
		<line class="st22" x1="699.9" y1="357.7" x2="699.9" y2="432.1" />
		<g>
			<ellipse class="st12" cx="719.3" cy="382.8" rx="9.6" ry="9.5" fill="none" data-core-parameter="Monitoring.State.HwsPump2Circuit2" />
			<polygon class="st3" points="717.3,386.3 711.2,382.8 717.3,379.4" />
		</g>
		<g>
			<ellipse class="st2" cx="719.3" cy="407.4" rx="9.6" ry="9.5" fill="none" data-core-parameter="Monitoring.State.HwsPump3Circuit2" />
			<polygon class="st23" points="717.3,410.9 711.2,407.4 717.3,403.9" />
		</g>
		<g>
			<ellipse class="st2" cx="719.3" cy="432.1" rx="9.6" ry="9.5" fill="none" data-core-parameter="Monitoring.State.Unknown" />
			<polygon class="st23" points="717.3,435.6 711.2,432.1 717.3,428.7" />
		</g>
		<line class="st22" x1="699.9" y1="357.7" x2="642.9" y2="357.7" />
		<ellipse class="st22" cx="700.2" cy="357.7" rx="1.9" ry="1.9" />
		<ellipse class="st22" cx="699.7" cy="382.8" rx="1.9" ry="1.9" />
		<ellipse class="st22" cx="699.7" cy="407.4" rx="1.9" ry="1.9" />
		<ellipse class="st22" cx="735.9" cy="432.1" rx="1.9" ry="1.9" />
		<ellipse class="st22" cx="735.9" cy="382.8" rx="1.9" ry="1.9" />
		<ellipse class="st22" cx="735.9" cy="407.4" rx="1.9" ry="1.9" />
		<g>
			<g>
				<ellipse class="st2" cx="821.3" cy="123.6" rx="12.4" ry="12.5" fill="none" />
			</g>
			<polyline class="st2" points="815.9,112.3 834.2,123.3 815.9,134.9" fill="none" />
		</g>
		<text transform="matrix(1 0 0 1 312 176)" class="st15 st7 st8" data-core-parameter="Monitoring.EmergencyState.Boiler1">НОРМА</text>
		<line class="st4" x1="473.4" y1="124.9" x2="780" y2="124.9" />
		<g>
			<g>
				<ellipse class="st2" cx="821.8" cy="60.8" rx="12.4" ry="12.5" fill="none" />
			</g>
			<polyline class="st2" points="827.2,72.2 808.9,61.1 827.2,49.5" fill="none" />
		</g>
		<g>
			<g>
				<ellipse class="st2" cx="822.8" cy="427.2" rx="12.4" ry="12.6" fill="none" />
			</g>
			<polyline class="st2" points="828.2,438.5 809.9,427.5 828.2,415.9" fill="none" />
		</g>
		<line class="st4" x1="834.2" y1="60.8" x2="936.8" y2="60.8" />
		<line class="st5" x1="834.2" y1="123.3" x2="936.8" y2="123.3" />
		<polygon class="st4" points="936.8,59.3 936.8,62.3 944.5,60.8" />
		<polygon class="st5" points="944.5,124.8 944.5,121.8 936.8,123.3" />
		<line class="st22" x1="835.2" y1="426.6" x2="937.8" y2="426.6" />
		<polygon class="st22" points="937.8,425.1 937.8,428.1 945.5,426.6" />
		<line class="st2" x1="921.8" y1="408.3" x2="921.8" y2="426.6" />
		<path class="st2" d="M839.2,397.8" />
		<ellipse class="st3" cx="921.8" cy="404" rx="4.4" ry="4.4" />
		<line class="st2" x1="920.3" y1="42.5" x2="920.3" y2="60.8" />
		<ellipse class="st3" cx="920.3" cy="38.2" rx="4.4" ry="4.4" />
		<line class="st2" x1="920.3" y1="105" x2="920.3" y2="123.3" />
		<ellipse class="st3" cx="920.3" cy="100.7" rx="4.4" ry="4.4" />
		<text transform="matrix(1 0 0 1 912.9766 386.2749)" class="st24">
			<tspan x="0" y="0" class="st17 st18 st25">T3.1</tspan>
			<tspan x="-0.9" y="10.8" class="st17 st18 st25" data-core-parameter="Hws.Temper.Consumer1.SupplyPipe">65ºС</tspan>
		</text>
		<text transform="matrix(1 0 0 1 911.543 21.3223)" class="st24">
			<tspan x="0" y="0" class="st17 st18 st25">T1.1</tspan>
			<tspan x="-0.9" y="10.8" class="st17 st18 st25" data-core-parameter="HeatSys.Temper.Consumer1.SupplyPipe">90ºС</tspan>
		</text>
		<text transform="matrix(1 0 0 1 911.876 81.8213)" class="st24">
			<tspan x="0" y="0" class="st17 st18 st25">T2.1</tspan>
			<tspan x="-0.9" y="10.8" class="st17 st18 st25" data-core-parameter="HeatSys.Temper.Consumer1.ReturnPipe">70ºС</tspan>
		</text>
		<text transform="matrix(1 0 0 1 812.7256 31.8223)" class="st24">
			<tspan x="0" y="0" class="st17 st18 st25">G1.1</tspan>
			<tspan x="-7.6" y="10.8" class="st17 st18 st25" data-core-parameter="HeatSys.VolumeFlow.Consumer1.SupplyPipe">123м3/ч</tspan>
		</text>
		<text transform="matrix(1 0 0 1 812.7256 96.3242)" class="st24">
			<tspan x="0" y="0" class="st17 st18 st25">G2.1</tspan>
			<tspan x="-7.6" y="10.8" class="st17 st18 st25" data-core-parameter="HeatSys.VolumeFlow.Consumer1.ReturnPipe">115м3/ч</tspan>
		</text>
		<text transform="matrix(1 0 0 1 813.7256 399.5503)" class="st24">
			<tspan x="0" y="0" class="st17 st18 st25">G3.1</tspan>
			<tspan x="-5.1" y="10.8" class="st17 st18 st25" data-core-parameter="Hws.VolumeFlow.Consumer1.SupplyPipe">48м3/ч</tspan>
		</text>
		<g>
			<line class="st26" x1="862" y1="57.9" x2="879.5" y2="57.9" />
			<line class="st2" x1="870.7" y1="57.4" x2="870.7" y2="37.9" />
		</g>
		<text transform="matrix(1 0 0 1 861.6875 22.4395)" class="st24">
			<tspan x="0" y="0" class="st17 st18 st25">P1.1</tspan>
			<tspan x="-12.8" y="10.8" class="st17 st18 st25" data-core-parameter="HeatSys.Pressure.Consumer1.SupplyPipe">5.5кгс/см2</tspan>
		</text>
		<g>
			<line class="st26" x1="861.7" y1="119.6" x2="879.2" y2="119.6" />
			<line class="st2" x1="870.4" y1="119.1" x2="870.4" y2="99.6" />
		</g>
		<text transform="matrix(1 0 0 1 861.3516 82.1484)" class="st24">
			<tspan x="0" y="0" class="st17 st18 st25">P2.1</tspan>
			<tspan x="-12.8" y="10.8" class="st17 st18 st25" data-core-parameter="HeatSys.Pressure.Consumer1.ReturnPipe">3.5кгс/см2</tspan>
		</text>
		<g>
			<line class="st26" x1="865.7" y1="423.5" x2="883.2" y2="423.5" />
			<line class="st2" x1="874.4" y1="423" x2="874.4" y2="403.5" />
		</g>
		<text transform="matrix(1 0 0 1 865.3545 388.0366)" class="st24">
			<tspan x="0" y="0" class="st17 st18 st25">P3.1</tspan>
			<tspan x="-12.8" y="10.8" class="st17 st18 st25" data-core-parameter="Hws.Pressure.Consumer1.SupplyPipe">4.45кгс/см2</tspan>
		</text>
		<text transform="matrix(1 0 0 1 935.2412 54.5449)" class="st7 st25">к потребителю</text>
		<text transform="matrix(1 0 0 1 936.5176 134.9238)" class="st7 st25">от потребителя</text>
		<ellipse class="st20" cx="552.5" cy="604.1" rx="1.9" ry="1.9" />
		<ellipse class="st20" cx="516.5" cy="604.1" rx="1.9" ry="1.9" />
		<text transform="matrix(1 0 0 1 216.0786 530.917)" class="st24">
			<tspan x="0" y="0" class="st17 st18 st25">G5</tspan>
			<tspan x="-10.3" y="10.8" class="st17 st18 st25" data-core-parameter="Cws.VolumeFlow.SupplyPipe">1.3м3/ч</tspan>
		</text>
		<text transform="matrix(1 0 0 1 139.0376 558)">
			<tspan x="0" y="0" class="st7 st25">от источника</tspan>
			<tspan x="18.1" y="10.8" class="st7 st25">ХВС</tspan>
		</text>
		<text transform="matrix(1 0 0 1 309.6851 593.5254)">
			<tspan x="0" y="0" class="st7 st25">другие </tspan>
			<tspan x="-11.8" y="10.8" class="st7 st25">потребители </tspan>
			<tspan x="-27.6" y="21.6" class="st7 st25">собственных нужд ХВ</tspan>
		</text>
		<text transform="matrix(1 0 0 1 680 320.4277)">
			<tspan x="0" y="0" class="st7 st25">группа сетевых</tspan>
			<tspan x="-12.1" y="10.8" class="st7 st25">насосов  системы ГВС</tspan>
			<tspan x="5.6" y="21.6" class="st7 st25">II-го контура</tspan>
		</text>
		<text transform="matrix(1 0 0 1 475 451.0684)">
			<tspan x="0" y="0" class="st7 st25">группа насосов </tspan>
			<tspan x="-0.1" y="10.8" class="st7 st25">ГВС I-го контура</tspan>
		</text>
		<line class="st0" x1="267.5" y1="183.2" x2="235.4" y2="183.2" />
		<line class="st0" x1="235.4" y1="183.2" x2="235.4" y2="99.1" />
		<text transform="matrix(1 0 0 1 187.0767 70.0449)" class="st24">
			<tspan x="0" y="0" class="st17 st18 st25">Gгаз</tspan>
			<tspan x="-6.5" y="10.8" class="st17 st18 st25" data-core-parameter="none" />
		</text>
		<text transform="matrix(1 0 0 1 105.9136 56.7637)" class="st24">
			<tspan x="0" y="0" class="st17 st18 st25">Tгаз</tspan>
			<tspan x="-0.9" y="10.8" class="st17 st18 st25" data-core-parameter="none" />
		</text>
		<text transform="matrix(1 0 0 1 148.812 59.2637)" class="st24">
			<tspan x="0" y="0" class="st17 st18 st25">Pгаз</tspan>
			<tspan x="-6.2" y="10.8" class="st17 st18 st25" data-core-parameter="none" />
		</text>
		<text transform="matrix(1 0 0 1 27 95.3003)">
			<tspan x="0" y="0" class="st7 st25">от газоснабжающей</tspan>
			<tspan x="13.6" y="10.8" class="st7 st25">организации</tspan>
		</text>
		<g>
			<g>
				<ellipse class="st2" cx="196.4" cy="99.2" rx="12.4" ry="12.5" fill="none" />
			</g>
			<polyline class="st2" points="201.8,87.9 183.5,98.9 201.8,110.5" fill="none" />
		</g>
		<line class="st0" x1="235.9" y1="99.2" x2="208.8" y2="99.2" />
		<line class="st0" x1="183.5" y1="98.9" x2="24.1" y2="99.2" />
		<line class="st2" x1="114.8" y1="80.6" x2="114.8" y2="98.9" />
		<ellipse class="st3" cx="114.8" cy="76.3" rx="4.9" ry="4.4" />
		<g>
			<line class="st26" x1="168.1" y1="95.9" x2="150.6" y2="95.9" />
			<line class="st2" x1="159.4" y1="95.4" x2="159.4" y2="75.9" />
		</g>
		<polygon class="st11" points="24.1,100.4 24.1,97.4 31.8,98.9  " />
		<line class="st27" x1="446.6" y1="599.9" x2="446.6" y2="608.1" />
		<line class="st27" x1="448.4" y1="600" x2="448.4" y2="608.1" />
		<g>
			<path class="st27" d="M442.3,603.9c0,6.6-4.8,12-10.6,12h-13.4c-5.9,0-10.6-5.4-10.6-12v-43.6c0-6.6,4.8-12,10.6-12h13.4    c5.9,0,10.6,5.4,10.6,12V603.9z" />
			<line class="st27" x1="407.6" y1="560.1" x2="403.3" y2="560.1" />
			<line class="st27" x1="442.3" y1="604.1" x2="446.6" y2="604.1" />
			<line class="st27" x1="403.3" y1="555.9" x2="403.3" y2="564.1" />
		</g>
		<line class="st28" x1="401.5" y1="556" x2="401.5" y2="564.1" />
		<text transform="matrix(1 0 0 1 388.9321 528.0366)">
			<tspan x="0" y="0" class="st7 st8">Уровень воды</tspan>
			<tspan x="20.6" y="14.4" class="st7 st8">в баке</tspan>
		</text>
		<text transform="matrix(1 0 0 1 446.5659 582.1484)" class="st8" data-core-parameter="Monitoring.State.TankLevel">НОРМА</text>
		<text transform="matrix(1 0 0 1 310.6514 563.2764)" class="st25">Блок ХВО</text>
		<line class="st27" x1="287.3" y1="605.1" x2="270.5" y2="605.1" />
		<g>
			<g>
				<ellipse class="st2" cx="221.5" cy="559.8" rx="12.4" ry="12.5" fill="none" />
			</g>
			<polyline class="st2" points="216.1,571.1 234.4,560.1 216.1,548.5   " fill="none" />
		</g>
		<line class="st27" x1="271.1" y1="560.1" x2="271.1" y2="605.1" />
		<ellipse class="st20" cx="271.1" cy="560.1" rx="1.9" ry="1.9" />
		<polygon class="st20" points="283.5,606.3 283.5,603.3 291.2,604.8  " />
		<line class="st27" x1="209.1" y1="559.6" x2="133.8" y2="559.6" />
		<polygon class="st20" points="126.4,561.1 126.4,558.1 134,559.6  " />
		<polygon class="st20" points="291.5,561.6 291.5,558.6 299.2,560.1  " />
		<polygon class="st20" points="361.5,561.6 361.5,558.6 369.2,560.1  " />
		<g>
			<g>
				<polyline class="st27" points="303.8,567.5 303.8,569.5 305.8,569.5    " />
				<line class="st29" x1="309.6" y1="569.5" x2="352.6" y2="569.5" />
				<polyline class="st27" points="354.5,569.5 356.5,569.5 356.5,567.5    " />
				<line class="st30" x1="356.5" y1="562.6" x2="356.5" y2="555.2" />
				<polyline class="st27" points="356.5,552.7 356.5,550.7 354.5,550.7    " />
				<line class="st29" x1="350.7" y1="550.7" x2="307.7" y2="550.7" />
				<polyline class="st27" points="305.8,550.7 303.8,550.7 303.8,552.7    " />
				<line class="st30" x1="303.8" y1="557.7" x2="303.8" y2="565" />
			</g>
		</g>
		<line class="st28" x1="401.5" y1="560.1" x2="369.5" y2="560.1" />
		<line class="st31" x1="520.3" y1="125" x2="520.3" y2="137.8" />
		<ellipse class="st4" cx="520.3" cy="125" rx="1.9" ry="1.9" />
		<ellipse class="st5" cx="520.3" cy="199.3" rx="1.9" ry="1.9" />
		<line class="st5" x1="520.3" y1="199.3" x2="520.3" y2="182.6" />
		<circle class="st16" cx="278.3" cy="190.8" r="10.9" />
		<circle class="st16" cx="278.4" cy="287.4" r="10.9" />
		<circle class="st16" cx="278.4" cy="383.8" r="10.9" />
		<circle class="st16" cx="278.3" cy="478.6" r="10.9" />
		<rect x="600.9" y="267.1" class="st16" width="42" height="106.9" />
		<line class="st1" x1="642.9" y1="267.3" x2="600.9" y2="374.2" />
		<rect x="600.9" y="390.1" class="st16" width="42" height="106.9" />
		<line class="st1" x1="642.9" y1="390.3" x2="600.9" y2="497.2" />
		<polygon class="st2" points="522,281.7 535.1,286.2 522,290.7  " fill="none" />
		<polygon class="st2" points="548.3,290.7 535.1,286.2 548.3,281.7  " fill="none" />
		<polygon class="st2" points="512.9,283.1 522,286.2 512.9,289.3  " fill="none" />
		<polygon class="st2" points="557.3,289.3 548.3,286.2 557.3,283.1  " fill="none" />
		<ellipse class="st2" cx="535.1" cy="268" rx="9.1" ry="9.7" fill="none" />
		<line class="st2" x1="535.1" y1="277.8" x2="535.1" y2="286.2" />
		<text transform="matrix(1 0 0 1 528.5391 272.0352)" class="st17 st18 st19">M2</text>
		<polygon class="st2" points="522,402.5 535.1,407 522,411.5  " fill="none" />
		<polygon class="st2" points="548.3,411.5 535.1,407 548.3,402.5  " fill="none" />
		<polygon class="st2" points="512.9,403.9 522,407 512.9,410.1  " fill="none" />
		<polygon class="st2" points="557.3,410.1 548.3,407 557.3,403.9  " fill="none" />
		<ellipse class="st2" cx="535.1" cy="388.8" rx="9.1" ry="9.7" fill="none" />
		<line class="st2" x1="535.1" y1="398.6" x2="535.1" y2="407" />
		<text transform="matrix(1 0 0 1 528.5391 392.8008)" class="st17 st18 st19">M3</text>
		<g>
			<path class="st6" d="M590.3,406.9c0,2.4-2,4.4-4.4,4.4" />
			<path class="st6" d="M590.3,406.9c0-2.4-2-4.4-4.4-4.4" />
		</g>
		<ellipse class="st4" cx="473.5" cy="286.2" rx="1.9" ry="1.9" />
		<g>
			<path class="st32" d="M669.4,357.6c0,2.4-2,4.4-4.4,4.4" />
			<path class="st32" d="M669.4,357.6c0-2.4-2-4.4-4.4-4.4" />
		</g>
		<ellipse class="st22" cx="683.7" cy="357.7" rx="1.9" ry="1.9" />
		<g>
			<g>
				<ellipse class="st2" cx="822.8" cy="514.1" rx="12.4" ry="12.6" fill="none" />
			</g>
			<polyline class="st2" points="828.2,525.4 809.9,514.4 828.2,502.8   " fill="none" />
		</g>
		<line class="st22" x1="835.2" y1="513.5" x2="937.8" y2="513.5" />
		<polygon class="st22" points="937.8,512 937.8,515 945.5,513.5  " />
		<line class="st2" x1="921.8" y1="495.2" x2="921.8" y2="513.5" />
		<path class="st2" d="M839.2,484.7" />
		<ellipse class="st3" cx="921.8" cy="490.9" rx="4.4" ry="4.4" />
		<text transform="matrix(1 0 0 1 912.9766 473.2085)" class="st24">
			<tspan x="0" y="0" class="st17 st18 st25">T3.2</tspan>
			<tspan x="-0.9" y="10.8" class="st17 st18 st25" data-core-parameter="Hws.Temper.Consumer2.SupplyPipe">67ºС</tspan>
		</text>
		<text transform="matrix(1 0 0 1 813.7256 486.4839)" class="st24">
			<tspan x="0" y="0" class="st17 st18 st25">G3.2</tspan>
			<tspan x="-5.1" y="10.8" class="st17 st18 st25" data-core-parameter="Hws.VolumeFlow.Consumer2.SupplyPipe">41м3/ч</tspan>
		</text>
		<g>
			<line class="st26" x1="865.7" y1="510.4" x2="883.2" y2="510.4" />
			<line class="st2" x1="874.4" y1="509.9" x2="874.4" y2="490.4" />
		</g>
		<text transform="matrix(1 0 0 1 865.3545 474.9702)" class="st24">
			<tspan x="0" y="0" class="st17 st18 st25">P3.2</tspan>
			<tspan x="-12.8" y="10.8" class="st17 st18 st25" data-core-parameter="Hws.Pressure.Consumer2.SupplyPipe">2.2кгс/см2</tspan>
		</text>
		<text transform="matrix(1 0 0 1 937.7412 504.3354)" class="st7 st25">к потребителю</text>
		<g>
			<g>
				<ellipse class="st2" cx="823.3" cy="603.1" rx="12.4" ry="12.6" fill="none" />
			</g>
			<polyline class="st2" points="828.7,614.4 810.4,603.4 828.7,591.8   " fill="none" />
		</g>
		<line class="st22" x1="835.7" y1="602.5" x2="938.3" y2="602.5" />
		<polygon class="st22" points="938.3,601 938.3,604 946,602.5  " />
		<line class="st2" x1="922.3" y1="584.2" x2="922.3" y2="602.5" />
		<path class="st2" d="M839.7,573.7" />
		<ellipse class="st3" cx="922.3" cy="579.9" rx="4.9" ry="4.4" />
		<text transform="matrix(1 0 0 1 913.4766 562.2085)" class="st24">
			<tspan x="0" y="0" class="st17 st18 st25">T3.3</tspan>
			<tspan x="-0.9" y="10.8" class="st17 st18 st25" data-core-parameter="Hws.Temper.Consumer3.SupplyPipe">62ºС</tspan>
		</text>
		<text transform="matrix(1 0 0 1 814.2256 575.4839)" class="st24">
			<tspan x="0" y="0" class="st17 st18 st25">G3.3</tspan>
			<tspan x="-5.1" y="10.8" class="st17 st18 st25" data-core-parameter="Hws.VolumeFlow.Consumer3.SupplyPipe">51м3/ч</tspan>
		</text>
		<g>
			<line class="st26" x1="866.2" y1="599.4" x2="883.7" y2="599.4" />
			<line class="st2" x1="874.9" y1="598.9" x2="874.9" y2="579.4" />
		</g>
		<text transform="matrix(1 0 0 1 865.8545 563.9702)" class="st24">
			<tspan x="0" y="0" class="st17 st18 st25">P3.3</tspan>
			<tspan x="-12.8" y="10.8" class="st17 st18 st25" data-core-parameter="Hws.Pressure.Consumer3.SupplyPipe">3.7кгс/см2</tspan>
		</text>
		<g>
			<g>
				<ellipse class="st2" cx="821.8" cy="243.9" rx="12.4" ry="12.5" fill="none" />
			</g>
			<polyline class="st2" points="816.4,232.6 834.7,243.6 816.4,255.2   " fill="none" />
		</g>
		<g>
			<g>
				<ellipse class="st2" cx="822.3" cy="181.1" rx="12.4" ry="12.5" fill="none" />
			</g>
			<polyline class="st2" points="827.7,192.4 809.4,181.4 827.7,169.8   " fill="none" />
		</g>
		<line class="st4" x1="834.7" y1="181.1" x2="937.3" y2="181.1" />
		<line class="st5" x1="834.7" y1="243.6" x2="937.3" y2="243.6" />
		<polygon class="st4" points="937.3,179.6 937.3,182.6 945,181.1  " />
		<polygon class="st5" points="945,245.1 945,242.1 937.3,243.6  " />
		<line class="st2" x1="920.8" y1="162.8" x2="920.8" y2="181.1" />
		<ellipse class="st3" cx="920.8" cy="158.5" rx="4.4" ry="4.4" />
		<line class="st2" x1="920.8" y1="225.3" x2="920.8" y2="243.6" />
		<ellipse class="st3" cx="920.8" cy="221" rx="4.4" ry="4.4" />
		<text transform="matrix(1 0 0 1 912.043 141.6011)" class="st24">
			<tspan x="0" y="0" class="st17 st18 st25">T1.2</tspan>
			<tspan x="-0.9" y="10.8" class="st17 st18 st25" data-core-parameter="HeatSys.Temper.Consumer2.SupplyPipe">89ºС</tspan>
		</text>
		<text transform="matrix(1 0 0 1 912.376 202.1001)" class="st24">
			<tspan x="0" y="0" class="st17 st18 st25">T2.2</tspan>
			<tspan x="-0.9" y="10.8" class="st17 st18 st25" data-core-parameter="HeatSys.Temper.Consumer2.ReturnPipe">73ºС</tspan>
		</text>
		<text transform="matrix(1 0 0 1 813.2256 152.1011)" class="st24">
			<tspan x="0" y="0" class="st17 st18 st25">G1.2</tspan>
			<tspan x="-7.6" y="10.8" class="st17 st18 st25" data-core-parameter="HeatSys.VolumeFlow.Consumer2.SupplyPipe">117м3/ч</tspan>
		</text>
		<text transform="matrix(1 0 0 1 813.2256 216.603)" class="st24">
			<tspan x="0" y="0" class="st17 st18 st25">G2.2</tspan>
			<tspan x="-7.6" y="10.8" class="st17 st18 st25" data-core-parameter="HeatSys.VolumeFlow.Consumer2.ReturnPipe">75м3/ч</tspan>
		</text>
		<g>
			<line class="st26" x1="862.5" y1="178.1" x2="880" y2="178.1" />
			<line class="st2" x1="871.2" y1="177.6" x2="871.2" y2="158.1" />
		</g>
		<text transform="matrix(1 0 0 1 862.1875 142.7183)" class="st24">
			<tspan x="0" y="0" class="st17 st18 st25">P1.2</tspan>
			<tspan x="-12.8" y="10.8" class="st17 st18 st25" data-core-parameter="HeatSys.Pressure.Consumer2.SupplyPipe">5.5кгс/см2</tspan>
		</text>
		<g>
			<line class="st26" x1="862.2" y1="239.8" x2="879.7" y2="239.8" />
			<line class="st2" x1="870.9" y1="239.3" x2="870.9" y2="219.8" />
		</g>
		<text transform="matrix(1 0 0 1 861.8516 202.4272)" class="st24">
			<tspan x="0" y="0" class="st17 st18 st25">P2.2</tspan>
			<tspan x="-12.8" y="10.8" class="st17 st18 st25" data-core-parameter="HeatSys.Pressure.Consumer2.ReturnPipe">3.5кгс/см2</tspan>
		</text>
		<text transform="matrix(1 0 0 1 937.7412 174.7515)" class="st7 st25">к потребителю</text>
		<text transform="matrix(1 0 0 1 939.5176 255.2026)" class="st7 st25">от потребителя</text>
		<g>
			<g>
				<ellipse class="st2" cx="821.3" cy="365" rx="12.4" ry="12.5" fill="none" />
			</g>
			<polyline class="st2" points="815.9,353.7 834.2,364.7 815.9,376.3   " fill="none" />
		</g>
		<g>
			<g>
				<ellipse class="st2" cx="821.8" cy="302.2" rx="12.4" ry="12.5" fill="none" />
			</g>
			<polyline class="st2" points="827.2,313.6 808.9,302.5 827.2,290.9   " fill="none" />
		</g>
		<line class="st4" x1="834.2" y1="302.2" x2="936.8" y2="302.2" />
		<line class="st5" x1="834.2" y1="364.7" x2="936.8" y2="364.7" />
		<polygon class="st4" points="936.8,300.7 936.8,303.7 944.5,302.2  " />
		<polygon class="st5" points="944.5,366.2 944.5,363.2 936.8,364.7  " />
		<line class="st2" x1="920.3" y1="283.9" x2="920.3" y2="302.2" />
		<ellipse class="st3" cx="920.3" cy="279.6" rx="4.4" ry="4.4" />
		<line class="st2" x1="920.3" y1="346.4" x2="920.3" y2="364.7" />
		<ellipse class="st3" cx="920.3" cy="342.1" rx="4.4" ry="4.4" />
		<text transform="matrix(1 0 0 1 911.543 262.7129)" class="st24">
			<tspan x="0" y="0" class="st17 st18 st25">T1.3</tspan>
			<tspan x="-0.9" y="10.8" class="st17 st18 st25" data-core-parameter="HeatSys.Temper.Consumer3.SupplyPipe">95ºС</tspan>
		</text>
		<text transform="matrix(1 0 0 1 911.876 323.2119)" class="st24">
			<tspan x="0" y="0" class="st17 st18 st25">T2.3</tspan>
			<tspan x="-0.9" y="10.8" class="st17 st18 st25" data-core-parameter="HeatSys.Temper.Consumer3.ReturnPipe">67ºС</tspan>
		</text>
		<text transform="matrix(1 0 0 1 812.7256 273.2129)" class="st24">
			<tspan x="0" y="0" class="st17 st18 st25">G1.3</tspan>
			<tspan x="-7.6" y="10.8" class="st17 st18 st25" data-core-parameter="HeatSys.VolumeFlow.Consumer3.SupplyPipe">100м3/ч</tspan>
		</text>
		<text transform="matrix(1 0 0 1 812.7256 337.7148)" class="st24">
			<tspan x="0" y="0" class="st17 st18 st25">G2.3</tspan>
			<tspan x="-7.6" y="10.8" class="st17 st18 st25" data-core-parameter="HeatSys.VolumeFlow.Consumer3.ReturnPipe">91м3/ч</tspan>
		</text>
		<g>
			<line class="st26" x1="862" y1="299.2" x2="879.5" y2="299.2" />
			<line class="st2" x1="870.7" y1="298.7" x2="870.7" y2="279.2" />
		</g>
		<text transform="matrix(1 0 0 1 861.6875 263.8301)" class="st24">
			<tspan x="0" y="0" class="st17 st18 st25">P1.3</tspan>
			<tspan x="-12.8" y="10.8" class="st17 st18 st25" data-core-parameter="HeatSys.Pressure.Consumer3.SupplyPipe">5.5кгс/см2</tspan>
		</text>
		<g>
			<line class="st26" x1="861.7" y1="361" x2="879.2" y2="361" />
			<line class="st2" x1="870.4" y1="360.5" x2="870.4" y2="341" />
		</g>
		<text transform="matrix(1 0 0 1 861.3516 323.5391)" class="st24">
			<tspan x="0" y="0" class="st17 st18 st25">P2.3</tspan>
			<tspan x="-12.8" y="10.8" class="st17 st18 st25" data-core-parameter="HeatSys.Pressure.Consumer3.ReturnPipe">3.5кгс/см2</tspan>
		</text>
		<text transform="matrix(1 0 0 1 935.2412 295.4355)" class="st7 st25">к потребителю</text>
		<text transform="matrix(1 0 0 1 939.5176 374.207)" class="st7 st25">от потребителя</text>
		<line class="st22" x1="735.9" y1="453.3" x2="938.3" y2="453.3" />
		<polygon class="st22" points="946,454.8 946,451.8 938.3,453.3  " />
		<line class="st22" x1="735.9" y1="541.6" x2="938.3" y2="541.6" />
		<polygon class="st22" points="946,543.1 946,540.1 938.3,541.6  " />
		<text transform="matrix(1 0 0 1 939.5176 556.0747)" class="st7 st25">от потребителя</text>
		<text transform="matrix(1 0 0 1 939.2412 415.7534)" class="st7 st25">к потребителю</text>
		<text transform="matrix(1 0 0 1 941.0176 467.4927)" class="st7 st25">от потребителя</text>
		<text transform="matrix(1 0 0 1 939.2412 593.3345)" class="st7 st25">к потребителю</text>
		<text transform="matrix(1 0 0 1 941.0176 645.0737)" class="st7 st25">от потребителя</text>
		<line class="st22" x1="735.9" y1="629.9" x2="938.3" y2="629.9" />
		<polygon class="st22" points="946,631.4 946,628.4 938.3,629.9  " />
		<line class="st6" x1="780" y1="60.8" x2="780" y2="302.2" />
		<line class="st6" x1="808.9" y1="302.5" x2="780" y2="302.5" />
		<line class="st6" x1="808.9" y1="61.1" x2="780" y2="61.1" />
		<line class="st6" x1="809.9" y1="181.1" x2="780" y2="181.1" />
		<line class="st5" x1="791.4" y1="185.2" x2="791.4" y2="297.9" />
		<line class="st5" x1="808.9" y1="364.9" x2="791.4" y2="364.9" />
		<line class="st5" x1="808.9" y1="123.6" x2="791.4" y2="123.6" />
		<line class="st5" x1="809.4" y1="243.5" x2="791.4" y2="243.5" />
		<ellipse class="st4" cx="780" cy="124.9" rx="1.9" ry="1.9" />
		<ellipse class="st4" cx="780" cy="181.1" rx="1.9" ry="1.9" />
		<ellipse class="st4" cx="791.4" cy="199.6" rx="1.9" ry="1.9" />
		<ellipse class="st4" cx="791.4" cy="243.5" rx="1.9" ry="1.9" />
		<line class="st22" x1="761.4" y1="286.2" x2="761.4" y2="449.5" />
		<line class="st22" x1="809.9" y1="427.5" x2="761.4" y2="427.5" />
		<line class="st22" x1="809.9" y1="514.4" x2="761.4" y2="514.4" />
		<line class="st22" x1="810.9" y1="603.1" x2="761.4" y2="603.1" />
		<ellipse class="st22" cx="735.9" cy="453.3" rx="1.9" ry="1.9" />
		<ellipse class="st22" cx="735.9" cy="541.6" rx="1.9" ry="1.9" />
		<ellipse class="st22" cx="761.4" cy="514.4" rx="1.9" ry="1.9" />
		<ellipse class="st22" cx="761.4" cy="427.5" rx="1.9" ry="1.9" />
		<line class="st27" x1="292.1" y1="560.1" x2="233" y2="560.1" />
		<line class="st20" x1="569.6" y1="604.1" x2="569.6" y2="482.5" />
		<text transform="matrix(1 0 0 1 504.2935 549.8242)">
			<tspan x="0" y="0" class="st7 st25">группа насосов </tspan>
			<tspan x="12.5" y="10.8" class="st7 st25">подпитки</tspan>
		</text>
		<line class="st20" x1="569.6" y1="512" x2="735.9" y2="512" />
		<line class="st27" x1="569.6" y1="247.9" x2="683.7" y2="247.9" />
		<line class="st27" x1="683.7" y1="247.9" x2="683.7" y2="199.3" />
		<ellipse class="st22" cx="735.9" cy="512" rx="1.9" ry="1.9" />
		<ellipse class="st20" cx="569.6" cy="512" rx="1.9" ry="1.9" />
		<g>
			<path class="st27" d="M574,286.2c0,2.4-2,4.4-4.4,4.4" />
			<path class="st27" d="M574,286.2c0-2.4-2-4.4-4.4-4.4" />
		</g>
		<g>
			<path class="st27" d="M573.7,406.9c0,2.4-2,4.4-4.4,4.4" />
			<path class="st27" d="M573.7,406.9c0-2.4-2-4.4-4.4-4.4" />
		</g>
		<g>
			<path class="st27" d="M573.7,478.1c0,2.4-2,4.4-4.4,4.4" />
			<path class="st27" d="M573.7,478.1c0-2.4-2-4.4-4.4-4.4" />
		</g>
		<line class="st27" x1="569.6" y1="281.9" x2="569.6" y2="247.9" />
		<line class="st27" x1="569.3" y1="473.8" x2="569.3" y2="411.3" />
		<line class="st27" x1="569.3" y1="402.5" x2="569.6" y2="290.6" />
		<g>
			<path class="st14" d="M795.5,181.1c0,2.4-2,4.4-4.4,4.4" />
			<path class="st14" d="M795.5,181.1c0-2.4-2-4.4-4.4-4.4" />
		</g>
		<line class="st5" x1="791.1" y1="176.8" x2="791.1" y2="123.6" />
		<g>
			<path class="st14" d="M795.5,302.2c0,2.4-2,4.4-4.4,4.4" />
			<path class="st14" d="M795.5,302.2c0-2.4-2-4.4-4.4-4.4" />
		</g>
		<line class="st5" x1="791.1" y1="306.6" x2="791.1" y2="364.9" />
		<g>
			<path class="st32" d="M765.4,453.3c0,2.4-2,4.4-4.4,4.4" />
			<path class="st32" d="M765.4,453.3c0-2.4-2-4.4-4.4-4.4" />
		</g>
		<g>
			<path class="st32" d="M765.4,541.6c0,2.4-2,4.4-4.4,4.4" />
			<path class="st32" d="M765.4,541.6c0-2.4-2-4.4-4.4-4.4" />
		</g>
		<line class="st22" x1="761.1" y1="546" x2="761.1" y2="603.1" />
		<line class="st22" x1="761.1" y1="457.6" x2="761.1" y2="537.2" />
		<text transform="matrix(1 0 0 1 957.5195 90.3237)">
			<tspan x="0" y="0" class="st10 st7 st33">Выход ЦО</tspan>
			<tspan x="-5.5" y="13.2" class="st10 st7 st33">жилые дома</tspan>
		</text>
		<text transform="matrix(1 0 0 1 956.3428 434.0474)">
			<tspan x="0" y="0" class="st34 st7 st33">Выход ГВС</tspan>
			<tspan x="-4.3" y="13.2" class="st34 st7 st33">жилые дома</tspan>
		</text>
		<text transform="matrix(1 0 0 1 956.3428 522.0474)">
			<tspan x="0" y="0" class="st34 st7 st33">Выход ГВС</tspan>
			<tspan x="15.4" y="13.2" class="st34 st7 st33">РПБ</tspan>
		</text>
		<text transform="matrix(1 0 0 1 956.3428 612.0474)">
			<tspan x="0" y="0" class="st34 st7 st33">Выход ГВС</tspan>
			<tspan x="14.9" y="13.2" class="st34 st7 st33">РПД</tspan>
		</text>
		<text transform="matrix(1 0 0 1 957.5195 216.603)">
			<tspan x="0" y="0" class="st10 st7 st33">Выход ЦО</tspan>
			<tspan x="14.2" y="13.2" class="st10 st7 st33">РПБ</tspan>
		</text>
		<text transform="matrix(1 0 0 1 957.5195 335.7773)">
			<tspan x="0" y="0" class="st10 st7 st33">Выход ЦО</tspan>
			<tspan x="13.8" y="13.2" class="st10 st7 st33">РПД</tspan>
		</text>
		<ellipse class="st22" cx="665" cy="286.2" rx="1.9" ry="1.9" />
		<text transform="matrix(1 0 0 1 640 34.0435)" class="st8" data-core-parameter="Monitoring.State.GasLeaks">НОРМА</text>
		<text transform="matrix(1 0 0 1 640 61.54)" class="st8" data-core-parameter="Monitoring.State.Power">АВАРИЯ</text>
	</g>
	<g id="Насосы_СО">
		<g>
			<ellipse class="st12" cx="620.3" cy="199.6" rx="9.6" ry="9.5" fill="none" data-core-parameter="Monitoring.State.SystemPump1" />
			<polygon class="st3" points="618.3,203.1 612.3,199.6 618.3,196.1   " />
		</g>
		<line class="st21" x1="610.7" y1="224.8" x2="600.8" y2="224.8" />
		<line class="st21" x1="601" y1="199.6" x2="610.7" y2="199.6" />
		<line class="st21" x1="629.9" y1="224.8" x2="636.9" y2="224.8" />
		<line class="st21" x1="636.9" y1="224.8" x2="636.9" y2="199.6" />
		<line class="st21" x1="636.9" y1="199.6" x2="629.9" y2="199.6" />
		<line class="st21" x1="601" y1="199.6" x2="601" y2="224.8" />
		<g>
			<ellipse class="st12" cx="620.3" cy="224.8" rx="9.6" ry="9.5" fill="none" data-core-parameter="Monitoring.State.SystemPump2" />
			<polygon class="st3" points="618.3,228.3 612.3,224.8 618.3,221.3" />
		</g>
		<ellipse class="st5" cx="601.2" cy="199.6" rx="1.9" ry="1.9" />
		<ellipse class="st5" cx="636.9" cy="199.6" rx="1.9" ry="1.9" />
		<text transform="matrix(1 0 0 1 588.915 164.1724)">
			<tspan x="0" y="0" class="st7 st25">группа сетевых</tspan>
			<tspan x="-3.2" y="10.8" class="st7 st25">насосов системы</tspan>
			<tspan x="9.2" y="21.6" class="st7 st25">отопления</tspan>
		</text>
		<line class="st5" x1="586" y1="478.1" x2="586" y2="411.1" />
		<line class="st5" x1="509.3" y1="478.1" x2="453.3" y2="478.1" />
		<line class="st5" x1="528.5" y1="478.1" x2="600.9" y2="478.1" />
		<line class="st5" x1="509.8" y1="502.9" x2="499.8" y2="502.9" />
		<line class="st5" x1="529" y1="502.9" x2="536" y2="502.9" />
		<line class="st5" x1="453" y1="199.6" x2="453" y2="478.1" />
		<g>
			<ellipse class="st12" cx="518.9" cy="478.1" rx="9.6" ry="9.5" fill="none" data-core-parameter="Monitoring.State.HwsPump1Circuit1" />
			<polygon class="st23" points="516.9,481.6 510.9,478.1 516.9,474.7   " />
		</g>
		<g>
			<ellipse class="st2" cx="518.9" cy="502.9" rx="9.6" ry="9.5" fill="none" data-core-parameter="Monitoring.State.HwsPump2Circuit1" />
			<polygon class="st3" points="516.9,506.4 510.9,502.9 516.9,499.4   " />
		</g>
		<ellipse class="st5" cx="499.8" cy="478.1" rx="1.9" ry="1.9" />
		<ellipse class="st5" cx="535.5" cy="478.1" rx="1.9" ry="1.9" />
		<line class="st5" x1="601.2" y1="357.6" x2="585.9" y2="357.6" />
		<line class="st5" x1="557.3" y1="407" x2="601.2" y2="407" />
		<line class="st5" x1="557.3" y1="286.2" x2="601" y2="286.2" />
		<line class="st5" x1="512.9" y1="407" x2="473.5" y2="407" />
		<line class="st5" x1="586" y1="402.8" x2="586" y2="357.6" />
		<line class="st5" x1="473.5" y1="407" x2="473.5" y2="203.9" />
		<line class="st5" x1="512.9" y1="286.2" x2="473.5" y2="286.2" />
		<line class="st22" x1="642.9" y1="286.2" x2="761.4" y2="286.2" />
		<line class="st22" x1="642.9" y1="407" x2="665" y2="406.9" />
		<line class="st22" x1="665" y1="353.2" x2="665" y2="286.2" />
		<line class="st22" x1="665" y1="362" x2="665" y2="406.9" />
		<line class="st22" x1="642.9" y1="478.1" x2="683.7" y2="478.1" />
		<line class="st22" x1="683.7" y1="478.1" x2="683.7" y2="357.7" />
		<line class="st5" x1="535.5" y1="478.1" x2="535.5" y2="502.9" />
		<ellipse class="st5" cx="586" cy="478.1" rx="1.9" ry="1.9" />
		<line class="st5" x1="499.8" y1="478.1" x2="499.8" y2="502.9" />
		<ellipse class="st5" cx="683.7" cy="199.3" rx="1.9" ry="1.9" />
	</g>
</svg>