<svg version="1.1" xmlns="http://www.w3.org/2000/svg" xmlns:xlink="http://www.w3.org/1999/xlink" x="0px" y="0px" viewBox="0 0 1200 700" style="enable-background:new 0 0 1200 700;" xml:space="preserve" width="1200" height="700">
<style type="text/css">
	.st0{fill:none;stroke:#1D71B8;stroke-width:2;stroke-miterlimit:10;}
	.st2{font-size:12px;}
	.st3{font-size:10px;}
	.st4{font-size:14px;}
	.st5{fill:#1D71B8;stroke:#1D71B8;stroke-width:2;stroke-miterlimit:10;}
	.st6{fill:#BE1622;stroke:#BE1622;stroke-width:2;stroke-miterlimit:10;}
	.st7{fill:none;stroke:#BE1622;stroke-width:2;stroke-miterlimit:10;}
	.st8{fill:#EA5B0C;stroke:#EA5B0C;stroke-width:2;stroke-miterlimit:10;}
	.st9{fill:none;stroke:#010202;stroke-miterlimit:10;}
	.st10{fill:none;stroke:#EA5B0C;stroke-width:2;stroke-miterlimit:10;}
	.st11{fill:none;stroke:#000000;stroke-miterlimit:10;}
	.st12{fill:#FFFFFF;stroke:#000000;stroke-miterlimit:10;}
	.st13{fill:none;stroke:#1D71B8;stroke-width:2;stroke-miterlimit:10;stroke-dasharray:3.7427,3.7427;}
	.st14{fill:none;stroke:#1D71B8;stroke-width:2;stroke-miterlimit:10;stroke-dasharray:4.9088,4.9088;}
	.st15{font-size:9px;}
	.st16{fill:#1D71B8;stroke:#1D71B8;stroke-width:3;stroke-miterlimit:10;}
	.st17{fill:none;stroke:#1D71B8;stroke-width:1.8335;stroke-miterlimit:10;}
	.st18{fill:none;stroke:#1D71B8;stroke-width:1.5204;stroke-miterlimit:10;}
	.st19{fill:none;stroke:#1D71B8;stroke-width:2.3645;stroke-miterlimit:10;}
	.st20{fill:none;stroke:#1D71B8;stroke-width:1.9716;stroke-miterlimit:10;}
	.st21{fill:#010202;stroke:#010202;stroke-miterlimit:10;}
	.st22{fill:none;stroke:#010202;stroke-width:3;stroke-miterlimit:10;}
	.st24{fill:none;stroke:#1D71B8;stroke-width:1.9558;stroke-miterlimit:10;}
	.st25{fill:none;stroke:#000000;stroke-width:1.4656;stroke-miterlimit:10;}
	.st26{font-size:8px;}
	.st27{fill:#02603A;}
	.st29{fill:#010202;stroke:#000000;stroke-miterlimit:10;}
	.st30{fill:none;stroke:#1D71B8;stroke-width:2.0191;stroke-miterlimit:10;}
	.st31{fill:#010202;}
	.st32{fill:none;stroke:#1D71B8;stroke-width:2.0152;stroke-miterlimit:10;}
	.st33{fill:none;stroke:#020202;stroke-width:0.7758;stroke-miterlimit:10;}
	.st34{fill:none;stroke:#020202;stroke-width:0.3879;stroke-miterlimit:10;}
	.st35{fill:none;stroke:#000000;stroke-width:0.6217;stroke-miterlimit:10;}
	.st36{letter-spacing:33;}
	.st37{fill:#BE1622;}
	.st39{fill:#117A14;}
	.st40{fill:none;stroke:#1D1D1B;stroke-linecap:round;stroke-miterlimit:10;}
.mo-fire {
    width: 200px;
    height: auto;
    position: absolute;
    left: 50%;
    margin-left: -100px;
    top: 100px;
}

    .mo-fire svg {
        width: 100%;
        height: auto;
        position: relative
    }

.flame {
    animation-name: flamefly;
    animation-duration: 2s;
    animation-timing-function: linear;
    animation-iteration-count: infinite;
    opacity: 0;
    transform-origin: 50% 50% 0;
}

    .flame.one {
        animation-delay: 1s;
        animation-duration: 3s;
    }

    .flame.two {
        animation-duration: 5s;
        animation-delay: 1s;
    }

.flame-main {
    animation-name: flameWobble;
    animation-duration: 3s;
    animation-timing-function: linear;
    animation-iteration-count: infinite;
}

    .flame-main.one {
        animation-duration: 4s;
        animation-delay: 1s;
    }

    .flame-main.two {
        animation-duration: 3s;
        animation-delay: 2s;
    }

    .flame-main.three {
        animation-duration: 2.1s;
        animation-delay: 3s;
    }

    .flame-main.four {
        animation-duration: 3.2s;
        animation-delay: 4s;
    }

    .flame-main.five {
        animation-duration: 2.5s;
        animation-delay: 5s;
    }

@keyframes flameWobble {
    50% {
        transform: scale(1,1.2) translate(0, -12px) rotate(-2deg);
    }
}

@keyframes flamefly {
    0% {
        transform: translate(0) rotate(180deg);
    }

    50% {
        opacity: 1;
    }

    100% {
        transform: translate(-8px, -40px) rotate(180deg);
        opacity: 0;
    }
}
</style><script>jQuery(Core.Common.Mnemoscheme.Selector).on(Core.Common.EventTypes.MnemoschemeWidgetManager.MnemoschemeLoadComplete,
    function () {
        Core.Common.Mnemoscheme.GetParametersCallback = function (parameters) {
        // проходим по режимам работы горелок котлов
        var boilerBurnerParameterCodeTemplate = "Monitoring.State.BoilerBurner{0}";
        var svgFlameBoilerTemplate = "FlameBoiler{0}";

        for (i = 1; i &lt;= 3; i++) {
            var paramValue = GetDictionaryValueDescriptionByParameterCode(parameters.parameters, boilerBurnerParameterCodeTemplate.format(i));

            if (paramValue !== undefined) {
                var svgFlameBoilerElement = document.getElementById(svgFlameBoilerTemplate.format(i));

                if (paramValue === "СТОП") {
                    svgFlameBoilerElement.setAttribute("display", "none");
                }
                else if (paramValue === "РАБОТА") {
                    if (svgFlameBoilerElement) {
                        svgFlameBoilerElement.setAttribute("display", "inline");
                    }
                }
            }
        }

        // проходим по насосам (стоп/работа)
        var pumpStateCodeTemplate = "Monitoring.State.{0}";

        var pumpNames = ["RecirculatingPump1", "RecirculatingPump2", "RecirculatingPump3", "SystemPump1", "SystemPump2", "SystemPump3", "SystemPump4"];

        pumpNames.forEach(function (codeSuffix, indx) {
            var stateParamName = pumpStateCodeTemplate.format(codeSuffix);
            var stateParameterValue = GetDictionaryValueDescriptionByParameterCode(parameters.parameters, stateParamName);

            var durableValue = Number.zero;
            if (stateParameterValue === "РАБОТА") {
                durableValue = 1;
            }

            var animatedElement = document.getElementById("animate{0}".format(codeSuffix));
            if (animatedElement) {
                animatedElement.setAttribute("dur", durableValue + "s");
                animatedElement.beginElement();
            }            
        }
        );


        // клапан газа
        var gasFlapParameterValue = GetDictionaryValueDescriptionByParameterCode(parameters.parameters, "Monitoring.State.GasValveState");
        var openGasFlapControl = document.getElementById("GasValveOpen");
        var closeGasFlapControl = document.getElementById("GasValveClose");

        if (gasFlapParameterValue === "ЗАКРЫТ") {
            openGasFlapControl.setAttribute("display", "none");
            closeGasFlapControl.setAttribute("display", "inline");
        }
        else if (gasFlapParameterValue === "ОТКРЫТ") {
            openGasFlapControl.setAttribute("display", "inline");
            closeGasFlapControl.setAttribute("display", "none");
        }


        // значок охранной сигнализации
        var securityAlarmParameterValue = GetDictionaryValueDescriptionByParameterCode(parameters.parameters, "Monitoring.State.SecurityAlarm");
        var redSecurityAlarmElement = document.getElementById("SecurityAlarmRed");
        var blackSecurityAlarmElement = document.getElementById("SecurityAlarmBlack");

        if (securityAlarmParameterValue === "НОРМА") {
            redSecurityAlarmElement.setAttribute("display", "none");
            blackSecurityAlarmElement.setAttribute("display", "inline");
        }
        else if (securityAlarmParameterValue === "АВАРИЯ") {
            redSecurityAlarmElement.setAttribute("display", "inline");
            blackSecurityAlarmElement.setAttribute("display", "none");
        }

        // значок пожара
        var fireParameterValue = GetDictionaryValueDescriptionByParameterCode(parameters.parameters, "Monitoring.State.Fire");
        var flameOnElement = document.getElementById("FlameRed");
        var flameOffElement = document.getElementById("FlameBlack");

        if (fireParameterValue === "НОРМА") {
            flameOnElement.setAttribute("display", "none");
            flameOffElement.setAttribute("display", "inline");
        }
        else if (fireParameterValue === "АВАРИЯ") {
            flameOnElement.setAttribute("display", "inline");
            flameOffElement.setAttribute("display", "none");
        }

        // значок угарного газа
        var monoxideParameterValue = GetDictionaryValueDescriptionByParameterCode(parameters.parameters, "Monitoring.State.CarbonMonoxide");
        var monoxideOnElement = document.getElementById("MonoxideRed");
        var monoxideOffElement = document.getElementById("MonoxideBlack");

        if (monoxideParameterValue === "НОРМА") {
            monoxideOnElement.setAttribute("display", "none");
            monoxideOffElement.setAttribute("display", "inline");
        }
        else if (monoxideParameterValue === "АВАРИЯ") {
            monoxideOnElement.setAttribute("display", "inline");
            monoxideOffElement.setAttribute("display", "none");
        }

        // значок метана
        var methaneParameterValue = GetDictionaryValueDescriptionByParameterCode(parameters.parameters, "Monitoring.State.Methane");
        var methaneOnElement = document.getElementById("MethaneRed");
        var methaneOffElement = document.getElementById("MethaneBlack");

        if (methaneParameterValue === "НОРМА") {
            methaneOnElement.setAttribute("display", "none");
            methaneOffElement.setAttribute("display", "inline");
        }
        else if (methaneParameterValue === "АВАРИЯ") {
            methaneOnElement.setAttribute("display", "inline");
            methaneOffElement.setAttribute("display", "none");
        }
            debugger;
        // значок аварии котловых насосов
            var accidentBoilerPumpsParameterValue = GetDictionaryValueDescriptionByParameterCode(parameters.parameters, "Monitoring.AccidentBoilerPumps");
            var accidentBoilerPumpsOnElement = document.getElementById("ABPRed");
            var accidentBoilerPumpsOffElement = document.getElementById("ABPBlack");

            if (accidentBoilerPumpsParameterValue === "НОРМА") {
                accidentBoilerPumpsOnElement.setAttribute("display", "none");
                accidentBoilerPumpsOffElement.setAttribute("display", "inline");
        }
            else if (accidentBoilerPumpsParameterValue === "АВАРИЯ") {
                accidentBoilerPumpsOnElement.setAttribute("display", "inline");
                accidentBoilerPumpsOffElement.setAttribute("display", "none");
        }

        // значок давления сетевых насосов
            var accidentNetworkPumpsParameterValue = GetDictionaryValueDescriptionByParameterCode(parameters.parameters, "Monitoring.AccidentNetworkPumps");
            var accidentNetworkPumpsOnElement = document.getElementById("ANPRed");
            var accidentNetworkPumpsOffElement = document.getElementById("ANPBlack");

            if (accidentNetworkPumpsParameterValue === "НОРМА") {
                accidentNetworkPumpsOnElement.setAttribute("display", "none");
                accidentNetworkPumpsOffElement.setAttribute("display", "inline");
        }
            else if (accidentNetworkPumpsParameterValue === "АВАРИЯ") {
                accidentNetworkPumpsOnElement.setAttribute("display", "inline");
                accidentNetworkPumpsOffElement.setAttribute("display", "none");
        }
    };       

        function GetValueByParameterCode(parameters, code) {
            var value = undefined;

            for (var i = Number.zero; i &lt; parameters.length; i++) {
                if (parameters[i].parameterCode === code) {
                    return parameters[i].value;
                }
            }

            return value;
        };

        function GetDictionaryValueDescriptionByParameterCode(parameters, code) {
            var value = undefined;

            for (var i = Number.zero; i &lt; parameters.length; i++) {
                if (parameters[i].parameterCode === code) {
                    return parameters[i].dictionaryValueDescription;
                }
            }

            return value;
        };
    }
);
</script>
<g id="MainLayer">
	<line class="st0" x1="517.8" y1="461.9" x2="532" y2="461.9" />
	<text transform="matrix(1 0 0 1 882.071 117.1288)" class="st1 st2">группа сетевых насосов</text>
	<text transform="matrix(1 0 0 1 570.1712 691.9955)" class="st1 st2">группа насосов подпитки</text>
	<text transform="matrix(1 0 0 1 520.1712 565.4955)" class="st1 st3">3</text>
	<text transform="matrix(1 0 0 1 486.1712 575.4955)" class="st1 st4">V=2м</text>
	<ellipse class="st5" cx="747.4" cy="101.7" rx="1.9" ry="1.9" />
	<ellipse class="st6" cx="874.3" cy="101.8" rx="1.9" ry="1.9" />
	<line class="st7" x1="851.9" y1="59.5" x2="900.8" y2="59.5" />
	<line class="st7" x1="852.4" y1="101.3" x2="875.6" y2="101.3" />
	<line class="st7" x1="852.4" y1="145" x2="874.6" y2="145" />
	<line class="st7" x1="796.4" y1="145.3" x2="825.9" y2="145.3" />
	<line class="st7" x1="798.3" y1="100.8" x2="826.9" y2="100.8" />
	<ellipse class="st5" cx="543.5" cy="101.4" rx="1.9" ry="1.9" />
	<ellipse class="st6" cx="797.8" cy="101.3" rx="1.9" ry="1.9" />
	<ellipse class="st6" cx="874.1" cy="59.8" rx="1.9" ry="1.9" />
	<ellipse class="st6" cx="797.1" cy="58.3" rx="1.9" ry="1.9" />
	<line class="st7" x1="324" y1="180.4" x2="505.2" y2="180.4" />
	<line class="st7" x1="322.4" y1="58" x2="754.8" y2="58" />
	<line class="st0" x1="366" y1="94" x2="366" y2="100.3" />
	<line class="st0" x1="322" y1="101.5" x2="503.2" y2="101.5" />
	<line class="st7" x1="366.4" y1="67" x2="366.4" y2="59" />
	<polygon class="st8" points="13.8,32.9 21.5,31.4 13.8,29.9  " />
	<g transform="translate(52.134,-5.3932)">
		<g>
			<ellipse class="st9" cx="157.7" cy="87.3" rx="12.4" ry="12.6" />
		</g>
		<polyline class="st9" points="163.1,98.6 144.8,87.6 163.1,76   " />
	</g>
	<line class="st10" x1="179.6" y1="31.5" x2="179.6" y2="330.6" />
	<ellipse class="st8" cx="179.6" cy="81.9" rx="1.9" ry="1.9" />
	<line class="st10" x1="178.5" y1="82.1" x2="197.1" y2="82.1" />
	<g>
		<line class="st11" x1="228.8" y1="98.9" x2="248.5" y2="98.9" />
		<line class="st11" x1="240.8" y1="111.6" x2="248.5" y2="111.6" />
		<path class="st11" d="M241.5,111.6c0,7-5.7,12.7-12.7,12.7" />
		<path class="st11" d="M216.1,111.6c0-7,5.7-12.7,12.7-12.7" />
		<path class="st11" d="M216.1,111.6c0,7,5.7,12.7,12.7,12.7" />
		<circle class="st12" cx="228.8" cy="111.6" r="10.8" />
		<circle class="st12" cx="228.8" cy="111.6" r="3.1" />
		<path class="st11" d="M228.8,108.5c0-3.5,2.3-6.4,5.2-6.4" />
		<path class="st11" d="M228.6,114.5c-0.3,3.5-2.9,6.2-5.8,5.9" />
		<path class="st11" d="M231.9,111.1c3.5,0,6.4,2.3,6.5,5.1" />
		<path class="st11" d="M225.7,111.6c-3.5,0.1-6.5-2.2-6.5-5" />
	</g>
	<rect x="248.5" y="31.9" class="st11" width="73.8" height="92.5" />
	<text transform="matrix(1 0 0 1 253.5891 45.1469)" class="st1 st2">Котел №1</text>
	<text transform="matrix(1 0 0 1 455.6712 556.4955)" class="st1 st4">Бак</text>
	<g>
		<g transform="translate(52.134,-5.3932)">
			<g>
				<polyline class="st0" points="246.5,605.6 246.5,607.6 244.5,607.6     " />
				<line class="st13" x1="240.8" y1="607.6" x2="197.8" y2="607.6" />
				<polyline class="st0" points="195.9,607.6 193.9,607.6 193.9,605.6     " />
				<line class="st14" x1="193.9" y1="600.7" x2="193.9" y2="593.4" />
				<polyline class="st0" points="193.9,590.9 193.9,588.9 195.9,588.9     " />
				<line class="st13" x1="199.6" y1="588.9" x2="242.7" y2="588.9" />
				<polyline class="st0" points="244.5,588.9 246.5,588.9 246.5,590.9     " />
				<line class="st14" x1="246.5" y1="595.8" x2="246.5" y2="603.2" />
			</g>
		</g>
		<text transform="matrix(1 0 0 1 252.377 595.317)" class="st1 st15">Блок ХВО</text>
	</g>
	<line class="st10" x1="49.2" y1="31.5" x2="22.7" y2="31.5" />
	<line class="st10" x1="125.7" y1="31.5" x2="73.2" y2="31.5" />
	<g transform="translate(52.134,-5.3932)">
		<g>
			<ellipse class="st9" cx="856.9" cy="332.8" rx="12.4" ry="12.6" />
		</g>
		<polyline class="st9" points="851.5,321.5 869.8,332.5 851.5,344.1   " />
	</g>
	<polygon class="st16" points="1154.1,325.8 1147.6,326.9 1154.1,328.1  " />
	<line class="st17" x1="174.2" y1="593.2" x2="98" y2="593.2" />
	<polygon class="st5" points="96.8,594.7 104.5,593.2 96.8,591.7  " />
	<line class="st0" x1="245.7" y1="593.2" x2="200.8" y2="593.2" />
	<g transform="translate(52.134,-5.3932)">
		<g>
			<ellipse class="st9" cx="135.9" cy="598.6" rx="12.4" ry="12.5" />
		</g>
		<polyline class="st9" points="141.3,609.9 123,598.9 141.3,587.3   " />
	</g>
	<line class="st0" x1="615.7" y1="631.9" x2="483.2" y2="631.9" />
	<line class="st0" x1="672.7" y1="631.6" x2="642.7" y2="631.6" />
	<ellipse class="st5" cx="581.6" cy="632.9" rx="1.9" ry="1.9" />
	<ellipse class="st5" cx="674" cy="631.7" rx="1.9" ry="1.9" />
	<line class="st0" x1="581.5" y1="669.5" x2="581.5" y2="632.8" />
	<line class="st18" x1="747.4" y1="399" x2="747.4" y2="80" />
	<line class="st19" x1="674.4" y1="669" x2="674.4" y2="633.4" />
	<line class="st20" x1="615.7" y1="668.6" x2="581.2" y2="668.6" />
	<line class="st0" x1="675.2" y1="668.3" x2="641.7" y2="668.3" />
	<line class="st0" x1="748.2" y1="631.2" x2="675.2" y2="631.2" />
	<g>
		<line class="st9" x1="1063.7" y1="306" x2="1063.7" y2="325.8" />
		<ellipse class="st21" cx="1063.7" cy="301.7" rx="4.9" ry="4.4" />
	</g>
	<line class="st0" x1="922.4" y1="327.3" x2="1145.5" y2="327.3" />
	<g>
		<line class="st22" x1="959.8" y1="321.6" x2="977.3" y2="321.6" />
		<line class="st9" x1="968.5" y1="321.1" x2="968.5" y2="301.6" />
	</g>
	<g transform="translate(52.134,-5.3932)">
		<path class="st0" d="M430.3,651.3c0,9.1-4.8,16.4-10.6,16.4h-13.4c-5.9,0-10.6-7.4-10.6-16.4v-59.6c0-9.1,4.8-16.4,10.6-16.4h13.4    c5.9,0,10.6,7.4,10.6,16.4V651.3z" />
	</g>
	<line class="st7" x1="925.2" y1="58.7" x2="1160.8" y2="58.7" />
	<g transform="translate(52.134,-5.3932)">
		<g>
			<ellipse class="st9" cx="861.4" cy="63.5" rx="12.4" ry="12.6" />
		</g>
		<polyline class="st9" points="866.8,74.8 848.5,63.8 866.8,52.2   " />
	</g>
	<polygon class="st6" points="1160.8,60.1 1168.5,58.6 1160.8,57.1  " />
	<g transform="translate(52.134,-5.3932)">
		<line class="st22" x1="929.5" y1="59.8" x2="947" y2="59.8" />
		<line class="st9" x1="938.2" y1="59.3" x2="938.2" y2="39.8" />
	</g>
	<text transform="matrix(1 0 0 1 70.6938 39.343)" class="st23 st15">    </text>
	<text transform="matrix(1 0 0 1 19.1938 14.343)" class="st1 st2">от газоснабжающей</text>
	<text transform="matrix(1 0 0 1 635.2631 277.7193)" class="st23 st15">    </text>
	<text transform="matrix(1 0 0 1 134.8069 14.3466)" class="st1 st2">организации</text>
	<text transform="matrix(1 0 0 1 618.2242 288.5194)" class="st23 st15">   </text>
	<text transform="matrix(1 0 0 1 1095.3715 341.4957)" class="st1 st3">от потребителя</text>
	<line class="st10" x1="222.8" y1="82.1" x2="236.2" y2="82.1" />
	<line class="st10" x1="235.6" y1="81" x2="235.6" y2="98.2" />
	<g transform="translate(52.134,-5.3932)">
		<g>
			<ellipse class="st9" cx="158.2" cy="210.3" rx="12.4" ry="12.6" />
		</g>
		<polyline class="st9" points="163.6,221.6 145.3,210.6 163.6,199   " />
	</g>
	<ellipse class="st8" cx="180.1" cy="204.9" rx="1.9" ry="1.9" />
	<line class="st10" x1="179" y1="205.1" x2="197.6" y2="205.1" />
	<g>
		<line class="st11" x1="229.3" y1="221.9" x2="249" y2="221.9" />
		<line class="st11" x1="241.3" y1="234.6" x2="249" y2="234.6" />
		<path class="st11" d="M242,234.6c0,7-5.7,12.7-12.7,12.7" />
		<path class="st11" d="M216.6,234.6c0-7,5.7-12.7,12.7-12.7" />
		<path class="st11" d="M216.6,234.6c0,7,5.7,12.7,12.7,12.7" />
		<circle class="st12" cx="229.3" cy="234.6" r="10.8" />
		<circle class="st12" cx="229.3" cy="234.6" r="3.1" />
		<path class="st11" d="M229.3,231.5c0-3.5,2.3-6.4,5.2-6.4" />
		<path class="st11" d="M229.1,237.5c-0.3,3.5-2.9,6.2-5.8,5.9" />
		<path class="st11" d="M232.4,234.1c3.5,0,6.4,2.3,6.5,5.1" />
		<path class="st11" d="M226.2,234.6c-3.5,0.1-6.5-2.2-6.5-5" />
	</g>
	<rect x="250" y="154.9" class="st11" width="73.8" height="92.5" />
	<text transform="matrix(1 0 0 1 255.0891 168.1469)" class="st1 st2">Котел №2</text>
	<line class="st10" x1="223" y1="205.1" x2="236.7" y2="205.1" />
	<line class="st10" x1="236.1" y1="204" x2="236.1" y2="221.2" />
	<g transform="translate(52.134,-5.3932)">
		<g>
			<ellipse class="st9" cx="158.7" cy="334.8" rx="12.4" ry="12.6" />
		</g>
		<polyline class="st9" points="164.1,346.1 145.8,335.1 164.1,323.5   " />
	</g>
	<g>
		<line class="st11" x1="229.8" y1="346.4" x2="249.5" y2="346.4" />
		<line class="st11" x1="241.8" y1="359.1" x2="249.5" y2="359.1" />
		<path class="st11" d="M242.5,359.1c0,7-5.7,12.7-12.7,12.7" />
		<path class="st11" d="M217.1,359.1c0-7,5.7-12.7,12.7-12.7" />
		<path class="st11" d="M217.1,359.1c0,7,5.7,12.7,12.7,12.7" />
		<circle class="st12" cx="229.8" cy="359.1" r="10.8" />
		<circle class="st12" cx="229.8" cy="359.1" r="3.1" />
		<path class="st11" d="M229.8,356c0-3.5,2.3-6.4,5.2-6.4" />
		<path class="st11" d="M229.6,362c-0.3,3.5-2.9,6.2-5.8,5.9" />
		<path class="st11" d="M232.9,358.6c3.5,0,6.4,2.3,6.5,5.1" />
		<path class="st11" d="M226.7,359.1c-3.5,0.1-6.5-2.2-6.5-5" />
	</g>
	<rect x="249.5" y="279.4" class="st11" width="73.8" height="92.5" />
	<text transform="matrix(1 0 0 1 256.5891 292.2469)" class="st1 st2">Котел №3</text>
	<line class="st10" x1="223.5" y1="329.6" x2="237.2" y2="329.6" />
	<line class="st10" x1="236.6" y1="328.5" x2="236.6" y2="345.7" />
	<line class="st10" x1="179.5" y1="330.1" x2="198.1" y2="330.1" />
	<ellipse class="st6" cx="366.1" cy="58.8" rx="1.9" ry="1.9" />
	<ellipse class="st5" cx="366" cy="100.9" rx="1.9" ry="1.9" />
	<line class="st0" x1="366.5" y1="215.5" x2="366.5" y2="222.3" />
	<line class="st0" x1="324.8" y1="223.5" x2="502.4" y2="223.5" />
	<line class="st7" x1="366.9" y1="189.4" x2="366.9" y2="181.1" />
	<ellipse class="st6" cx="366.6" cy="180.8" rx="1.9" ry="1.9" />
	<ellipse class="st5" cx="366.5" cy="222.9" rx="1.9" ry="1.9" />
	<line class="st7" x1="506.2" y1="308.6" x2="506.2" y2="58.3" />
	<line class="st7" x1="874.5" y1="58.6" x2="874.5" y2="180.2" />
	<line class="st7" x1="797.5" y1="59.9" x2="797.5" y2="181.8" />
	<line class="st0" x1="543.3" y1="101.3" x2="543.3" y2="351.8" />
	<ellipse class="st6" cx="505.9" cy="58.1" rx="1.9" ry="1.9" />
	<g>
		<path class="st24" d="M505.6,220.7c2,0,3.6,1.6,3.6,3.6" />
		<path class="st24" d="M505.6,220.7c-2,0-3.6,1.6-3.6,3.6" />
	</g>
	<line class="st0" x1="509.3" y1="223.2" x2="543.7" y2="223.2" />
	<g>
		<path class="st24" d="M506.3,98c2,0,3.6,1.6,3.6,3.6" />
		<path class="st24" d="M506.3,98c-2,0-3.6,1.6-3.6,3.6" />
	</g>
	<line class="st7" x1="781.6" y1="58.8" x2="825.4" y2="58.8" />
	<line class="st0" x1="510.5" y1="101.9" x2="747.7" y2="101.9" />
	<ellipse class="st6" cx="506.3" cy="181.3" rx="1.9" ry="1.9" />
	<line class="st7" x1="323.6" y1="308.7" x2="507.2" y2="308.7" />
	<line class="st0" x1="367.5" y1="343" x2="367.5" y2="349.7" />
	<line class="st0" x1="323.2" y1="351.5" x2="543.2" y2="351.5" />
	<line class="st7" x1="367.9" y1="316.5" x2="367.9" y2="308.3" />
	<ellipse class="st6" cx="367.6" cy="308.1" rx="1.9" ry="1.9" />
	<ellipse class="st5" cx="367.5" cy="350.3" rx="1.9" ry="1.9" />
	<ellipse class="st5" cx="542.5" cy="222.9" rx="1.9" ry="1.9" />
	<text transform="matrix(1 0 0 1 1116.8381 75.1623)" class="st1 st3">к потребителю</text>
	<rect x="814.7" y="572.5" class="st25" width="350" height="98.5" />
	<text transform="matrix(1 0 0 1 827.1712 638.9955)" class="st1 st2">охрана</text>
	<text transform="matrix(1 0 0 1 887.1712 639.4955)" class="st1 st2">пожар</text>
	<text transform="matrix(1 0 0 1 935.2946 638.7955)" class="st1 st3">угарный газ</text>
	<text transform="matrix(1 0 0 1 1004.6712 637.9955)" class="st1 st2">метан</text>
	<text transform="matrix(1 0 0 1 1043.4875 637.9955)"><tspan x="0" y="0" class="st1 st26">авария котловых </tspan><tspan x="16.3" y="9.6" class="st1 st26">насосов</tspan></text>
	<text transform="matrix(1 0 0 1 1109.1008 638.2955)"><tspan x="0" y="0" class="st1 st26">авария сетевых</tspan><tspan x="12.7" y="9.6" class="st1 st26">насосов</tspan></text>
	<text transform="matrix(1 0 0 1 28.6712 54.9955)" class="st1 st2">клапан газа</text>
	<text transform="matrix(1 0 0 1 815.7 46.5955)" class="st27 st28 st2">1</text>
	<text transform="matrix(1 0 0 1 815.7 87.5955)" class="st27 st28 st2">2</text>
	<text transform="matrix(1 0 0 1 815.7 130.0955)" class="st27 st28 st2">3</text>
	<text transform="matrix(1 0 0 1 608 616.4955)" class="st27 st28 st2">1</text>
	<text transform="matrix(1 0 0 1 608.5 658.4955)" class="st27 st28 st2">2</text>
	<g>
		<line class="st9" x1="1086.5" y1="37.7" x2="1086.5" y2="57.5" />
		<ellipse class="st21" cx="1086.5" cy="33.4" rx="4.9" ry="4.4" />
	</g>
	<line class="st0" x1="447.2" y1="593.2" x2="299.3" y2="593.2" />
	<g>
		<polygon class="st9" points="630.2,79.5 643.3,75 643.3,84   " />
		<polygon class="st9" points="630.2,79.5 617,84 617,75   " />
	</g>
	<polygon class="st29" points="671.2,79.5 684.3,75 684.3,84  " />
	<polygon class="st9" points="671.2,79.5 658,84 658,75  " />
	<line class="st30" x1="684.7" y1="79.9" x2="748.4" y2="79.9" />
	<line class="st0" x1="644" y1="80.1" x2="658.2" y2="80.1" />
	<line class="st0" x1="602.4" y1="79.7" x2="616.6" y2="79.7" />
	<line class="st0" x1="603.1" y1="58.2" x2="603.1" y2="80.1" />
	<g>
		<g>
			<circle class="st9" cx="768.4" cy="39.4" r="9.7" />
			<line class="st9" x1="768.4" y1="49.2" x2="768.4" y2="57.6" />
			<text transform="matrix(1 0 0 1 764.1777 44.1422)" class="st31 st23 st4">~</text>
		</g>
		<polygon class="st9" points="768.7,58.3 771.8,67.3 765.6,67.3   " />
		<polygon class="st9" points="768.7,58.1 755.6,62.6 755.6,53.6   " />
		<polygon class="st9" points="768.7,58.1 781.9,53.6 781.9,62.6   " />
	</g>
	<g transform="translate(52.134,-5.3932)">
		<g>
			<ellipse class="st9" cx="694.8" cy="416.5" rx="12.5" ry="12.4" />
		</g>
		<polyline class="st9" points="706.2,411.1 695.1,429.4 683.5,411.1   " />
	</g>
	<line class="st0" x1="746.8" y1="631" x2="746.8" y2="424.6" />
	<g>
		<polygon class="st9" points="545.2,461.4 558.3,456.9 558.3,465.9   " />
		<polygon class="st9" points="545.2,461.4 532,465.9 532,456.9   " />
	</g>
	<polygon class="st29" points="504.6,461.3 517.7,456.8 517.7,465.8  " />
	<polygon class="st9" points="504.6,461.3 491.4,465.8 491.4,456.8  " />
	<line class="st0" x1="558.5" y1="461.7" x2="746" y2="461.7" />
	<line class="st0" x1="401.6" y1="461.1" x2="491.6" y2="461.1" />
	<ellipse class="st5" cx="746.5" cy="461.8" rx="1.9" ry="1.9" />
	<line class="st32" x1="401.8" y1="593" x2="401.8" y2="460.2" />
	<ellipse class="st5" cx="402" cy="593.7" rx="1.9" ry="1.9" />
	<text transform="matrix(1 0 0 1 456.6712 443.8955)" class="st1 st4">аварийная линия подпитки</text>
	<line class="st0" x1="747.2" y1="327.3" x2="896.5" y2="327.3" />
	<ellipse class="st5" cx="747.6" cy="327.7" rx="1.9" ry="1.9" />
	<line class="st7" x1="797.2" y1="180.7" x2="825.1" y2="180.7" />
	<line class="st7" x1="851.2" y1="180.8" x2="952.4" y2="180.8" />
	<text transform="matrix(1 0 0 1 815.9 168.6955)" class="st27 st28 st2">4</text>
	<ellipse class="st6" cx="797.8" cy="146.3" rx="1.9" ry="1.9" />
	<ellipse class="st6" cx="874.3" cy="144.8" rx="1.9" ry="1.9" />
	<g>
		<line class="st33" x1="1094.9" y1="173.1" x2="1094.9" y2="213.4" />
		<line class="st33" x1="1094.6" y1="173.1" x2="1167.2" y2="173.1" />
		<line class="st33" x1="1094.6" y1="213.1" x2="1166.9" y2="213.1" />
		<line class="st33" x1="1167.4" y1="173" x2="1167.4" y2="213.3" />
		<line class="st34" x1="1103.3" y1="178.2" x2="1103.3" y2="207.1" />
		<line class="st34" x1="1113" y1="178.2" x2="1113" y2="207.1" />
		<line class="st34" x1="1108.1" y1="178.2" x2="1108.1" y2="207.1" />
		<line class="st34" x1="1117.8" y1="178.2" x2="1117.8" y2="207.1" />
		<line class="st34" x1="1122.7" y1="178.2" x2="1122.7" y2="207.1" />
		<line class="st34" x1="1127.5" y1="178.2" x2="1127.5" y2="207.1" />
		<line class="st34" x1="1132.4" y1="178.2" x2="1132.4" y2="207.1" />
		<line class="st34" x1="1137.2" y1="178.2" x2="1137.2" y2="207.1" />
		<line class="st34" x1="1142" y1="178.2" x2="1142" y2="207.1" />
		<line class="st34" x1="1146.9" y1="178.2" x2="1146.9" y2="207.1" />
		<line class="st34" x1="1151.7" y1="178.2" x2="1151.7" y2="207.1" />
		<line class="st34" x1="1156.6" y1="178.2" x2="1156.6" y2="207.1" />
		<line class="st34" x1="1161.4" y1="178.2" x2="1161.4" y2="207.1" />
	</g>
	<g>
		<rect x="952.8" y="164.2" class="st35" width="44.8" height="58.9" />
		<g>
			<line class="st35" x1="952.8" y1="223" x2="997.6" y2="164.2" />
		</g>
	</g>
	<ellipse class="st6" cx="874" cy="180.5" rx="1.9" ry="1.9" />
	<line class="st0" x1="748.6" y1="204.5" x2="952.8" y2="204.5" />
	<ellipse class="st5" cx="748" cy="204.3" rx="1.9" ry="1.9" />
	<text transform="matrix(1 0 0 1 1093.571 163.1955)" class="st1 st26">воздушное отопление</text>
	<line class="st7" x1="997.2" y1="180.8" x2="1094.8" y2="180.8" />
	<g>
		<ellipse class="st9" cx="1041.4" cy="195.6" rx="9.6" ry="9.5" />
		<polygon class="st21" points="1033.3,195.6 1039.4,192.1 1039.4,199.1   " />
	</g>
	<g>
		<ellipse class="st9" cx="1041.8" cy="217.2" rx="9.6" ry="9.5" />
		<polygon class="st21" points="1033.7,217.2 1039.8,213.7 1039.8,220.7   " />
	</g>
	<line class="st9" x1="1026.7" y1="215.5" x2="1026.7" y2="196" />
	<line class="st9" x1="1054.9" y1="215.3" x2="1054.9" y2="195.8" />
	<line class="st0" x1="997.2" y1="204.5" x2="1026.4" y2="204.5" />
	<line class="st0" x1="1055.8" y1="204.9" x2="1094.8" y2="204.9" />
	<g transform="translate(52.134,-5.3932)">
		<g>
			<ellipse class="st9" cx="86.3" cy="37.3" rx="12.4" ry="12.6" />
		</g>
		<polyline class="st9" points="91.7,48.6 73.4,37.6 91.7,26   " />
	</g>
	<line class="st10" x1="180.8" y1="30.7" x2="151.4" y2="30.7" />
	<text transform="matrix(1 0 0 1 589.1712 235.1957)"><tspan x="0" y="0" class="st1 st2">Температура наружного</tspan><tspan x="0" y="14.4" class="st1 st2 st36">	</tspan><tspan x="36" y="14.4" class="st1 st2">воздуха</tspan></text>
</g>
<text transform="matrix(1 0 0 1 557.4 33.8)" class="st37 st38 st2" data-core-parameter="Monitoring.Temper.SupplyDirectHeatNetwork" id="Monitoring.Temper.SupplyDirectHeatNetwork">T4</text>
<text transform="matrix(1 0 0 1 555.6 48.6)" class="st39 st38 st2" data-core-parameter="Monitoring.Temper.HeatSysSetting" id="Monitoring.Temper.HeatSysSetting">Tc4</text>
<text transform="matrix(1 0 0 1 633.1712 266.7953)" class="st1 st2" data-core-parameter="Monitoring.Temper.OutdoorAir" id="Monitoring.Temper.OutdoorAir">Tout</text>
<text transform="matrix(1 0 0 1 121.9711 57.7953)" class="st1 st2" data-core-parameter="Gas.VolumeFlow.Standard" id="Gas.VolumeFlow.Standard">Ggas</text>






<g id="MakeupPump1">
	<g>
		<circle class="st12" cx="629.3" cy="630.5" r="10.8" />
		<circle class="st12" cx="629.3" cy="630.5" r="3.1" />
		<path class="st11" d="M628.4,627.6c-1.2-3.3,0-6.8,2.7-7.8" />
		<path class="st11" d="M626.4,631.5c-3.3,1.2-6.8,0-7.8-2.7" />
		<path class="st11" d="M630.3,633.5c1.2,3.3,0,6.8-2.7,7.8" />
		<path class="st11" d="M632.3,629.6c3.3-1.2,6.8,0,7.8,2.7" />
		<circle class="st40" cx="629.3" cy="630.5" r="12.9" />
	<animateTransform id="animateMakeupPump1" attributeType="xml" attributeName="transform" type="rotate" values="0 629.3 630.5; 360 629.3 630.5" dur="0s" additive="sum" repeatCount="indefinite" /></g>
</g>
<g id="MakeupPump2">
	<g>
		<circle class="st12" cx="629.3" cy="669.2" r="10.8" />
		<circle class="st12" cx="629.3" cy="669.2" r="3.1" />
		<path class="st11" d="M628.4,666.3c-1.2-3.3,0-6.8,2.7-7.8" />
		<path class="st11" d="M626.4,670.2c-3.3,1.2-6.8,0-7.8-2.7" />
		<path class="st11" d="M630.3,672.2c1.2,3.3,0,6.8-2.7,7.8" />
		<path class="st11" d="M632.3,668.3c3.3-1.2,6.8,0,7.8,2.7" />
		<circle class="st40" cx="629.3" cy="669.2" r="12.9" />
	<animateTransform id="animateMakeupPump2" attributeType="xml" attributeName="transform" type="rotate" values="0 629.3 669.2; 360 629.3 669.2" dur="0s" additive="sum" repeatCount="indefinite" /></g>
</g>
<g id="RecirculatingPump1">
	<g>
		<circle class="st12" cx="365.8" cy="80.7" r="10.8" />
		<circle class="st12" cx="365.8" cy="80.7" r="3.1" />
		<path class="st11" d="M364.9,77.8c-1.2-3.3,0-6.8,2.7-7.8" />
		<path class="st11" d="M362.9,81.7c-3.3,1.2-6.8,0-7.8-2.7" />
		<path class="st11" d="M366.8,83.7c1.2,3.3,0,6.8-2.7,7.8" />
		<path class="st11" d="M368.8,79.8c3.3-1.2,6.8,0,7.8,2.7" />
		<circle class="st40" cx="365.8" cy="80.7" r="12.9" />
	<animateTransform id="animateRecirculatingPump1" attributeType="xml" attributeName="transform" type="rotate" values="0 365.8 80.7; 360 365.8 80.7" dur="0s" additive="sum" repeatCount="indefinite" /></g>
</g>
<g id="RecirculatingPump3">
	<g>
		<circle class="st12" cx="368.3" cy="329.7" r="10.8" />
		<circle class="st12" cx="368.3" cy="329.7" r="3.1" />
		<path class="st11" d="M367.4,326.8c-1.2-3.3,0-6.8,2.7-7.8" />
		<path class="st11" d="M365.4,330.7c-3.3,1.2-6.8,0-7.8-2.7" />
		<path class="st11" d="M369.3,332.7c1.2,3.3,0,6.8-2.7,7.8" />
		<path class="st11" d="M371.3,328.8c3.3-1.2,6.8,0,7.8,2.7" />
		<circle class="st40" cx="368.3" cy="329.7" r="12.9" />
	<animateTransform id="animateRecirculatingPump3" attributeType="xml" attributeName="transform" type="rotate" values="0 368.3 329.7; 360 368.3 329.7" dur="0s" additive="sum" repeatCount="indefinite" /></g>
</g>
<g id="RecirculatingPump2">
	<g>
		<circle class="st12" cx="366.8" cy="202.7" r="10.8" />
		<circle class="st12" cx="366.8" cy="202.7" r="3.1" />
		<path class="st11" d="M365.9,199.8c-1.2-3.3,0-6.8,2.7-7.8" />
		<path class="st11" d="M363.9,203.7c-3.3,1.2-6.8,0-7.8-2.7" />
		<path class="st11" d="M367.8,205.7c1.2,3.3,0,6.8-2.7,7.8" />
		<path class="st11" d="M369.8,201.8c3.3-1.2,6.8,0,7.8,2.7" />
		<circle class="st40" cx="366.8" cy="202.7" r="12.9" />
	<animateTransform id="animateRecirculatingPump2" attributeType="xml" attributeName="transform" type="rotate" values="0 366.8 202.7; 360 366.8 202.7" dur="0s" additive="sum" repeatCount="indefinite" /></g>
</g>
<g id="SystemPump3">
	<g>
		<circle class="st12" cx="839" cy="144.3" r="10.8" />
		<circle class="st12" cx="839" cy="144.3" r="3.1" />
		<path class="st11" d="M838.1,141.4c-1.2-3.3,0-6.8,2.7-7.8" />
		<path class="st11" d="M836.1,145.3c-3.3,1.2-6.8,0-7.8-2.7" />
		<path class="st11" d="M840,147.3c1.2,3.3,0,6.8-2.7,7.8" />
		<path class="st11" d="M842,143.4c3.3-1.2,6.8,0,7.8,2.7" />
		<circle class="st40" cx="839" cy="144.3" r="12.9" />
	<animateTransform id="animateSystemPump3" attributeType="xml" attributeName="transform" type="rotate" values="0 839 144.3; 360 839 144.3" dur="0s" additive="sum" repeatCount="indefinite" /></g>
</g>
<g id="SystemPump4">
	<g>
		<circle class="st12" cx="838" cy="181.3" r="10.8" />
		<circle class="st12" cx="838" cy="181.3" r="3.1" />
		<path class="st11" d="M837.1,178.4c-1.2-3.3,0-6.8,2.7-7.8" />
		<path class="st11" d="M835.1,182.3c-3.3,1.2-6.8,0-7.8-2.7" />
		<path class="st11" d="M839,184.3c1.2,3.3,0,6.8-2.7,7.8" />
		<path class="st11" d="M841,180.4c3.3-1.2,6.8,0,7.8,2.7" />
		<circle class="st40" cx="838" cy="181.3" r="12.9" />
	<animateTransform id="animateSystemPump4" attributeType="xml" attributeName="transform" type="rotate" values="0 838 181.3; 360 838 181.3" dur="0s" additive="sum" repeatCount="indefinite" /></g>
</g>
<g id="SystemPump2">
	<g>
		<circle class="st12" cx="839" cy="101.3" r="10.8" />
		<circle class="st12" cx="839" cy="101.3" r="3.1" />
		<path class="st11" d="M838.1,98.4c-1.2-3.3,0-6.8,2.7-7.8" />
		<path class="st11" d="M836.1,102.3c-3.3,1.2-6.8,0-7.8-2.7" />
		<path class="st11" d="M840,104.3c1.2,3.3,0,6.8-2.7,7.8" />
		<path class="st11" d="M842,100.4c3.3-1.2,6.8,0,7.8,2.7" />
		<circle class="st40" cx="839" cy="101.3" r="12.9" />
	<animateTransform id="animateSystemPump2" attributeType="xml" attributeName="transform" type="rotate" values="0 839 101.3; 360 839 101.3" dur="0s" additive="sum" repeatCount="indefinite" /></g>
</g>
<g id="SystemPump1">
	<g>
		<circle class="st12" cx="838.8" cy="58.6" r="10.8" />
		<circle class="st12" cx="838.8" cy="58.6" r="3.1" />
		<path class="st11" d="M837.9,55.7c-1.2-3.3,0-6.8,2.7-7.8" />
		<path class="st11" d="M835.9,59.6c-3.3,1.2-6.8,0-7.8-2.7" />
		<path class="st11" d="M839.8,61.6c1.2,3.3,0,6.8-2.7,7.8" />
		<path class="st11" d="M841.8,57.7c3.3-1.2,6.8,0,7.8,2.7" />
		<circle class="st40" cx="838.8" cy="58.6" r="12.9" />
	<animateTransform id="animateSystemPump1" attributeType="xml" attributeName="transform" type="rotate" values="0 838.8 58.6; 360 838.8 58.6" dur="0s" additive="sum" repeatCount="indefinite" /></g>
</g>
<text transform="matrix(1 0 0 1 998.3378 36.1467)" class="st1 st2" data-core-parameter="HeatSys.Pressure.SupplyPipe" id="HeatSys.Pressure.SupplyPipe">P1</text>
<text transform="matrix(1 0 0 1 981.5378 307.1465)" class="st1 st2" data-core-parameter="HeatSys.Pressure.ReturnPipe" id="HeatSys.Pressure.ReturnPipe">P2</text>
<text transform="matrix(1 0 0 1 906.1712 39.1465)" class="st1 st2" data-core-parameter="HeatSys.MassFlow.SupplyPipe" id="HeatSys.MassFlow.SupplyPipe">G1</text>
<text transform="matrix(1 0 0 1 884.8712 304.1622)" class="st1 st2" data-core-parameter="HeatSys.MassFlow.ReturnPipe" id="HeatSys.MassFlow.ReturnPipe">G2</text>
<text transform="matrix(1 0 0 1 1076.704 307.1467)" class="st1 st2" data-core-parameter="HeatSys.Temper.ReturnPipe" id="HeatSys.Temper.ReturnPipe">T2</text>
<text transform="matrix(1 0 0 1 1099.5042 36.1465)" class="st1 st2" data-core-parameter="HeatSys.Temper.SupplyPipe" id="HeatSys.Temper.SupplyPipe">T1</text>




<svg x="254.1712" y="285.9955" display="none" width="50px" height="75.95px" viewBox="0 0 50 75.95" enable-background="new 0 0 50 75.95" xml:space="preserve" id="FlameBoiler3">
<path class="flame-main" fill="#F32230" d="M30.6212,74.436c0,0-4.0712-1.1904-6.13-3.2904s-3.7112-6.728-3.7112-6.728s-0.0964-2.6588-1.6544-7.386c0,0,1.3428,1.9876,2.0412,3.9752c0,0-2.122-8.4344,0.6848-12.1672c2.8068-3.7332,0.2284-14.2616-0.9-15.0136c0,0,5.228,2.256,7.95,19.016   c2.7224,16.7596,6.7324,18.1204,2.4352,21.594" />
    <path class="flame-main one" fill="#D7434D" d="M24.6772,48.9028c1.6468-6.16,4.8388-5.7948-4.6356-24.3488c0,0,12.8064,4.0892,21.0404,25.2492   c8.234,21.1596-7.9392,24.418-7.8572,24.6328c0.0824,0.2148-7.7604-0.1076-5.934-7.4128S23.0304,55.0624,24.6772,48.9028z" />
    <path class="flame-main two" fill="#FF2231" d="M32.6628,31.6768c0,0,4.6196,9.938,1.4504,16.008c-3.1696,6.07-8.4504,16.7596-0.17,25.9992  C33.9432,73.684,50.282,60.363,32.6628,31.6768z" />
<path class="flame-main three" fill="#B50713" d="M39.968,40.7016c0,0-9.2832,18.8108-4.8172,32.0288c0,0,13.0964-6.4292,8.0432-18.316  C38.1416,42.5276,39.968,45.6432,39.968,40.7016z" />
<path class="flame-main four" fill="#940912" d="M41.2572,42.3668c0,0,3.5708,12.3012-0.4172,18.7472c-3.9876,6.446-5.9196,11.6164-5.9196,11.6164  S53.7548,65.8412,41.2572,42.3668z" />  
    <path class="flame-main five" fill="#D13842" d="M24.8196,41.6684c0,0-6.258,27.0352,4.2116,31.062C39.5012,76.7576,27.6132,52.3044,24.8196,41.6684z" />
<path class="flame" fill="#F36E21" d="M40.4044,45.1704c0,0,3.5892,4.2076,1.8224,6.6172C39.748,51.894,42.7008,46.9624,40.4044,45.1704z" />    
<path class="flame one" fill="#F36E21" d="M22.2368,50.7416c0,0-1.5276,5.316,1.0796,6.778C25.6152,56.592,22.3628,52.9052,22.2368,50.7416z" />    
<path class="flame two" fill="#F36E21" d="M21.9672,41.838c0,0-1.5836,2.4436-0.496,3.5796C22.772,45.4104,20.8912,42.9316,21.9672,41.838z" />
</svg><svg x="252.1712" y="38.9955" display="none" width="50px" height="75.95px" viewBox="0 0 50 75.95" enable-background="new 0 0 50 75.95" xml:space="preserve" id="FlameBoiler1">
<path class="flame-main" fill="#F32230" d="M30.6212,74.436c0,0-4.0712-1.1904-6.13-3.2904s-3.7112-6.728-3.7112-6.728s-0.0964-2.6588-1.6544-7.386c0,0,1.3428,1.9876,2.0412,3.9752c0,0-2.122-8.4344,0.6848-12.1672c2.8068-3.7332,0.2284-14.2616-0.9-15.0136c0,0,5.228,2.256,7.95,19.016   c2.7224,16.7596,6.7324,18.1204,2.4352,21.594" />
    <path class="flame-main one" fill="#D7434D" d="M24.6772,48.9028c1.6468-6.16,4.8388-5.7948-4.6356-24.3488c0,0,12.8064,4.0892,21.0404,25.2492   c8.234,21.1596-7.9392,24.418-7.8572,24.6328c0.0824,0.2148-7.7604-0.1076-5.934-7.4128S23.0304,55.0624,24.6772,48.9028z" />
    <path class="flame-main two" fill="#FF2231" d="M32.6628,31.6768c0,0,4.6196,9.938,1.4504,16.008c-3.1696,6.07-8.4504,16.7596-0.17,25.9992  C33.9432,73.684,50.282,60.363,32.6628,31.6768z" />
<path class="flame-main three" fill="#B50713" d="M39.968,40.7016c0,0-9.2832,18.8108-4.8172,32.0288c0,0,13.0964-6.4292,8.0432-18.316  C38.1416,42.5276,39.968,45.6432,39.968,40.7016z" />
<path class="flame-main four" fill="#940912" d="M41.2572,42.3668c0,0,3.5708,12.3012-0.4172,18.7472c-3.9876,6.446-5.9196,11.6164-5.9196,11.6164  S53.7548,65.8412,41.2572,42.3668z" />  
    <path class="flame-main five" fill="#D13842" d="M24.8196,41.6684c0,0-6.258,27.0352,4.2116,31.062C39.5012,76.7576,27.6132,52.3044,24.8196,41.6684z" />
<path class="flame" fill="#F36E21" d="M40.4044,45.1704c0,0,3.5892,4.2076,1.8224,6.6172C39.748,51.894,42.7008,46.9624,40.4044,45.1704z" />    
<path class="flame one" fill="#F36E21" d="M22.2368,50.7416c0,0-1.5276,5.316,1.0796,6.778C25.6152,56.592,22.3628,52.9052,22.2368,50.7416z" />    
<path class="flame two" fill="#F36E21" d="M21.9672,41.838c0,0-1.5836,2.4436-0.496,3.5796C22.772,45.4104,20.8912,42.9316,21.9672,41.838z" />
</svg><svg x="254.1712" y="161.9955" display="none" width="50px" height="75.95px" viewBox="0 0 50 75.95" enable-background="new 0 0 50 75.95" xml:space="preserve" id="FlameBoiler2">
<path class="flame-main" fill="#F32230" d="M30.6212,74.436c0,0-4.0712-1.1904-6.13-3.2904s-3.7112-6.728-3.7112-6.728s-0.0964-2.6588-1.6544-7.386c0,0,1.3428,1.9876,2.0412,3.9752c0,0-2.122-8.4344,0.6848-12.1672c2.8068-3.7332,0.2284-14.2616-0.9-15.0136c0,0,5.228,2.256,7.95,19.016   c2.7224,16.7596,6.7324,18.1204,2.4352,21.594" />
    <path class="flame-main one" fill="#D7434D" d="M24.6772,48.9028c1.6468-6.16,4.8388-5.7948-4.6356-24.3488c0,0,12.8064,4.0892,21.0404,25.2492   c8.234,21.1596-7.9392,24.418-7.8572,24.6328c0.0824,0.2148-7.7604-0.1076-5.934-7.4128S23.0304,55.0624,24.6772,48.9028z" />
    <path class="flame-main two" fill="#FF2231" d="M32.6628,31.6768c0,0,4.6196,9.938,1.4504,16.008c-3.1696,6.07-8.4504,16.7596-0.17,25.9992  C33.9432,73.684,50.282,60.363,32.6628,31.6768z" />
<path class="flame-main three" fill="#B50713" d="M39.968,40.7016c0,0-9.2832,18.8108-4.8172,32.0288c0,0,13.0964-6.4292,8.0432-18.316  C38.1416,42.5276,39.968,45.6432,39.968,40.7016z" />
<path class="flame-main four" fill="#940912" d="M41.2572,42.3668c0,0,3.5708,12.3012-0.4172,18.7472c-3.9876,6.446-5.9196,11.6164-5.9196,11.6164  S53.7548,65.8412,41.2572,42.3668z" />  
    <path class="flame-main five" fill="#D13842" d="M24.8196,41.6684c0,0-6.258,27.0352,4.2116,31.062C39.5012,76.7576,27.6132,52.3044,24.8196,41.6684z" />
<path class="flame" fill="#F36E21" d="M40.4044,45.1704c0,0,3.5892,4.2076,1.8224,6.6172C39.748,51.894,42.7008,46.9624,40.4044,45.1704z" />    
<path class="flame one" fill="#F36E21" d="M22.2368,50.7416c0,0-1.5276,5.316,1.0796,6.778C25.6152,56.592,22.3628,52.9052,22.2368,50.7416z" />    
<path class="flame two" fill="#F36E21" d="M21.9672,41.838c0,0-1.5836,2.4436-0.496,3.5796C22.772,45.4104,20.8912,42.9316,21.9672,41.838z" />
</svg><svg version="1.1" x="46.1712" y="26.4955" viewBox="0 0 28 11" width="28px" height="11px" style="enable-background:new 0 0 28 11;" xml:space="preserve" id="GasValveOpen">
<polygon fill="#EA5B0C" stroke="#EA5B0C" stroke-miterlimit="10" points="14.2,5.3 27.3,0.8 27.3,9.8 " />
<polygon fill="#EA5B0C" stroke="#EA5B0C" stroke-miterlimit="10" points="14.2,5.3 1,9.8 1,0.8 " />
</svg><svg version="1.1" x="46.1712" y="26.4955" viewBox="0 0 28 11" width="28px" height="11px" style="enable-background:new 0 0 28 11;" xml:space="preserve" id="GasValveClose">
<polygon fill="#FFFFFF" stroke="#EA5B0C" stroke-miterlimit="10" points="14.2,5.3 27.3,0.8 27.3,9.8 " />
<polygon fill="#FFFFFF" stroke="#EA5B0C" stroke-miterlimit="10" points="14.2,5.3 1,9.8 1,0.8 " />
</svg><svg version="1.1" x="825.3984" y="586.1465" viewBox="0 0 40 40" style="enable-background:new 0 0 40 40;" xml:space="preserve" width="40px" height="40px" id="SecurityAlarmBlack">
<g>
    <rect fill="#FFFFFF" width="40px" height="40px" />
	<path d="M19.92,8.32c0.7,0,1.27-0.57,1.27-1.27V3.04c0-0.7-0.57-1.27-1.27-1.27   s-1.27,0.57-1.27,1.27v4C18.65,7.75,19.22,8.32,19.92,8.32z" fill="#000000" />
	<path d="M9.34,11.36c0.25,0.3,0.61,0.45,0.98,0.45c0.29,0,0.58-0.1,0.82-0.3   c0.54-0.45,0.61-1.25,0.16-1.79l-2.57-3.06c-0.45-0.54-1.25-0.61-1.79-0.16   c-0.54,0.45-0.61,1.25-0.16,1.79L9.34,11.36z" fill="#000000" />
	<path d="M5.21,20.66c0.61,0,1.14-0.43,1.25-1.05c0.12-0.69-0.34-1.35-1.03-1.47l-3.94-0.7   c-0.69-0.12-1.35,0.34-1.47,1.03c-0.12,0.69,0.34,1.35,1.03,1.47l3.94,0.7   C5.06,20.66,5.14,20.66,5.21,20.66z" fill="#000000" />
	<path d="M38.35,17.44l-3.94,0.69c-0.69,0.12-1.15,0.78-1.03,1.47c0.11,0.62,0.65,1.05,1.25,1.05   c0.07,0,0.15-0.01,0.22-0.02l3.94-0.69c0.69-0.12,1.15-0.78,1.03-1.47   C39.7,17.78,39.04,17.32,38.35,17.44z" fill="#000000" />
	<path d="M29.52,11.81c0.36,0,0.72-0.15,0.98-0.45l2.57-3.06c0.45-0.54,0.38-1.34-0.16-1.79   c-0.54-0.45-1.34-0.38-1.79,0.16l-2.57,3.06c-0.45,0.54-0.38,1.34,0.16,1.79   C28.94,11.72,29.23,11.81,29.52,11.81z" fill="#000000" />
	<path d="M19.92,9.99c-6.59,0-11.93,5.34-11.93,11.93v8.15h6.67h15.73h1.47V21.92   C31.85,15.33,26.51,9.99,19.92,9.99z M10.53,27.52v-5.6c0-4.94,3.83-8.99,8.68-9.35   c-2.77,2.18-4.56,5.55-4.56,9.35v5.6H10.53z" fill="#000000" />
</g>	
</svg><svg version="1.1" x="825.3984" y="586.1465" viewBox="0 0 40 40" style="enable-background:new 0 0 40 40;" xml:space="preserve" width="40px" height="40px" id="SecurityAlarmRed">
<g>
    <rect fill="#FF000D" width="40px" height="40px" />
	<path d="M19.92,8.32c0.7,0,1.27-0.57,1.27-1.27V3.04c0-0.7-0.57-1.27-1.27-1.27   s-1.27,0.57-1.27,1.27v4C18.65,7.75,19.22,8.32,19.92,8.32z" fill="#000000" />
	<path d="M9.34,11.36c0.25,0.3,0.61,0.45,0.98,0.45c0.29,0,0.58-0.1,0.82-0.3   c0.54-0.45,0.61-1.25,0.16-1.79l-2.57-3.06c-0.45-0.54-1.25-0.61-1.79-0.16   c-0.54,0.45-0.61,1.25-0.16,1.79L9.34,11.36z" fill="#000000" />
	<path d="M5.21,20.66c0.61,0,1.14-0.43,1.25-1.05c0.12-0.69-0.34-1.35-1.03-1.47l-3.94-0.7   c-0.69-0.12-1.35,0.34-1.47,1.03c-0.12,0.69,0.34,1.35,1.03,1.47l3.94,0.7   C5.06,20.66,5.14,20.66,5.21,20.66z" fill="#000000" />
	<path d="M38.35,17.44l-3.94,0.69c-0.69,0.12-1.15,0.78-1.03,1.47c0.11,0.62,0.65,1.05,1.25,1.05   c0.07,0,0.15-0.01,0.22-0.02l3.94-0.69c0.69-0.12,1.15-0.78,1.03-1.47   C39.7,17.78,39.04,17.32,38.35,17.44z" fill="#000000" />
	<path d="M29.52,11.81c0.36,0,0.72-0.15,0.98-0.45l2.57-3.06c0.45-0.54,0.38-1.34-0.16-1.79   c-0.54-0.45-1.34-0.38-1.79,0.16l-2.57,3.06c-0.45,0.54-0.38,1.34,0.16,1.79   C28.94,11.72,29.23,11.81,29.52,11.81z" fill="#000000" />
	<path d="M19.92,9.99c-6.59,0-11.93,5.34-11.93,11.93v8.15h6.67h15.73h1.47V21.92   C31.85,15.33,26.51,9.99,19.92,9.99z M10.53,27.52v-5.6c0-4.94,3.83-8.99,8.68-9.35   c-2.77,2.18-4.56,5.55-4.56,9.35v5.6H10.53z" fill="#000000" />
</g>	
</svg><svg version="1.1" x="884.6631" y="586.1465" viewBox="0 0 40 40" style="enable-background:new 0 0 40 40;" xml:space="preserve" width="40px" height="40px" id="FlameBlack">
<rect fill="#FFFFFF" width="40px" height="40px" />
<path style="fill:#FFFFFF;" d="M20,0.64C9.31,0.64,0.64,9.31,0.64,20S9.31,39.36,20,39.36  s19.36-8.67,19.36-19.36S30.69,0.64,20,0.64z" />
<path style="fill:#FFFFFF;" d="M24.27,35.07c8.45-2.83,8.97-10.24,5.9-16.31  c-1.62-2.83-0.52-4.57-0.52-4.57s-3.24,0.58-4.57,3.18c-1.85-3.99,2.78-5.61-0.35-12.44  c0,0-1.39,2.49-5.32,4.57s-3.64,6.71-3.64,6.71s-0.75-3.12-4.34-3.64c0,0,0.69,3.12-1.04,5.79  S4.25,32.99,19.64,35.07c0,0-7.12-4.98-3.88-13.48c0,0,0.87,2.02,2.31,2.6c0,0,0.69-3.53,4.28-4.86  c0,0-0.35,4.05,1.45,5.55c0,0,1.85-1.1,2.08-2.78C25.89,22.11,28.73,29.69,24.27,35.07z" />
<path d="M8.86,4.81c0.13,0,0.26-0.04,0.37-0.12c0.6-0.42,1.22-0.81,1.86-1.16  c0.31-0.17,0.43-0.56,0.26-0.87c-0.17-0.31-0.56-0.43-0.87-0.26c-0.68,0.37-1.35,0.79-1.99,1.23  c-0.29,0.2-0.36,0.6-0.15,0.89C8.46,4.71,8.66,4.81,8.86,4.81z" />
<path d="M34.14,5.86C30.36,2.08,25.34,0,20,0c-2.4,0-4.75,0.42-6.99,1.26  c-0.33,0.12-0.5,0.49-0.38,0.82c0.12,0.33,0.49,0.5,0.82,0.38c2.09-0.78,4.29-1.17,6.54-1.17  c5,0,9.7,1.95,13.24,5.48c3.54,3.54,5.48,8.24,5.48,13.24s-1.95,9.7-5.48,13.24  c-3.54,3.54-8.24,5.48-13.24,5.48s-9.7-1.95-13.24-5.48c-3.54-3.54-5.48-8.24-5.48-13.24  c0-2.66,0.54-5.22,1.62-7.63c1.04-2.32,2.52-4.38,4.39-6.12c0.26-0.24,0.28-0.64,0.04-0.9  c-0.24-0.26-0.64-0.28-0.9-0.04c-2,1.85-3.58,4.05-4.69,6.54C0.58,14.42,0,17.16,0,20  c0,5.34,2.08,10.36,5.86,14.14S14.66,40,20,40c5.34,0,10.36-2.08,14.14-5.86S40,25.34,40,20  S37.92,9.64,34.14,5.86z" />
<path d="M19.39,35.7c0.29,0.04,0.57-0.13,0.68-0.4c0.11-0.27,0.01-0.59-0.23-0.76  c-0.02-0.01-1.68-1.19-2.97-3.35c-1.49-2.5-1.86-5.2-1.1-8.04c0.45,0.63,1.09,1.31,1.91,1.64  c0.18,0.07,0.38,0.06,0.54-0.03c0.17-0.09,0.29-0.25,0.32-0.44c0.01-0.03,0.54-2.59,2.99-3.97  c0.02,1.41,0.28,3.84,1.7,5.03c0.21,0.17,0.5,0.2,0.74,0.06c0.06-0.03,0.93-0.56,1.61-1.46  c0.53,2.44,0.99,7.11-1.97,10.68c-0.18,0.22-0.2,0.53-0.03,0.77c0.12,0.18,0.32,0.28,0.53,0.28  c0.07,0,0.14-0.01,0.2-0.03c3.37-1.13,5.73-3.02,7.01-5.61c1.12-2.26,1.34-4.97,0.65-7.86  c-0.08-0.34-0.43-0.55-0.77-0.47c-0.34,0.08-0.55,0.43-0.47,0.77c0.62,2.59,0.43,5.01-0.55,6.99  c-0.87,1.76-2.34,3.16-4.37,4.18c1.09-2.03,1.58-4.47,1.42-7.15c-0.16-2.63-0.87-4.57-0.9-4.65  c-0.1-0.27-0.38-0.44-0.67-0.41c-0.29,0.03-0.52,0.26-0.56,0.55c-0.13,0.91-0.88,1.64-1.37,2.02  c-0.94-1.25-0.97-3.72-0.89-4.66c0.02-0.22-0.08-0.43-0.25-0.56c-0.17-0.13-0.4-0.17-0.61-0.09  c-2.79,1.03-3.97,3.26-4.43,4.49c-0.68-0.57-1.19-1.49-1.35-1.88c-0.1-0.24-0.34-0.39-0.6-0.39  c-0.26,0.01-0.49,0.17-0.58,0.41c-1.76,4.63-0.55,8.26,0.77,10.48c0.53,0.89,1.12,1.63,1.65,2.21  c-3.97-0.9-6.58-2.66-7.76-5.26c-1.71-3.74,0-8.42,1.1-10.1c1.27-1.95,1.35-4.1,1.26-5.31  c2.38,0.75,2.94,2.87,2.97,2.97c0.08,0.32,0.39,0.53,0.72,0.48c0.33-0.05,0.56-0.34,0.54-0.67  c-0-0.04-0.22-4.24,3.31-6.11c2.55-1.35,4.08-2.87,4.87-3.83c1.11,2.99,0.53,4.75-0.02,6.46  c-0.48,1.47-0.97,2.98-0.06,4.95c0.1,0.22,0.32,0.37,0.57,0.37c0.25,0,0.47-0.13,0.58-0.35  c0.71-1.39,2.08-2.14,3.04-2.52c-0.13,0.91-0.03,2.26,0.91,3.92c0.14,0.27,0.27,0.55,0.39,0.83  c0.14,0.32,0.52,0.47,0.84,0.33c0.32-0.14,0.47-0.52,0.33-0.84c-0.13-0.3-0.28-0.61-0.43-0.91  c-0-0.01-0.01-0.02-0.02-0.03c-1.36-2.38-0.59-3.81-0.53-3.91c0.14-0.21,0.14-0.48-0-0.7  c-0.14-0.21-0.4-0.32-0.65-0.27c-0.12,0.02-2.6,0.48-4.24,2.36c-0.13-0.96,0.15-1.82,0.48-2.83  c0.63-1.93,1.41-4.33-0.46-8.42c-0.1-0.22-0.31-0.36-0.55-0.37c-0.24-0.01-0.47,0.12-0.58,0.32  c-0.01,0.02-1.37,2.36-5.06,4.32c-2.45,1.3-3.41,3.47-3.77,5.11c-0.73-0.91-1.92-1.84-3.82-2.11  c-0.21-0.03-0.42,0.04-0.56,0.2c-0.14,0.15-0.2,0.37-0.16,0.57c0.01,0.03,0.61,2.91-0.95,5.3  c-0.97,1.49-3.28,6.77-1.19,11.33C10.08,32.8,13.74,34.94,19.39,35.7z" />
</svg><svg version="1.1" x="884.6631" y="586.1465" viewBox="0 0 40 40" style="enable-background:new 0 0 40 40;" xml:space="preserve" width="40px" height="40px" id="FlameRed">
<rect fill="#FF000D" width="40px" height="40px" />
<path style="fill:#FF000D;" d="M20,0.64C9.31,0.64,0.64,9.31,0.64,20S9.31,39.36,20,39.36  s19.36-8.67,19.36-19.36S30.69,0.64,20,0.64z" />
<path style="fill:#FF000D;" d="M24.27,35.07c8.45-2.83,8.97-10.24,5.9-16.31  c-1.62-2.83-0.52-4.57-0.52-4.57s-3.24,0.58-4.57,3.18c-1.85-3.99,2.78-5.61-0.35-12.44  c0,0-1.39,2.49-5.32,4.57s-3.64,6.71-3.64,6.71s-0.75-3.12-4.34-3.64c0,0,0.69,3.12-1.04,5.79  S4.25,32.99,19.64,35.07c0,0-7.12-4.98-3.88-13.48c0,0,0.87,2.02,2.31,2.6c0,0,0.69-3.53,4.28-4.86  c0,0-0.35,4.05,1.45,5.55c0,0,1.85-1.1,2.08-2.78C25.89,22.11,28.73,29.69,24.27,35.07z" />
<path d="M8.86,4.81c0.13,0,0.26-0.04,0.37-0.12c0.6-0.42,1.22-0.81,1.86-1.16  c0.31-0.17,0.43-0.56,0.26-0.87c-0.17-0.31-0.56-0.43-0.87-0.26c-0.68,0.37-1.35,0.79-1.99,1.23  c-0.29,0.2-0.36,0.6-0.15,0.89C8.46,4.71,8.66,4.81,8.86,4.81z" />
<path d="M34.14,5.86C30.36,2.08,25.34,0,20,0c-2.4,0-4.75,0.42-6.99,1.26  c-0.33,0.12-0.5,0.49-0.38,0.82c0.12,0.33,0.49,0.5,0.82,0.38c2.09-0.78,4.29-1.17,6.54-1.17  c5,0,9.7,1.95,13.24,5.48c3.54,3.54,5.48,8.24,5.48,13.24s-1.95,9.7-5.48,13.24  c-3.54,3.54-8.24,5.48-13.24,5.48s-9.7-1.95-13.24-5.48c-3.54-3.54-5.48-8.24-5.48-13.24  c0-2.66,0.54-5.22,1.62-7.63c1.04-2.32,2.52-4.38,4.39-6.12c0.26-0.24,0.28-0.64,0.04-0.9  c-0.24-0.26-0.64-0.28-0.9-0.04c-2,1.85-3.58,4.05-4.69,6.54C0.58,14.42,0,17.16,0,20  c0,5.34,2.08,10.36,5.86,14.14S14.66,40,20,40c5.34,0,10.36-2.08,14.14-5.86S40,25.34,40,20  S37.92,9.64,34.14,5.86z" />
<path d="M19.39,35.7c0.29,0.04,0.57-0.13,0.68-0.4c0.11-0.27,0.01-0.59-0.23-0.76  c-0.02-0.01-1.68-1.19-2.97-3.35c-1.49-2.5-1.86-5.2-1.1-8.04c0.45,0.63,1.09,1.31,1.91,1.64  c0.18,0.07,0.38,0.06,0.54-0.03c0.17-0.09,0.29-0.25,0.32-0.44c0.01-0.03,0.54-2.59,2.99-3.97  c0.02,1.41,0.28,3.84,1.7,5.03c0.21,0.17,0.5,0.2,0.74,0.06c0.06-0.03,0.93-0.56,1.61-1.46  c0.53,2.44,0.99,7.11-1.97,10.68c-0.18,0.22-0.2,0.53-0.03,0.77c0.12,0.18,0.32,0.28,0.53,0.28  c0.07,0,0.14-0.01,0.2-0.03c3.37-1.13,5.73-3.02,7.01-5.61c1.12-2.26,1.34-4.97,0.65-7.86  c-0.08-0.34-0.43-0.55-0.77-0.47c-0.34,0.08-0.55,0.43-0.47,0.77c0.62,2.59,0.43,5.01-0.55,6.99  c-0.87,1.76-2.34,3.16-4.37,4.18c1.09-2.03,1.58-4.47,1.42-7.15c-0.16-2.63-0.87-4.57-0.9-4.65  c-0.1-0.27-0.38-0.44-0.67-0.41c-0.29,0.03-0.52,0.26-0.56,0.55c-0.13,0.91-0.88,1.64-1.37,2.02  c-0.94-1.25-0.97-3.72-0.89-4.66c0.02-0.22-0.08-0.43-0.25-0.56c-0.17-0.13-0.4-0.17-0.61-0.09  c-2.79,1.03-3.97,3.26-4.43,4.49c-0.68-0.57-1.19-1.49-1.35-1.88c-0.1-0.24-0.34-0.39-0.6-0.39  c-0.26,0.01-0.49,0.17-0.58,0.41c-1.76,4.63-0.55,8.26,0.77,10.48c0.53,0.89,1.12,1.63,1.65,2.21  c-3.97-0.9-6.58-2.66-7.76-5.26c-1.71-3.74,0-8.42,1.1-10.1c1.27-1.95,1.35-4.1,1.26-5.31  c2.38,0.75,2.94,2.87,2.97,2.97c0.08,0.32,0.39,0.53,0.72,0.48c0.33-0.05,0.56-0.34,0.54-0.67  c-0-0.04-0.22-4.24,3.31-6.11c2.55-1.35,4.08-2.87,4.87-3.83c1.11,2.99,0.53,4.75-0.02,6.46  c-0.48,1.47-0.97,2.98-0.06,4.95c0.1,0.22,0.32,0.37,0.57,0.37c0.25,0,0.47-0.13,0.58-0.35  c0.71-1.39,2.08-2.14,3.04-2.52c-0.13,0.91-0.03,2.26,0.91,3.92c0.14,0.27,0.27,0.55,0.39,0.83  c0.14,0.32,0.52,0.47,0.84,0.33c0.32-0.14,0.47-0.52,0.33-0.84c-0.13-0.3-0.28-0.61-0.43-0.91  c-0-0.01-0.01-0.02-0.02-0.03c-1.36-2.38-0.59-3.81-0.53-3.91c0.14-0.21,0.14-0.48-0-0.7  c-0.14-0.21-0.4-0.32-0.65-0.27c-0.12,0.02-2.6,0.48-4.24,2.36c-0.13-0.96,0.15-1.82,0.48-2.83  c0.63-1.93,1.41-4.33-0.46-8.42c-0.1-0.22-0.31-0.36-0.55-0.37c-0.24-0.01-0.47,0.12-0.58,0.32  c-0.01,0.02-1.37,2.36-5.06,4.32c-2.45,1.3-3.41,3.47-3.77,5.11c-0.73-0.91-1.92-1.84-3.82-2.11  c-0.21-0.03-0.42,0.04-0.56,0.2c-0.14,0.15-0.2,0.37-0.16,0.57c0.01,0.03,0.61,2.91-0.95,5.3  c-0.97,1.49-3.28,6.77-1.19,11.33C10.08,32.8,13.74,34.94,19.39,35.7z" />
</svg><svg version="1.1" x="939.6647" y="586.1465" viewBox="0 0 40 40" style="enable-background:new 0 0 40 40;" xml:space="preserve" width="40px" height="40px" id="MonoxideBlack">
<rect fill="#FFFFFF" width="40px" height="40px" />
<g>
	<path style="fill:#FFFFFF;" d="M39.2,20.62c0-3.08-2.29-5.63-5.25-6.04c0.65-0.97,1.03-2.13,1.03-3.39   c0-3.37-2.73-6.1-6.1-6.1c-1.27,0-2.45,0.39-3.42,1.05c-1.12-1.44-2.86-2.37-4.83-2.37   c-2.49,0-4.63,1.49-5.58,3.63c-0.66-0.24-1.37-0.38-2.11-0.38c-3.37,0-6.1,2.73-6.1,6.1   c0,0.82,0.16,1.61,0.46,2.33c-1.54,1.11-2.54,2.91-2.54,4.95c0,3.37,2.73,6.1,6.1,6.1   c0.13,0,0.26-0,0.39-0.01c-0.08,0.39-0.12,0.78-0.12,1.19c0,3.37,2.73,6.1,6.1,6.1   c2.45,0,4.56-1.44,5.53-3.52c1.1,1.58,2.93,2.62,5.01,2.62c3.37,0,6.1-2.73,6.1-6.1   c0-0.04-0-0.08-0-0.12C36.87,26.3,39.2,23.74,39.2,20.62z" />
	<path style="fill:#FFFFFF;" d="M8.08,31.17c0-1.23-1-2.23-2.23-2.23c-0.8,0-1.5,0.42-1.9,1.06   c-0.28-0.13-0.6-0.2-0.93-0.2c-1.23,0-2.23,1-2.23,2.23c0,1.23,1,2.23,2.23,2.23   c0.06,0,0.12-0,0.19-0.01c0.12,1.11,1.07,1.98,2.21,1.98c1.23,0,2.23-1,2.23-2.23   c0-0.42-0.12-0.82-0.32-1.16C7.78,32.43,8.08,31.83,8.08,31.17z" />
</g>
<g>
	<path style="fill:#000000;" d="M17.23,34.59c-3.8,0-6.9-3.09-6.9-6.9c0-0.13,0-0.27,0.01-0.4   c-3.57-0.26-6.39-3.25-6.39-6.88c0-2.01,0.88-3.92,2.39-5.22c-0.21-0.66-0.31-1.35-0.31-2.06   c0-3.8,3.09-6.9,6.9-6.9c0.58,0,1.15,0.07,1.71,0.21c1.22-2.13,3.5-3.47,5.99-3.47   c1.91,0,3.69,0.77,4.99,2.13c1-0.54,2.11-0.82,3.26-0.82c3.8,0,6.9,3.09,6.9,6.9   c0,0.99-0.21,1.96-0.61,2.84C37.98,14.92,40,17.58,40,20.62c0,3.24-2.26,6.02-5.36,6.73   c-0.28,3.54-3.26,6.34-6.88,6.34c-1.85,0-3.61-0.74-4.89-2.04C21.6,33.47,19.49,34.59,17.23,34.59z    M11.24,25.71c0.23,0,0.45,0.1,0.6,0.27c0.16,0.19,0.23,0.44,0.18,0.68c-0.07,0.34-0.1,0.69-0.1,1.04   c0,2.92,2.38,5.3,5.3,5.3c2.05,0,3.94-1.2,4.81-3.06c0.12-0.26,0.37-0.43,0.65-0.46   c0.28-0.02,0.56,0.1,0.72,0.34c0.99,1.43,2.62,2.28,4.36,2.28c2.92,0,5.3-2.38,5.3-5.3   c0-0.03-0-0.07-0-0.1c-0.01-0.41,0.29-0.76,0.7-0.81c2.65-0.33,4.64-2.59,4.64-5.26   c0-2.63-1.96-4.89-4.57-5.25c-0.27-0.04-0.51-0.21-0.62-0.46c-0.11-0.25-0.09-0.54,0.06-0.77   c0.58-0.87,0.89-1.89,0.89-2.94c0-2.92-2.38-5.3-5.3-5.3c-1.07,0-2.1,0.32-2.98,0.91   c-0.35,0.24-0.82,0.16-1.08-0.17c-1.01-1.31-2.54-2.06-4.2-2.06c-2.1,0-4,1.24-4.85,3.16   c-0.17,0.38-0.61,0.57-1,0.43c-0.59-0.22-1.21-0.33-1.84-0.33c-2.92,0-5.3,2.38-5.3,5.3   c0,0.7,0.13,1.38,0.4,2.02c0.14,0.34,0.03,0.73-0.27,0.95c-1.38,1-2.21,2.61-2.21,4.31   c0,2.92,2.38,5.3,5.3,5.3c0.11,0,0.22-0,0.34-0.01C11.21,25.71,11.23,25.71,11.24,25.71z" />
	<path style="fill:#000000;" d="M5.42,37.02c-1.3,0-2.43-0.82-2.85-2C1.12,34.8,0,33.54,0,32.03   c0-1.67,1.36-3.02,3.02-3.02c0.22,0,0.44,0.02,0.65,0.07c0.56-0.59,1.34-0.93,2.18-0.93   c1.67,0,3.02,1.36,3.02,3.02c0,0.66-0.22,1.29-0.6,1.81c0.12,0.32,0.18,0.67,0.18,1.01   C8.44,35.66,7.09,37.02,5.42,37.02z M3.21,33.45c0.4,0,0.75,0.3,0.79,0.71   c0.08,0.72,0.69,1.27,1.42,1.27c0.79,0,1.43-0.64,1.43-1.43c0-0.26-0.07-0.52-0.21-0.74   c-0.2-0.33-0.14-0.76,0.15-1.01c0.31-0.27,0.48-0.66,0.48-1.07c0-0.79-0.64-1.43-1.43-1.43   c-0.5,0-0.96,0.25-1.22,0.68c-0.21,0.34-0.65,0.47-1.01,0.31c-0.19-0.09-0.39-0.13-0.6-0.13   c-0.79,0-1.43,0.64-1.43,1.43c0,0.79,0.64,1.43,1.43,1.43c0.04,0,0.07-0,0.12-0.01   C3.17,33.45,3.19,33.45,3.21,33.45z" />
	<path style="fill:#000000;" d="M27.64,31.07c-0.78,0-1.54-0.2-2.22-0.59c-0.38-0.22-0.51-0.71-0.3-1.09   c0.22-0.38,0.71-0.51,1.09-0.3c0.43,0.25,0.92,0.38,1.42,0.38c0.75,0,1.47-0.29,2.01-0.82   c0.32-0.31,0.82-0.3,1.13,0.01c0.31,0.32,0.3,0.82-0.01,1.13C29.92,30.62,28.81,31.07,27.64,31.07z    M31.25,28.05c-0.05,0-0.09-0-0.14-0.01c-0.43-0.08-0.72-0.49-0.64-0.92c0.01-0.06,0.02-0.12,0.03-0.19   c0.05-0.44,0.44-0.75,0.88-0.7c0.44,0.05,0.75,0.44,0.7,0.88c-0.01,0.1-0.02,0.19-0.04,0.29   C31.97,27.78,31.63,28.05,31.25,28.05z" />
	<path style="fill:#000000;" d="M14.48,14.97c-1,0-1.56,0.53-1.56,1.68v3.79c0,1.15,0.56,1.68,1.59,1.68   c1.33,0,1.45-0.9,1.5-1.47c0.03-0.34,0.3-0.46,0.68-0.46c0.48,0,0.7,0.14,0.7,0.72   c0,1.43-1.19,2.44-2.97,2.44c-1.58,0-2.88-0.79-2.88-2.9v-3.79c0-2.11,1.32-2.9,2.89-2.9   c1.78,0,2.96,0.98,2.96,2.36c0,0.59-0.22,0.72-0.69,0.72c-0.42,0-0.68-0.14-0.69-0.46   C15.97,15.91,15.82,14.97,14.48,14.97z" />
	<path style="fill:#000000;" d="M18.58,20.44v-3.79c0-2.11,1.26-2.9,2.92-2.9   c1.64,0,2.93,0.79,2.93,2.9v3.79c0,2.11-1.29,2.9-2.93,2.9   C19.84,23.35,18.58,22.55,18.58,20.44z M23.04,16.65c0-1.15-0.59-1.68-1.55-1.68   c-0.98,0-1.54,0.53-1.54,1.68v3.79c0,1.15,0.56,1.68,1.54,1.68c0.96,0,1.55-0.53,1.55-1.68V16.65z" />
</g>
</svg><svg version="1.1" x="939.6647" y="586.1465" viewBox="0 0 40 40" style="enable-background:new 0 0 40 40;" xml:space="preserve" width="40px" height="40px" id="MonoxideRed">
<rect fill="#FF000D" width="40px" height="40px" />
<g>
	<path style="fill:#FF000D;" d="M39.2,20.62c0-3.08-2.29-5.63-5.25-6.04c0.65-0.97,1.03-2.13,1.03-3.39   c0-3.37-2.73-6.1-6.1-6.1c-1.27,0-2.45,0.39-3.42,1.05c-1.12-1.44-2.86-2.37-4.83-2.37   c-2.49,0-4.63,1.49-5.58,3.63c-0.66-0.24-1.37-0.38-2.11-0.38c-3.37,0-6.1,2.73-6.1,6.1   c0,0.82,0.16,1.61,0.46,2.33c-1.54,1.11-2.54,2.91-2.54,4.95c0,3.37,2.73,6.1,6.1,6.1   c0.13,0,0.26-0,0.39-0.01c-0.08,0.39-0.12,0.78-0.12,1.19c0,3.37,2.73,6.1,6.1,6.1   c2.45,0,4.56-1.44,5.53-3.52c1.1,1.58,2.93,2.62,5.01,2.62c3.37,0,6.1-2.73,6.1-6.1   c0-0.04-0-0.08-0-0.12C36.87,26.3,39.2,23.74,39.2,20.62z" />
	<path style="fill:#FF000D;" d="M8.08,31.17c0-1.23-1-2.23-2.23-2.23c-0.8,0-1.5,0.42-1.9,1.06   c-0.28-0.13-0.6-0.2-0.93-0.2c-1.23,0-2.23,1-2.23,2.23c0,1.23,1,2.23,2.23,2.23   c0.06,0,0.12-0,0.19-0.01c0.12,1.11,1.07,1.98,2.21,1.98c1.23,0,2.23-1,2.23-2.23   c0-0.42-0.12-0.82-0.32-1.16C7.78,32.43,8.08,31.83,8.08,31.17z" />
</g>
<g>
	<path style="fill:#000000;" d="M17.23,34.59c-3.8,0-6.9-3.09-6.9-6.9c0-0.13,0-0.27,0.01-0.4   c-3.57-0.26-6.39-3.25-6.39-6.88c0-2.01,0.88-3.92,2.39-5.22c-0.21-0.66-0.31-1.35-0.31-2.06   c0-3.8,3.09-6.9,6.9-6.9c0.58,0,1.15,0.07,1.71,0.21c1.22-2.13,3.5-3.47,5.99-3.47   c1.91,0,3.69,0.77,4.99,2.13c1-0.54,2.11-0.82,3.26-0.82c3.8,0,6.9,3.09,6.9,6.9   c0,0.99-0.21,1.96-0.61,2.84C37.98,14.92,40,17.58,40,20.62c0,3.24-2.26,6.02-5.36,6.73   c-0.28,3.54-3.26,6.34-6.88,6.34c-1.85,0-3.61-0.74-4.89-2.04C21.6,33.47,19.49,34.59,17.23,34.59z    M11.24,25.71c0.23,0,0.45,0.1,0.6,0.27c0.16,0.19,0.23,0.44,0.18,0.68c-0.07,0.34-0.1,0.69-0.1,1.04   c0,2.92,2.38,5.3,5.3,5.3c2.05,0,3.94-1.2,4.81-3.06c0.12-0.26,0.37-0.43,0.65-0.46   c0.28-0.02,0.56,0.1,0.72,0.34c0.99,1.43,2.62,2.28,4.36,2.28c2.92,0,5.3-2.38,5.3-5.3   c0-0.03-0-0.07-0-0.1c-0.01-0.41,0.29-0.76,0.7-0.81c2.65-0.33,4.64-2.59,4.64-5.26   c0-2.63-1.96-4.89-4.57-5.25c-0.27-0.04-0.51-0.21-0.62-0.46c-0.11-0.25-0.09-0.54,0.06-0.77   c0.58-0.87,0.89-1.89,0.89-2.94c0-2.92-2.38-5.3-5.3-5.3c-1.07,0-2.1,0.32-2.98,0.91   c-0.35,0.24-0.82,0.16-1.08-0.17c-1.01-1.31-2.54-2.06-4.2-2.06c-2.1,0-4,1.24-4.85,3.16   c-0.17,0.38-0.61,0.57-1,0.43c-0.59-0.22-1.21-0.33-1.84-0.33c-2.92,0-5.3,2.38-5.3,5.3   c0,0.7,0.13,1.38,0.4,2.02c0.14,0.34,0.03,0.73-0.27,0.95c-1.38,1-2.21,2.61-2.21,4.31   c0,2.92,2.38,5.3,5.3,5.3c0.11,0,0.22-0,0.34-0.01C11.21,25.71,11.23,25.71,11.24,25.71z" />
	<path style="fill:#000000;" d="M5.42,37.02c-1.3,0-2.43-0.82-2.85-2C1.12,34.8,0,33.54,0,32.03   c0-1.67,1.36-3.02,3.02-3.02c0.22,0,0.44,0.02,0.65,0.07c0.56-0.59,1.34-0.93,2.18-0.93   c1.67,0,3.02,1.36,3.02,3.02c0,0.66-0.22,1.29-0.6,1.81c0.12,0.32,0.18,0.67,0.18,1.01   C8.44,35.66,7.09,37.02,5.42,37.02z M3.21,33.45c0.4,0,0.75,0.3,0.79,0.71   c0.08,0.72,0.69,1.27,1.42,1.27c0.79,0,1.43-0.64,1.43-1.43c0-0.26-0.07-0.52-0.21-0.74   c-0.2-0.33-0.14-0.76,0.15-1.01c0.31-0.27,0.48-0.66,0.48-1.07c0-0.79-0.64-1.43-1.43-1.43   c-0.5,0-0.96,0.25-1.22,0.68c-0.21,0.34-0.65,0.47-1.01,0.31c-0.19-0.09-0.39-0.13-0.6-0.13   c-0.79,0-1.43,0.64-1.43,1.43c0,0.79,0.64,1.43,1.43,1.43c0.04,0,0.07-0,0.12-0.01   C3.17,33.45,3.19,33.45,3.21,33.45z" />
	<path style="fill:#000000;" d="M27.64,31.07c-0.78,0-1.54-0.2-2.22-0.59c-0.38-0.22-0.51-0.71-0.3-1.09   c0.22-0.38,0.71-0.51,1.09-0.3c0.43,0.25,0.92,0.38,1.42,0.38c0.75,0,1.47-0.29,2.01-0.82   c0.32-0.31,0.82-0.3,1.13,0.01c0.31,0.32,0.3,0.82-0.01,1.13C29.92,30.62,28.81,31.07,27.64,31.07z    M31.25,28.05c-0.05,0-0.09-0-0.14-0.01c-0.43-0.08-0.72-0.49-0.64-0.92c0.01-0.06,0.02-0.12,0.03-0.19   c0.05-0.44,0.44-0.75,0.88-0.7c0.44,0.05,0.75,0.44,0.7,0.88c-0.01,0.1-0.02,0.19-0.04,0.29   C31.97,27.78,31.63,28.05,31.25,28.05z" />
	<path style="fill:#000000;" d="M14.48,14.97c-1,0-1.56,0.53-1.56,1.68v3.79c0,1.15,0.56,1.68,1.59,1.68   c1.33,0,1.45-0.9,1.5-1.47c0.03-0.34,0.3-0.46,0.68-0.46c0.48,0,0.7,0.14,0.7,0.72   c0,1.43-1.19,2.44-2.97,2.44c-1.58,0-2.88-0.79-2.88-2.9v-3.79c0-2.11,1.32-2.9,2.89-2.9   c1.78,0,2.96,0.98,2.96,2.36c0,0.59-0.22,0.72-0.69,0.72c-0.42,0-0.68-0.14-0.69-0.46   C15.97,15.91,15.82,14.97,14.48,14.97z" />
	<path style="fill:#000000;" d="M18.58,20.44v-3.79c0-2.11,1.26-2.9,2.92-2.9   c1.64,0,2.93,0.79,2.93,2.9v3.79c0,2.11-1.29,2.9-2.93,2.9   C19.84,23.35,18.58,22.55,18.58,20.44z M23.04,16.65c0-1.15-0.59-1.68-1.55-1.68   c-0.98,0-1.54,0.53-1.54,1.68v3.79c0,1.15,0.56,1.68,1.54,1.68c0.96,0,1.55-0.53,1.55-1.68V16.65z" />
</g>
</svg><svg version="1.1" x="999.1712" y="586.1465" viewBox="0 0 40 40" style="enable-background:new 0 0 40 40;" xml:space="preserve" width="40px" height="40px" id="MethaneBlack">
<rect fill="#FFFFFF" width="40px" height="40px" />
<g>	<g><path d="M24.13,4.17c-0.46,0-0.83,0.37-0.83,0.83s0.37,0.83,0.83,0.83s0.83-0.37,0.83-0.83    S24.59,4.17,24.13,4.17z" />  </g>
</g>
<g>
    <g>
        <path d="M20.96,3.38c-0.33-0.03-0.67-0.05-1.01-0.05c-1.46,0-2.88,0.29-4.21,0.85    c-0.42,0.18-0.62,0.67-0.44,1.09c0.18,0.42,0.67,0.62,1.09,0.44c1.13-0.48,2.33-0.72,3.56-0.72    c0.29,0,0.57,0.01,0.85,0.04c0.46,0.04,0.86-0.29,0.91-0.75C21.76,3.83,21.42,3.42,20.96,3.38z" />
	</g>
</g>
<g>
	<g>
		<path d="M26.62,6.67c-2.34,0-4.17,2.93-4.17,6.67c0,3.74,1.83,6.67,4.17,6.67    c2.34,0,4.17-2.93,4.17-6.67C30.79,9.59,28.96,6.67,26.62,6.67z M26.62,18.33    c-1.18,0-2.5-2.05-2.5-5c0-2.95,1.32-5,2.5-5s2.5,2.05,2.5,5    C29.12,16.28,27.81,18.33,26.62,18.33z" />
    </g>
</g>
<g>
    <g>
        <path d="M13.29,6.67c-2.34,0-4.17,2.93-4.17,6.67c0,3.74,1.83,6.67,4.17,6.67    c2.34,0,4.17-2.93,4.17-6.67C17.46,9.59,15.63,6.67,13.29,6.67z M13.29,18.33    c-1.18,0-2.5-2.05-2.5-5c0-2.95,1.32-5,2.5-5s2.5,2.05,2.5,5    C15.79,16.28,14.48,18.33,13.29,18.33z" />
	</g>
</g>
<g>
	<g>
		<path d="M38.82,31.37c-0.02-0.02-0.04-0.04-0.06-0.07l-3.54-3.54c-0.39-0.39-1.13-0.69-2.48-0.12    l-2.72-2.72c0.87-1.18,0.97-1.29,1.3-1.78l0.67,0.67c0.97,0.97,2.56,0.97,3.53,0    c0.97-0.97,0.97-2.56,0-3.53l-1.97-1.97c0.37-1.35,0.55-2.75,0.55-4.15    c0-1.19-0.15-2.38-0.44-3.52l1.86-1.86c0.98-0.98,0.98-2.56,0-3.53    c-0.97-0.97-2.56-0.97-3.54,0l-0.59,0.59C28.78,2.21,24.58,0,19.96,0    c-4.62,0-8.81,2.2-11.46,5.84l-0.59-0.59c-0.97-0.97-2.56-0.97-3.53,0    c-0.98,0.98-0.98,2.56,0,3.53l1.86,1.86c-0.29,1.15-0.44,2.33-0.44,3.52c0,1.4,0.19,2.79,0.58,4.13    l-2,2c-0.97,0.97-0.97,2.56,0,3.53c0.97,0.97,2.56,0.97,3.53,0l0.78-0.78    c0.13,0.18,0.27,0.36,0.41,0.54l0.98,1.23l-2.84,2.84c-1.35-0.57-2.09-0.27-2.47,0.12L1.23,31.31    c-0.02,0.02-0.04,0.04-0.06,0.07c-1.11,1.25,0.4,3.81,2.42,5.83c1.39,1.39,4.37,3.71,5.83,2.41    c0.02-0.02,0.04-0.04,0.06-0.06l3.54-3.54c0.39-0.39,0.69-1.13,0.12-2.47l1.15-1.15    c1.41,1.64,3.47,2.6,5.68,2.6c2.23,0,4.3-0.97,5.71-2.64l1.19,1.19    c-0.57,1.35-0.27,2.09,0.12,2.47l3.53,3.53c0,0,0,0,0,0    c1.43,1.42,4.45-0.91,5.89-2.36C38.43,35.18,39.93,32.62,38.82,31.37z M34.37,21.47    c0.32,0.32,0.32,0.85,0,1.18c-0.32,0.32-0.85,0.32-1.18,0l-0.96-0.96    c0.28-0.52,0.53-1.06,0.75-1.61L34.37,21.47z M33.19,6.42c0.32-0.32,0.85-0.32,1.18-0    c0.33,0.33,0.33,0.85,0,1.18l-1.27,1.27c-0.22-0.55-0.48-1.08-0.76-1.59L33.19,6.42z M5.55,7.6    c-0.33-0.33-0.33-0.85-0-1.18c0.32-0.32,0.85-0.32,1.18,0l0.85,0.85c-0.29,0.51-0.54,1.05-0.76,1.59    L5.55,7.6z M6.73,22.65c-0.32,0.32-0.85,0.32-1.18,0c-0.32-0.32-0.32-0.85,0-1.18l1.44-1.44    c0.23,0.54,0.49,1.07,0.78,1.58L6.73,22.65z M8.11,18.28c-0.43-1.33-0.65-2.71-0.65-4.11    c0-6.87,5.55-12.5,12.5-12.5c6.95,0,12.5,5.63,12.5,12.5c0,3.15-1.04,6.11-2.82,8.51    l-2.36,3.17c-0.76-3.38-3.77-5.85-7.32-5.85c-3.43,0-6.33,2.3-7.22,5.47    C10.5,22.63,9.07,21.27,8.11,18.28z M24.3,23.6l-1.41,0.94c-0.77-0.77-1.82-1.21-2.93-1.21    c-1.11,0-2.16,0.44-2.93,1.21l-1.41-0.94c1.1-1.23,2.67-1.94,4.34-1.94S23.2,22.38,24.3,23.6    z M4.77,36.02c-1.63-1.63-2.24-2.99-2.3-3.48c0.49,0.06,1.85,0.67,3.48,2.3    c1.63,1.63,2.24,2.99,2.3,3.48C7.76,38.27,6.4,37.65,4.77,36.02z M9.6,37.08    c-0.52-1.22-1.54-2.49-2.47-3.42c-1.08-1.08-2.31-2.01-3.42-2.48l2.19-2.19    c0.31-0.02,0.85,0.25,1.13,0.4c0.77,0.42,1.64,1.09,2.45,1.91c1.37,1.37,1.91,2.47,1.91,2.46    c0.15,0.27,0.41,0.82,0.4,1.13L9.6,37.08z M12.28,32.04c-0.45-0.64-1-1.3-1.62-1.92    c-0.62-0.62-1.28-1.17-1.92-1.62l2.38-2.38l1.34,1.67c0.04,1.12,0.34,2.21,0.86,3.2L12.28,32.04z     M19.13,33.27c-2.85-0.41-5-2.86-5-5.77c0-0.88,0.19-1.73,0.57-2.51l1.41,0.94    c-0.2,0.5-0.31,1.03-0.31,1.57c0,2.01,1.43,3.7,3.33,4.08V33.27z M17.46,27.5    c0-1.38,1.12-2.5,2.5-2.5c1.38,0,2.5,1.12,2.5,2.5c0,1.38-1.12,2.5-2.5,2.5    C18.58,30,17.46,28.88,17.46,27.5z M20.79,33.27v-1.69c1.9-0.39,3.33-2.07,3.33-4.08    c0-0.54-0.11-1.08-0.31-1.57l1.41-0.94c0.37,0.78,0.57,1.63,0.57,2.51    C25.79,30.38,23.67,32.86,20.79,33.27z M26.62,30.94c0.4-0.77,0.66-1.6,0.77-2.46l1.64-2.2    l2.22,2.22c-0.64,0.45-1.3,1-1.92,1.62c-0.62,0.62-1.17,1.28-1.62,1.92L26.62,30.94z     M30.4,37.08L28.21,34.89c-0.02-0.31,0.25-0.86,0.4-1.13c0.42-0.77,1.09-1.64,1.91-2.46    c1.37-1.37,2.46-1.91,2.46-1.91c0.27-0.15,0.83-0.41,1.13-0.4l2.19,2.19    c-1.11,0.47-2.34,1.4-3.42,2.48C31.94,34.6,30.92,35.86,30.4,37.08z M35.23,36.02    c-1.63,1.63-2.99,2.24-3.48,2.3c0.06-0.49,0.68-1.85,2.3-3.48c1.63-1.63,2.99-2.24,3.48-2.3    C37.47,33.03,36.86,34.39,35.23,36.02z" />
    </g>
</g>
</svg><svg version="1.1" x="999.1712" y="586.1465" viewBox="0 0 40 40" style="enable-background:new 0 0 40 40;" xml:space="preserve" width="40px" height="40px" id="MethaneRed">
<rect fill="#FF000D" width="40px" height="40px" />
<g>	<g><path d="M24.13,4.17c-0.46,0-0.83,0.37-0.83,0.83s0.37,0.83,0.83,0.83s0.83-0.37,0.83-0.83    S24.59,4.17,24.13,4.17z" />  </g>
</g>
<g>
    <g>
        <path d="M20.96,3.38c-0.33-0.03-0.67-0.05-1.01-0.05c-1.46,0-2.88,0.29-4.21,0.85    c-0.42,0.18-0.62,0.67-0.44,1.09c0.18,0.42,0.67,0.62,1.09,0.44c1.13-0.48,2.33-0.72,3.56-0.72    c0.29,0,0.57,0.01,0.85,0.04c0.46,0.04,0.86-0.29,0.91-0.75C21.76,3.83,21.42,3.42,20.96,3.38z" />
	</g>
</g>
<g>
	<g>
		<path d="M26.62,6.67c-2.34,0-4.17,2.93-4.17,6.67c0,3.74,1.83,6.67,4.17,6.67    c2.34,0,4.17-2.93,4.17-6.67C30.79,9.59,28.96,6.67,26.62,6.67z M26.62,18.33    c-1.18,0-2.5-2.05-2.5-5c0-2.95,1.32-5,2.5-5s2.5,2.05,2.5,5    C29.12,16.28,27.81,18.33,26.62,18.33z" />
    </g>
</g>
<g>
    <g>
        <path d="M13.29,6.67c-2.34,0-4.17,2.93-4.17,6.67c0,3.74,1.83,6.67,4.17,6.67    c2.34,0,4.17-2.93,4.17-6.67C17.46,9.59,15.63,6.67,13.29,6.67z M13.29,18.33    c-1.18,0-2.5-2.05-2.5-5c0-2.95,1.32-5,2.5-5s2.5,2.05,2.5,5    C15.79,16.28,14.48,18.33,13.29,18.33z" />
	</g>
</g>
<g>
	<g>
		<path d="M38.82,31.37c-0.02-0.02-0.04-0.04-0.06-0.07l-3.54-3.54c-0.39-0.39-1.13-0.69-2.48-0.12    l-2.72-2.72c0.87-1.18,0.97-1.29,1.3-1.78l0.67,0.67c0.97,0.97,2.56,0.97,3.53,0    c0.97-0.97,0.97-2.56,0-3.53l-1.97-1.97c0.37-1.35,0.55-2.75,0.55-4.15    c0-1.19-0.15-2.38-0.44-3.52l1.86-1.86c0.98-0.98,0.98-2.56,0-3.53    c-0.97-0.97-2.56-0.97-3.54,0l-0.59,0.59C28.78,2.21,24.58,0,19.96,0    c-4.62,0-8.81,2.2-11.46,5.84l-0.59-0.59c-0.97-0.97-2.56-0.97-3.53,0    c-0.98,0.98-0.98,2.56,0,3.53l1.86,1.86c-0.29,1.15-0.44,2.33-0.44,3.52c0,1.4,0.19,2.79,0.58,4.13    l-2,2c-0.97,0.97-0.97,2.56,0,3.53c0.97,0.97,2.56,0.97,3.53,0l0.78-0.78    c0.13,0.18,0.27,0.36,0.41,0.54l0.98,1.23l-2.84,2.84c-1.35-0.57-2.09-0.27-2.47,0.12L1.23,31.31    c-0.02,0.02-0.04,0.04-0.06,0.07c-1.11,1.25,0.4,3.81,2.42,5.83c1.39,1.39,4.37,3.71,5.83,2.41    c0.02-0.02,0.04-0.04,0.06-0.06l3.54-3.54c0.39-0.39,0.69-1.13,0.12-2.47l1.15-1.15    c1.41,1.64,3.47,2.6,5.68,2.6c2.23,0,4.3-0.97,5.71-2.64l1.19,1.19    c-0.57,1.35-0.27,2.09,0.12,2.47l3.53,3.53c0,0,0,0,0,0    c1.43,1.42,4.45-0.91,5.89-2.36C38.43,35.18,39.93,32.62,38.82,31.37z M34.37,21.47    c0.32,0.32,0.32,0.85,0,1.18c-0.32,0.32-0.85,0.32-1.18,0l-0.96-0.96    c0.28-0.52,0.53-1.06,0.75-1.61L34.37,21.47z M33.19,6.42c0.32-0.32,0.85-0.32,1.18-0    c0.33,0.33,0.33,0.85,0,1.18l-1.27,1.27c-0.22-0.55-0.48-1.08-0.76-1.59L33.19,6.42z M5.55,7.6    c-0.33-0.33-0.33-0.85-0-1.18c0.32-0.32,0.85-0.32,1.18,0l0.85,0.85c-0.29,0.51-0.54,1.05-0.76,1.59    L5.55,7.6z M6.73,22.65c-0.32,0.32-0.85,0.32-1.18,0c-0.32-0.32-0.32-0.85,0-1.18l1.44-1.44    c0.23,0.54,0.49,1.07,0.78,1.58L6.73,22.65z M8.11,18.28c-0.43-1.33-0.65-2.71-0.65-4.11    c0-6.87,5.55-12.5,12.5-12.5c6.95,0,12.5,5.63,12.5,12.5c0,3.15-1.04,6.11-2.82,8.51    l-2.36,3.17c-0.76-3.38-3.77-5.85-7.32-5.85c-3.43,0-6.33,2.3-7.22,5.47    C10.5,22.63,9.07,21.27,8.11,18.28z M24.3,23.6l-1.41,0.94c-0.77-0.77-1.82-1.21-2.93-1.21    c-1.11,0-2.16,0.44-2.93,1.21l-1.41-0.94c1.1-1.23,2.67-1.94,4.34-1.94S23.2,22.38,24.3,23.6    z M4.77,36.02c-1.63-1.63-2.24-2.99-2.3-3.48c0.49,0.06,1.85,0.67,3.48,2.3    c1.63,1.63,2.24,2.99,2.3,3.48C7.76,38.27,6.4,37.65,4.77,36.02z M9.6,37.08    c-0.52-1.22-1.54-2.49-2.47-3.42c-1.08-1.08-2.31-2.01-3.42-2.48l2.19-2.19    c0.31-0.02,0.85,0.25,1.13,0.4c0.77,0.42,1.64,1.09,2.45,1.91c1.37,1.37,1.91,2.47,1.91,2.46    c0.15,0.27,0.41,0.82,0.4,1.13L9.6,37.08z M12.28,32.04c-0.45-0.64-1-1.3-1.62-1.92    c-0.62-0.62-1.28-1.17-1.92-1.62l2.38-2.38l1.34,1.67c0.04,1.12,0.34,2.21,0.86,3.2L12.28,32.04z     M19.13,33.27c-2.85-0.41-5-2.86-5-5.77c0-0.88,0.19-1.73,0.57-2.51l1.41,0.94    c-0.2,0.5-0.31,1.03-0.31,1.57c0,2.01,1.43,3.7,3.33,4.08V33.27z M17.46,27.5    c0-1.38,1.12-2.5,2.5-2.5c1.38,0,2.5,1.12,2.5,2.5c0,1.38-1.12,2.5-2.5,2.5    C18.58,30,17.46,28.88,17.46,27.5z M20.79,33.27v-1.69c1.9-0.39,3.33-2.07,3.33-4.08    c0-0.54-0.11-1.08-0.31-1.57l1.41-0.94c0.37,0.78,0.57,1.63,0.57,2.51    C25.79,30.38,23.67,32.86,20.79,33.27z M26.62,30.94c0.4-0.77,0.66-1.6,0.77-2.46l1.64-2.2    l2.22,2.22c-0.64,0.45-1.3,1-1.92,1.62c-0.62,0.62-1.17,1.28-1.62,1.92L26.62,30.94z     M30.4,37.08L28.21,34.89c-0.02-0.31,0.25-0.86,0.4-1.13c0.42-0.77,1.09-1.64,1.91-2.46    c1.37-1.37,2.46-1.91,2.46-1.91c0.27-0.15,0.83-0.41,1.13-0.4l2.19,2.19    c-1.11,0.47-2.34,1.4-3.42,2.48C31.94,34.6,30.92,35.86,30.4,37.08z M35.23,36.02    c-1.63,1.63-2.99,2.24-3.48,2.3c0.06-0.49,0.68-1.85,2.3-3.48c1.63-1.63,2.99-2.24,3.48-2.3    C37.47,33.03,36.86,34.39,35.23,36.02z" />
    </g>
</g>
</svg><svg version="1.1" x="1056.1711" y="586.1465" viewBox="0 0 40 40" style="enable-background:new 0 0 40 40;" xml:space="preserve" width="40px" height="40px" id="ABPBlack">
<rect fill="#FFFFFF" width="40px" height="40px" />
<g>
	<g>
		<path d="M38.53,4.63c0.81,0,1.47-0.66,1.47-1.47V1.47C40,0.66,39.34,0,38.53,0H29.26    c-0.81,0-1.47,0.66-1.47,1.47v1.68c0,0.81,0.66,1.47,1.47,1.47h0.21v3.79h-0.56    c-0.24-0.5-0.74-0.84-1.33-0.84h-1.68c-0.81,0-1.47,0.66-1.47,1.47v0.21h-1.05    c-0.81,0-1.47,0.66-1.47,1.47v0.84c0,0.81,0.66,1.47,1.47,1.47h1.05v1.26h-3.79v-1.05    c0-1.28-1.04-2.32-2.32-2.32h-16C1.04,10.95,0,11.99,0,13.26v13.47c0,1.28,1.04,2.32,2.32,2.32    h16c1.28,0,2.32-1.04,2.32-2.32v-1.05h3.79v1.26h-1.05c-0.81,0-1.47,0.66-1.47,1.47v0.84    c0,0.81,0.66,1.47,1.47,1.47h1.05v0.21c0,0.81,0.66,1.47,1.47,1.47h1.68    c0.59,0,1.09-0.34,1.33-0.84h0.56v3.79h-0.21c-0.81,0-1.47,0.66-1.47,1.47v1.68    c0,0.81,0.66,1.47,1.47,1.47h9.26c0.81,0,1.47-0.66,1.47-1.47v-1.68c0-0.81-0.66-1.47-1.47-1.47    h-0.21v-3.79h0.21c0.81,0,1.47-0.66,1.47-1.47V9.89c0-0.81-0.66-1.47-1.47-1.47h-0.21V4.63H38.53z     M19.37,26.74c0,0.58-0.47,1.05-1.05,1.05H4.63v-2.11h14.74V26.74z M19.37,24.42H4.63v-2.11h14.74    V24.42z M19.37,21.05H4.63v-2.11h14.74V21.05z M19.37,17.68H4.63v-0.21c0-0.35-0.28-0.63-0.63-0.63    s-0.63,0.28-0.63,0.63v10.32H2.32c-0.58,0-1.05-0.47-1.05-1.05V13.26c0-0.58,0.47-1.05,1.05-1.05h1.05    v2.74c0,0.35,0.28,0.63,0.63,0.63h15.37V17.68z M19.37,14.32H4.63v-2.11h13.68    c0.58,0,1.05,0.47,1.05,1.05V14.32z M24.42,29.47h-1.05c-0.12,0-0.21-0.09-0.21-0.21v-0.84    c0-0.12,0.09-0.21,0.21-0.21h1.05V29.47z M24.42,24.42h-3.79V15.58h3.79V24.42z M24.42,11.79h-1.05    c-0.12,0-0.21-0.09-0.21-0.21v-0.84c0-0.12,0.09-0.21,0.21-0.21h1.05V11.79z M38.53,36.63    c0.12,0,0.21,0.09,0.21,0.21v1.68c0,0.12-0.09,0.21-0.21,0.21H29.26c-0.12,0-0.21-0.09-0.21-0.21v-1.68    c0-0.12,0.09-0.21,0.21-0.21h2.53c0.35,0,0.63-0.28,0.63-0.63s-0.28-0.63-0.63-0.63h-1.05v-3.79h6.32v3.79    h-2.74c-0.35,0-0.63,0.28-0.63,0.63s0.28,0.63,0.63,0.63H38.53z M38.53,9.68c0.12,0,0.21,0.09,0.21,0.21    v20.21c0,0.12-0.09,0.21-0.21,0.21H29.05V15.79c0-0.35-0.28-0.63-0.63-0.63c-0.35,0-0.63,0.28-0.63,0.63    v15.16c0,0.12-0.09,0.21-0.21,0.21h-1.68c-0.12,0-0.21-0.09-0.21-0.21V9.05c0-0.12,0.09-0.21,0.21-0.21    h1.68c0.12,0,0.21,0.09,0.21,0.21v4.21c0,0.35,0.28,0.63,0.63,0.63c0.35,0,0.63-0.28,0.63-0.63v-3.58H38.53z     M34.32,4.63h2.74v3.79h-6.32V4.63h1.05c0.35,0,0.63-0.28,0.63-0.63s-0.28-0.63-0.63-0.63h-2.53    c-0.12,0-0.21-0.09-0.21-0.21V1.47c0-0.12,0.09-0.21,0.21-0.21h9.26c0.12,0,0.21,0.09,0.21,0.21v1.68    c0,0.12-0.09,0.21-0.21,0.21h-4.21c-0.35,0-0.63,0.28-0.63,0.63S33.97,4.63,34.32,4.63z" />
    </g>
</g>
</svg><svg version="1.1" x="1056.1711" y="586.1465" viewBox="0 0 40 40" style="enable-background:new 0 0 40 40;" xml:space="preserve" width="40px" height="40px" id="ABPRed">
<rect fill="#FF000D" width="40px" height="40px" />
<g>
	<g>
		<path d="M38.53,4.63c0.81,0,1.47-0.66,1.47-1.47V1.47C40,0.66,39.34,0,38.53,0H29.26    c-0.81,0-1.47,0.66-1.47,1.47v1.68c0,0.81,0.66,1.47,1.47,1.47h0.21v3.79h-0.56    c-0.24-0.5-0.74-0.84-1.33-0.84h-1.68c-0.81,0-1.47,0.66-1.47,1.47v0.21h-1.05    c-0.81,0-1.47,0.66-1.47,1.47v0.84c0,0.81,0.66,1.47,1.47,1.47h1.05v1.26h-3.79v-1.05    c0-1.28-1.04-2.32-2.32-2.32h-16C1.04,10.95,0,11.99,0,13.26v13.47c0,1.28,1.04,2.32,2.32,2.32    h16c1.28,0,2.32-1.04,2.32-2.32v-1.05h3.79v1.26h-1.05c-0.81,0-1.47,0.66-1.47,1.47v0.84    c0,0.81,0.66,1.47,1.47,1.47h1.05v0.21c0,0.81,0.66,1.47,1.47,1.47h1.68    c0.59,0,1.09-0.34,1.33-0.84h0.56v3.79h-0.21c-0.81,0-1.47,0.66-1.47,1.47v1.68    c0,0.81,0.66,1.47,1.47,1.47h9.26c0.81,0,1.47-0.66,1.47-1.47v-1.68c0-0.81-0.66-1.47-1.47-1.47    h-0.21v-3.79h0.21c0.81,0,1.47-0.66,1.47-1.47V9.89c0-0.81-0.66-1.47-1.47-1.47h-0.21V4.63H38.53z     M19.37,26.74c0,0.58-0.47,1.05-1.05,1.05H4.63v-2.11h14.74V26.74z M19.37,24.42H4.63v-2.11h14.74    V24.42z M19.37,21.05H4.63v-2.11h14.74V21.05z M19.37,17.68H4.63v-0.21c0-0.35-0.28-0.63-0.63-0.63    s-0.63,0.28-0.63,0.63v10.32H2.32c-0.58,0-1.05-0.47-1.05-1.05V13.26c0-0.58,0.47-1.05,1.05-1.05h1.05    v2.74c0,0.35,0.28,0.63,0.63,0.63h15.37V17.68z M19.37,14.32H4.63v-2.11h13.68    c0.58,0,1.05,0.47,1.05,1.05V14.32z M24.42,29.47h-1.05c-0.12,0-0.21-0.09-0.21-0.21v-0.84    c0-0.12,0.09-0.21,0.21-0.21h1.05V29.47z M24.42,24.42h-3.79V15.58h3.79V24.42z M24.42,11.79h-1.05    c-0.12,0-0.21-0.09-0.21-0.21v-0.84c0-0.12,0.09-0.21,0.21-0.21h1.05V11.79z M38.53,36.63    c0.12,0,0.21,0.09,0.21,0.21v1.68c0,0.12-0.09,0.21-0.21,0.21H29.26c-0.12,0-0.21-0.09-0.21-0.21v-1.68    c0-0.12,0.09-0.21,0.21-0.21h2.53c0.35,0,0.63-0.28,0.63-0.63s-0.28-0.63-0.63-0.63h-1.05v-3.79h6.32v3.79    h-2.74c-0.35,0-0.63,0.28-0.63,0.63s0.28,0.63,0.63,0.63H38.53z M38.53,9.68c0.12,0,0.21,0.09,0.21,0.21    v20.21c0,0.12-0.09,0.21-0.21,0.21H29.05V15.79c0-0.35-0.28-0.63-0.63-0.63c-0.35,0-0.63,0.28-0.63,0.63    v15.16c0,0.12-0.09,0.21-0.21,0.21h-1.68c-0.12,0-0.21-0.09-0.21-0.21V9.05c0-0.12,0.09-0.21,0.21-0.21    h1.68c0.12,0,0.21,0.09,0.21,0.21v4.21c0,0.35,0.28,0.63,0.63,0.63c0.35,0,0.63-0.28,0.63-0.63v-3.58H38.53z     M34.32,4.63h2.74v3.79h-6.32V4.63h1.05c0.35,0,0.63-0.28,0.63-0.63s-0.28-0.63-0.63-0.63h-2.53    c-0.12,0-0.21-0.09-0.21-0.21V1.47c0-0.12,0.09-0.21,0.21-0.21h9.26c0.12,0,0.21,0.09,0.21,0.21v1.68    c0,0.12-0.09,0.21-0.21,0.21h-4.21c-0.35,0-0.63,0.28-0.63,0.63S33.97,4.63,34.32,4.63z" />
    </g>
</g>
</svg><svg version="1.1" x="1112.6711" y="586.1465" viewBox="0 0 40 40" style="enable-background:new 0 0 40 40;" xml:space="preserve" width="40px" height="40px" id="ANPBlack">
<rect fill="#FFFFFF" width="40px" height="40px" />
<g>
	<g>
		<path d="M38.53,4.63c0.81,0,1.47-0.66,1.47-1.47V1.47C40,0.66,39.34,0,38.53,0H29.26    c-0.81,0-1.47,0.66-1.47,1.47v1.68c0,0.81,0.66,1.47,1.47,1.47h0.21v3.79h-0.56    c-0.24-0.5-0.74-0.84-1.33-0.84h-1.68c-0.81,0-1.47,0.66-1.47,1.47v0.21h-1.05    c-0.81,0-1.47,0.66-1.47,1.47v0.84c0,0.81,0.66,1.47,1.47,1.47h1.05v1.26h-3.79v-1.05    c0-1.28-1.04-2.32-2.32-2.32h-16C1.04,10.95,0,11.99,0,13.26v13.47c0,1.28,1.04,2.32,2.32,2.32    h16c1.28,0,2.32-1.04,2.32-2.32v-1.05h3.79v1.26h-1.05c-0.81,0-1.47,0.66-1.47,1.47v0.84    c0,0.81,0.66,1.47,1.47,1.47h1.05v0.21c0,0.81,0.66,1.47,1.47,1.47h1.68    c0.59,0,1.09-0.34,1.33-0.84h0.56v3.79h-0.21c-0.81,0-1.47,0.66-1.47,1.47v1.68    c0,0.81,0.66,1.47,1.47,1.47h9.26c0.81,0,1.47-0.66,1.47-1.47v-1.68c0-0.81-0.66-1.47-1.47-1.47    h-0.21v-3.79h0.21c0.81,0,1.47-0.66,1.47-1.47V9.89c0-0.81-0.66-1.47-1.47-1.47h-0.21V4.63H38.53z     M19.37,26.74c0,0.58-0.47,1.05-1.05,1.05H4.63v-2.11h14.74V26.74z M19.37,24.42H4.63v-2.11h14.74    V24.42z M19.37,21.05H4.63v-2.11h14.74V21.05z M19.37,17.68H4.63v-0.21c0-0.35-0.28-0.63-0.63-0.63    s-0.63,0.28-0.63,0.63v10.32H2.32c-0.58,0-1.05-0.47-1.05-1.05V13.26c0-0.58,0.47-1.05,1.05-1.05h1.05    v2.74c0,0.35,0.28,0.63,0.63,0.63h15.37V17.68z M19.37,14.32H4.63v-2.11h13.68    c0.58,0,1.05,0.47,1.05,1.05V14.32z M24.42,29.47h-1.05c-0.12,0-0.21-0.09-0.21-0.21v-0.84    c0-0.12,0.09-0.21,0.21-0.21h1.05V29.47z M24.42,24.42h-3.79V15.58h3.79V24.42z M24.42,11.79h-1.05    c-0.12,0-0.21-0.09-0.21-0.21v-0.84c0-0.12,0.09-0.21,0.21-0.21h1.05V11.79z M38.53,36.63    c0.12,0,0.21,0.09,0.21,0.21v1.68c0,0.12-0.09,0.21-0.21,0.21H29.26c-0.12,0-0.21-0.09-0.21-0.21v-1.68    c0-0.12,0.09-0.21,0.21-0.21h2.53c0.35,0,0.63-0.28,0.63-0.63s-0.28-0.63-0.63-0.63h-1.05v-3.79h6.32v3.79    h-2.74c-0.35,0-0.63,0.28-0.63,0.63s0.28,0.63,0.63,0.63H38.53z M38.53,9.68c0.12,0,0.21,0.09,0.21,0.21    v20.21c0,0.12-0.09,0.21-0.21,0.21H29.05V15.79c0-0.35-0.28-0.63-0.63-0.63c-0.35,0-0.63,0.28-0.63,0.63    v15.16c0,0.12-0.09,0.21-0.21,0.21h-1.68c-0.12,0-0.21-0.09-0.21-0.21V9.05c0-0.12,0.09-0.21,0.21-0.21    h1.68c0.12,0,0.21,0.09,0.21,0.21v4.21c0,0.35,0.28,0.63,0.63,0.63c0.35,0,0.63-0.28,0.63-0.63v-3.58H38.53z     M34.32,4.63h2.74v3.79h-6.32V4.63h1.05c0.35,0,0.63-0.28,0.63-0.63s-0.28-0.63-0.63-0.63h-2.53    c-0.12,0-0.21-0.09-0.21-0.21V1.47c0-0.12,0.09-0.21,0.21-0.21h9.26c0.12,0,0.21,0.09,0.21,0.21v1.68    c0,0.12-0.09,0.21-0.21,0.21h-4.21c-0.35,0-0.63,0.28-0.63,0.63S33.97,4.63,34.32,4.63z" />
    </g>
</g>
</svg><svg version="1.1" x="1112.6711" y="586.1465" viewBox="0 0 40 40" style="enable-background:new 0 0 40 40;" xml:space="preserve" width="40px" height="40px" id="ANPRed">
<rect fill="#FF000D" width="40px" height="40px" />
<g>
	<g>
		<path d="M38.53,4.63c0.81,0,1.47-0.66,1.47-1.47V1.47C40,0.66,39.34,0,38.53,0H29.26    c-0.81,0-1.47,0.66-1.47,1.47v1.68c0,0.81,0.66,1.47,1.47,1.47h0.21v3.79h-0.56    c-0.24-0.5-0.74-0.84-1.33-0.84h-1.68c-0.81,0-1.47,0.66-1.47,1.47v0.21h-1.05    c-0.81,0-1.47,0.66-1.47,1.47v0.84c0,0.81,0.66,1.47,1.47,1.47h1.05v1.26h-3.79v-1.05    c0-1.28-1.04-2.32-2.32-2.32h-16C1.04,10.95,0,11.99,0,13.26v13.47c0,1.28,1.04,2.32,2.32,2.32    h16c1.28,0,2.32-1.04,2.32-2.32v-1.05h3.79v1.26h-1.05c-0.81,0-1.47,0.66-1.47,1.47v0.84    c0,0.81,0.66,1.47,1.47,1.47h1.05v0.21c0,0.81,0.66,1.47,1.47,1.47h1.68    c0.59,0,1.09-0.34,1.33-0.84h0.56v3.79h-0.21c-0.81,0-1.47,0.66-1.47,1.47v1.68    c0,0.81,0.66,1.47,1.47,1.47h9.26c0.81,0,1.47-0.66,1.47-1.47v-1.68c0-0.81-0.66-1.47-1.47-1.47    h-0.21v-3.79h0.21c0.81,0,1.47-0.66,1.47-1.47V9.89c0-0.81-0.66-1.47-1.47-1.47h-0.21V4.63H38.53z     M19.37,26.74c0,0.58-0.47,1.05-1.05,1.05H4.63v-2.11h14.74V26.74z M19.37,24.42H4.63v-2.11h14.74    V24.42z M19.37,21.05H4.63v-2.11h14.74V21.05z M19.37,17.68H4.63v-0.21c0-0.35-0.28-0.63-0.63-0.63    s-0.63,0.28-0.63,0.63v10.32H2.32c-0.58,0-1.05-0.47-1.05-1.05V13.26c0-0.58,0.47-1.05,1.05-1.05h1.05    v2.74c0,0.35,0.28,0.63,0.63,0.63h15.37V17.68z M19.37,14.32H4.63v-2.11h13.68    c0.58,0,1.05,0.47,1.05,1.05V14.32z M24.42,29.47h-1.05c-0.12,0-0.21-0.09-0.21-0.21v-0.84    c0-0.12,0.09-0.21,0.21-0.21h1.05V29.47z M24.42,24.42h-3.79V15.58h3.79V24.42z M24.42,11.79h-1.05    c-0.12,0-0.21-0.09-0.21-0.21v-0.84c0-0.12,0.09-0.21,0.21-0.21h1.05V11.79z M38.53,36.63    c0.12,0,0.21,0.09,0.21,0.21v1.68c0,0.12-0.09,0.21-0.21,0.21H29.26c-0.12,0-0.21-0.09-0.21-0.21v-1.68    c0-0.12,0.09-0.21,0.21-0.21h2.53c0.35,0,0.63-0.28,0.63-0.63s-0.28-0.63-0.63-0.63h-1.05v-3.79h6.32v3.79    h-2.74c-0.35,0-0.63,0.28-0.63,0.63s0.28,0.63,0.63,0.63H38.53z M38.53,9.68c0.12,0,0.21,0.09,0.21,0.21    v20.21c0,0.12-0.09,0.21-0.21,0.21H29.05V15.79c0-0.35-0.28-0.63-0.63-0.63c-0.35,0-0.63,0.28-0.63,0.63    v15.16c0,0.12-0.09,0.21-0.21,0.21h-1.68c-0.12,0-0.21-0.09-0.21-0.21V9.05c0-0.12,0.09-0.21,0.21-0.21    h1.68c0.12,0,0.21,0.09,0.21,0.21v4.21c0,0.35,0.28,0.63,0.63,0.63c0.35,0,0.63-0.28,0.63-0.63v-3.58H38.53z     M34.32,4.63h2.74v3.79h-6.32V4.63h1.05c0.35,0,0.63-0.28,0.63-0.63s-0.28-0.63-0.63-0.63h-2.53    c-0.12,0-0.21-0.09-0.21-0.21V1.47c0-0.12,0.09-0.21,0.21-0.21h9.26c0.12,0,0.21,0.09,0.21,0.21v1.68    c0,0.12-0.09,0.21-0.21,0.21h-4.21c-0.35,0-0.63,0.28-0.63,0.63S33.97,4.63,34.32,4.63z" />
    </g>
</g>
</svg></svg>