<svg version="1.1" xmlns="http://www.w3.org/2000/svg" xmlns:xlink="http://www.w3.org/1999/xlink" x="0px" y="0px" viewBox="0 0 1259.8 838.5" style="enable-background:new 0 0 1259.8 838.5;" xml:space="preserve" width="1259.8" height="838.5">
<style type="text/css">
	.st0{fill:none;stroke:#1D71B8;stroke-width:1.9584;stroke-miterlimit:10;}
	.st1{fill:none;stroke:#1D71B8;stroke-width:2;stroke-miterlimit:10;}
	.st2{fill:none;stroke:#010202;stroke-miterlimit:10;}
	.st3{fill:#010202;stroke:#010202;stroke-miterlimit:10;}
	.st4{fill:none;stroke:#2172B9;stroke-width:2;stroke-miterlimit:10;}
	.st5{fill:none;stroke:#BE1622;stroke-width:2;stroke-miterlimit:10;}
	.st6{fill:#BE1622;stroke:#BE1622;stroke-miterlimit:10;}
	.st7{fill:none;stroke:#010202;stroke-width:3;stroke-miterlimit:10;}
	.st9{font-size:12px;}
	.st10{fill:#FFFFFF;stroke:#000000;stroke-miterlimit:10;}
	.st11{fill:#1D71B8;stroke:#1D71B8;stroke-miterlimit:10;}
	.st12{fill:#2172B9;stroke:#2172B9;stroke-width:3;stroke-miterlimit:10;}
	.st13{fill:none;stroke:#1D71B8;stroke-width:2.0156;stroke-miterlimit:10;}
	.st14{fill:none;stroke:#2172B9;stroke-width:1.8036;stroke-miterlimit:10;}
	.st15{fill:none;stroke:#1D71B8;stroke-width:1.98;stroke-miterlimit:10;}
	.st16{fill:none;stroke:#2172B9;stroke-width:1.8156;stroke-miterlimit:10;}
	.st17{fill:none;stroke:#000000;stroke-miterlimit:10;}
	.st18{font-size:14px;}
	.st19{fill:none;}
	.st20{font-size:10px;}
	.st21{font-size:18px;}
	.st22{fill:none;stroke:#1D1D1B;stroke-linecap:round;stroke-miterlimit:10;}
	.st23{fill:#BE1622;}
</style><script xmlns="">jQuery(Core.Common.Mnemoscheme.Selector).on(Core.Common.EventTypes.MnemoschemeWidgetManager.MnemoschemeLoadComplete,
    function () {
        Core.Common.Mnemoscheme.GetParametersCallback = function (parameters) {
            
            var parameterCodeTemplate = "Monitoring.Frequency.{0}";

            var parameterCodeSuffixes = ["HwsPump1", "HwsPump2", "HwsMakeupPump1", "HwsMakeupPump2", "HeatSysPump1", "HeatSysPump2"];

            parameterCodeSuffixes.forEach(function (codeSuffix, indx) {

                var parameterValue = GetValueByParameterCode(parameters.parameters, parameterCodeTemplate.format(codeSuffix));

                if (parameterValue) {
                    var durableValue = (parameterValue &gt; Number.zero) ? 60 / parameterValue : Number.zero;

                    var animatedElement = document.getElementById("animate{0}".format(codeSuffix));
                    if (animatedElement) {
                        animatedElement.setAttribute("dur", durableValue + "s");
                        animatedElement.beginElement();
                    }
                }
            });

            var stateParameterCodeTemplate = "Monitoring.State.{0}";
            var stateTextCodeTemplate = "Text.State.{0}";
            var stateParameterCodeSuffixes = ["Yp1Valve", "Yp2Valve", "Yp3Valve", "Ypt1Valve", "Ypt2Valve", "Yts1Valve", "Yts2Valve", "HeatSysPump1", "HeatSysPump2", "HwsPump1", "HwsPump2", "HwsMakeupPump1", "HwsMakeupPump2", "HeatSysValve1", "HeatSysValve2", "HeatSysValve3", "HeatSysValve4", "HwsValve1", "HwsValve2", "HwsValve3", "HwsValve4"];

            stateParameterCodeSuffixes.forEach(function (codeSuffix, indx) {
                var paramName = stateParameterCodeTemplate.format(codeSuffix);
                var parameterValue = GetDictionaryValueDescriptionByParameterCode(parameters.parameters, paramName);

                if (parameterValue)
                {
                    var stateTextName = stateTextCodeTemplate.format(codeSuffix);
                    var textElement = document.getElementById(stateTextName);
                    if (textElement)
                    {
                        textElement.textContent = parameterValue;
                    }
                }
            });
            
        };

        function GetValueByParameterCode(parameters, code) {
            var value = undefined;

            for (var i = Number.zero; i &lt; parameters.length; i++) {
                if (parameters[i].parameterCode === code) {
                    return parameters[i].value;
                }
            }

            return value;
        };

        function GetDictionaryValueDescriptionByParameterCode(parameters, code)
        {
            var value = undefined;

            for (var i = Number.zero; i &lt; parameters.length; i++) {
                if (parameters[i].parameterCode === code) {
                    return parameters[i].dictionaryValueDescription;
                }
            }

            return value;
        };
    }
);

</script>
<g id="MainLayer">
	<line class="st0" x1="579.1" y1="711.1" x2="633.5" y2="711.1" />
	<line class="st1" x1="916.1" y1="390.5" x2="989.8" y2="390.5" />
	<line class="st1" x1="851" y1="391.9" x2="890.3" y2="391.9" />
	<line class="st1" x1="944.6" y1="34" x2="944.6" y2="60.8" />
	<g>
		<line class="st2" x1="565.2" y1="628" x2="565.2" y2="646.3" />
		<ellipse class="st3" cx="565.2" cy="623.6" rx="4.9" ry="4.4" />
	</g>
	<g>
		<line class="st2" x1="720.4" y1="745.9" x2="702.1" y2="745.9" />
		<ellipse class="st3" cx="724.7" cy="745.9" rx="4.4" ry="4.9" />
	</g>
	<g>
		<line class="st2" x1="1025.5" y1="740.8" x2="1007.2" y2="740.8" />
		<ellipse class="st3" cx="1029.8" cy="740.8" rx="4.4" ry="4.9" />
	</g>
	<line class="st4" x1="687.4" y1="226.8" x2="796.2" y2="226.8" />
	<line class="st4" x1="674.3" y1="250.6" x2="674.3" y2="241.1" />
	<line class="st4" x1="674.3" y1="396.1" x2="674.3" y2="372.9" />
	<line class="st4" x1="471.4" y1="419.2" x2="759.1" y2="419.2" />
	<line class="st4" x1="471.4" y1="226.8" x2="664.7" y2="226.8" />
	<line class="st4" x1="332.1" y1="393.6" x2="386.5" y2="393.6" />
	<line class="st4" x1="334.7" y1="226.8" x2="387.1" y2="226.8" />
	<line class="st4" x1="1188.1" y1="386.4" x2="1222.4" y2="386.4" />
	<line class="st4" x1="1188.9" y1="441.5" x2="1223.1" y2="441.5" />
	<line class="st4" x1="850.3" y1="417.1" x2="785.8" y2="417.1" />
	<line class="st4" x1="772.7" y1="404.7" x2="772.7" y2="255.4" />
	<line class="st4" x1="471.4" y1="255.1" x2="772.7" y2="255.1" />
	<line class="st4" x1="319.7" y1="420.5" x2="386.8" y2="420.5" />
	<line class="st4" x1="91.5" y1="780.9" x2="495.1" y2="780.9" />
	<line class="st5" x1="387.1" y1="361.1" x2="228.6" y2="361.1" />
	<g>
		<line class="st2" x1="773.5" y1="167.3" x2="773.5" y2="185.6" />
		<ellipse class="st3" cx="773.5" cy="163" rx="4.9" ry="4.4" />
	</g>
	<g>
		<line class="st2" x1="578.8" y1="348.1" x2="578.8" y2="366.4" />
		<ellipse class="st3" cx="578.8" cy="343.8" rx="4.9" ry="4.4" />
	</g>
	<ellipse class="st6" cx="263.8" cy="646.8" rx="3.7" ry="3.8" />
	<line class="st5" x1="4.3" y1="646.6" x2="46.3" y2="646.6" />
	<g>
		<path class="st5" d="M745.2,226.5c0,2.4-2,4.4-4.4,4.4" />
		<path class="st5" d="M745.2,226.5c0-2.4-2-4.4-4.4-4.4" />
	</g>
	<polygon class="st6" points="0.5,650.2 8.2,646.8 0.5,643.4  " />
	<g>
		<line class="st2" x1="215.4" y1="628.5" x2="215.4" y2="646.8" />
		<ellipse class="st3" cx="215.4" cy="624.2" rx="4.9" ry="4.4" />
	</g>
	<g transform="translate(52.134,-5.3932)">
		<line class="st7" x1="49.7" y1="645.7" x2="67.2" y2="645.7" />
		<line class="st2" x1="58.4" y1="645.2" x2="58.4" y2="625.7" />
	</g>
	<line class="st5" x1="90.7" y1="648" x2="365" y2="648" />
	<polygon class="st2" points="68.5,646.8 55.3,651.3 55.3,642.3  " />
	<polygon class="st2" points="68.5,646.8 81.7,642.3 81.7,651.3  " />
	<polygon class="st2" points="55.3,646.8 46.3,649.9 46.3,643.7  " />
	<polygon class="st2" points="81.7,646.8 90.7,643.7 90.7,649.9  " />
	<circle class="st2" cx="68.5" cy="628.6" r="9.6" />
	<line class="st2" x1="68.5" y1="638.3" x2="68.5" y2="646.8" />
	<text transform="matrix(1 0 0 1 63.8165 632.1008)" class=" st9">М</text>
	<line class="st5" x1="386.1" y1="646.9" x2="664.8" y2="646.9" />
	<g>
		<polygon class="st2" points="372.9,646.8 386.1,642.3 386.1,651.3   " />
		<polygon class="st10" points="372.9,646.8 359.8,651.3 359.8,642.3   " />
	</g>
	<ellipse class="st6" cx="402.7" cy="646.8" rx="3.7" ry="3.8" />
	<line class="st5" x1="263.8" y1="649.3" x2="263.8" y2="493.3" />
	<line class="st5" x1="314.9" y1="185.6" x2="263.8" y2="185.6" />
	<line class="st5" x1="385" y1="185.9" x2="341.2" y2="185.9" />
	<g>
		<polygon class="st2" points="328.1,185.6 341.2,181.1 341.2,190.1   " />
		<polygon class="st10" points="328.1,185.6 314.9,190.1 314.9,181.1   " />
	</g>
	<g>
		<line class="st2" x1="578.8" y1="167.3" x2="578.8" y2="185.6" />
		<ellipse class="st3" cx="578.8" cy="163" rx="4.9" ry="4.4" />
	</g>
	<line class="st5" x1="1105" y1="186.6" x2="471.4" y2="186.6" />
	<line class="st5" x1="740.8" y1="185.6" x2="740.8" y2="222.1" />
	<line class="st5" x1="740.8" y1="230.9" x2="740.8" y2="250.7" />
	<g>
		<path class="st5" d="M745.2,255.1c0,2.4-2,4.4-4.4,4.4" />
		<path class="st5" d="M745.2,255.1c0-2.4-2-4.4-4.4-4.4" />
	</g>
	<line class="st5" x1="740.8" y1="259.5" x2="740.8" y2="365.1" />
	<line class="st5" x1="740.8" y1="365.1" x2="471.4" y2="365.1" />
	<g transform="translate(52.134,-5.3932)">
		<line class="st7" x1="767.5" y1="184" x2="785" y2="184" />
		<line class="st2" x1="776.2" y1="183.5" x2="776.2" y2="164" />
	</g>
	<line class="st5" x1="903" y1="104" x2="903" y2="185.6" />
	<line class="st5" x1="1105" y1="105.5" x2="1105" y2="185.4" />
	<line class="st5" x1="903.4" y1="34" x2="903.4" y2="60.8" />
	<line class="st5" x1="1105.2" y1="33.8" x2="1105.2" y2="59.4" />
	<polygon class="st2" points="903.4,81.8 907.8,94.9 898.9,94.9  " />
	<polygon class="st2" points="903.3,81.8 898.9,68.6 907.8,68.6  " />
	<polygon class="st2" points="903.4,94.9 906.4,104 900.3,104  " />
	<polygon class="st2" points="903.3,68.6 900.3,59.6 906.4,59.6  " />
	<circle class="st2" cx="885.1" cy="81.8" r="9.6" />
	<line class="st2" x1="894.9" y1="81.8" x2="903.4" y2="81.8" />
	<text transform="matrix(0 -1 1 0 888.5912 86.9751)" class=" st9">М</text>
	<polygon class="st2" points="1105.2,82.3 1109.7,95.4 1100.7,95.4  " />
	<polygon class="st2" points="1105.2,82.3 1100.7,69.1 1109.7,69.1  " />
	<polygon class="st2" points="1105.2,95.4 1108.3,104.5 1102.1,104.5  " />
	<polygon class="st2" points="1105.2,69.1 1102.1,60.1 1108.3,60.1  " />
	<circle class="st2" cx="1087" cy="82.3" r="9.6" />
	<line class="st2" x1="1096.8" y1="82.3" x2="1105.2" y2="82.3" />
	<text transform="matrix(0 -1 1 0 1090.5787 87.4253)" class=" st9">М</text>
	<polygon class="st6" points="906.8,34 903.3,26.3 899.9,34  " />
	<polygon class="st6" points="1108.6,33.8 1105.2,26.1 1101.8,33.8  " />
	<line class="st5" x1="265.7" y1="302.6" x2="181.2" y2="302.6" />
	<g>
		<polygon class="st2" points="215.5,362.1 228.6,357.6 228.6,366.6   " />
		<polygon class="st10" points="215.5,362.1 202.3,366.6 202.3,357.6   " />
	</g>
	<ellipse class="st6" cx="181.5" cy="362.3" rx="3.7" ry="3.8" />
	<ellipse class="st6" cx="741.3" cy="185.9" rx="3.7" ry="3.8" />
	<ellipse class="st6" cx="903.3" cy="185.6" rx="3.7" ry="3.8" />
	<ellipse class="st11" cx="402.7" cy="781.3" rx="3.7" ry="3.8" />
	<line class="st4" x1="9.4" y1="782.3" x2="46.3" y2="782.3" />
	<g>
		<path class="st1" d="M308.5,645.8c0,2.4-2,4.4-4.4,4.4" />
		<path class="st1" d="M308.5,645.8c0-2.4-2-4.4-4.4-4.4" />
	</g>
	<polygon class="st12" points="8.9,784.3 4.4,782.3 8.9,780.3  " />
	<polygon class="st2" points="69.3,781.7 56.2,786.2 56.2,777.2  " />
	<polygon class="st2" points="69.3,781.7 82.5,777.2 82.5,786.2  " />
	<polygon class="st2" points="56.2,781.7 47.1,784.8 47.1,778.6  " />
	<polygon class="st2" points="82.5,781.7 91.5,778.6 91.5,784.8  " />
	<circle class="st2" cx="69.3" cy="763.5" r="9.6" />
	<line class="st2" x1="69.3" y1="773.2" x2="69.3" y2="781.7" />
	<text transform="matrix(1 0 0 1 64.6165 767.5992)" class=" st9">М</text>
	<line class="st5" x1="402.9" y1="692" x2="402.9" y2="645.2" />
	<line class="st4" x1="403.7" y1="782.6" x2="403.7" y2="718.5" />
	<g>
		<polygon class="st2" points="403.7,705.4 399.2,692.2 408.2,692.2   " />
		<polygon class="st10" points="403.7,705.4 408.2,718.5 399.2,718.5   " />
	</g>
	<ellipse class="st11" cx="304.1" cy="780.6" rx="3.7" ry="3.8" />
	<ellipse class="st11" cx="335" cy="780.1" rx="3.7" ry="3.8" />
	<g>
		<line class="st2" x1="225.7" y1="761.7" x2="225.7" y2="780" />
		<ellipse class="st3" cx="225.7" cy="757.3" rx="4.9" ry="4.4" />
	</g>
	<g transform="translate(52.134,-5.3932)">
		<line class="st7" x1="46.7" y1="781.6" x2="64.2" y2="781.6" />
		<line class="st2" x1="55.4" y1="781.1" x2="55.4" y2="761.6" />
	</g>
	<g transform="translate(52.134,-5.3932)">
		<line class="st7" x1="362.7" y1="779.5" x2="380.2" y2="779.5" />
		<line class="st2" x1="371.4" y1="779" x2="371.4" y2="759.5" />
	</g>
	<line class="st1" x1="489.8" y1="781.5" x2="550.8" y2="781.5" />
	<line class="st1" x1="633.5" y1="710.2" x2="633.5" y2="782.1" />
	<line class="st1" x1="507" y1="711" x2="507" y2="779.1" />
	<line class="st1" x1="507" y1="711.6" x2="550.8" y2="711.6" />
	<ellipse class="st11" cx="507" cy="780.6" rx="3.7" ry="3.8" />
	<g transform="translate(52.134,-5.3932)">
		<line class="st7" x1="409.9" y1="645.5" x2="427.4" y2="645.5" />
		<line class="st2" x1="418.6" y1="645" x2="418.6" y2="625.5" />
	</g>
	<ellipse class="st6" cx="661.9" cy="645.8" rx="3.7" ry="3.8" />
	<line class="st5" x1="661.6" y1="597.4" x2="661.6" y2="641.4" />
	<line class="st5" x1="662" y1="530.9" x2="662" y2="551.8" />
	<polygon class="st2" points="662,574 666.5,587 657.5,587  " />
	<polygon class="st2" points="662,574 657.5,560.8 666.5,560.8  " />
	<polygon class="st2" points="662,587 665.1,596.1 658.9,596.1  " />
	<polygon class="st2" points="662,560.8 658.9,551.8 665.1,551.8  " />
	<circle class="st2" cx="643.8" cy="574" r="9.6" />
	<line class="st2" x1="653.5" y1="574" x2="662" y2="574" />
	<text transform="matrix(0 -1 1 0 647.1502 578.9438)" class=" st9">М</text>
	<polygon class="st6" points="665.4,530.9 662,523.2 658.6,530.9  " />
	<line class="st5" x1="657.2" y1="646.1" x2="966.5" y2="646.1" />
	<line class="st5" x1="965.5" y1="596.9" x2="965.5" y2="645.2" />
	<line class="st5" x1="965.3" y1="529.9" x2="965.3" y2="550.8" />
	<polygon class="st2" points="965.7,574.5 970.2,587.6 961.2,587.6  " />
	<polygon class="st2" points="965.7,574.5 961.2,561.3 970.2,561.3  " />
	<polygon class="st2" points="965.7,587.6 968.8,596.7 962.6,596.7  " />
	<polygon class="st2" points="965.3,560.8 962.2,551.8 968.4,551.8  " />
	<circle class="st2" cx="947.5" cy="574.5" r="9.6" />
	<line class="st2" x1="957.2" y1="574.5" x2="965.7" y2="574.5" />
	<text transform="matrix(0 -1 1 0 951.3661 579.8003)" class=" st9">М</text>
	<polygon class="st6" points="968.7,529.9 965.3,522.2 961.9,529.9  " />
	<polygon class="st12" points="702.8,522.5 700.8,527 698.8,522.5  " />
	<line class="st4" x1="700.8" y1="552.3" x2="700.8" y2="525.6" />
	<g>
		<path class="st1" d="M705.1,646.6c0,2.4-2,4.4-4.4,4.4" />
		<path class="st1" d="M705.1,646.6c0-2.4-2-4.4-4.4-4.4" />
	</g>
	<line class="st4" x1="700.8" y1="642" x2="700.8" y2="596.8" />
	<polygon class="st2" points="700.8,574.5 696.3,561.4 705.3,561.4  " />
	<polygon class="st2" points="700.8,574.5 705.3,587.7 696.3,587.7  " />
	<polygon class="st2" points="700.8,561.4 697.7,552.3 703.9,552.3  " />
	<polygon class="st2" points="700.8,587.7 703.9,596.7 697.7,596.7  " />
	<circle class="st2" cx="719" cy="574.5" r="9.6" />
	<line class="st2" x1="709.3" y1="574.5" x2="700.8" y2="574.5" />
	<text transform="matrix(0 1 -1 0 715.59 569.7261)" class=" st9">М</text>
	<line class="st4" x1="700.8" y1="782.3" x2="700.8" y2="648.8" />
	<g transform="translate(52.134,-5.3932)">
		<line class="st7" x1="657" y1="695.4" x2="657" y2="712.9" />
		<line class="st2" x1="657.5" y1="704.1" x2="677" y2="704.1" />
	</g>
	<ellipse class="st11" cx="700.8" cy="782.3" rx="3.7" ry="3.8" />
	<g transform="translate(52.134,-5.3932)">
		<line class="st7" x1="961.3" y1="695.4" x2="961.3" y2="712.9" />
		<line class="st2" x1="961.8" y1="704.1" x2="981.3" y2="704.1" />
	</g>
	<line class="st4" x1="1005.8" y1="782.1" x2="1005.8" y2="596.1" />
	<line class="st4" x1="1006.8" y1="780.8" x2="965" y2="780.8" />
	<polygon class="st2" points="942.3,781.5 929.2,786 929.2,777  " />
	<polygon class="st2" points="942.3,781.5 955.5,777 955.5,786  " />
	<polygon class="st2" points="929.2,781.5 920.1,784.6 920.1,778.4  " />
	<polygon class="st2" points="955.5,781.5 964.5,778.4 964.5,784.6  " />
	<circle class="st2" cx="942.3" cy="763.3" r="9.6" />
	<line class="st2" x1="942.3" y1="773" x2="942.3" y2="781.5" />
	<text transform="matrix(1 0 0 1 937.6521 767.0258)" class=" st9">М</text>
	<polygon class="st12" points="1007.8,522.5 1005.8,527 1003.8,522.5  " />
	<line class="st4" x1="304.1" y1="641.4" x2="304.1" y2="431.4" />
	<g>
		<path class="st1" d="M308.5,362.1c0,2.4-2,4.4-4.4,4.4" />
		<path class="st1" d="M308.5,362.1c0-2.4-2-4.4-4.4-4.4" />
	</g>
	<line class="st4" x1="303.9" y1="357.7" x2="303.9" y2="255.9" />
	<line class="st4" x1="304.1" y1="405.6" x2="304.1" y2="366.5" />
	<g>
		<polygon class="st2" points="304.1,418.7 299.6,405.6 308.6,405.6   " />
		<polygon class="st10" points="304.1,418.7 308.6,431.9 299.6,431.9   " />
	</g>
	<polygon class="st2" points="306.4,419.7 319.5,415.2 319.5,424.2  " />
	<line class="st4" x1="304.1" y1="255" x2="387.1" y2="255" />
	<line class="st4" x1="304.1" y1="782.6" x2="304.1" y2="648" />
	<g>
		<path class="st1" d="M339.3,646.3c0,2.4-2,4.4-4.4,4.4" />
		<path class="st1" d="M339.3,646.3c0-2.4-2-4.4-4.4-4.4" />
	</g>
	<line class="st4" x1="335" y1="641.4" x2="335" y2="427" />
	<line class="st4" x1="335" y1="781.1" x2="335" y2="650.3" />
	<g>
		<path class="st1" d="M338.3,421.5c0,2.4-2,4.4-4.4,4.4" />
		<path class="st1" d="M338.3,421.5c0-2.4-2-4.4-4.4-4.4" />
	</g>
	<line class="st4" x1="335" y1="417.1" x2="335" y2="366" />
	<line class="st4" x1="335" y1="357.7" x2="335" y2="258.9" />
	<ellipse class="st11" cx="334.6" cy="391.6" rx="3.7" ry="3.8" />
	<g>
		<polygon class="st2" points="772.6,418.1 759.5,422.6 759.5,413.6   " />
		<polygon class="st10" points="772.6,418.1 785.8,413.6 785.8,422.6   " />
	</g>
	<polygon class="st2" points="772.6,416.7 768.1,403.6 777.1,403.6  " />
	<g transform="translate(52.134,-5.3932)">
		<line class="st7" x1="737.6" y1="413.8" x2="755.1" y2="413.8" />
		<line class="st2" x1="746.3" y1="413.3" x2="746.3" y2="393.8" />
	</g>
	<line class="st13" x1="989.5" y1="389.4" x2="989.6" y2="456.4" />
	<line class="st1" x1="851" y1="392.7" x2="851" y2="457.9" />
	<line class="st14" x1="1132.2" y1="414.5" x2="989.8" y2="414.5" />
	<g transform="translate(52.134,-5.3932)">
		<line class="st7" x1="977.3" y1="409.8" x2="994.8" y2="409.8" />
		<line class="st2" x1="986" y1="409.3" x2="986" y2="389.8" />
	</g>
	<line class="st1" x1="1133.2" y1="386.8" x2="1133.2" y2="442.9" />
	<ellipse class="st11" cx="1133.2" cy="414.1" rx="3.7" ry="3.8" />
	<line class="st1" x1="1133.2" y1="441.5" x2="1144.5" y2="441.5" />
	<line class="st1" x1="1132.2" y1="386.4" x2="1143.5" y2="386.4" />
	<polygon class="st2" points="1166.7,441.5 1179.8,437 1179.8,446  " />
	<polygon class="st2" points="1166.7,441.5 1153.5,446 1153.5,437  " />
	<polygon class="st2" points="1179.8,441.5 1188.9,438.4 1188.9,444.6  " />
	<polygon class="st2" points="1153.5,441.5 1144.5,444.6 1144.5,438.4  " />
	<circle class="st2" cx="1166.7" cy="459.7" r="9.6" />
	<line class="st2" x1="1166.7" y1="450" x2="1166.7" y2="441.5" />
	<text transform="matrix(1 0 0 1 1162.1006 463.4439)" class=" st9">М</text>
	<polygon class="st2" points="1165.7,386.4 1152.6,390.9 1152.6,381.9  " />
	<polygon class="st2" points="1165.7,386.4 1178.9,381.9 1178.9,390.9  " />
	<polygon class="st2" points="1178.9,386.4 1187.9,383.3 1187.9,389.5  " />
	<circle class="st2" cx="1165.7" cy="368.2" r="9.6" />
	<line class="st2" x1="1165.7" y1="377.9" x2="1165.7" y2="386.4" />
	<polygon class="st2" points="1152.6,386.4 1143.5,389.5 1143.5,383.3  " />
	<text transform="matrix(1 0 0 1 1160.9661 372.3441)" class=" st9">М</text>
	<polygon class="st12" points="1230.6,443.5 1226,441.5 1230.6,439.5  " />
	<polygon class="st12" points="1229.8,388.4 1225.3,386.4 1229.8,384.4  " />
	<g>
		<path class="st1" d="M339.3,254.6c0,2.4-2,4.4-4.4,4.4" />
		<path class="st1" d="M339.3,254.6c0-2.4-2-4.4-4.4-4.4" />
	</g>
	<line class="st4" x1="334.6" y1="250.4" x2="334.7" y2="226.8" />
	<g>
		<polygon class="st2" points="674.3,226.5 687.4,222 687.4,231   " />
		<polygon class="st10" points="674.3,226.5 661.1,231 661.1,222   " />
	</g>
	<polygon class="st2" points="674.3,227.9 678.8,241 669.8,241  " />
	<line class="st4" x1="471.4" y1="396.1" x2="674.3" y2="396.1" />
	<g>
		<path class="st1" d="M678.7,255c0,2.4-2,4.4-4.4,4.4" />
		<path class="st1" d="M678.7,255c0-2.4-2-4.4-4.4-4.4" />
	</g>
	<g>
		<path class="st1" d="M678.7,367.1c0,2.4-2,4.4-4.4,4.4" />
		<path class="st1" d="M678.7,367.1c0-2.4-2-4.4-4.4-4.4" />
	</g>
	<line class="st4" x1="674.3" y1="362.7" x2="674.3" y2="259.4" />
	<line class="st4" x1="796.2" y1="289.1" x2="796.2" y2="226.4" />
	<line class="st4" x1="885.1" y1="289.1" x2="796.2" y2="289.1" />
	<g transform="translate(52.134,-5.3932)">
		<line class="st7" x1="751.2" y1="286.1" x2="768.7" y2="286.1" />
		<line class="st2" x1="759.9" y1="285.6" x2="759.9" y2="266.1" />
	</g>
	<line class="st15" x1="1036.7" y1="249.6" x2="1036.7" y2="321" />
	<line class="st1" x1="885.4" y1="249" x2="885.4" y2="320.6" />
	<line class="st1" x1="968.5" y1="249.4" x2="1036.5" y2="249.4" />
	<line class="st1" x1="885.4" y1="249.2" x2="941.8" y2="249.2" />
	<line class="st16" x1="1152.5" y1="290.5" x2="1036.5" y2="290.5" />
	<g transform="translate(52.134,-5.3932)">
		<line class="st7" x1="1000.3" y1="286" x2="1017.8" y2="286" />
		<line class="st2" x1="1009" y1="285.5" x2="1009" y2="266" />
	</g>
	<line class="st1" x1="1150.6" y1="32.5" x2="1150.6" y2="59.8" />
	<polygon class="st12" points="1152.5,28 1150.5,32.5 1148.6,28  " />
	<g>
		<line class="st2" x1="1169.4" y1="156.8" x2="1151.1" y2="156.8" />
		<ellipse class="st3" cx="1173.7" cy="156.8" rx="4.4" ry="4.9" />
	</g>
	<g transform="translate(52.134,-5.3932)">
		<line class="st7" x1="1104.2" y1="116.2" x2="1104.2" y2="133.7" />
		<line class="st2" x1="1104.7" y1="124.9" x2="1124.2" y2="124.9" />
	</g>
	<line class="st1" x1="1150.6" y1="104" x2="1150.6" y2="289.6" />
	<polygon class="st2" points="1150.5,81.8 1155,94.9 1146,94.9  " />
	<polygon class="st2" points="1150.5,81.8 1146,68.6 1155,68.6  " />
	<polygon class="st2" points="1150.5,94.9 1153.6,104 1147.4,104  " />
	<polygon class="st2" points="1150.5,68.6 1147.4,59.6 1153.6,59.6  " />
	<line class="st2" x1="1151.6" y1="82.9" x2="1160" y2="82.9" />
	<g>
		<circle class="st2" cx="1169.3" cy="80.7" r="9.6" />
		<text transform="matrix(0 1 -1 0 1165.8342 76.7177)" class=" st9">М</text>
	</g>
	<ellipse class="st11" cx="1150.5" cy="197.3" rx="2.5" ry="1.9" />
	<line class="st4" x1="1148.6" y1="198.2" x2="944.6" y2="198.2" />
	<line class="st1" x1="944.5" y1="105.1" x2="944.5" y2="181.5" />
	<polygon class="st2" points="944.6,82.9 940.1,69.8 949.1,69.8  " />
	<polygon class="st2" points="944.6,82.9 949.1,96.1 940.1,96.1  " />
	<polygon class="st2" points="944.6,69.8 941.5,60.7 947.7,60.7  " />
	<polygon class="st2" points="944.6,96.1 947.7,105.1 941.5,105.1  " />
	<circle class="st2" cx="962.8" cy="82.9" r="9.6" />
	<line class="st2" x1="953" y1="82.9" x2="944.6" y2="82.9" />
	<text transform="matrix(0 1 -1 0 959.09 77.8501)" class=" st9">М</text>
	<g>
		<path class="st1" d="M949.8,185.9c0,2.4-2,4.4-4.4,4.4" />
		<path class="st1" d="M949.8,185.9c0-2.4-2-4.4-4.4-4.4" />
	</g>
	<line class="st1" x1="944.6" y1="190.2" x2="944.6" y2="197.3" />
	<g>
		<line class="st2" x1="962.7" y1="159.5" x2="944.4" y2="159.5" />
		<ellipse class="st3" cx="967" cy="159.5" rx="4.4" ry="4.9" />
	</g>
	<g transform="translate(52.134,-5.3932)">
		<line class="st7" x1="898" y1="115.3" x2="898" y2="132.8" />
		<line class="st2" x1="898.5" y1="124" x2="918" y2="124" />
	</g>
	<polygon class="st12" points="946.6,27.9 944.6,32.4 942.6,27.9  " />
	<g>
		<rect x="386.8" y="345.9" class="st17" width="84.3" height="93.4" />
		<line class="st17" x1="394.9" y1="431.4" x2="394.9" y2="358.9" />
		<line class="st17" x1="409" y1="431.6" x2="409" y2="358.9" />
		<line class="st17" x1="422.9" y1="431.4" x2="422.9" y2="358.9" />
		<line class="st17" x1="437.6" y1="431.6" x2="437.6" y2="359.1" />
		<line class="st17" x1="451.6" y1="431.4" x2="451.6" y2="358.9" />
		<line class="st17" x1="465.6" y1="431.6" x2="465.6" y2="358.9" />
	</g>
	<g>
		<rect x="387.1" y="175.3" class="st17" width="84.3" height="93.4" />
		<line class="st17" x1="395.2" y1="260.8" x2="395.2" y2="188.3" />
		<line class="st17" x1="409.3" y1="261" x2="409.3" y2="188.3" />
		<line class="st17" x1="423.2" y1="260.8" x2="423.2" y2="188.3" />
		<line class="st17" x1="437.9" y1="261" x2="437.9" y2="188.5" />
		<line class="st17" x1="451.9" y1="260.8" x2="451.9" y2="188.3" />
		<line class="st17" x1="465.9" y1="261" x2="465.9" y2="188.3" />
	</g>
	<ellipse class="st11" cx="633.2" cy="781.4" rx="3.7" ry="3.8" />
	<line class="st4" x1="576.8" y1="781.1" x2="920.1" y2="781.1" />
	<text transform="matrix(1 0 0 1 628.5204 511.0439)" class=" st18">Отопление Вывод №1</text>
	<text transform="matrix(1 0 0 1 915.8712 513.0439)" class=" st18">Отопление Вывод №2</text>
	<rect x="9.3" y="703.1" class="st19" width="67.1" height="21" />
	<text transform="matrix(1 0 0 1 9.3119 712.8734)" class=" st18">Теплосеть</text>
	<rect x="1143.5" y="322.9" class="st19" width="83.2" height="29.2" />
	<text transform="matrix(1 0 0 1 1143.5006 332.6739)"><tspan x="0" y="0" class=" st18">Водопровод</tspan><tspan x="0" y="16.8" class=" st18">Ввод №1</tspan></text>
	<rect x="1144" y="470.2" class="st19" width="83.8" height="39.5" />
	<text transform="matrix(1 0 0 1 1144 479.9739)"><tspan x="0" y="0" class=" st18">Водопровод</tspan><tspan x="0" y="16.8" class=" st18">Ввод №2</tspan></text>
	<text transform="matrix(1 0 0 1 891.9713 15.0439)" class=" st18">ГВС Вывод №1</text>
	<text transform="matrix(1 0 0 1 1035.9658 17.0438)" class=" st18">ГВС Вывод №2</text>
	<line class="st1" x1="851" y1="457.4" x2="891.5" y2="457.4" />
	<line class="st1" x1="918" y1="456.9" x2="989.1" y2="456.9" />
	<line class="st1" x1="885.4" y1="320.6" x2="940.1" y2="320.6" />
	<line class="st1" x1="966.4" y1="319.8" x2="1035.1" y2="319.8" />
	<g>
		<line class="st2" x1="40.2" y1="241.8" x2="40.2" y2="260.1" />
		<ellipse class="st3" cx="40.2" cy="237.5" rx="4.9" ry="4.4" />
	</g>
	<g>
		<line class="st2" x1="143.7" y1="240.7" x2="143.7" y2="259" />
		<ellipse class="st3" cx="143.7" cy="236.4" rx="4.9" ry="4.4" />
	</g>
	<text transform="matrix(1 0 0 1 8.8 272.0439)"><tspan x="0" y="0" class=" st20">датчик наружного</tspan><tspan x="0" y="12" class=" st20">воздуха</tspan></text>
	<text transform="matrix(1 0 0 1 131.8 271.0439)"><tspan x="0" y="0" class=" st20">датчик внутри </tspan><tspan x="0" y="12" class=" st20">помещения</tspan></text>
	<g>
		<path class="st1" d="M338.3,362.1c0,2.4-2,4.4-4.4,4.4" />
		<path class="st1" d="M338.3,362.1c0-2.4-2-4.4-4.4-4.4" />
	</g>
	<g transform="translate(52.134,-5.3932)">
		<line class="st7" x1="613.8" y1="791.5" x2="596.3" y2="791.5" />
		<line class="st2" x1="605.1" y1="792" x2="605.1" y2="811.5" />
	</g>
	<text transform="matrix(1 0 0 1 390.4665 167.3439)" class=" st20">теплообменник №1</text>
	<text transform="matrix(1 0 0 1 387.1335 339.0438)" class=" st20">теплообменник №2</text>
	<line class="st5" x1="265.5" y1="301.6" x2="265.5" y2="185.6" />
	<line class="st5" x1="181.2" y1="493.3" x2="181.2" y2="302.6" />
	<line class="st5" x1="202.3" y1="362.6" x2="177.8" y2="362.6" />
	<line class="st5" x1="263.8" y1="493.3" x2="181.2" y2="493.3" />
	<polygon class="st2" points="1005.4,573.8 1000.9,560.7 1009.9,560.7  " />
	<polygon class="st2" points="1005.4,573.8 1009.9,587 1000.9,587  " />
	<polygon class="st2" points="1005.4,560.7 1002.3,551.6 1008.5,551.6  " />
	<polygon class="st2" points="1005.8,587.5 1008.9,596.5 1002.7,596.5  " />
	<circle class="st2" cx="1023.6" cy="573.8" r="9.6" />
	<line class="st2" x1="1013.9" y1="573.8" x2="1005.4" y2="573.8" />
	<text transform="matrix(0 1 -1 0 1019.7346 568.5376)" class=" st9">М</text>
	<line class="st4" x1="1005.4" y1="551.6" x2="1005.4" y2="523.5" />
</g>
<text transform="matrix(1 0 0 1 609.1333 549.3774)" class=" st20" data-core-parameter="Text.State.HeatSysValve1" id="Text.State.HeatSysValve1">State</text>
<text transform="matrix(1 0 0 1 914.1334 553.7109)" class=" st20" data-core-parameter="Text.State.HeatSysValve3" id="Text.State.HeatSysValve3">State</text>
<text transform="matrix(1 0 0 1 1025.7997 553.0436)" class=" st20" data-core-parameter="Text.State.HeatSysValve4" id="Text.State.HeatSysValve4">State</text>
<text transform="matrix(1 0 0 1 718.1335 548.377)" class=" st20" data-core-parameter="Text.State.HeatSysValve2" id="Text.State.HeatSysValve2">State</text>
<text transform="matrix(1 0 0 1 923.467 380.0439)" class=" st20" id="Text.State.HwsMakeupPump1">State</text>
<text transform="matrix(1 0 0 1 923.4667 445.3773)" class=" st20" id="Text.State.HwsMakeupPump2">State</text>
<text transform="matrix(1 0 0 1 581.8 696.3776)" class=" st20" data-core-parameter="Text.State.HeatSysPump1" id="Text.State.HeatSysPump1">State</text>
<text transform="matrix(1 0 0 1 581.8 767.377)" class=" st20" data-core-parameter="Text.State.HeatSysPump2" id="Text.State.HeatSysPump2">State</text>
<text transform="matrix(1 0 0 1 975.133 237.7104)" class=" st20" id="Text.State.HwsPump1">State</text>
<text transform="matrix(1 0 0 1 972.7997 310.3773)" class=" st20" id="Text.State.HwsPump2">State</text>
<text transform="matrix(1 0 0 1 850.4667 62.7106)" class=" st20" id="Text.State.HwsValve1">State</text>
<text transform="matrix(1 0 0 1 964.467 61.7104)" class=" st20" id="Text.State.HwsValve2">State</text>
<text transform="matrix(1 0 0 1 1052.467 63.7104)" class=" st20" id="Text.State.HwsValve3">State</text>
<text transform="matrix(1 0 0 1 1174.4667 61.7108)" class=" st20" id="Text.State.HwsValve4">State</text>
<text transform="matrix(1 0 0 1 358.4667 630.377)" class=" st20" id="Text.State.Yp1Valve">State</text>
<text transform="matrix(1 0 0 1 199.1335 349.144)" class=" st21" data-core-parameter="Monitoring.Percent.HeatExchanger2ValvePosition" id="Monitoring.Percent.HeatExchanger2ValvePosition">Per2</text>
<text transform="matrix(1 0 0 1 238.1335 423.9106)" class=" st21" data-core-parameter="Monitoring.Percent.HeatExchangersReturnValvePosition" id="Monitoring.Percent.HeatExchangersReturnValvePosition">Per3</text>
<text transform="matrix(1 0 0 1 640.8 212.2671)" class=" st21" data-core-parameter="Monitoring.Percent.HeatExchangersAfterPumpValvePosition" id="Monitoring.Percent.HeatExchangersAfterPumpValvePosition">Per4</text>
<text transform="matrix(1 0 0 1 304.1502 165.4441)" class=" st21" data-core-parameter="Monitoring.Percent.HeatExchanger1ValvePosition" id="Monitoring.Percent.HeatExchanger1ValvePosition">Per1</text>
<g id="HwsMakeupPump1">
	<g>
		<circle class="st10" cx="903.2" cy="390.8" r="10.8" />
		<circle class="st10" cx="903.2" cy="390.8" r="3.1" />
		<path class="st17" d="M902.3,387.9c-1.2-3.3,0-6.8,2.7-7.8" />
		<path class="st17" d="M900.3,391.8c-3.3,1.2-6.8,0-7.8-2.7" />
		<path class="st17" d="M904.2,393.8c1.2,3.3,0,6.8-2.7,7.8" />
		<path class="st17" d="M906.2,389.9c3.3-1.2,6.8,0,7.8,2.7" />
		<circle class="st22" cx="903.2" cy="390.8" r="12.9" />
	<animateTransform id="animateHwsMakeupPump1" attributeType="xml" attributeName="transform" type="rotate" values="0 903.2 390.8; 360 903.2 390.8" dur="0s" additive="sum" repeatCount="indefinite" xmlns="" /></g>
</g>
<g id="HwsMakeupPump2">
	<g>
		<circle class="st10" cx="905.1" cy="458" r="10.8" />
		<circle class="st10" cx="905.1" cy="458" r="3.1" />
		<path class="st17" d="M904.2,455.1c-1.2-3.3,0-6.8,2.7-7.8" />
		<path class="st17" d="M902.2,459c-3.3,1.2-6.8,0-7.8-2.7" />
		<path class="st17" d="M906.1,461c1.2,3.3,0,6.8-2.7,7.8" />
		<path class="st17" d="M908.1,457.1c3.3-1.2,6.8,0,7.8,2.7" />
		<circle class="st22" cx="905.1" cy="458" r="12.9" />
	<animateTransform id="animateHwsMakeupPump2" attributeType="xml" attributeName="transform" type="rotate" values="0 905.1 458; 360 905.1 458" dur="0s" additive="sum" repeatCount="indefinite" xmlns="" /></g>
</g>
<text transform="matrix(1 0 0 1 649.6993 173.9919)" class="st23  st21" data-core-parameter="Monitoring.Temper.HwsSetting" id="Monitoring.Temper.HwsSetting">Thws</text>
<text transform="matrix(1 0 0 1 528.8998 670.6436)" class="st23  st21" data-core-parameter="Monitoring.Temper.HeatSysSetting" id="Monitoring.Temper.HeatSysSetting">Ths</text>
<g id="HwsPump2">
	<g>
		<circle class="st10" cx="952.2" cy="320.3" r="10.8" />
		<circle class="st10" cx="952.2" cy="320.3" r="3.1" />
		<path class="st17" d="M951.3,317.4c-1.2-3.3,0-6.8,2.7-7.8" />
		<path class="st17" d="M949.3,321.3c-3.3,1.2-6.8,0-7.8-2.7" />
		<path class="st17" d="M953.2,323.3c1.2,3.3,0,6.8-2.7,7.8" />
		<path class="st17" d="M955.2,319.4c3.3-1.2,6.8,0,7.8,2.7" />
		<circle class="st22" cx="952.2" cy="320.3" r="12.9" />
	<animateTransform id="animateHwsPump2" attributeType="xml" attributeName="transform" type="rotate" values="0 952.2 320.3; 360 952.2 320.3" dur="0s" additive="sum" repeatCount="indefinite" xmlns="" /></g>
</g>
<g id="HwsPump1">
	<g>
		<circle class="st10" cx="955.3" cy="250.7" r="10.8" />
		<circle class="st10" cx="955.3" cy="250.7" r="3.1" />
		<path class="st17" d="M954.4,247.8c-1.2-3.3,0-6.8,2.7-7.8" />
		<path class="st17" d="M952.4,251.7c-3.3,1.2-6.8,0-7.8-2.7" />
		<path class="st17" d="M956.3,253.7c1.2,3.3,0,6.8-2.7,7.8" />
		<path class="st17" d="M958.3,249.8c3.3-1.2,6.8,0,7.8,2.7" />
		<circle class="st22" cx="955.3" cy="250.7" r="12.9" />
	<animateTransform id="animateHwsPump1" attributeType="xml" attributeName="transform" type="rotate" values="0 955.3 250.7; 360 955.3 250.7" dur="0s" additive="sum" repeatCount="indefinite" xmlns="" /></g>
</g>
<text transform="matrix(1 0 0 1 643.8 825.0439)" class=" st21" data-core-parameter="Monitoring.Pressure.ReturnHeatSystemBeforePump" id="Monitoring.Pressure.ReturnHeatSystemBeforePump">P10</text>
<text transform="matrix(1 0 0 1 416.3 746.1308)" class=" st21" data-core-parameter="Monitoring.Pressure.ReturnHeatSystemAfterPump" id="Monitoring.Pressure.ReturnHeatSystemAfterPump">P11</text>
<text transform="matrix(1 0 0 1 1064.9034 259.5156)" class=" st21" data-core-parameter="Monitoring.Pressure.ReturnHwsBeforePump" id="Monitoring.Pressure.ReturnHwsBeforePump">P12</text>
<text transform="matrix(1 0 0 1 805.1 250.5091)" class=" st21" data-core-parameter="Monitoring.Pressure.ReturnHwsAfterPump" id="Monitoring.Pressure.ReturnHwsAfterPump">P13</text>
<text transform="matrix(1 0 0 1 782.3 377.9439)" class=" st21" data-core-parameter="Monitoring.Pressure.CityColdWaterAfterPump" id="Monitoring.Pressure.CityColdWaterAfterPump">P14</text>
<text transform="matrix(1 0 0 1 822.834 145.6942)" class=" st21" data-core-parameter="Monitoring.Pressure.SupplyHws" id="Monitoring.Pressure.SupplyHws">P7</text>
<text transform="matrix(1 0 0 1 874.4999 489.9773)" class=" st21" data-core-parameter="Monitoring.Frequency.HwsMakeupPump2" id="Monitoring.Frequency.HwsMakeupPump2">F6</text>
<text transform="matrix(1 0 0 1 535.75 744.6566)" class=" st21" data-core-parameter="Monitoring.Frequency.HeatSysPump1" id="Monitoring.Frequency.HeatSysPump1">F1</text>
<text transform="matrix(1 0 0 1 536.15 812.5439)" class=" st21" data-core-parameter="Monitoring.Frequency.HeatSysPump2" id="Monitoring.Frequency.HeatSysPump2">F2</text>
<text transform="matrix(1 0 0 1 451.15 607.6768)" class=" st21" data-core-parameter="Monitoring.Pressure.SupplyHeatSystem" id="Monitoring.Pressure.SupplyHeatSystem">P3</text>
<text transform="matrix(1 0 0 1 735.2002 700.8177)" class=" st21" data-core-parameter="Monitoring.Pressure.HeatSystemReturnOut1" id="Monitoring.Pressure.HeatSystemReturnOut1">P4</text>
<text transform="matrix(1 0 0 1 1042.2001 698.7944)" class=" st21" data-core-parameter="Monitoring.Pressure.HeatSystemReturnOut2" id="Monitoring.Pressure.HeatSystemReturnOut2">P5</text>
<text transform="matrix(1 0 0 1 926.9999 280.5008)" class=" st21" data-core-parameter="Monitoring.Frequency.HwsPump1" id="Monitoring.Frequency.HwsPump1">F3</text>
<text transform="matrix(1 0 0 1 925.1 349.144)" class=" st21" data-core-parameter="Monitoring.Frequency.HwsPump2" id="Monitoring.Frequency.HwsPump2">F4</text>
<text transform="matrix(1 0 0 1 873.75 422.644)" class=" st21" data-core-parameter="Monitoring.Frequency.HwsMakeupPump1" id="Monitoring.Frequency.HwsMakeupPump1">F5</text>
<text transform="matrix(1 0 0 1 13.8 213.2788)" class=" st21" data-core-parameter="Monitoring.Temper.OutdoorAir" id="Monitoring.Temper.OutdoorAir">T11</text>
<text transform="matrix(1 0 0 1 131.8 213.0788)" class=" st21" data-core-parameter="Monitoring.Temper.IndoorAir" id="Monitoring.Temper.IndoorAir">T12</text>
<text transform="matrix(1 0 0 1 738.2002 745.9443)" class=" st21" data-core-parameter="Monitoring.Temper.HeatSystemReturnOut1" id="Monitoring.Temper.HeatSystemReturnOut1">T4</text>
<text transform="matrix(1 0 0 1 1043.2001 744.1529)" class=" st21" data-core-parameter="Monitoring.Temper.HeatSystemReturnOut2" id="Monitoring.Temper.HeatSystemReturnOut2">T5</text>
<text transform="matrix(1 0 0 1 1042.8876 380.4488)" class=" st21" data-core-parameter="Monitoring.Pressure.CityColdWaterBeforePump" id="Monitoring.Pressure.CityColdWaterBeforePump">P6</text>
<text transform="matrix(1 0 0 1 560.8 331.0439)" class=" st21" data-core-parameter="Monitoring.Temper.HeatExchanger2" id="Monitoring.Temper.HeatExchanger2">T7</text>
<text transform="matrix(1 0 0 1 744.0831 146.6941)" class=" st21" data-core-parameter="Monitoring.Temper.DirectHws" id="Monitoring.Temper.DirectHws">T8</text>
<text transform="matrix(1 0 0 1 977.8 160.0439)" class=" st21" data-core-parameter="Monitoring.Temper.HwsReturnOut1" id="Monitoring.Temper.HwsReturnOut1">T9</text>
<text transform="matrix(1 0 0 1 1185.1125 159.0439)" class=" st21" data-core-parameter="Monitoring.Temper.HwsReturnOut2" id="Monitoring.Temper.HwsReturnOut2">T10</text>
<text transform="matrix(1 0 0 1 977.434 119.6008)" class=" st21" data-core-parameter="Monitoring.Pressure.HwsReturnOut1" id="Monitoring.Pressure.HwsReturnOut1">P8</text>
<text transform="matrix(1 0 0 1 1182.2004 118.6506)" class=" st21" data-core-parameter="Monitoring.Pressure.HwsReturnOut2" id="Monitoring.Pressure.HwsReturnOut2">P9</text>
<text transform="matrix(1 0 0 1 559.2998 146.694)" class=" st21" data-core-parameter="Monitoring.Temper.HeatExchanger1" id="Monitoring.Temper.HeatExchanger1">T6</text>
<text transform="matrix(1 0 0 1 203.5 744.1526)" class=" st21" data-core-parameter="Monitoring.Temper.ReturnDirectHeatNetwork" id="Monitoring.Temper.ReturnDirectHeatNetwork">T2</text>
<text transform="matrix(1 0 0 1 550.8 605.6772)" class=" st21" data-core-parameter="Monitoring.Temper.SupplyHeatSystem" id="Monitoring.Temper.SupplyHeatSystem">T3</text>
<text transform="matrix(1 0 0 1 187.1667 607.6772)" class=" st21" data-core-parameter="Monitoring.Temper.SupplyDirectHeatNetwork" id="Monitoring.Temper.SupplyDirectHeatNetwork">T1</text>
<text transform="matrix(1 0 0 1 96.8503 607.6768)" class=" st21" data-core-parameter="Monitoring.Pressure.SupplyDirectHeatNetwork" id="Monitoring.Pressure.SupplyDirectHeatNetwork">P1</text>
<text transform="matrix(1 0 0 1 91.45 744.2564)" class=" st21" data-core-parameter="Monitoring.Pressure.ReturnDirectHeatNetwork" id="Monitoring.Pressure.ReturnDirectHeatNetwork">P2</text>
<g id="HeatSysPump1">
	<g>
		<circle class="st10" cx="565.2" cy="711" r="10.8" />
		<circle class="st10" cx="565.2" cy="711" r="3.1" />
		<path class="st17" d="M564.3,708.1c-1.2-3.3,0-6.8,2.7-7.8" />
		<path class="st17" d="M562.3,712c-3.3,1.2-6.8,0-7.8-2.7" />
		<path class="st17" d="M566.2,714c1.2,3.3,0,6.8-2.7,7.8" />
		<path class="st17" d="M568.2,710.1c3.3-1.2,6.8,0,7.8,2.7" />
		<circle class="st22" cx="565.2" cy="711" r="12.9" />
	<animateTransform id="animateHeatSysPump1" attributeType="xml" attributeName="transform" type="rotate" values="0 565.2 711; 360 565.2 711" dur="0s" additive="sum" repeatCount="indefinite" xmlns="" /></g>
	<g>
		<line class="st17" x1="98.4" y1="194.8" x2="98.4" y2="377.8" />
		<line class="st17" x1="106.9" y1="194.8" x2="106.9" y2="377.8" />
		<line class="st17" x1="98.4" y1="377.8" x2="106.9" y2="327.8" />
		<line class="st17" x1="104.5" y1="380.4" x2="106.9" y2="366" />
		<line class="st17" x1="98.4" y1="339.5" x2="106.9" y2="289.9" />
		<line class="st17" x1="98.4" y1="301.6" x2="106.9" y2="251.6" />
		<line class="st17" x1="98.4" y1="263.4" x2="106.9" y2="213.4" />
		<line class="st17" x1="98.4" y1="225.2" x2="103.2" y2="197.4" />
	</g>
</g>
<g id="HeatSysPump2">
	<g>
		<circle class="st10" cx="563.8" cy="780.6" r="10.8" />
		<circle class="st10" cx="563.8" cy="780.6" r="3.1" />
		<path class="st17" d="M562.9,777.7c-1.2-3.3,0-6.8,2.7-7.8" />
		<path class="st17" d="M560.9,781.6c-3.3,1.2-6.8,0-7.8-2.7" />
		<path class="st17" d="M564.8,783.6c1.2,3.3,0,6.8-2.7,7.8" />
		<path class="st17" d="M566.8,779.7c3.3-1.2,6.8,0,7.8,2.7" />
		<circle class="st22" cx="563.8" cy="780.6" r="12.9" />
	<animateTransform id="animateHeatSysPump2" attributeType="xml" attributeName="transform" type="rotate" values="0 563.8 780.6; 360 563.8 780.6" dur="0s" additive="sum" repeatCount="indefinite" xmlns="" /></g>
</g>
<text transform="matrix(1 0 0 1 204.7998 380.7104)" class=" st20" id="Text.State.Yp2Valve">State</text>
<text transform="matrix(1 0 0 1 314.1335 201.3771)" class=" st20" id="Text.State.Yp3Valve">State</text>
<text transform="matrix(1 0 0 1 239.7998 438.377)" class=" st20" id="Text.State.Ypt1Valve">State</text>
<text transform="matrix(1 0 0 1 52.7998 665.0436)" class=" st20" id="Text.State.Yts1Valve">State</text>
<text transform="matrix(1 0 0 1 53.8 799.0436)" class=" st20" id="Text.State.Yts2Valve">State</text>
<text transform="matrix(1 0 0 1 618.4665 242.0438)" class=" st20" id="Text.State.Ypt2Valve">State</text>
</svg>