<svg version="1.1" xmlns="http://www.w3.org/2000/svg" xmlns:xlink="http://www.w3.org/1999/xlink" x="0px" y="0px" viewBox="0 0 1200 700" style="enable-background:new 0 0 1200 700;" xml:space="preserve" width="1200" height="700">
<style type="text/css">
	.st0{fill:none;stroke:#010202;stroke-miterlimit:10;}
	.st1{fill:#010202;stroke:#010202;stroke-miterlimit:10;}
	.st3{font-size:12px;}
	.st4{fill:#1D71B8;stroke:#1D71B8;stroke-width:2.5706;stroke-miterlimit:10;}
	.st5{fill:#1D71B8;stroke:#1D71B8;stroke-width:2.4907;stroke-miterlimit:10;}
	.st6{fill:#BE1622;stroke:#BE1622;stroke-width:2;stroke-miterlimit:10;}
	.st7{fill:none;stroke:#BE1622;stroke-width:2;stroke-miterlimit:10;}
	.st8{fill:#1D71B8;stroke:#1D71B8;stroke-width:2;stroke-miterlimit:10;}
	.st9{fill:#1D71B8;stroke:#BE1622;stroke-width:2;stroke-miterlimit:10;}
	.st10{fill:none;stroke:#1D71B8;stroke-width:2;stroke-miterlimit:10;}
	.st11{fill:#EA5B0C;stroke:#EA5B0C;stroke-width:2;stroke-miterlimit:10;}
	.st12{fill:none;stroke:#EA5B0C;stroke-width:2;stroke-miterlimit:10;}
	.st13{fill:none;stroke:#000000;stroke-miterlimit:10;}
	.st14{fill:#FFFFFF;stroke:#000000;stroke-miterlimit:10;}
	.st15{fill:none;stroke:#1D71B8;stroke-width:2;stroke-miterlimit:10;stroke-dasharray:3.7427,3.7427;}
	.st16{fill:none;stroke:#1D71B8;stroke-width:2;stroke-miterlimit:10;stroke-dasharray:4.9088,4.9088;}
	.st17{font-size:9px;}
	.st18{fill:none;stroke:#1D71B8;stroke-width:2.3645;stroke-miterlimit:10;}
	.st19{fill:none;stroke:#1D71B8;stroke-width:2.0458;stroke-miterlimit:10;}
	.st20{fill:none;stroke:#010202;stroke-width:3;stroke-miterlimit:10;}
	.st22{font-size:10px;}
	.st23{fill:none;stroke:#1D71B8;stroke-width:1.9558;stroke-miterlimit:10;}
	.st24{fill:none;stroke:#000000;stroke-width:1.1958;stroke-miterlimit:10;}
	.st25{fill:#02603A;}
	.st27{fill:none;stroke:#0C0F11;stroke-width:0.5;stroke-miterlimit:10;stroke-dasharray:12;}
	.st28{fill:none;}
	.st29{fill:none;stroke:#1D71B8;stroke-width:1.9852;stroke-miterlimit:10;}
	.st30{fill:none;stroke:#1D1D1B;stroke-linecap:round;stroke-miterlimit:10;}
.mo-fire {
    width: 200px;
    height: auto;
    position: absolute;
    left: 50%;
    margin-left: -100px;
    top: 100px;
}

    .mo-fire svg {
        width: 100%;
        height: auto;
        position: relative
    }

.flame {
    animation-name: flamefly;
    animation-duration: 2s;
    animation-timing-function: linear;
    animation-iteration-count: infinite;
    opacity: 0;
    transform-origin: 50% 50% 0;
}

    .flame.one {
        animation-delay: 1s;
        animation-duration: 3s;
    }

    .flame.two {
        animation-duration: 5s;
        animation-delay: 1s;
    }

.flame-main {
    animation-name: flameWobble;
    animation-duration: 3s;
    animation-timing-function: linear;
    animation-iteration-count: infinite;
}

    .flame-main.one {
        animation-duration: 4s;
        animation-delay: 1s;
    }

    .flame-main.two {
        animation-duration: 3s;
        animation-delay: 2s;
    }

    .flame-main.three {
        animation-duration: 2.1s;
        animation-delay: 3s;
    }

    .flame-main.four {
        animation-duration: 3.2s;
        animation-delay: 4s;
    }

    .flame-main.five {
        animation-duration: 2.5s;
        animation-delay: 5s;
    }

@keyframes flameWobble {
    50% {
        transform: scale(1,1.2) translate(0, -12px) rotate(-2deg);
    }
}

@keyframes flamefly {
    0% {
        transform: translate(0) rotate(180deg);
    }

    50% {
        opacity: 1;
    }

    100% {
        transform: translate(-8px, -40px) rotate(180deg);
        opacity: 0;
    }
}
</style><script>jQuery(Core.Common.Mnemoscheme.Selector).on(Core.Common.EventTypes.MnemoschemeWidgetManager.MnemoschemeLoadComplete,
    function () {
        Core.Common.Mnemoscheme.GetParametersCallback = function (parameters) {
            // проходим по режимам работы горелок котлов
            var boilerBurnerParameterCodeTemplate = "Monitoring.State.BoilerBurner{0}";
            var svgFlameBoilerTemplate = "FlameBoiler{0}";

            for (i = 1; i &lt;= 4; i++) {
                var paramValue = GetDictionaryValueDescriptionByParameterCode(parameters.parameters, boilerBurnerParameterCodeTemplate.format(i));

                if (paramValue !== undefined) {
                    var svgFlameBoilerElement = document.getElementById(svgFlameBoilerTemplate.format(i));

                    if (paramValue === "СТОП") {
                        svgFlameBoilerElement.setAttribute("display", "none");
                    }
                    else if (paramValue === "РАБОТА") {
                        if (svgFlameBoilerElement) {
                            svgFlameBoilerElement.setAttribute("display", "inline");
                        }
                    }
                }
            }

            // проходим по насосам (стоп/работа)
            var pumpStateCodeTemplate = "Monitoring.State.{0}";
            // проходим по статусу наличия аварий на насосах
            var accidentPumpCodeTemplate = "Monitoring.State.Accident{0}";
            var accidentCodeTemplate = "Accident{0}";

            var pumpNames = ["RecirculatingPump1", "RecirculatingPump2", "RecirculatingPump3", "RecirculatingPump4", "SystemPump1", "SystemPump2", "SystemPump3", "MakeupPump1", "MakeupPump2","ThreeWayValve"];

            pumpNames.forEach(function (codeSuffix, indx) {
                var stateParamName = pumpStateCodeTemplate.format(codeSuffix);
                var stateParameterValue = GetDictionaryValueDescriptionByParameterCode(parameters.parameters, stateParamName);

                var durableValue = Number.zero;
                if (stateParameterValue === "РАБОТА") {
                    durableValue = 1;
                }

                var animatedElement = document.getElementById("animate{0}".format(codeSuffix));
                if (animatedElement) {
                    animatedElement.setAttribute("dur", durableValue + "s");
                    animatedElement.beginElement();
                }

                var accidentParamName = accidentPumpCodeTemplate.format(codeSuffix);
                var accidentParameterValue = GetDictionaryValueDescriptionByParameterCode(parameters.parameters, accidentParamName);
                var accidentSignElement = document.getElementById(accidentCodeTemplate.format(codeSuffix));

                if (accidentSignElement) {
                    if (accidentParameterValue === "НОРМА") {
                        accidentSignElement.setAttribute("display", "none");
                    }
                    else if (accidentParameterValue === "АВАРИЯ") {
                        accidentSignElement.setAttribute("display", "inline");
                    }
                }
            }
            );

            // значок охранной сигнализации
            var securityAlarmParameterValue = GetDictionaryValueDescriptionByParameterCode(parameters.parameters, "Monitoring.State.SecurityAlarm");
            var redSecurityAlarmElement = document.getElementById("SecurityAlarmRed");
            var blackSecurityAlarmElement = document.getElementById("SecurityAlarmBlack");

            if (securityAlarmParameterValue === "НОРМА") {
                redSecurityAlarmElement.setAttribute("display", "none");
                blackSecurityAlarmElement.setAttribute("display", "inline");
            }
            else if (securityAlarmParameterValue === "АВАРИЯ") {
                redSecurityAlarmElement.setAttribute("display", "inline");
                blackSecurityAlarmElement.setAttribute("display", "none");
            }

            // значок пожара
            var fireParameterValue = GetDictionaryValueDescriptionByParameterCode(parameters.parameters, "Monitoring.State.Fire");
            var flameOnElement = document.getElementById("FlameRed");
            var flameOffElement = document.getElementById("FlameBlack");

            if (fireParameterValue === "НОРМА") {
                flameOnElement.setAttribute("display", "none");
                flameOffElement.setAttribute("display", "inline");
            }
            else if (fireParameterValue === "АВАРИЯ") {
                flameOnElement.setAttribute("display", "inline");
                flameOffElement.setAttribute("display", "none");
            }

            // значок угарного газа
            var monoxideParameterValue = GetDictionaryValueDescriptionByParameterCode(parameters.parameters, "Monitoring.State.CarbonMonoxide");
            var monoxideOnElement = document.getElementById("MonoxideRed");
            var monoxideOffElement = document.getElementById("MonoxideBlack");

            if (monoxideParameterValue === "НОРМА") {
                monoxideOnElement.setAttribute("display", "none");
                monoxideOffElement.setAttribute("display", "inline");
            }
            else if (monoxideParameterValue === "АВАРИЯ") {
                monoxideOnElement.setAttribute("display", "inline");
                monoxideOffElement.setAttribute("display", "none");
            }

            // значок метана
            var methaneParameterValue = GetDictionaryValueDescriptionByParameterCode(parameters.parameters, "Monitoring.State.Methane");
            var methaneOnElement = document.getElementById("MethaneRed");
            var methaneOffElement = document.getElementById("MethaneBlack");

            if (methaneParameterValue === "НОРМА") {
                methaneOnElement.setAttribute("display", "none");
                methaneOffElement.setAttribute("display", "inline");
            }
            else if (methaneParameterValue === "АВАРИЯ") {
                methaneOnElement.setAttribute("display", "inline");
                methaneOffElement.setAttribute("display", "none");
            }

            // состояние трехходового клапана
            var threeWayValveValue = GetDictionaryValueDescriptionByParameterCode(parameters.parameters, "Monitoring.State.ThreeWayValve");
            
            debugger;
            jQuery("#threeWayValveState").text(threeWayValveValue);
        };
        

        function GetValueByParameterCode(parameters, code) {
            var value = undefined;

            for (var i = Number.zero; i &lt; parameters.length; i++) {
                if (parameters[i].parameterCode === code) {
                    return parameters[i].value;
                }
            }

            return value;
        };

        function GetDictionaryValueDescriptionByParameterCode(parameters, code) {
            var value = undefined;

            for (var i = Number.zero; i &lt; parameters.length; i++) {
                if (parameters[i].parameterCode === code) {
                    return parameters[i].dictionaryValueDescription;
                }
            }

            return value;
        };
    }
);

</script>
<g id="MainLayer">
	<g>
		<line class="st0" x1="1051.5" y1="138" x2="1051.5" y2="157.8" />
		<ellipse class="st1" cx="1051.5" cy="133.7" rx="4.9" ry="4.4" />
	</g>
	<text transform="matrix(1 0 0 1 538.171 170.3288)" class="st2 st3">группа сетевых насосов</text>
	<text transform="matrix(1 0 0 1 289.1712 607.9955)" class="st2 st3">группа насосов подпитки</text>
	<polygon class="st4" points="495.5,549.8 503.7,547.5 495.5,545.2  " />
	<polygon class="st5" points="420.5,549.8 428.2,547.5 420.5,545.2  " />
	<ellipse class="st6" cx="638.6" cy="101.2" rx="1.9" ry="1.9" />
	<line class="st7" x1="616.7" y1="100.7" x2="639.9" y2="100.7" />
	<line class="st7" x1="616.7" y1="144.4" x2="638.9" y2="144.4" />
	<line class="st7" x1="560.7" y1="144.7" x2="590.2" y2="144.7" />
	<line class="st7" x1="562.6" y1="100.2" x2="591.2" y2="100.2" />
	<ellipse class="st8" cx="484.5" cy="262.4" rx="1.9" ry="1.9" />
	<ellipse class="st9" cx="562.1" cy="100.7" rx="1.9" ry="1.9" />
	<ellipse class="st9" cx="638.4" cy="59.2" rx="1.9" ry="1.9" />
	<ellipse class="st6" cx="561.4" cy="57.7" rx="1.9" ry="1.9" />
	<text transform="matrix(1 0 0 1 1132.8381 105.1624)" class="st2 st3">Выход ЦО</text>
	<line class="st7" x1="267" y1="430.4" x2="447.7" y2="430.4" />
	<line class="st7" x1="266.7" y1="180.4" x2="446.2" y2="180.4" />
	<line class="st10" x1="366" y1="94" x2="366" y2="100.3" />
	<line class="st10" x1="266.3" y1="101.5" x2="444.2" y2="101.5" />
	<line class="st7" x1="366.4" y1="67" x2="366.4" y2="59" />
	<line class="st7" x1="266.2" y1="58.4" x2="496.2" y2="58.4" />
	<polygon class="st11" points="12.8,32.9 20.5,31.4 12.8,29.9  " />
	<g transform="translate(52.134,-5.3932)">
		<g>
			<ellipse class="st0" cx="101.7" cy="87.3" rx="12.4" ry="12.6" />
		</g>
		<polyline class="st0" points="107.1,98.6 88.8,87.6 107.1,76   " />
	</g>
	<line class="st12" x1="123.6" y1="31.5" x2="123.6" y2="454" />
	<ellipse class="st11" cx="123.6" cy="81.9" rx="1.9" ry="1.9" />
	<line class="st12" x1="122.5" y1="82.1" x2="141.1" y2="82.1" />
	<g>
		<line class="st13" x1="172.8" y1="98.9" x2="192.5" y2="98.9" />
		<line class="st13" x1="184.8" y1="111.6" x2="192.5" y2="111.6" />
		<path class="st13" d="M185.5,111.6c0,7-5.7,12.7-12.7,12.7" />
		<path class="st13" d="M160.1,111.6c0-7,5.7-12.7,12.7-12.7" />
		<path class="st13" d="M160.1,111.6c0,7,5.7,12.7,12.7,12.7" />
		<circle class="st14" cx="172.8" cy="111.6" r="10.8" />
		<circle class="st14" cx="172.8" cy="111.6" r="3.1" />
		<path class="st13" d="M172.8,108.5c0-3.5,2.3-6.4,5.2-6.4" />
		<path class="st13" d="M172.6,114.5c-0.3,3.5-2.9,6.2-5.8,5.9" />
		<path class="st13" d="M175.9,111.1c3.5,0,6.4,2.3,6.5,5.1" />
		<path class="st13" d="M169.7,111.6c-3.5,0.1-6.5-2.2-6.5-5" />
	</g>
	<rect x="192.5" y="31.9" class="st13" width="73.8" height="92.5" />
	<text transform="matrix(1 0 0 1 197.5891 45.1469)" class="st2 st3">Котел №1</text>
	<g>
		<g transform="translate(52.134,-5.3932)">
			<g>
				<polyline class="st10" points="432.5,560.6 432.5,562.6 430.5,562.6     " />
				<line class="st15" x1="426.8" y1="562.6" x2="383.8" y2="562.6" />
				<polyline class="st10" points="381.9,562.6 379.9,562.6 379.9,560.6     " />
				<line class="st16" x1="379.9" y1="555.7" x2="379.9" y2="548.4" />
				<polyline class="st10" points="379.9,545.9 379.9,543.9 381.9,543.9     " />
				<line class="st15" x1="385.6" y1="543.9" x2="428.7" y2="543.9" />
				<polyline class="st10" points="430.5,543.9 432.5,543.9 432.5,545.9     " />
				<line class="st16" x1="432.5" y1="550.8" x2="432.5" y2="558.2" />
			</g>
		</g>
		<text transform="matrix(1 0 0 1 438.377 550.317)" class="st2 st17">Блок ХВО</text>
	</g>
	<line class="st12" x1="59.2" y1="31.5" x2="21.7" y2="31.5" />
	<line class="st12" x1="124.7" y1="31.5" x2="84" y2="31.5" />
	<g transform="translate(52.134,-5.3932)">
		<g>
			<ellipse class="st0" cx="691.2" cy="162.8" rx="12.4" ry="12.6" />
		</g>
		<polyline class="st0" points="685.8,151.5 704.1,162.5 685.8,174.1   " />
	</g>
	<polygon class="st8" points="1176.9,155.2 1169.2,156.7 1176.9,158.2  " />
	<line class="st10" x1="334.2" y1="548.2" x2="15.4" y2="548.2" />
	<polygon class="st8" points="13.8,549.7 24,548.2 13.8,546.7  " />
	<line class="st10" x1="391.7" y1="547.6" x2="361.7" y2="547.6" />
	<ellipse class="st8" cx="300.5" cy="547.8" rx="1.9" ry="1.9" />
	<ellipse class="st8" cx="393" cy="547.7" rx="1.9" ry="1.9" />
	<line class="st10" x1="300.5" y1="585.5" x2="300.5" y2="548.8" />
	<line class="st10" x1="599.4" y1="547" x2="599.4" y2="263" />
	<line class="st18" x1="393.4" y1="585" x2="393.4" y2="549.4" />
	<line class="st10" x1="334.7" y1="584.6" x2="299.2" y2="584.6" />
	<line class="st10" x1="394.2" y1="584.3" x2="360.7" y2="584.3" />
	<line class="st10" x1="599.8" y1="547.2" x2="486.2" y2="547.2" />
	<line class="st10" x1="426.2" y1="547.2" x2="392.2" y2="547.2" />
	<g>
		<line class="st0" x1="840.5" y1="136" x2="840.5" y2="155.8" />
		<ellipse class="st1" cx="840.5" cy="131.7" rx="4.9" ry="4.4" />
	</g>
	<line class="st10" x1="756.2" y1="157.3" x2="838.6" y2="157.3" />
	<line class="st19" x1="837.2" y1="157.3" x2="1168.3" y2="157.3" />
	<g transform="translate(52.134,-5.3932)">
		<line class="st20" x1="904.5" y1="157" x2="922" y2="157" />
		<line class="st0" x1="913.2" y1="156.5" x2="913.2" y2="137" />
	</g>
	<line class="st7" x1="753.7" y1="58.7" x2="1160.8" y2="58.7" />
	<g transform="translate(52.134,-5.3932)">
		<g>
			<ellipse class="st0" cx="689.9" cy="64" rx="12.4" ry="12.6" />
		</g>
		<polyline class="st0" points="695.3,75.3 677,64.3 695.3,52.7   " />
	</g>
	<polygon class="st6" points="1160.8,60.1 1168.5,58.6 1160.8,57.1  " />
	<g>
		<line class="st0" x1="1053.5" y1="37.7" x2="1053.5" y2="57.5" />
		<ellipse class="st1" cx="1053.5" cy="33.4" rx="4.9" ry="4.4" />
	</g>
	<g transform="translate(52.134,-5.3932)">
		<line class="st20" x1="904.5" y1="59.8" x2="922" y2="59.8" />
		<line class="st0" x1="913.2" y1="59.3" x2="913.2" y2="39.8" />
	</g>
	<text transform="matrix(1 0 0 1 70.6938 39.343)" class="st21 st17">    </text>
	<text transform="matrix(1 0 0 1 19.1938 14.343)" class="st2 st3">от газоснабжающей организации</text>
	<text transform="matrix(1 0 0 1 635.2631 277.7193)" class="st21 st17">    </text>
	<text transform="matrix(1 0 0 1 618.2242 288.5194)" class="st21 st17">   </text>
	<text transform="matrix(1 0 0 1 1129.1715 171.4957)" class="st2 st22">от потребителя</text>
	<line class="st12" x1="166.5" y1="82.1" x2="180.2" y2="82.1" />
	<line class="st12" x1="179.6" y1="81" x2="179.6" y2="98.2" />
	<g transform="translate(52.134,-5.3932)">
		<g>
			<ellipse class="st0" cx="102.2" cy="210.3" rx="12.4" ry="12.6" />
		</g>
		<polyline class="st0" points="107.6,221.6 89.3,210.6 107.6,199   " />
	</g>
	<ellipse class="st11" cx="124.1" cy="204.9" rx="1.9" ry="1.9" />
	<line class="st12" x1="123" y1="205.1" x2="141.6" y2="205.1" />
	<g>
		<line class="st13" x1="173.3" y1="221.9" x2="193" y2="221.9" />
		<line class="st13" x1="185.3" y1="234.6" x2="193" y2="234.6" />
		<path class="st13" d="M186,234.6c0,7-5.7,12.7-12.7,12.7" />
		<path class="st13" d="M160.6,234.6c0-7,5.7-12.7,12.7-12.7" />
		<path class="st13" d="M160.6,234.6c0,7,5.7,12.7,12.7,12.7" />
		<circle class="st14" cx="173.3" cy="234.6" r="10.8" />
		<circle class="st14" cx="173.3" cy="234.6" r="3.1" />
		<path class="st13" d="M173.3,231.5c0-3.5,2.3-6.4,5.2-6.4" />
		<path class="st13" d="M173.1,237.5c-0.3,3.5-2.9,6.2-5.8,5.9" />
		<path class="st13" d="M176.4,234.1c3.5,0,6.4,2.3,6.5,5.1" />
		<path class="st13" d="M170.2,234.6c-3.5,0.1-6.5-2.2-6.5-5" />
	</g>
	<rect x="193" y="154.9" class="st13" width="73.8" height="92.5" />
	<text transform="matrix(1 0 0 1 198.0891 168.1469)" class="st2 st3">Котел №2</text>
	<line class="st12" x1="167" y1="205.1" x2="180.7" y2="205.1" />
	<line class="st12" x1="180.1" y1="204" x2="180.1" y2="221.2" />
	<g transform="translate(52.134,-5.3932)">
		<g>
			<ellipse class="st0" cx="102.7" cy="334.8" rx="12.4" ry="12.6" />
		</g>
		<polyline class="st0" points="108.1,346.1 89.8,335.1 108.1,323.5   " />
	</g>
	<g>
		<line class="st13" x1="173.8" y1="346.4" x2="193.5" y2="346.4" />
		<line class="st13" x1="185.8" y1="359.1" x2="193.5" y2="359.1" />
		<path class="st13" d="M186.5,359.1c0,7-5.7,12.7-12.7,12.7" />
		<path class="st13" d="M161.1,359.1c0-7,5.7-12.7,12.7-12.7" />
		<path class="st13" d="M161.1,359.1c0,7,5.7,12.7,12.7,12.7" />
		<circle class="st14" cx="173.8" cy="359.1" r="10.8" />
		<circle class="st14" cx="173.8" cy="359.1" r="3.1" />
		<path class="st13" d="M173.8,356c0-3.5,2.3-6.4,5.2-6.4" />
		<path class="st13" d="M173.6,362c-0.3,3.5-2.9,6.2-5.8,5.9" />
		<path class="st13" d="M176.9,358.6c3.5,0,6.4,2.3,6.5,5.1" />
		<path class="st13" d="M170.7,359.1c-3.5,0.1-6.5-2.2-6.5-5" />
	</g>
	<rect x="193.5" y="279.4" class="st13" width="73.8" height="92.5" />
	<text transform="matrix(1 0 0 1 198.5891 292.6469)" class="st2 st3">Котел №3</text>
	<line class="st12" x1="167.5" y1="329.6" x2="181.2" y2="329.6" />
	<line class="st12" x1="180.6" y1="328.5" x2="180.6" y2="345.7" />
	<g transform="translate(52.134,-5.3932)">
		<g>
			<ellipse class="st0" cx="102.2" cy="458.3" rx="12.4" ry="12.6" />
		</g>
		<polyline class="st0" points="107.6,469.6 89.3,458.6 107.6,447   " />
	</g>
	<g>
		<line class="st13" x1="173.3" y1="469.9" x2="193" y2="469.9" />
		<line class="st13" x1="185.3" y1="482.6" x2="193" y2="482.6" />
		<path class="st13" d="M186,482.6c0,7-5.7,12.7-12.7,12.7" />
		<path class="st13" d="M160.6,482.6c0-7,5.7-12.7,12.7-12.7" />
		<path class="st13" d="M160.6,482.6c0,7,5.7,12.7,12.7,12.7" />
		<circle class="st14" cx="173.3" cy="482.6" r="10.8" />
		<circle class="st14" cx="173.3" cy="482.6" r="3.1" />
		<path class="st13" d="M173.3,479.5c0-3.5,2.3-6.4,5.2-6.4" />
		<path class="st13" d="M173.1,485.5c-0.3,3.5-2.9,6.2-5.8,5.9" />
		<path class="st13" d="M176.4,482.1c3.5,0,6.4,2.3,6.5,5.1" />
		<path class="st13" d="M170.2,482.6c-3.5,0.1-6.5-2.2-6.5-5" />
	</g>
	<rect x="193" y="402.9" class="st13" width="73.8" height="92.5" />
	<text transform="matrix(1 0 0 1 198.0891 416.1469)" class="st2 st3">Котел №4</text>
	<line class="st12" x1="167.2" y1="453.1" x2="180.7" y2="453.1" />
	<line class="st12" x1="180.1" y1="452" x2="180.1" y2="469.5" />
	<line class="st12" x1="123.5" y1="330.1" x2="142.1" y2="330.1" />
	<line class="st12" x1="123" y1="453.1" x2="141.6" y2="453.1" />
	<ellipse class="st11" cx="124.1" cy="329.6" rx="1.9" ry="1.9" />
	<ellipse class="st6" cx="366.1" cy="58.8" rx="1.9" ry="1.9" />
	<ellipse class="st8" cx="366" cy="100.9" rx="1.9" ry="1.9" />
	<line class="st10" x1="366.5" y1="215.5" x2="366.5" y2="222.3" />
	<line class="st10" x1="266.8" y1="223.5" x2="444.2" y2="223.5" />
	<line class="st7" x1="366.9" y1="189.4" x2="366.9" y2="181.1" />
	<ellipse class="st6" cx="366.6" cy="180.8" rx="1.9" ry="1.9" />
	<ellipse class="st8" cx="366.5" cy="222.9" rx="1.9" ry="1.9" />
	<line class="st7" x1="447.2" y1="430" x2="447.2" y2="58.3" />
	<line class="st7" x1="638.8" y1="58" x2="638.8" y2="145.5" />
	<line class="st7" x1="561.8" y1="59.3" x2="561.8" y2="144.5" />
	<line class="st10" x1="484.3" y1="101.3" x2="484.3" y2="474.7" />
	<ellipse class="st6" cx="446.9" cy="58.1" rx="1.9" ry="1.9" />
	<g>
		<path class="st23" d="M446.6,220.7c2,0,3.6,1.6,3.6,3.6" />
		<path class="st23" d="M446.6,220.7c-2,0-3.6,1.6-3.6,3.6" />
	</g>
	<line class="st10" x1="450.3" y1="223.2" x2="484.7" y2="223.2" />
	<g>
		<path class="st23" d="M447.3,98c2,0,3.6,1.6,3.6,3.6" />
		<path class="st23" d="M447.3,98c-2,0-3.6,1.6-3.6,3.6" />
	</g>
	<ellipse class="st6" cx="447.3" cy="181.3" rx="1.9" ry="1.9" />
	<line class="st7" x1="267.7" y1="307.7" x2="446.7" y2="307.7" />
	<line class="st10" x1="367.5" y1="343" x2="367.5" y2="349.7" />
	<line class="st10" x1="267.8" y1="350.8" x2="443.7" y2="350.8" />
	<line class="st7" x1="367.9" y1="316.5" x2="367.9" y2="308.3" />
	<ellipse class="st6" cx="367.6" cy="308.1" rx="1.9" ry="1.9" />
	<ellipse class="st8" cx="367.5" cy="350.3" rx="1.9" ry="1.9" />
	<ellipse class="st6" cx="446.7" cy="306.9" rx="1.9" ry="1.9" />
	<g>
		<path class="st23" d="M446.7,347.5c2,0,3.6,1.6,3.6,3.6" />
		<path class="st23" d="M446.7,347.5c-2,0-3.6,1.6-3.6,3.6" />
	</g>
	<line class="st10" x1="366.8" y1="464.5" x2="366.8" y2="472.3" />
	<line class="st10" x1="267.1" y1="473.5" x2="483.7" y2="473.5" />
	<line class="st7" x1="367.2" y1="439" x2="367.2" y2="431" />
	<ellipse class="st6" cx="366.9" cy="430.8" rx="1.9" ry="1.9" />
	<ellipse class="st8" cx="366.9" cy="472.9" rx="1.9" ry="1.9" />
	<ellipse class="st8" cx="484.5" cy="222.9" rx="1.9" ry="1.9" />
	<line class="st10" x1="450" y1="350.9" x2="484.3" y2="350.9" />
	<ellipse class="st8" cx="484.2" cy="350.9" rx="1.9" ry="1.9" />
	<text transform="matrix(1 0 0 1 1130.8381 75.1623)" class="st2 st22">к потребителю</text>
	<rect x="754.7" y="445.5" class="st24" width="233" height="98.5" />
	<text transform="matrix(1 0 0 1 767.1712 511.9955)" class="st2 st3">охрана</text>
	<text transform="matrix(1 0 0 1 827.1712 512.4955)" class="st2 st3">пожар</text>
	<text transform="matrix(1 0 0 1 870.5999 512.9955)" class="st2 st3">угарный газ</text>
	<text transform="matrix(1 0 0 1 944.6712 512.9955)" class="st2 st3">метан</text>
	<text transform="matrix(1 0 0 1 580 45.9955)" class="st25 st26 st3">1</text>
	<text transform="matrix(1 0 0 1 580 86.9955)" class="st25 st26 st3">2</text>
	<text transform="matrix(1 0 0 1 580 130.4955)" class="st25 st26 st3">3</text>
	<text transform="matrix(1 0 0 1 327 532.4955)" class="st25 st26 st3">1</text>
	<text transform="matrix(1 0 0 1 327.5 574.4955)" class="st25 st26 st3">2</text>
	<g>
		<line class="st0" x1="839.5" y1="37.7" x2="839.5" y2="57.5" />
		<ellipse class="st1" cx="839.5" cy="33.4" rx="4.9" ry="4.4" />
	</g>
	<line class="st10" x1="680.6" y1="157.4" x2="731.2" y2="157.4" />
	<line class="st27" x1="702.7" y1="9" x2="702.7" y2="204" />
	<line class="st28" x1="943.6" y1="7" x2="1116.5" y2="7.5" />
	<line class="st27" x1="943.2" y1="8.5" x2="1120" y2="8.6" />
	<line class="st27" x1="940.2" y1="207.5" x2="1117" y2="207.6" />
	<line class="st27" x1="703.9" y1="208.5" x2="906.9" y2="208.5" />
	<line class="st27" x1="701.8" y1="9.1" x2="907.8" y2="7.6" />
	<line class="st27" x1="908.2" y1="13" x2="908.2" y2="203.5" />
	<line class="st27" x1="938.2" y1="8" x2="938.2" y2="198.5" />
	<line class="st27" x1="1120.4" y1="8.8" x2="1120.4" y2="199.3" />
	<text transform="matrix(1 0 0 1 967.9712 181.3957)"><tspan x="0" y="0" class="st2 st22">секция измерения параметров</tspan><tspan x="0" y="12" class="st2 st22">контроллерами Modicon 221</tspan></text>
	<text transform="matrix(1 0 0 1 755.1716 181.9956)"><tspan x="0" y="0" class="st2 st22">секция измерения параметров</tspan><tspan x="0" y="12" class="st2 st22">теплосчетчиком Взлет-26М</tspan></text>
	<g>
		<g>
			<line class="st7" x1="497.4" y1="51.8" x2="497.4" y2="63.8" />
			<line class="st7" x1="496.6" y1="52.2" x2="511" y2="57.4" />
			<line class="st7" x1="497.8" y1="62.6" x2="511.8" y2="57.4" />
		</g>
		<g>
			<line class="st7" x1="525.8" y1="63.4" x2="525.8" y2="51.4" />
			<line class="st7" x1="526.6" y1="63" x2="512.2" y2="57.8" />
			<line class="st7" x1="525.4" y1="52.6" x2="511.4" y2="57.8" />
		</g>
	</g>
	<line class="st7" x1="527" y1="57.6" x2="589.8" y2="57.6" />
	<line class="st7" x1="617.2" y1="58.4" x2="729" y2="58.4" />
	<line class="st29" x1="680.9" y1="156.6" x2="680.9" y2="263.4" />
	<line class="st10" x1="450.8" y1="101.6" x2="485" y2="101.6" />
	<line class="st10" x1="484.2" y1="263.3" x2="681" y2="263.3" />
	<ellipse class="st8" cx="599.5" cy="263.4" rx="1.9" ry="1.9" />
	<line class="st10" x1="511.3" y1="59.4" x2="511.3" y2="264.4" />
	<ellipse class="st8" cx="511.5" cy="262.4" rx="1.9" ry="1.9" />
	<polygon class="st8" points="512.5,70.5 511,62.8 509.5,70.5  " />
	<text transform="matrix(1 0 0 1 721.1712 308.9955)" class="st2 st3">Температура наружного воздуха</text>
	<g transform="translate(52.134,-5.3932)">
		<g>
			<ellipse class="st0" cx="19.8" cy="37.3" rx="12.4" ry="12.6" />
		</g>
		<polyline class="st0" points="25.2,48.7 6.9,37.6 25.2,26   " />
	</g>
</g>
<text transform="matrix(1 0 0 1 45.51 59.2081)" class="st2 st3" data-core-parameter="Gas.VolumeFlow.Standard" id="Gas.VolumeFlow.Standard">GasFlow</text>
<text transform="matrix(1 0 0 1 767.1712 332.9955)" class="st2 st3" data-core-parameter="Monitoring.Temper.OutdoorAir" id="Monitoring.Temper.OutdoorAir">OutdoorAir</text>
<text transform="matrix(1 0 0 1 1064.171 137.1465)" class="st2 st3" data-core-parameter="Monitoring.Temperature.Return" id="Monitoring.Temperature.Return">T2</text>
<text transform="matrix(1 0 0 1 1066.1711 36.1465)" class="st2 st3" data-core-parameter="Monitoring.Temperature.Supply" id="Monitoring.Temperature.Supply">T1</text>
<g id="PressureMakeup">
</g>
<g id="PressureSystem">
</g>



<g id="MakeupPump1">
	<g>
		<circle class="st14" cx="348.3" cy="546.5" r="10.8" />
		<circle class="st14" cx="348.3" cy="546.5" r="3.1" />
		<path class="st13" d="M347.4,543.6c-1.2-3.3,0-6.8,2.7-7.8" />
		<path class="st13" d="M345.4,547.5c-3.3,1.2-6.8,0-7.8-2.7" />
		<path class="st13" d="M349.3,549.5c1.2,3.3,0,6.8-2.7,7.8" />
		<path class="st13" d="M351.3,545.6c3.3-1.2,6.8,0,7.8,2.7" />
		<circle class="st30" cx="348.3" cy="546.5" r="12.9" />
	<animateTransform id="animateMakeupPump1" attributeType="xml" attributeName="transform" type="rotate" values="0 348.3 546.5; 360 348.3 546.5" dur="0s" additive="sum" repeatCount="indefinite" /></g>
</g>
<g id="MakeupPump2">
	<g>
		<circle class="st14" cx="348.3" cy="585.2" r="10.8" />
		<circle class="st14" cx="348.3" cy="585.2" r="3.1" />
		<path class="st13" d="M347.4,582.3c-1.2-3.3,0-6.8,2.7-7.8" />
		<path class="st13" d="M345.4,586.2c-3.3,1.2-6.8,0-7.8-2.7" />
		<path class="st13" d="M349.3,588.2c1.2,3.3,0,6.8-2.7,7.8" />
		<path class="st13" d="M351.3,584.3c3.3-1.2,6.8,0,7.8,2.7" />
		<circle class="st30" cx="348.3" cy="585.2" r="12.9" />
	<animateTransform id="animateMakeupPump2" attributeType="xml" attributeName="transform" type="rotate" values="0 348.3 585.2; 360 348.3 585.2" dur="0s" additive="sum" repeatCount="indefinite" /></g>
</g>
<g id="RecirculatingPump1">
	<g>
		<circle class="st14" cx="365.8" cy="80.7" r="10.8" />
		<circle class="st14" cx="365.8" cy="80.7" r="3.1" />
		<path class="st13" d="M364.9,77.8c-1.2-3.3,0-6.8,2.7-7.8" />
		<path class="st13" d="M362.9,81.7c-3.3,1.2-6.8,0-7.8-2.7" />
		<path class="st13" d="M366.8,83.7c1.2,3.3,0,6.8-2.7,7.8" />
		<path class="st13" d="M368.8,79.8c3.3-1.2,6.8,0,7.8,2.7" />
		<circle class="st30" cx="365.8" cy="80.7" r="12.9" />
	<animateTransform id="animateRecirculatingPump1" attributeType="xml" attributeName="transform" type="rotate" values="0 365.8 80.7; 360 365.8 80.7" dur="0s" additive="sum" repeatCount="indefinite" /></g>
</g>
<g id="RecirculatingPump4">
	<g>
		<circle class="st14" cx="367.2" cy="450.9" r="10.8" />
		<circle class="st14" cx="367.2" cy="450.9" r="3.1" />
		<path class="st13" d="M366.3,448c-1.2-3.3,0-6.8,2.7-7.8" />
		<path class="st13" d="M364.3,451.9c-3.3,1.2-6.8,0-7.8-2.7" />
		<path class="st13" d="M368.2,453.9c1.2,3.3,0,6.8-2.7,7.8" />
		<path class="st13" d="M370.2,450c3.3-1.2,6.8,0,7.8,2.7" />
		<circle class="st30" cx="367.2" cy="450.9" r="12.9" />
	<animateTransform id="animateRecirculatingPump4" attributeType="xml" attributeName="transform" type="rotate" values="0 367.2 450.9; 360 367.2 450.9" dur="0s" additive="sum" repeatCount="indefinite" /></g>
</g>
<g id="RecirculatingPump3">
	<g>
		<circle class="st14" cx="368.3" cy="329.7" r="10.8" />
		<circle class="st14" cx="368.3" cy="329.7" r="3.1" />
		<path class="st13" d="M367.4,326.8c-1.2-3.3,0-6.8,2.7-7.8" />
		<path class="st13" d="M365.4,330.7c-3.3,1.2-6.8,0-7.8-2.7" />
		<path class="st13" d="M369.3,332.7c1.2,3.3,0,6.8-2.7,7.8" />
		<path class="st13" d="M371.3,328.8c3.3-1.2,6.8,0,7.8,2.7" />
		<circle class="st30" cx="368.3" cy="329.7" r="12.9" />
	<animateTransform id="animateRecirculatingPump3" attributeType="xml" attributeName="transform" type="rotate" values="0 368.3 329.7; 360 368.3 329.7" dur="0s" additive="sum" repeatCount="indefinite" /></g>
</g>
<g id="RecirculatingPump2">
	<g>
		<circle class="st14" cx="366.8" cy="202.7" r="10.8" />
		<circle class="st14" cx="366.8" cy="202.7" r="3.1" />
		<path class="st13" d="M365.9,199.8c-1.2-3.3,0-6.8,2.7-7.8" />
		<path class="st13" d="M363.9,203.7c-3.3,1.2-6.8,0-7.8-2.7" />
		<path class="st13" d="M367.8,205.7c1.2,3.3,0,6.8-2.7,7.8" />
		<path class="st13" d="M369.8,201.8c3.3-1.2,6.8,0,7.8,2.7" />
		<circle class="st30" cx="366.8" cy="202.7" r="12.9" />
	<animateTransform id="animateRecirculatingPump2" attributeType="xml" attributeName="transform" type="rotate" values="0 366.8 202.7; 360 366.8 202.7" dur="0s" additive="sum" repeatCount="indefinite" /></g>
</g>
<g id="SystemPump3">
	<g>
		<circle class="st14" cx="603.3" cy="143.7" r="10.8" />
		<circle class="st14" cx="603.3" cy="143.7" r="3.1" />
		<path class="st13" d="M602.4,140.8c-1.2-3.3,0-6.8,2.7-7.8" />
		<path class="st13" d="M600.4,144.7c-3.3,1.2-6.8,0-7.8-2.7" />
		<path class="st13" d="M604.3,146.7c1.2,3.3,0,6.8-2.7,7.8" />
		<path class="st13" d="M606.3,142.8c3.3-1.2,6.8,0,7.8,2.7" />
		<circle class="st30" cx="603.3" cy="143.7" r="12.9" />
	<animateTransform id="animateSystemPump3" attributeType="xml" attributeName="transform" type="rotate" values="0 603.3 143.7; 360 603.3 143.7" dur="0s" additive="sum" repeatCount="indefinite" /></g>
</g>
<g id="SystemPump2">
	<g>
		<circle class="st14" cx="603.3" cy="100.7" r="10.8" />
		<circle class="st14" cx="603.3" cy="100.7" r="3.1" />
		<path class="st13" d="M602.4,97.8c-1.2-3.3,0-6.8,2.7-7.8" />
		<path class="st13" d="M600.4,101.7c-3.3,1.2-6.8,0-7.8-2.7" />
		<path class="st13" d="M604.3,103.7c1.2,3.3,0,6.8-2.7,7.8" />
		<path class="st13" d="M606.3,99.8c3.3-1.2,6.8,0,7.8,2.7" />
		<circle class="st30" cx="603.3" cy="100.7" r="12.9" />
	<animateTransform id="animateSystemPump2" attributeType="xml" attributeName="transform" type="rotate" values="0 603.3 100.7; 360 603.3 100.7" dur="0s" additive="sum" repeatCount="indefinite" /></g>
</g>
<g id="SystemPump1">
	<g>
		<circle class="st14" cx="603.1" cy="58" r="10.8" />
		<circle class="st14" cx="603.1" cy="58" r="3.1" />
		<path class="st13" d="M602.2,55.1c-1.2-3.3,0-6.8,2.7-7.8" />
		<path class="st13" d="M600.2,59c-3.3,1.2-6.8,0-7.8-2.7" />
		<path class="st13" d="M604.1,61c1.2,3.3,0,6.8-2.7,7.8" />
		<path class="st13" d="M606.1,57.1c3.3-1.2,6.8,0,7.8,2.7" />
		<circle class="st30" cx="603.1" cy="58" r="12.9" />
	<animateTransform id="animateSystemPump1" attributeType="xml" attributeName="transform" type="rotate" values="0 603.1 58; 360 603.1 58" dur="0s" additive="sum" repeatCount="indefinite" /></g>
</g>
<g id="DeflatingDieselFuelPump">
</g>
<g id="Monitoring.Pressure.Makeup">
</g>
<text transform="matrix(1 0 0 1 973.3378 36.1467)" class="st2 st3" data-core-parameter="Monitoring.Pressure.Supply" id="Monitoring.Pressure.Supply">P1</text>
<text transform="matrix(1 0 0 1 978.3378 137.1465)" class="st2 st3" data-core-parameter="Monitoring.Pressure.Return" id="Monitoring.Pressure.Return">P2</text>
<text transform="matrix(1 0 0 1 733.6712 36.1465)" class="st2 st3" data-core-parameter="HeatSys.VolumeFlow.SupplyPipe" id="HeatSys.VolumeFlow.SupplyPipe">G1</text>
<text transform="matrix(1 0 0 1 733.6712 135.1622)" class="st2 st3" data-core-parameter="HeatSys.VolumeFlow.ReturnPipe" id="HeatSys.VolumeFlow.ReturnPipe">G2</text>
<text transform="matrix(1 0 0 1 853.504 137.1467)" class="st2 st3" data-core-parameter="HeatSys.Temper.ReturnPipe" id="HeatSys.Temper.ReturnPipe">T2</text>
<text transform="matrix(1 0 0 1 852.5042 36.1465)" class="st2 st3" data-core-parameter="HeatSys.Temper.SupplyPipe" id="HeatSys.Temper.SupplyPipe">T1</text>







<g id="ThreeWayValve">
	<text transform="matrix(1 0 0 1 487.9711 41.3957)" class="st2 st3" id="threeWayValveState">TWV</text>
</g>








<svg x="198.1712" y="285.9955" display="none" width="50px" height="75.95px" viewBox="0 0 50 75.95" enable-background="new 0 0 50 75.95" xml:space="preserve" id="FlameBoiler3">
<path class="flame-main" fill="#F32230" d="M30.6212,74.436c0,0-4.0712-1.1904-6.13-3.2904s-3.7112-6.728-3.7112-6.728s-0.0964-2.6588-1.6544-7.386c0,0,1.3428,1.9876,2.0412,3.9752c0,0-2.122-8.4344,0.6848-12.1672c2.8068-3.7332,0.2284-14.2616-0.9-15.0136c0,0,5.228,2.256,7.95,19.016   c2.7224,16.7596,6.7324,18.1204,2.4352,21.594" />
    <path class="flame-main one" fill="#D7434D" d="M24.6772,48.9028c1.6468-6.16,4.8388-5.7948-4.6356-24.3488c0,0,12.8064,4.0892,21.0404,25.2492   c8.234,21.1596-7.9392,24.418-7.8572,24.6328c0.0824,0.2148-7.7604-0.1076-5.934-7.4128S23.0304,55.0624,24.6772,48.9028z" />
    <path class="flame-main two" fill="#FF2231" d="M32.6628,31.6768c0,0,4.6196,9.938,1.4504,16.008c-3.1696,6.07-8.4504,16.7596-0.17,25.9992  C33.9432,73.684,50.282,60.363,32.6628,31.6768z" />
<path class="flame-main three" fill="#B50713" d="M39.968,40.7016c0,0-9.2832,18.8108-4.8172,32.0288c0,0,13.0964-6.4292,8.0432-18.316  C38.1416,42.5276,39.968,45.6432,39.968,40.7016z" />
<path class="flame-main four" fill="#940912" d="M41.2572,42.3668c0,0,3.5708,12.3012-0.4172,18.7472c-3.9876,6.446-5.9196,11.6164-5.9196,11.6164  S53.7548,65.8412,41.2572,42.3668z" />  
    <path class="flame-main five" fill="#D13842" d="M24.8196,41.6684c0,0-6.258,27.0352,4.2116,31.062C39.5012,76.7576,27.6132,52.3044,24.8196,41.6684z" />
<path class="flame" fill="#F36E21" d="M40.4044,45.1704c0,0,3.5892,4.2076,1.8224,6.6172C39.748,51.894,42.7008,46.9624,40.4044,45.1704z" />    
<path class="flame one" fill="#F36E21" d="M22.2368,50.7416c0,0-1.5276,5.316,1.0796,6.778C25.6152,56.592,22.3628,52.9052,22.2368,50.7416z" />    
<path class="flame two" fill="#F36E21" d="M21.9672,41.838c0,0-1.5836,2.4436-0.496,3.5796C22.772,45.4104,20.8912,42.9316,21.9672,41.838z" />
</svg><svg x="197.1712" y="408.9955" display="none" width="50px" height="75.95px" viewBox="0 0 50 75.95" enable-background="new 0 0 50 75.95" xml:space="preserve" id="FlameBoiler4">
<path class="flame-main" fill="#F32230" d="M30.6212,74.436c0,0-4.0712-1.1904-6.13-3.2904s-3.7112-6.728-3.7112-6.728s-0.0964-2.6588-1.6544-7.386c0,0,1.3428,1.9876,2.0412,3.9752c0,0-2.122-8.4344,0.6848-12.1672c2.8068-3.7332,0.2284-14.2616-0.9-15.0136c0,0,5.228,2.256,7.95,19.016   c2.7224,16.7596,6.7324,18.1204,2.4352,21.594" />
    <path class="flame-main one" fill="#D7434D" d="M24.6772,48.9028c1.6468-6.16,4.8388-5.7948-4.6356-24.3488c0,0,12.8064,4.0892,21.0404,25.2492   c8.234,21.1596-7.9392,24.418-7.8572,24.6328c0.0824,0.2148-7.7604-0.1076-5.934-7.4128S23.0304,55.0624,24.6772,48.9028z" />
    <path class="flame-main two" fill="#FF2231" d="M32.6628,31.6768c0,0,4.6196,9.938,1.4504,16.008c-3.1696,6.07-8.4504,16.7596-0.17,25.9992  C33.9432,73.684,50.282,60.363,32.6628,31.6768z" />
<path class="flame-main three" fill="#B50713" d="M39.968,40.7016c0,0-9.2832,18.8108-4.8172,32.0288c0,0,13.0964-6.4292,8.0432-18.316  C38.1416,42.5276,39.968,45.6432,39.968,40.7016z" />
<path class="flame-main four" fill="#940912" d="M41.2572,42.3668c0,0,3.5708,12.3012-0.4172,18.7472c-3.9876,6.446-5.9196,11.6164-5.9196,11.6164  S53.7548,65.8412,41.2572,42.3668z" />  
    <path class="flame-main five" fill="#D13842" d="M24.8196,41.6684c0,0-6.258,27.0352,4.2116,31.062C39.5012,76.7576,27.6132,52.3044,24.8196,41.6684z" />
<path class="flame" fill="#F36E21" d="M40.4044,45.1704c0,0,3.5892,4.2076,1.8224,6.6172C39.748,51.894,42.7008,46.9624,40.4044,45.1704z" />    
<path class="flame one" fill="#F36E21" d="M22.2368,50.7416c0,0-1.5276,5.316,1.0796,6.778C25.6152,56.592,22.3628,52.9052,22.2368,50.7416z" />    
<path class="flame two" fill="#F36E21" d="M21.9672,41.838c0,0-1.5836,2.4436-0.496,3.5796C22.772,45.4104,20.8912,42.9316,21.9672,41.838z" />
</svg><svg x="196.1712" y="38.9955" display="none" width="50px" height="75.95px" viewBox="0 0 50 75.95" enable-background="new 0 0 50 75.95" xml:space="preserve" id="FlameBoiler1">
<path class="flame-main" fill="#F32230" d="M30.6212,74.436c0,0-4.0712-1.1904-6.13-3.2904s-3.7112-6.728-3.7112-6.728s-0.0964-2.6588-1.6544-7.386c0,0,1.3428,1.9876,2.0412,3.9752c0,0-2.122-8.4344,0.6848-12.1672c2.8068-3.7332,0.2284-14.2616-0.9-15.0136c0,0,5.228,2.256,7.95,19.016   c2.7224,16.7596,6.7324,18.1204,2.4352,21.594" />
    <path class="flame-main one" fill="#D7434D" d="M24.6772,48.9028c1.6468-6.16,4.8388-5.7948-4.6356-24.3488c0,0,12.8064,4.0892,21.0404,25.2492   c8.234,21.1596-7.9392,24.418-7.8572,24.6328c0.0824,0.2148-7.7604-0.1076-5.934-7.4128S23.0304,55.0624,24.6772,48.9028z" />
    <path class="flame-main two" fill="#FF2231" d="M32.6628,31.6768c0,0,4.6196,9.938,1.4504,16.008c-3.1696,6.07-8.4504,16.7596-0.17,25.9992  C33.9432,73.684,50.282,60.363,32.6628,31.6768z" />
<path class="flame-main three" fill="#B50713" d="M39.968,40.7016c0,0-9.2832,18.8108-4.8172,32.0288c0,0,13.0964-6.4292,8.0432-18.316  C38.1416,42.5276,39.968,45.6432,39.968,40.7016z" />
<path class="flame-main four" fill="#940912" d="M41.2572,42.3668c0,0,3.5708,12.3012-0.4172,18.7472c-3.9876,6.446-5.9196,11.6164-5.9196,11.6164  S53.7548,65.8412,41.2572,42.3668z" />  
    <path class="flame-main five" fill="#D13842" d="M24.8196,41.6684c0,0-6.258,27.0352,4.2116,31.062C39.5012,76.7576,27.6132,52.3044,24.8196,41.6684z" />
<path class="flame" fill="#F36E21" d="M40.4044,45.1704c0,0,3.5892,4.2076,1.8224,6.6172C39.748,51.894,42.7008,46.9624,40.4044,45.1704z" />    
<path class="flame one" fill="#F36E21" d="M22.2368,50.7416c0,0-1.5276,5.316,1.0796,6.778C25.6152,56.592,22.3628,52.9052,22.2368,50.7416z" />    
<path class="flame two" fill="#F36E21" d="M21.9672,41.838c0,0-1.5836,2.4436-0.496,3.5796C22.772,45.4104,20.8912,42.9316,21.9672,41.838z" />
</svg><svg x="197.1712" y="161.9955" display="none" width="50px" height="75.95px" viewBox="0 0 50 75.95" enable-background="new 0 0 50 75.95" xml:space="preserve" id="FlameBoiler2">
<path class="flame-main" fill="#F32230" d="M30.6212,74.436c0,0-4.0712-1.1904-6.13-3.2904s-3.7112-6.728-3.7112-6.728s-0.0964-2.6588-1.6544-7.386c0,0,1.3428,1.9876,2.0412,3.9752c0,0-2.122-8.4344,0.6848-12.1672c2.8068-3.7332,0.2284-14.2616-0.9-15.0136c0,0,5.228,2.256,7.95,19.016   c2.7224,16.7596,6.7324,18.1204,2.4352,21.594" />
    <path class="flame-main one" fill="#D7434D" d="M24.6772,48.9028c1.6468-6.16,4.8388-5.7948-4.6356-24.3488c0,0,12.8064,4.0892,21.0404,25.2492   c8.234,21.1596-7.9392,24.418-7.8572,24.6328c0.0824,0.2148-7.7604-0.1076-5.934-7.4128S23.0304,55.0624,24.6772,48.9028z" />
    <path class="flame-main two" fill="#FF2231" d="M32.6628,31.6768c0,0,4.6196,9.938,1.4504,16.008c-3.1696,6.07-8.4504,16.7596-0.17,25.9992  C33.9432,73.684,50.282,60.363,32.6628,31.6768z" />
<path class="flame-main three" fill="#B50713" d="M39.968,40.7016c0,0-9.2832,18.8108-4.8172,32.0288c0,0,13.0964-6.4292,8.0432-18.316  C38.1416,42.5276,39.968,45.6432,39.968,40.7016z" />
<path class="flame-main four" fill="#940912" d="M41.2572,42.3668c0,0,3.5708,12.3012-0.4172,18.7472c-3.9876,6.446-5.9196,11.6164-5.9196,11.6164  S53.7548,65.8412,41.2572,42.3668z" />  
    <path class="flame-main five" fill="#D13842" d="M24.8196,41.6684c0,0-6.258,27.0352,4.2116,31.062C39.5012,76.7576,27.6132,52.3044,24.8196,41.6684z" />
<path class="flame" fill="#F36E21" d="M40.4044,45.1704c0,0,3.5892,4.2076,1.8224,6.6172C39.748,51.894,42.7008,46.9624,40.4044,45.1704z" />    
<path class="flame one" fill="#F36E21" d="M22.2368,50.7416c0,0-1.5276,5.316,1.0796,6.778C25.6152,56.592,22.3628,52.9052,22.2368,50.7416z" />    
<path class="flame two" fill="#F36E21" d="M21.9672,41.838c0,0-1.5836,2.4436-0.496,3.5796C22.772,45.4104,20.8912,42.9316,21.9672,41.838z" />
</svg><svg x="617.1712" y="30.4955" viewBox="0 0 10 10" style="enable-background:new 0 0 10 10;" xml:space="preserve" width="10px" height="10px" id="AccidentSystemPump1">
<g>
  <g>
    <path d="M9.982793,1.508809 c-0.015742-0.109863-0.092129-0.201426-0.197402-0.236602 c-0.104707-0.035469-0.221152-0.007734-0.299844,0.070664    l-0.414277,0.41457     c-0.2214,0.2214-0.6074,0.2214-0.8288,0 c-0.2291-0.2291-0.2290-0.5996,0-0.8286     l0.4143-0.4143     c0.0784-0.0784,0.1059-0.1946,0.0707-0.2998 c-0.0352-0.1053-0.1267-0.1817-0.2366-0.1974 c-0.5467-0.0772-1.1001,0.1064-1.4912,0.4970    c-0.4423,0.4423-0.6168,1.0932-0.4552,1.6983  l-4.3316,4.3315 l-0.0003-0.0003 c-0.6028-0.1599-1.2571,0.0146-1.6980,0.4555     C0.1259,7.3878-0.0600,7.9454,0.0172,8.4907 c0.0157,0.1099,0.0921,0.2014,0.1974,0.2366 c0.1044,0.0352,0.2212,0.0077,0.2998-0.0707  l0.4143-0.4146 c0.2214-0.2214,0.6074-0.2214,0.8288,0 c0.2291,0.2291,0.2290,0.5995,0,0.8286  l-0.4143,0.4143     c-0.0784,0.0784-0.1059,0.1946-0.0707,0.2998 s0.1267,0.1817,0.2366,0.1974 c0.5453,0.0776,1.0940-0.1002,1.4912-0.4970     c0.4423-0.4426,0.6168-1.0932,0.4552-1.6983  l4.3316-4.3315 l0.0003,0.0003 c0.6060,0.1605,1.2571-0.0146,1.6980-0.4555    C9.8741,2.6117,10.0600,2.0541,9.9828,1.5088z" fill="#D80027" />
  </g>
</g>

<g>
  <g>
    <path d="M8.2422,6.4844      c-0.1388,0-0.2815,0.0209-0.4492,0.0652   l-1.1355-1.1354  l-1.2432,1.2431  l1.1353,1.1354      C6.50525,7.96066,6.48438,8.10344,6.48438,8.24219  c0,0.96932,0.78850,1.75781,1.75781,1.75781  c0.96932,0,1.75781-0.78850,1.75781-1.75781  C10,7.27287,9.21150,6.48438,8.24219,6.48438z     M9.20350,8.18354  l-0.17424,0.65002  c-0.02719,0.10100-0.10615,0.17996-0.20713,0.20713 l-0.65002,0.17424  c-0.09549,0.02633-0.20582,0.00133-0.28295-0.07582    l-0.47578-0.47578  c-0.07410-0.07410-0.10299-0.18195-0.07582-0.28295  l0.17424-0.65002  c0.02719-0.10100,0.10615-0.17996,0.20713-0.20713  l0.65002-0.17424     c0.10043-0.02805,0.20857,0.00172,0.28295,0.07582  l0.47578,0.47578  C9.20178,7.97469,9.23066,8.08254,9.20350,8.18354z" fill="#D80027" />
  </g>
</g>
<g>
  <g>
    <path d="M3.45506,2.19611      c0.16164-0.60510-0.01289-1.25598-0.45520-1.69830  c-0.66404-0.66375-1.82248-0.66375-2.48594,0      c-0.68521,0.68551-0.68521,1.80072,0,2.48594  c0.44031,0.44031,1.09234,0.61740,1.69830,0.45520 l1.13047,1.14664  l1.24301-1.24287  L3.45506,2.19611z     M2.68887,1.65281l-0.17424,0.65002  c-0.02719,0.10100-0.10615,0.17996-0.20713,0.20713 l-0.65002,0.17424  c-0.09549,0.02633-0.20582,0.00133-0.28295-0.07582   l-0.47578-0.47578  c-0.07410-0.07410-0.10299-0.18195-0.07582-0.28295  l0.17424-0.65002  c0.02719-0.10100,0.10615-0.17996,0.20713-0.20713 l0.65002-0.17424     c0.10100-0.02746,0.20885,0.00172,0.28295,0.07582  l0.47578,0.47578  C2.68715,1.44396,2.71604,1.55182,2.68887,1.65281z" fill="#D80027" />
  </g>
</g>
</svg><svg x="522.1712" y="65.9955" viewBox="0 0 10 10" style="enable-background:new 0 0 10 10;" xml:space="preserve" width="10px" height="10px" id="AccidentThreeWayValve">
<g>
  <g>
    <path d="M9.982793,1.508809 c-0.015742-0.109863-0.092129-0.201426-0.197402-0.236602 c-0.104707-0.035469-0.221152-0.007734-0.299844,0.070664    l-0.414277,0.41457     c-0.2214,0.2214-0.6074,0.2214-0.8288,0 c-0.2291-0.2291-0.2290-0.5996,0-0.8286     l0.4143-0.4143     c0.0784-0.0784,0.1059-0.1946,0.0707-0.2998 c-0.0352-0.1053-0.1267-0.1817-0.2366-0.1974 c-0.5467-0.0772-1.1001,0.1064-1.4912,0.4970    c-0.4423,0.4423-0.6168,1.0932-0.4552,1.6983  l-4.3316,4.3315 l-0.0003-0.0003 c-0.6028-0.1599-1.2571,0.0146-1.6980,0.4555     C0.1259,7.3878-0.0600,7.9454,0.0172,8.4907 c0.0157,0.1099,0.0921,0.2014,0.1974,0.2366 c0.1044,0.0352,0.2212,0.0077,0.2998-0.0707  l0.4143-0.4146 c0.2214-0.2214,0.6074-0.2214,0.8288,0 c0.2291,0.2291,0.2290,0.5995,0,0.8286  l-0.4143,0.4143     c-0.0784,0.0784-0.1059,0.1946-0.0707,0.2998 s0.1267,0.1817,0.2366,0.1974 c0.5453,0.0776,1.0940-0.1002,1.4912-0.4970     c0.4423-0.4426,0.6168-1.0932,0.4552-1.6983  l4.3316-4.3315 l0.0003,0.0003 c0.6060,0.1605,1.2571-0.0146,1.6980-0.4555    C9.8741,2.6117,10.0600,2.0541,9.9828,1.5088z" fill="#D80027" />
  </g>
</g>

<g>
  <g>
    <path d="M8.2422,6.4844      c-0.1388,0-0.2815,0.0209-0.4492,0.0652   l-1.1355-1.1354  l-1.2432,1.2431  l1.1353,1.1354      C6.50525,7.96066,6.48438,8.10344,6.48438,8.24219  c0,0.96932,0.78850,1.75781,1.75781,1.75781  c0.96932,0,1.75781-0.78850,1.75781-1.75781  C10,7.27287,9.21150,6.48438,8.24219,6.48438z     M9.20350,8.18354  l-0.17424,0.65002  c-0.02719,0.10100-0.10615,0.17996-0.20713,0.20713 l-0.65002,0.17424  c-0.09549,0.02633-0.20582,0.00133-0.28295-0.07582    l-0.47578-0.47578  c-0.07410-0.07410-0.10299-0.18195-0.07582-0.28295  l0.17424-0.65002  c0.02719-0.10100,0.10615-0.17996,0.20713-0.20713  l0.65002-0.17424     c0.10043-0.02805,0.20857,0.00172,0.28295,0.07582  l0.47578,0.47578  C9.20178,7.97469,9.23066,8.08254,9.20350,8.18354z" fill="#D80027" />
  </g>
</g>
<g>
  <g>
    <path d="M3.45506,2.19611      c0.16164-0.60510-0.01289-1.25598-0.45520-1.69830  c-0.66404-0.66375-1.82248-0.66375-2.48594,0      c-0.68521,0.68551-0.68521,1.80072,0,2.48594  c0.44031,0.44031,1.09234,0.61740,1.69830,0.45520 l1.13047,1.14664  l1.24301-1.24287  L3.45506,2.19611z     M2.68887,1.65281l-0.17424,0.65002  c-0.02719,0.10100-0.10615,0.17996-0.20713,0.20713 l-0.65002,0.17424  c-0.09549,0.02633-0.20582,0.00133-0.28295-0.07582   l-0.47578-0.47578  c-0.07410-0.07410-0.10299-0.18195-0.07582-0.28295  l0.17424-0.65002  c0.02719-0.10100,0.10615-0.17996,0.20713-0.20713 l0.65002-0.17424     c0.10100-0.02746,0.20885,0.00172,0.28295,0.07582  l0.47578,0.47578  C2.68715,1.44396,2.71604,1.55182,2.68887,1.65281z" fill="#D80027" />
  </g>
</g>
</svg><svg x="618.6712" y="76.4955" viewBox="0 0 10 10" style="enable-background:new 0 0 10 10;" xml:space="preserve" width="10px" height="10px" id="AccidentSystemPump2">
<g>
  <g>
    <path d="M9.982793,1.508809 c-0.015742-0.109863-0.092129-0.201426-0.197402-0.236602 c-0.104707-0.035469-0.221152-0.007734-0.299844,0.070664    l-0.414277,0.41457     c-0.2214,0.2214-0.6074,0.2214-0.8288,0 c-0.2291-0.2291-0.2290-0.5996,0-0.8286     l0.4143-0.4143     c0.0784-0.0784,0.1059-0.1946,0.0707-0.2998 c-0.0352-0.1053-0.1267-0.1817-0.2366-0.1974 c-0.5467-0.0772-1.1001,0.1064-1.4912,0.4970    c-0.4423,0.4423-0.6168,1.0932-0.4552,1.6983  l-4.3316,4.3315 l-0.0003-0.0003 c-0.6028-0.1599-1.2571,0.0146-1.6980,0.4555     C0.1259,7.3878-0.0600,7.9454,0.0172,8.4907 c0.0157,0.1099,0.0921,0.2014,0.1974,0.2366 c0.1044,0.0352,0.2212,0.0077,0.2998-0.0707  l0.4143-0.4146 c0.2214-0.2214,0.6074-0.2214,0.8288,0 c0.2291,0.2291,0.2290,0.5995,0,0.8286  l-0.4143,0.4143     c-0.0784,0.0784-0.1059,0.1946-0.0707,0.2998 s0.1267,0.1817,0.2366,0.1974 c0.5453,0.0776,1.0940-0.1002,1.4912-0.4970     c0.4423-0.4426,0.6168-1.0932,0.4552-1.6983  l4.3316-4.3315 l0.0003,0.0003 c0.6060,0.1605,1.2571-0.0146,1.6980-0.4555    C9.8741,2.6117,10.0600,2.0541,9.9828,1.5088z" fill="#D80027" />
  </g>
</g>

<g>
  <g>
    <path d="M8.2422,6.4844      c-0.1388,0-0.2815,0.0209-0.4492,0.0652   l-1.1355-1.1354  l-1.2432,1.2431  l1.1353,1.1354      C6.50525,7.96066,6.48438,8.10344,6.48438,8.24219  c0,0.96932,0.78850,1.75781,1.75781,1.75781  c0.96932,0,1.75781-0.78850,1.75781-1.75781  C10,7.27287,9.21150,6.48438,8.24219,6.48438z     M9.20350,8.18354  l-0.17424,0.65002  c-0.02719,0.10100-0.10615,0.17996-0.20713,0.20713 l-0.65002,0.17424  c-0.09549,0.02633-0.20582,0.00133-0.28295-0.07582    l-0.47578-0.47578  c-0.07410-0.07410-0.10299-0.18195-0.07582-0.28295  l0.17424-0.65002  c0.02719-0.10100,0.10615-0.17996,0.20713-0.20713  l0.65002-0.17424     c0.10043-0.02805,0.20857,0.00172,0.28295,0.07582  l0.47578,0.47578  C9.20178,7.97469,9.23066,8.08254,9.20350,8.18354z" fill="#D80027" />
  </g>
</g>
<g>
  <g>
    <path d="M3.45506,2.19611      c0.16164-0.60510-0.01289-1.25598-0.45520-1.69830  c-0.66404-0.66375-1.82248-0.66375-2.48594,0      c-0.68521,0.68551-0.68521,1.80072,0,2.48594  c0.44031,0.44031,1.09234,0.61740,1.69830,0.45520 l1.13047,1.14664  l1.24301-1.24287  L3.45506,2.19611z     M2.68887,1.65281l-0.17424,0.65002  c-0.02719,0.10100-0.10615,0.17996-0.20713,0.20713 l-0.65002,0.17424  c-0.09549,0.02633-0.20582,0.00133-0.28295-0.07582   l-0.47578-0.47578  c-0.07410-0.07410-0.10299-0.18195-0.07582-0.28295  l0.17424-0.65002  c0.02719-0.10100,0.10615-0.17996,0.20713-0.20713 l0.65002-0.17424     c0.10100-0.02746,0.20885,0.00172,0.28295,0.07582  l0.47578,0.47578  C2.68715,1.44396,2.71604,1.55182,2.68887,1.65281z" fill="#D80027" />
  </g>
</g>
</svg><svg x="618.6712" y="119.4955" viewBox="0 0 10 10" style="enable-background:new 0 0 10 10;" xml:space="preserve" width="10px" height="10px" id="AccidentSystemPump3">
<g>
  <g>
    <path d="M9.982793,1.508809 c-0.015742-0.109863-0.092129-0.201426-0.197402-0.236602 c-0.104707-0.035469-0.221152-0.007734-0.299844,0.070664    l-0.414277,0.41457     c-0.2214,0.2214-0.6074,0.2214-0.8288,0 c-0.2291-0.2291-0.2290-0.5996,0-0.8286     l0.4143-0.4143     c0.0784-0.0784,0.1059-0.1946,0.0707-0.2998 c-0.0352-0.1053-0.1267-0.1817-0.2366-0.1974 c-0.5467-0.0772-1.1001,0.1064-1.4912,0.4970    c-0.4423,0.4423-0.6168,1.0932-0.4552,1.6983  l-4.3316,4.3315 l-0.0003-0.0003 c-0.6028-0.1599-1.2571,0.0146-1.6980,0.4555     C0.1259,7.3878-0.0600,7.9454,0.0172,8.4907 c0.0157,0.1099,0.0921,0.2014,0.1974,0.2366 c0.1044,0.0352,0.2212,0.0077,0.2998-0.0707  l0.4143-0.4146 c0.2214-0.2214,0.6074-0.2214,0.8288,0 c0.2291,0.2291,0.2290,0.5995,0,0.8286  l-0.4143,0.4143     c-0.0784,0.0784-0.1059,0.1946-0.0707,0.2998 s0.1267,0.1817,0.2366,0.1974 c0.5453,0.0776,1.0940-0.1002,1.4912-0.4970     c0.4423-0.4426,0.6168-1.0932,0.4552-1.6983  l4.3316-4.3315 l0.0003,0.0003 c0.6060,0.1605,1.2571-0.0146,1.6980-0.4555    C9.8741,2.6117,10.0600,2.0541,9.9828,1.5088z" fill="#D80027" />
  </g>
</g>

<g>
  <g>
    <path d="M8.2422,6.4844      c-0.1388,0-0.2815,0.0209-0.4492,0.0652   l-1.1355-1.1354  l-1.2432,1.2431  l1.1353,1.1354      C6.50525,7.96066,6.48438,8.10344,6.48438,8.24219  c0,0.96932,0.78850,1.75781,1.75781,1.75781  c0.96932,0,1.75781-0.78850,1.75781-1.75781  C10,7.27287,9.21150,6.48438,8.24219,6.48438z     M9.20350,8.18354  l-0.17424,0.65002  c-0.02719,0.10100-0.10615,0.17996-0.20713,0.20713 l-0.65002,0.17424  c-0.09549,0.02633-0.20582,0.00133-0.28295-0.07582    l-0.47578-0.47578  c-0.07410-0.07410-0.10299-0.18195-0.07582-0.28295  l0.17424-0.65002  c0.02719-0.10100,0.10615-0.17996,0.20713-0.20713  l0.65002-0.17424     c0.10043-0.02805,0.20857,0.00172,0.28295,0.07582  l0.47578,0.47578  C9.20178,7.97469,9.23066,8.08254,9.20350,8.18354z" fill="#D80027" />
  </g>
</g>
<g>
  <g>
    <path d="M3.45506,2.19611      c0.16164-0.60510-0.01289-1.25598-0.45520-1.69830  c-0.66404-0.66375-1.82248-0.66375-2.48594,0      c-0.68521,0.68551-0.68521,1.80072,0,2.48594  c0.44031,0.44031,1.09234,0.61740,1.69830,0.45520 l1.13047,1.14664  l1.24301-1.24287  L3.45506,2.19611z     M2.68887,1.65281l-0.17424,0.65002  c-0.02719,0.10100-0.10615,0.17996-0.20713,0.20713 l-0.65002,0.17424  c-0.09549,0.02633-0.20582,0.00133-0.28295-0.07582   l-0.47578-0.47578  c-0.07410-0.07410-0.10299-0.18195-0.07582-0.28295  l0.17424-0.65002  c0.02719-0.10100,0.10615-0.17996,0.20713-0.20713 l0.65002-0.17424     c0.10100-0.02746,0.20885,0.00172,0.28295,0.07582  l0.47578,0.47578  C2.68715,1.44396,2.71604,1.55182,2.68887,1.65281z" fill="#D80027" />
  </g>
</g>
</svg><svg x="384.1712" y="63.4955" viewBox="0 0 10 10" style="enable-background:new 0 0 10 10;" xml:space="preserve" width="10px" height="10px" id="AccidentRecirculatingPump1">
<g>
  <g>
    <path d="M9.982793,1.508809 c-0.015742-0.109863-0.092129-0.201426-0.197402-0.236602 c-0.104707-0.035469-0.221152-0.007734-0.299844,0.070664    l-0.414277,0.41457     c-0.2214,0.2214-0.6074,0.2214-0.8288,0 c-0.2291-0.2291-0.2290-0.5996,0-0.8286     l0.4143-0.4143     c0.0784-0.0784,0.1059-0.1946,0.0707-0.2998 c-0.0352-0.1053-0.1267-0.1817-0.2366-0.1974 c-0.5467-0.0772-1.1001,0.1064-1.4912,0.4970    c-0.4423,0.4423-0.6168,1.0932-0.4552,1.6983  l-4.3316,4.3315 l-0.0003-0.0003 c-0.6028-0.1599-1.2571,0.0146-1.6980,0.4555     C0.1259,7.3878-0.0600,7.9454,0.0172,8.4907 c0.0157,0.1099,0.0921,0.2014,0.1974,0.2366 c0.1044,0.0352,0.2212,0.0077,0.2998-0.0707  l0.4143-0.4146 c0.2214-0.2214,0.6074-0.2214,0.8288,0 c0.2291,0.2291,0.2290,0.5995,0,0.8286  l-0.4143,0.4143     c-0.0784,0.0784-0.1059,0.1946-0.0707,0.2998 s0.1267,0.1817,0.2366,0.1974 c0.5453,0.0776,1.0940-0.1002,1.4912-0.4970     c0.4423-0.4426,0.6168-1.0932,0.4552-1.6983  l4.3316-4.3315 l0.0003,0.0003 c0.6060,0.1605,1.2571-0.0146,1.6980-0.4555    C9.8741,2.6117,10.0600,2.0541,9.9828,1.5088z" fill="#D80027" />
  </g>
</g>

<g>
  <g>
    <path d="M8.2422,6.4844      c-0.1388,0-0.2815,0.0209-0.4492,0.0652   l-1.1355-1.1354  l-1.2432,1.2431  l1.1353,1.1354      C6.50525,7.96066,6.48438,8.10344,6.48438,8.24219  c0,0.96932,0.78850,1.75781,1.75781,1.75781  c0.96932,0,1.75781-0.78850,1.75781-1.75781  C10,7.27287,9.21150,6.48438,8.24219,6.48438z     M9.20350,8.18354  l-0.17424,0.65002  c-0.02719,0.10100-0.10615,0.17996-0.20713,0.20713 l-0.65002,0.17424  c-0.09549,0.02633-0.20582,0.00133-0.28295-0.07582    l-0.47578-0.47578  c-0.07410-0.07410-0.10299-0.18195-0.07582-0.28295  l0.17424-0.65002  c0.02719-0.10100,0.10615-0.17996,0.20713-0.20713  l0.65002-0.17424     c0.10043-0.02805,0.20857,0.00172,0.28295,0.07582  l0.47578,0.47578  C9.20178,7.97469,9.23066,8.08254,9.20350,8.18354z" fill="#D80027" />
  </g>
</g>
<g>
  <g>
    <path d="M3.45506,2.19611      c0.16164-0.60510-0.01289-1.25598-0.45520-1.69830  c-0.66404-0.66375-1.82248-0.66375-2.48594,0      c-0.68521,0.68551-0.68521,1.80072,0,2.48594  c0.44031,0.44031,1.09234,0.61740,1.69830,0.45520 l1.13047,1.14664  l1.24301-1.24287  L3.45506,2.19611z     M2.68887,1.65281l-0.17424,0.65002  c-0.02719,0.10100-0.10615,0.17996-0.20713,0.20713 l-0.65002,0.17424  c-0.09549,0.02633-0.20582,0.00133-0.28295-0.07582   l-0.47578-0.47578  c-0.07410-0.07410-0.10299-0.18195-0.07582-0.28295  l0.17424-0.65002  c0.02719-0.10100,0.10615-0.17996,0.20713-0.20713 l0.65002-0.17424     c0.10100-0.02746,0.20885,0.00172,0.28295,0.07582  l0.47578,0.47578  C2.68715,1.44396,2.71604,1.55182,2.68887,1.65281z" fill="#D80027" />
  </g>
</g>
</svg><svg x="385.1712" y="186.4955" viewBox="0 0 10 10" style="enable-background:new 0 0 10 10;" xml:space="preserve" width="10px" height="10px" id="AccidentRecirculatingPump2">
<g>
  <g>
    <path d="M9.982793,1.508809 c-0.015742-0.109863-0.092129-0.201426-0.197402-0.236602 c-0.104707-0.035469-0.221152-0.007734-0.299844,0.070664    l-0.414277,0.41457     c-0.2214,0.2214-0.6074,0.2214-0.8288,0 c-0.2291-0.2291-0.2290-0.5996,0-0.8286     l0.4143-0.4143     c0.0784-0.0784,0.1059-0.1946,0.0707-0.2998 c-0.0352-0.1053-0.1267-0.1817-0.2366-0.1974 c-0.5467-0.0772-1.1001,0.1064-1.4912,0.4970    c-0.4423,0.4423-0.6168,1.0932-0.4552,1.6983  l-4.3316,4.3315 l-0.0003-0.0003 c-0.6028-0.1599-1.2571,0.0146-1.6980,0.4555     C0.1259,7.3878-0.0600,7.9454,0.0172,8.4907 c0.0157,0.1099,0.0921,0.2014,0.1974,0.2366 c0.1044,0.0352,0.2212,0.0077,0.2998-0.0707  l0.4143-0.4146 c0.2214-0.2214,0.6074-0.2214,0.8288,0 c0.2291,0.2291,0.2290,0.5995,0,0.8286  l-0.4143,0.4143     c-0.0784,0.0784-0.1059,0.1946-0.0707,0.2998 s0.1267,0.1817,0.2366,0.1974 c0.5453,0.0776,1.0940-0.1002,1.4912-0.4970     c0.4423-0.4426,0.6168-1.0932,0.4552-1.6983  l4.3316-4.3315 l0.0003,0.0003 c0.6060,0.1605,1.2571-0.0146,1.6980-0.4555    C9.8741,2.6117,10.0600,2.0541,9.9828,1.5088z" fill="#D80027" />
  </g>
</g>

<g>
  <g>
    <path d="M8.2422,6.4844      c-0.1388,0-0.2815,0.0209-0.4492,0.0652   l-1.1355-1.1354  l-1.2432,1.2431  l1.1353,1.1354      C6.50525,7.96066,6.48438,8.10344,6.48438,8.24219  c0,0.96932,0.78850,1.75781,1.75781,1.75781  c0.96932,0,1.75781-0.78850,1.75781-1.75781  C10,7.27287,9.21150,6.48438,8.24219,6.48438z     M9.20350,8.18354  l-0.17424,0.65002  c-0.02719,0.10100-0.10615,0.17996-0.20713,0.20713 l-0.65002,0.17424  c-0.09549,0.02633-0.20582,0.00133-0.28295-0.07582    l-0.47578-0.47578  c-0.07410-0.07410-0.10299-0.18195-0.07582-0.28295  l0.17424-0.65002  c0.02719-0.10100,0.10615-0.17996,0.20713-0.20713  l0.65002-0.17424     c0.10043-0.02805,0.20857,0.00172,0.28295,0.07582  l0.47578,0.47578  C9.20178,7.97469,9.23066,8.08254,9.20350,8.18354z" fill="#D80027" />
  </g>
</g>
<g>
  <g>
    <path d="M3.45506,2.19611      c0.16164-0.60510-0.01289-1.25598-0.45520-1.69830  c-0.66404-0.66375-1.82248-0.66375-2.48594,0      c-0.68521,0.68551-0.68521,1.80072,0,2.48594  c0.44031,0.44031,1.09234,0.61740,1.69830,0.45520 l1.13047,1.14664  l1.24301-1.24287  L3.45506,2.19611z     M2.68887,1.65281l-0.17424,0.65002  c-0.02719,0.10100-0.10615,0.17996-0.20713,0.20713 l-0.65002,0.17424  c-0.09549,0.02633-0.20582,0.00133-0.28295-0.07582   l-0.47578-0.47578  c-0.07410-0.07410-0.10299-0.18195-0.07582-0.28295  l0.17424-0.65002  c0.02719-0.10100,0.10615-0.17996,0.20713-0.20713 l0.65002-0.17424     c0.10100-0.02746,0.20885,0.00172,0.28295,0.07582  l0.47578,0.47578  C2.68715,1.44396,2.71604,1.55182,2.68887,1.65281z" fill="#D80027" />
  </g>
</g>
</svg><svg x="385.1712" y="312.9955" viewBox="0 0 10 10" style="enable-background:new 0 0 10 10;" xml:space="preserve" width="10px" height="10px" id="AccidentRecirculatingPump3">
<g>
  <g>
    <path d="M9.982793,1.508809 c-0.015742-0.109863-0.092129-0.201426-0.197402-0.236602 c-0.104707-0.035469-0.221152-0.007734-0.299844,0.070664    l-0.414277,0.41457     c-0.2214,0.2214-0.6074,0.2214-0.8288,0 c-0.2291-0.2291-0.2290-0.5996,0-0.8286     l0.4143-0.4143     c0.0784-0.0784,0.1059-0.1946,0.0707-0.2998 c-0.0352-0.1053-0.1267-0.1817-0.2366-0.1974 c-0.5467-0.0772-1.1001,0.1064-1.4912,0.4970    c-0.4423,0.4423-0.6168,1.0932-0.4552,1.6983  l-4.3316,4.3315 l-0.0003-0.0003 c-0.6028-0.1599-1.2571,0.0146-1.6980,0.4555     C0.1259,7.3878-0.0600,7.9454,0.0172,8.4907 c0.0157,0.1099,0.0921,0.2014,0.1974,0.2366 c0.1044,0.0352,0.2212,0.0077,0.2998-0.0707  l0.4143-0.4146 c0.2214-0.2214,0.6074-0.2214,0.8288,0 c0.2291,0.2291,0.2290,0.5995,0,0.8286  l-0.4143,0.4143     c-0.0784,0.0784-0.1059,0.1946-0.0707,0.2998 s0.1267,0.1817,0.2366,0.1974 c0.5453,0.0776,1.0940-0.1002,1.4912-0.4970     c0.4423-0.4426,0.6168-1.0932,0.4552-1.6983  l4.3316-4.3315 l0.0003,0.0003 c0.6060,0.1605,1.2571-0.0146,1.6980-0.4555    C9.8741,2.6117,10.0600,2.0541,9.9828,1.5088z" fill="#D80027" />
  </g>
</g>

<g>
  <g>
    <path d="M8.2422,6.4844      c-0.1388,0-0.2815,0.0209-0.4492,0.0652   l-1.1355-1.1354  l-1.2432,1.2431  l1.1353,1.1354      C6.50525,7.96066,6.48438,8.10344,6.48438,8.24219  c0,0.96932,0.78850,1.75781,1.75781,1.75781  c0.96932,0,1.75781-0.78850,1.75781-1.75781  C10,7.27287,9.21150,6.48438,8.24219,6.48438z     M9.20350,8.18354  l-0.17424,0.65002  c-0.02719,0.10100-0.10615,0.17996-0.20713,0.20713 l-0.65002,0.17424  c-0.09549,0.02633-0.20582,0.00133-0.28295-0.07582    l-0.47578-0.47578  c-0.07410-0.07410-0.10299-0.18195-0.07582-0.28295  l0.17424-0.65002  c0.02719-0.10100,0.10615-0.17996,0.20713-0.20713  l0.65002-0.17424     c0.10043-0.02805,0.20857,0.00172,0.28295,0.07582  l0.47578,0.47578  C9.20178,7.97469,9.23066,8.08254,9.20350,8.18354z" fill="#D80027" />
  </g>
</g>
<g>
  <g>
    <path d="M3.45506,2.19611      c0.16164-0.60510-0.01289-1.25598-0.45520-1.69830  c-0.66404-0.66375-1.82248-0.66375-2.48594,0      c-0.68521,0.68551-0.68521,1.80072,0,2.48594  c0.44031,0.44031,1.09234,0.61740,1.69830,0.45520 l1.13047,1.14664  l1.24301-1.24287  L3.45506,2.19611z     M2.68887,1.65281l-0.17424,0.65002  c-0.02719,0.10100-0.10615,0.17996-0.20713,0.20713 l-0.65002,0.17424  c-0.09549,0.02633-0.20582,0.00133-0.28295-0.07582   l-0.47578-0.47578  c-0.07410-0.07410-0.10299-0.18195-0.07582-0.28295  l0.17424-0.65002  c0.02719-0.10100,0.10615-0.17996,0.20713-0.20713 l0.65002-0.17424     c0.10100-0.02746,0.20885,0.00172,0.28295,0.07582  l0.47578,0.47578  C2.68715,1.44396,2.71604,1.55182,2.68887,1.65281z" fill="#D80027" />
  </g>
</g>
</svg><svg x="384.6712" y="437.4955" viewBox="0 0 10 10" style="enable-background:new 0 0 10 10;" xml:space="preserve" width="10px" height="10px" id="AccidentRecirculatingPump4">
<g>
  <g>
    <path d="M9.982793,1.508809 c-0.015742-0.109863-0.092129-0.201426-0.197402-0.236602 c-0.104707-0.035469-0.221152-0.007734-0.299844,0.070664    l-0.414277,0.41457     c-0.2214,0.2214-0.6074,0.2214-0.8288,0 c-0.2291-0.2291-0.2290-0.5996,0-0.8286     l0.4143-0.4143     c0.0784-0.0784,0.1059-0.1946,0.0707-0.2998 c-0.0352-0.1053-0.1267-0.1817-0.2366-0.1974 c-0.5467-0.0772-1.1001,0.1064-1.4912,0.4970    c-0.4423,0.4423-0.6168,1.0932-0.4552,1.6983  l-4.3316,4.3315 l-0.0003-0.0003 c-0.6028-0.1599-1.2571,0.0146-1.6980,0.4555     C0.1259,7.3878-0.0600,7.9454,0.0172,8.4907 c0.0157,0.1099,0.0921,0.2014,0.1974,0.2366 c0.1044,0.0352,0.2212,0.0077,0.2998-0.0707  l0.4143-0.4146 c0.2214-0.2214,0.6074-0.2214,0.8288,0 c0.2291,0.2291,0.2290,0.5995,0,0.8286  l-0.4143,0.4143     c-0.0784,0.0784-0.1059,0.1946-0.0707,0.2998 s0.1267,0.1817,0.2366,0.1974 c0.5453,0.0776,1.0940-0.1002,1.4912-0.4970     c0.4423-0.4426,0.6168-1.0932,0.4552-1.6983  l4.3316-4.3315 l0.0003,0.0003 c0.6060,0.1605,1.2571-0.0146,1.6980-0.4555    C9.8741,2.6117,10.0600,2.0541,9.9828,1.5088z" fill="#D80027" />
  </g>
</g>

<g>
  <g>
    <path d="M8.2422,6.4844      c-0.1388,0-0.2815,0.0209-0.4492,0.0652   l-1.1355-1.1354  l-1.2432,1.2431  l1.1353,1.1354      C6.50525,7.96066,6.48438,8.10344,6.48438,8.24219  c0,0.96932,0.78850,1.75781,1.75781,1.75781  c0.96932,0,1.75781-0.78850,1.75781-1.75781  C10,7.27287,9.21150,6.48438,8.24219,6.48438z     M9.20350,8.18354  l-0.17424,0.65002  c-0.02719,0.10100-0.10615,0.17996-0.20713,0.20713 l-0.65002,0.17424  c-0.09549,0.02633-0.20582,0.00133-0.28295-0.07582    l-0.47578-0.47578  c-0.07410-0.07410-0.10299-0.18195-0.07582-0.28295  l0.17424-0.65002  c0.02719-0.10100,0.10615-0.17996,0.20713-0.20713  l0.65002-0.17424     c0.10043-0.02805,0.20857,0.00172,0.28295,0.07582  l0.47578,0.47578  C9.20178,7.97469,9.23066,8.08254,9.20350,8.18354z" fill="#D80027" />
  </g>
</g>
<g>
  <g>
    <path d="M3.45506,2.19611      c0.16164-0.60510-0.01289-1.25598-0.45520-1.69830  c-0.66404-0.66375-1.82248-0.66375-2.48594,0      c-0.68521,0.68551-0.68521,1.80072,0,2.48594  c0.44031,0.44031,1.09234,0.61740,1.69830,0.45520 l1.13047,1.14664  l1.24301-1.24287  L3.45506,2.19611z     M2.68887,1.65281l-0.17424,0.65002  c-0.02719,0.10100-0.10615,0.17996-0.20713,0.20713 l-0.65002,0.17424  c-0.09549,0.02633-0.20582,0.00133-0.28295-0.07582   l-0.47578-0.47578  c-0.07410-0.07410-0.10299-0.18195-0.07582-0.28295  l0.17424-0.65002  c0.02719-0.10100,0.10615-0.17996,0.20713-0.20713 l0.65002-0.17424     c0.10100-0.02746,0.20885,0.00172,0.28295,0.07582  l0.47578,0.47578  C2.68715,1.44396,2.71604,1.55182,2.68887,1.65281z" fill="#D80027" />
  </g>
</g>
</svg><svg x="363.6712" y="519.4955" viewBox="0 0 10 10" style="enable-background:new 0 0 10 10;" xml:space="preserve" width="10px" height="10px" id="AccidentMakeupPump1">
<g>
  <g>
    <path d="M9.982793,1.508809 c-0.015742-0.109863-0.092129-0.201426-0.197402-0.236602 c-0.104707-0.035469-0.221152-0.007734-0.299844,0.070664    l-0.414277,0.41457     c-0.2214,0.2214-0.6074,0.2214-0.8288,0 c-0.2291-0.2291-0.2290-0.5996,0-0.8286     l0.4143-0.4143     c0.0784-0.0784,0.1059-0.1946,0.0707-0.2998 c-0.0352-0.1053-0.1267-0.1817-0.2366-0.1974 c-0.5467-0.0772-1.1001,0.1064-1.4912,0.4970    c-0.4423,0.4423-0.6168,1.0932-0.4552,1.6983  l-4.3316,4.3315 l-0.0003-0.0003 c-0.6028-0.1599-1.2571,0.0146-1.6980,0.4555     C0.1259,7.3878-0.0600,7.9454,0.0172,8.4907 c0.0157,0.1099,0.0921,0.2014,0.1974,0.2366 c0.1044,0.0352,0.2212,0.0077,0.2998-0.0707  l0.4143-0.4146 c0.2214-0.2214,0.6074-0.2214,0.8288,0 c0.2291,0.2291,0.2290,0.5995,0,0.8286  l-0.4143,0.4143     c-0.0784,0.0784-0.1059,0.1946-0.0707,0.2998 s0.1267,0.1817,0.2366,0.1974 c0.5453,0.0776,1.0940-0.1002,1.4912-0.4970     c0.4423-0.4426,0.6168-1.0932,0.4552-1.6983  l4.3316-4.3315 l0.0003,0.0003 c0.6060,0.1605,1.2571-0.0146,1.6980-0.4555    C9.8741,2.6117,10.0600,2.0541,9.9828,1.5088z" fill="#D80027" />
  </g>
</g>

<g>
  <g>
    <path d="M8.2422,6.4844      c-0.1388,0-0.2815,0.0209-0.4492,0.0652   l-1.1355-1.1354  l-1.2432,1.2431  l1.1353,1.1354      C6.50525,7.96066,6.48438,8.10344,6.48438,8.24219  c0,0.96932,0.78850,1.75781,1.75781,1.75781  c0.96932,0,1.75781-0.78850,1.75781-1.75781  C10,7.27287,9.21150,6.48438,8.24219,6.48438z     M9.20350,8.18354  l-0.17424,0.65002  c-0.02719,0.10100-0.10615,0.17996-0.20713,0.20713 l-0.65002,0.17424  c-0.09549,0.02633-0.20582,0.00133-0.28295-0.07582    l-0.47578-0.47578  c-0.07410-0.07410-0.10299-0.18195-0.07582-0.28295  l0.17424-0.65002  c0.02719-0.10100,0.10615-0.17996,0.20713-0.20713  l0.65002-0.17424     c0.10043-0.02805,0.20857,0.00172,0.28295,0.07582  l0.47578,0.47578  C9.20178,7.97469,9.23066,8.08254,9.20350,8.18354z" fill="#D80027" />
  </g>
</g>
<g>
  <g>
    <path d="M3.45506,2.19611      c0.16164-0.60510-0.01289-1.25598-0.45520-1.69830  c-0.66404-0.66375-1.82248-0.66375-2.48594,0      c-0.68521,0.68551-0.68521,1.80072,0,2.48594  c0.44031,0.44031,1.09234,0.61740,1.69830,0.45520 l1.13047,1.14664  l1.24301-1.24287  L3.45506,2.19611z     M2.68887,1.65281l-0.17424,0.65002  c-0.02719,0.10100-0.10615,0.17996-0.20713,0.20713 l-0.65002,0.17424  c-0.09549,0.02633-0.20582,0.00133-0.28295-0.07582   l-0.47578-0.47578  c-0.07410-0.07410-0.10299-0.18195-0.07582-0.28295  l0.17424-0.65002  c0.02719-0.10100,0.10615-0.17996,0.20713-0.20713 l0.65002-0.17424     c0.10100-0.02746,0.20885,0.00172,0.28295,0.07582  l0.47578,0.47578  C2.68715,1.44396,2.71604,1.55182,2.68887,1.65281z" fill="#D80027" />
  </g>
</g>
</svg><svg x="363.6712" y="559.4955" viewBox="0 0 10 10" style="enable-background:new 0 0 10 10;" xml:space="preserve" width="10px" height="10px" id="AccidentMakeupPump2">
<g>
  <g>
    <path d="M9.982793,1.508809 c-0.015742-0.109863-0.092129-0.201426-0.197402-0.236602 c-0.104707-0.035469-0.221152-0.007734-0.299844,0.070664    l-0.414277,0.41457     c-0.2214,0.2214-0.6074,0.2214-0.8288,0 c-0.2291-0.2291-0.2290-0.5996,0-0.8286     l0.4143-0.4143     c0.0784-0.0784,0.1059-0.1946,0.0707-0.2998 c-0.0352-0.1053-0.1267-0.1817-0.2366-0.1974 c-0.5467-0.0772-1.1001,0.1064-1.4912,0.4970    c-0.4423,0.4423-0.6168,1.0932-0.4552,1.6983  l-4.3316,4.3315 l-0.0003-0.0003 c-0.6028-0.1599-1.2571,0.0146-1.6980,0.4555     C0.1259,7.3878-0.0600,7.9454,0.0172,8.4907 c0.0157,0.1099,0.0921,0.2014,0.1974,0.2366 c0.1044,0.0352,0.2212,0.0077,0.2998-0.0707  l0.4143-0.4146 c0.2214-0.2214,0.6074-0.2214,0.8288,0 c0.2291,0.2291,0.2290,0.5995,0,0.8286  l-0.4143,0.4143     c-0.0784,0.0784-0.1059,0.1946-0.0707,0.2998 s0.1267,0.1817,0.2366,0.1974 c0.5453,0.0776,1.0940-0.1002,1.4912-0.4970     c0.4423-0.4426,0.6168-1.0932,0.4552-1.6983  l4.3316-4.3315 l0.0003,0.0003 c0.6060,0.1605,1.2571-0.0146,1.6980-0.4555    C9.8741,2.6117,10.0600,2.0541,9.9828,1.5088z" fill="#D80027" />
  </g>
</g>

<g>
  <g>
    <path d="M8.2422,6.4844      c-0.1388,0-0.2815,0.0209-0.4492,0.0652   l-1.1355-1.1354  l-1.2432,1.2431  l1.1353,1.1354      C6.50525,7.96066,6.48438,8.10344,6.48438,8.24219  c0,0.96932,0.78850,1.75781,1.75781,1.75781  c0.96932,0,1.75781-0.78850,1.75781-1.75781  C10,7.27287,9.21150,6.48438,8.24219,6.48438z     M9.20350,8.18354  l-0.17424,0.65002  c-0.02719,0.10100-0.10615,0.17996-0.20713,0.20713 l-0.65002,0.17424  c-0.09549,0.02633-0.20582,0.00133-0.28295-0.07582    l-0.47578-0.47578  c-0.07410-0.07410-0.10299-0.18195-0.07582-0.28295  l0.17424-0.65002  c0.02719-0.10100,0.10615-0.17996,0.20713-0.20713  l0.65002-0.17424     c0.10043-0.02805,0.20857,0.00172,0.28295,0.07582  l0.47578,0.47578  C9.20178,7.97469,9.23066,8.08254,9.20350,8.18354z" fill="#D80027" />
  </g>
</g>
<g>
  <g>
    <path d="M3.45506,2.19611      c0.16164-0.60510-0.01289-1.25598-0.45520-1.69830  c-0.66404-0.66375-1.82248-0.66375-2.48594,0      c-0.68521,0.68551-0.68521,1.80072,0,2.48594  c0.44031,0.44031,1.09234,0.61740,1.69830,0.45520 l1.13047,1.14664  l1.24301-1.24287  L3.45506,2.19611z     M2.68887,1.65281l-0.17424,0.65002  c-0.02719,0.10100-0.10615,0.17996-0.20713,0.20713 l-0.65002,0.17424  c-0.09549,0.02633-0.20582,0.00133-0.28295-0.07582   l-0.47578-0.47578  c-0.07410-0.07410-0.10299-0.18195-0.07582-0.28295  l0.17424-0.65002  c0.02719-0.10100,0.10615-0.17996,0.20713-0.20713 l0.65002-0.17424     c0.10100-0.02746,0.20885,0.00172,0.28295,0.07582  l0.47578,0.47578  C2.68715,1.44396,2.71604,1.55182,2.68887,1.65281z" fill="#D80027" />
  </g>
</g>
</svg><svg version="1.1" x="765.3984" y="459.1465" viewBox="0 0 40 40" style="enable-background:new 0 0 40 40;" xml:space="preserve" width="40px" height="40px" id="SecurityAlarmBlack">
<g>
    <rect fill="#FFFFFF" width="40px" height="40px" />
	<path d="M19.92,8.32c0.7,0,1.27-0.57,1.27-1.27V3.04c0-0.7-0.57-1.27-1.27-1.27   s-1.27,0.57-1.27,1.27v4C18.65,7.75,19.22,8.32,19.92,8.32z" fill="#000000" />
	<path d="M9.34,11.36c0.25,0.3,0.61,0.45,0.98,0.45c0.29,0,0.58-0.1,0.82-0.3   c0.54-0.45,0.61-1.25,0.16-1.79l-2.57-3.06c-0.45-0.54-1.25-0.61-1.79-0.16   c-0.54,0.45-0.61,1.25-0.16,1.79L9.34,11.36z" fill="#000000" />
	<path d="M5.21,20.66c0.61,0,1.14-0.43,1.25-1.05c0.12-0.69-0.34-1.35-1.03-1.47l-3.94-0.7   c-0.69-0.12-1.35,0.34-1.47,1.03c-0.12,0.69,0.34,1.35,1.03,1.47l3.94,0.7   C5.06,20.66,5.14,20.66,5.21,20.66z" fill="#000000" />
	<path d="M38.35,17.44l-3.94,0.69c-0.69,0.12-1.15,0.78-1.03,1.47c0.11,0.62,0.65,1.05,1.25,1.05   c0.07,0,0.15-0.01,0.22-0.02l3.94-0.69c0.69-0.12,1.15-0.78,1.03-1.47   C39.7,17.78,39.04,17.32,38.35,17.44z" fill="#000000" />
	<path d="M29.52,11.81c0.36,0,0.72-0.15,0.98-0.45l2.57-3.06c0.45-0.54,0.38-1.34-0.16-1.79   c-0.54-0.45-1.34-0.38-1.79,0.16l-2.57,3.06c-0.45,0.54-0.38,1.34,0.16,1.79   C28.94,11.72,29.23,11.81,29.52,11.81z" fill="#000000" />
	<path d="M19.92,9.99c-6.59,0-11.93,5.34-11.93,11.93v8.15h6.67h15.73h1.47V21.92   C31.85,15.33,26.51,9.99,19.92,9.99z M10.53,27.52v-5.6c0-4.94,3.83-8.99,8.68-9.35   c-2.77,2.18-4.56,5.55-4.56,9.35v5.6H10.53z" fill="#000000" />
</g>	
</svg><svg version="1.1" x="765.3984" y="459.1465" viewBox="0 0 40 40" style="enable-background:new 0 0 40 40;" xml:space="preserve" width="40px" height="40px" id="SecurityAlarmRed">
<g>
    <rect fill="#FF000D" width="40px" height="40px" />
	<path d="M19.92,8.32c0.7,0,1.27-0.57,1.27-1.27V3.04c0-0.7-0.57-1.27-1.27-1.27   s-1.27,0.57-1.27,1.27v4C18.65,7.75,19.22,8.32,19.92,8.32z" fill="#000000" />
	<path d="M9.34,11.36c0.25,0.3,0.61,0.45,0.98,0.45c0.29,0,0.58-0.1,0.82-0.3   c0.54-0.45,0.61-1.25,0.16-1.79l-2.57-3.06c-0.45-0.54-1.25-0.61-1.79-0.16   c-0.54,0.45-0.61,1.25-0.16,1.79L9.34,11.36z" fill="#000000" />
	<path d="M5.21,20.66c0.61,0,1.14-0.43,1.25-1.05c0.12-0.69-0.34-1.35-1.03-1.47l-3.94-0.7   c-0.69-0.12-1.35,0.34-1.47,1.03c-0.12,0.69,0.34,1.35,1.03,1.47l3.94,0.7   C5.06,20.66,5.14,20.66,5.21,20.66z" fill="#000000" />
	<path d="M38.35,17.44l-3.94,0.69c-0.69,0.12-1.15,0.78-1.03,1.47c0.11,0.62,0.65,1.05,1.25,1.05   c0.07,0,0.15-0.01,0.22-0.02l3.94-0.69c0.69-0.12,1.15-0.78,1.03-1.47   C39.7,17.78,39.04,17.32,38.35,17.44z" fill="#000000" />
	<path d="M29.52,11.81c0.36,0,0.72-0.15,0.98-0.45l2.57-3.06c0.45-0.54,0.38-1.34-0.16-1.79   c-0.54-0.45-1.34-0.38-1.79,0.16l-2.57,3.06c-0.45,0.54-0.38,1.34,0.16,1.79   C28.94,11.72,29.23,11.81,29.52,11.81z" fill="#000000" />
	<path d="M19.92,9.99c-6.59,0-11.93,5.34-11.93,11.93v8.15h6.67h15.73h1.47V21.92   C31.85,15.33,26.51,9.99,19.92,9.99z M10.53,27.52v-5.6c0-4.94,3.83-8.99,8.68-9.35   c-2.77,2.18-4.56,5.55-4.56,9.35v5.6H10.53z" fill="#000000" />
</g>	
</svg><svg version="1.1" x="824.6631" y="459.1465" viewBox="0 0 40 40" style="enable-background:new 0 0 40 40;" xml:space="preserve" width="40px" height="40px" id="FlameBlack">
<rect fill="#FFFFFF" width="40px" height="40px" />
<path style="fill:#FFFFFF;" d="M20,0.64C9.31,0.64,0.64,9.31,0.64,20S9.31,39.36,20,39.36  s19.36-8.67,19.36-19.36S30.69,0.64,20,0.64z" />
<path style="fill:#FFFFFF;" d="M24.27,35.07c8.45-2.83,8.97-10.24,5.9-16.31  c-1.62-2.83-0.52-4.57-0.52-4.57s-3.24,0.58-4.57,3.18c-1.85-3.99,2.78-5.61-0.35-12.44  c0,0-1.39,2.49-5.32,4.57s-3.64,6.71-3.64,6.71s-0.75-3.12-4.34-3.64c0,0,0.69,3.12-1.04,5.79  S4.25,32.99,19.64,35.07c0,0-7.12-4.98-3.88-13.48c0,0,0.87,2.02,2.31,2.6c0,0,0.69-3.53,4.28-4.86  c0,0-0.35,4.05,1.45,5.55c0,0,1.85-1.1,2.08-2.78C25.89,22.11,28.73,29.69,24.27,35.07z" />
<path d="M8.86,4.81c0.13,0,0.26-0.04,0.37-0.12c0.6-0.42,1.22-0.81,1.86-1.16  c0.31-0.17,0.43-0.56,0.26-0.87c-0.17-0.31-0.56-0.43-0.87-0.26c-0.68,0.37-1.35,0.79-1.99,1.23  c-0.29,0.2-0.36,0.6-0.15,0.89C8.46,4.71,8.66,4.81,8.86,4.81z" />
<path d="M34.14,5.86C30.36,2.08,25.34,0,20,0c-2.4,0-4.75,0.42-6.99,1.26  c-0.33,0.12-0.5,0.49-0.38,0.82c0.12,0.33,0.49,0.5,0.82,0.38c2.09-0.78,4.29-1.17,6.54-1.17  c5,0,9.7,1.95,13.24,5.48c3.54,3.54,5.48,8.24,5.48,13.24s-1.95,9.7-5.48,13.24  c-3.54,3.54-8.24,5.48-13.24,5.48s-9.7-1.95-13.24-5.48c-3.54-3.54-5.48-8.24-5.48-13.24  c0-2.66,0.54-5.22,1.62-7.63c1.04-2.32,2.52-4.38,4.39-6.12c0.26-0.24,0.28-0.64,0.04-0.9  c-0.24-0.26-0.64-0.28-0.9-0.04c-2,1.85-3.58,4.05-4.69,6.54C0.58,14.42,0,17.16,0,20  c0,5.34,2.08,10.36,5.86,14.14S14.66,40,20,40c5.34,0,10.36-2.08,14.14-5.86S40,25.34,40,20  S37.92,9.64,34.14,5.86z" />
<path d="M19.39,35.7c0.29,0.04,0.57-0.13,0.68-0.4c0.11-0.27,0.01-0.59-0.23-0.76  c-0.02-0.01-1.68-1.19-2.97-3.35c-1.49-2.5-1.86-5.2-1.1-8.04c0.45,0.63,1.09,1.31,1.91,1.64  c0.18,0.07,0.38,0.06,0.54-0.03c0.17-0.09,0.29-0.25,0.32-0.44c0.01-0.03,0.54-2.59,2.99-3.97  c0.02,1.41,0.28,3.84,1.7,5.03c0.21,0.17,0.5,0.2,0.74,0.06c0.06-0.03,0.93-0.56,1.61-1.46  c0.53,2.44,0.99,7.11-1.97,10.68c-0.18,0.22-0.2,0.53-0.03,0.77c0.12,0.18,0.32,0.28,0.53,0.28  c0.07,0,0.14-0.01,0.2-0.03c3.37-1.13,5.73-3.02,7.01-5.61c1.12-2.26,1.34-4.97,0.65-7.86  c-0.08-0.34-0.43-0.55-0.77-0.47c-0.34,0.08-0.55,0.43-0.47,0.77c0.62,2.59,0.43,5.01-0.55,6.99  c-0.87,1.76-2.34,3.16-4.37,4.18c1.09-2.03,1.58-4.47,1.42-7.15c-0.16-2.63-0.87-4.57-0.9-4.65  c-0.1-0.27-0.38-0.44-0.67-0.41c-0.29,0.03-0.52,0.26-0.56,0.55c-0.13,0.91-0.88,1.64-1.37,2.02  c-0.94-1.25-0.97-3.72-0.89-4.66c0.02-0.22-0.08-0.43-0.25-0.56c-0.17-0.13-0.4-0.17-0.61-0.09  c-2.79,1.03-3.97,3.26-4.43,4.49c-0.68-0.57-1.19-1.49-1.35-1.88c-0.1-0.24-0.34-0.39-0.6-0.39  c-0.26,0.01-0.49,0.17-0.58,0.41c-1.76,4.63-0.55,8.26,0.77,10.48c0.53,0.89,1.12,1.63,1.65,2.21  c-3.97-0.9-6.58-2.66-7.76-5.26c-1.71-3.74,0-8.42,1.1-10.1c1.27-1.95,1.35-4.1,1.26-5.31  c2.38,0.75,2.94,2.87,2.97,2.97c0.08,0.32,0.39,0.53,0.72,0.48c0.33-0.05,0.56-0.34,0.54-0.67  c-0-0.04-0.22-4.24,3.31-6.11c2.55-1.35,4.08-2.87,4.87-3.83c1.11,2.99,0.53,4.75-0.02,6.46  c-0.48,1.47-0.97,2.98-0.06,4.95c0.1,0.22,0.32,0.37,0.57,0.37c0.25,0,0.47-0.13,0.58-0.35  c0.71-1.39,2.08-2.14,3.04-2.52c-0.13,0.91-0.03,2.26,0.91,3.92c0.14,0.27,0.27,0.55,0.39,0.83  c0.14,0.32,0.52,0.47,0.84,0.33c0.32-0.14,0.47-0.52,0.33-0.84c-0.13-0.3-0.28-0.61-0.43-0.91  c-0-0.01-0.01-0.02-0.02-0.03c-1.36-2.38-0.59-3.81-0.53-3.91c0.14-0.21,0.14-0.48-0-0.7  c-0.14-0.21-0.4-0.32-0.65-0.27c-0.12,0.02-2.6,0.48-4.24,2.36c-0.13-0.96,0.15-1.82,0.48-2.83  c0.63-1.93,1.41-4.33-0.46-8.42c-0.1-0.22-0.31-0.36-0.55-0.37c-0.24-0.01-0.47,0.12-0.58,0.32  c-0.01,0.02-1.37,2.36-5.06,4.32c-2.45,1.3-3.41,3.47-3.77,5.11c-0.73-0.91-1.92-1.84-3.82-2.11  c-0.21-0.03-0.42,0.04-0.56,0.2c-0.14,0.15-0.2,0.37-0.16,0.57c0.01,0.03,0.61,2.91-0.95,5.3  c-0.97,1.49-3.28,6.77-1.19,11.33C10.08,32.8,13.74,34.94,19.39,35.7z" />
</svg><svg version="1.1" x="824.6631" y="459.1465" viewBox="0 0 40 40" style="enable-background:new 0 0 40 40;" xml:space="preserve" width="40px" height="40px" id="FlameRed">
<rect fill="#FF000D" width="40px" height="40px" />
<path style="fill:#FF000D;" d="M20,0.64C9.31,0.64,0.64,9.31,0.64,20S9.31,39.36,20,39.36  s19.36-8.67,19.36-19.36S30.69,0.64,20,0.64z" />
<path style="fill:#FF000D;" d="M24.27,35.07c8.45-2.83,8.97-10.24,5.9-16.31  c-1.62-2.83-0.52-4.57-0.52-4.57s-3.24,0.58-4.57,3.18c-1.85-3.99,2.78-5.61-0.35-12.44  c0,0-1.39,2.49-5.32,4.57s-3.64,6.71-3.64,6.71s-0.75-3.12-4.34-3.64c0,0,0.69,3.12-1.04,5.79  S4.25,32.99,19.64,35.07c0,0-7.12-4.98-3.88-13.48c0,0,0.87,2.02,2.31,2.6c0,0,0.69-3.53,4.28-4.86  c0,0-0.35,4.05,1.45,5.55c0,0,1.85-1.1,2.08-2.78C25.89,22.11,28.73,29.69,24.27,35.07z" />
<path d="M8.86,4.81c0.13,0,0.26-0.04,0.37-0.12c0.6-0.42,1.22-0.81,1.86-1.16  c0.31-0.17,0.43-0.56,0.26-0.87c-0.17-0.31-0.56-0.43-0.87-0.26c-0.68,0.37-1.35,0.79-1.99,1.23  c-0.29,0.2-0.36,0.6-0.15,0.89C8.46,4.71,8.66,4.81,8.86,4.81z" />
<path d="M34.14,5.86C30.36,2.08,25.34,0,20,0c-2.4,0-4.75,0.42-6.99,1.26  c-0.33,0.12-0.5,0.49-0.38,0.82c0.12,0.33,0.49,0.5,0.82,0.38c2.09-0.78,4.29-1.17,6.54-1.17  c5,0,9.7,1.95,13.24,5.48c3.54,3.54,5.48,8.24,5.48,13.24s-1.95,9.7-5.48,13.24  c-3.54,3.54-8.24,5.48-13.24,5.48s-9.7-1.95-13.24-5.48c-3.54-3.54-5.48-8.24-5.48-13.24  c0-2.66,0.54-5.22,1.62-7.63c1.04-2.32,2.52-4.38,4.39-6.12c0.26-0.24,0.28-0.64,0.04-0.9  c-0.24-0.26-0.64-0.28-0.9-0.04c-2,1.85-3.58,4.05-4.69,6.54C0.58,14.42,0,17.16,0,20  c0,5.34,2.08,10.36,5.86,14.14S14.66,40,20,40c5.34,0,10.36-2.08,14.14-5.86S40,25.34,40,20  S37.92,9.64,34.14,5.86z" />
<path d="M19.39,35.7c0.29,0.04,0.57-0.13,0.68-0.4c0.11-0.27,0.01-0.59-0.23-0.76  c-0.02-0.01-1.68-1.19-2.97-3.35c-1.49-2.5-1.86-5.2-1.1-8.04c0.45,0.63,1.09,1.31,1.91,1.64  c0.18,0.07,0.38,0.06,0.54-0.03c0.17-0.09,0.29-0.25,0.32-0.44c0.01-0.03,0.54-2.59,2.99-3.97  c0.02,1.41,0.28,3.84,1.7,5.03c0.21,0.17,0.5,0.2,0.74,0.06c0.06-0.03,0.93-0.56,1.61-1.46  c0.53,2.44,0.99,7.11-1.97,10.68c-0.18,0.22-0.2,0.53-0.03,0.77c0.12,0.18,0.32,0.28,0.53,0.28  c0.07,0,0.14-0.01,0.2-0.03c3.37-1.13,5.73-3.02,7.01-5.61c1.12-2.26,1.34-4.97,0.65-7.86  c-0.08-0.34-0.43-0.55-0.77-0.47c-0.34,0.08-0.55,0.43-0.47,0.77c0.62,2.59,0.43,5.01-0.55,6.99  c-0.87,1.76-2.34,3.16-4.37,4.18c1.09-2.03,1.58-4.47,1.42-7.15c-0.16-2.63-0.87-4.57-0.9-4.65  c-0.1-0.27-0.38-0.44-0.67-0.41c-0.29,0.03-0.52,0.26-0.56,0.55c-0.13,0.91-0.88,1.64-1.37,2.02  c-0.94-1.25-0.97-3.72-0.89-4.66c0.02-0.22-0.08-0.43-0.25-0.56c-0.17-0.13-0.4-0.17-0.61-0.09  c-2.79,1.03-3.97,3.26-4.43,4.49c-0.68-0.57-1.19-1.49-1.35-1.88c-0.1-0.24-0.34-0.39-0.6-0.39  c-0.26,0.01-0.49,0.17-0.58,0.41c-1.76,4.63-0.55,8.26,0.77,10.48c0.53,0.89,1.12,1.63,1.65,2.21  c-3.97-0.9-6.58-2.66-7.76-5.26c-1.71-3.74,0-8.42,1.1-10.1c1.27-1.95,1.35-4.1,1.26-5.31  c2.38,0.75,2.94,2.87,2.97,2.97c0.08,0.32,0.39,0.53,0.72,0.48c0.33-0.05,0.56-0.34,0.54-0.67  c-0-0.04-0.22-4.24,3.31-6.11c2.55-1.35,4.08-2.87,4.87-3.83c1.11,2.99,0.53,4.75-0.02,6.46  c-0.48,1.47-0.97,2.98-0.06,4.95c0.1,0.22,0.32,0.37,0.57,0.37c0.25,0,0.47-0.13,0.58-0.35  c0.71-1.39,2.08-2.14,3.04-2.52c-0.13,0.91-0.03,2.26,0.91,3.92c0.14,0.27,0.27,0.55,0.39,0.83  c0.14,0.32,0.52,0.47,0.84,0.33c0.32-0.14,0.47-0.52,0.33-0.84c-0.13-0.3-0.28-0.61-0.43-0.91  c-0-0.01-0.01-0.02-0.02-0.03c-1.36-2.38-0.59-3.81-0.53-3.91c0.14-0.21,0.14-0.48-0-0.7  c-0.14-0.21-0.4-0.32-0.65-0.27c-0.12,0.02-2.6,0.48-4.24,2.36c-0.13-0.96,0.15-1.82,0.48-2.83  c0.63-1.93,1.41-4.33-0.46-8.42c-0.1-0.22-0.31-0.36-0.55-0.37c-0.24-0.01-0.47,0.12-0.58,0.32  c-0.01,0.02-1.37,2.36-5.06,4.32c-2.45,1.3-3.41,3.47-3.77,5.11c-0.73-0.91-1.92-1.84-3.82-2.11  c-0.21-0.03-0.42,0.04-0.56,0.2c-0.14,0.15-0.2,0.37-0.16,0.57c0.01,0.03,0.61,2.91-0.95,5.3  c-0.97,1.49-3.28,6.77-1.19,11.33C10.08,32.8,13.74,34.94,19.39,35.7z" />
</svg><svg version="1.1" x="879.6647" y="459.1465" viewBox="0 0 40 40" style="enable-background:new 0 0 40 40;" xml:space="preserve" width="40px" height="40px" id="MonoxideBlack">
<rect fill="#FFFFFF" width="40px" height="40px" />
<g>
	<path style="fill:#FFFFFF;" d="M39.2,20.62c0-3.08-2.29-5.63-5.25-6.04c0.65-0.97,1.03-2.13,1.03-3.39   c0-3.37-2.73-6.1-6.1-6.1c-1.27,0-2.45,0.39-3.42,1.05c-1.12-1.44-2.86-2.37-4.83-2.37   c-2.49,0-4.63,1.49-5.58,3.63c-0.66-0.24-1.37-0.38-2.11-0.38c-3.37,0-6.1,2.73-6.1,6.1   c0,0.82,0.16,1.61,0.46,2.33c-1.54,1.11-2.54,2.91-2.54,4.95c0,3.37,2.73,6.1,6.1,6.1   c0.13,0,0.26-0,0.39-0.01c-0.08,0.39-0.12,0.78-0.12,1.19c0,3.37,2.73,6.1,6.1,6.1   c2.45,0,4.56-1.44,5.53-3.52c1.1,1.58,2.93,2.62,5.01,2.62c3.37,0,6.1-2.73,6.1-6.1   c0-0.04-0-0.08-0-0.12C36.87,26.3,39.2,23.74,39.2,20.62z" />
	<path style="fill:#FFFFFF;" d="M8.08,31.17c0-1.23-1-2.23-2.23-2.23c-0.8,0-1.5,0.42-1.9,1.06   c-0.28-0.13-0.6-0.2-0.93-0.2c-1.23,0-2.23,1-2.23,2.23c0,1.23,1,2.23,2.23,2.23   c0.06,0,0.12-0,0.19-0.01c0.12,1.11,1.07,1.98,2.21,1.98c1.23,0,2.23-1,2.23-2.23   c0-0.42-0.12-0.82-0.32-1.16C7.78,32.43,8.08,31.83,8.08,31.17z" />
</g>
<g>
	<path style="fill:#000000;" d="M17.23,34.59c-3.8,0-6.9-3.09-6.9-6.9c0-0.13,0-0.27,0.01-0.4   c-3.57-0.26-6.39-3.25-6.39-6.88c0-2.01,0.88-3.92,2.39-5.22c-0.21-0.66-0.31-1.35-0.31-2.06   c0-3.8,3.09-6.9,6.9-6.9c0.58,0,1.15,0.07,1.71,0.21c1.22-2.13,3.5-3.47,5.99-3.47   c1.91,0,3.69,0.77,4.99,2.13c1-0.54,2.11-0.82,3.26-0.82c3.8,0,6.9,3.09,6.9,6.9   c0,0.99-0.21,1.96-0.61,2.84C37.98,14.92,40,17.58,40,20.62c0,3.24-2.26,6.02-5.36,6.73   c-0.28,3.54-3.26,6.34-6.88,6.34c-1.85,0-3.61-0.74-4.89-2.04C21.6,33.47,19.49,34.59,17.23,34.59z    M11.24,25.71c0.23,0,0.45,0.1,0.6,0.27c0.16,0.19,0.23,0.44,0.18,0.68c-0.07,0.34-0.1,0.69-0.1,1.04   c0,2.92,2.38,5.3,5.3,5.3c2.05,0,3.94-1.2,4.81-3.06c0.12-0.26,0.37-0.43,0.65-0.46   c0.28-0.02,0.56,0.1,0.72,0.34c0.99,1.43,2.62,2.28,4.36,2.28c2.92,0,5.3-2.38,5.3-5.3   c0-0.03-0-0.07-0-0.1c-0.01-0.41,0.29-0.76,0.7-0.81c2.65-0.33,4.64-2.59,4.64-5.26   c0-2.63-1.96-4.89-4.57-5.25c-0.27-0.04-0.51-0.21-0.62-0.46c-0.11-0.25-0.09-0.54,0.06-0.77   c0.58-0.87,0.89-1.89,0.89-2.94c0-2.92-2.38-5.3-5.3-5.3c-1.07,0-2.1,0.32-2.98,0.91   c-0.35,0.24-0.82,0.16-1.08-0.17c-1.01-1.31-2.54-2.06-4.2-2.06c-2.1,0-4,1.24-4.85,3.16   c-0.17,0.38-0.61,0.57-1,0.43c-0.59-0.22-1.21-0.33-1.84-0.33c-2.92,0-5.3,2.38-5.3,5.3   c0,0.7,0.13,1.38,0.4,2.02c0.14,0.34,0.03,0.73-0.27,0.95c-1.38,1-2.21,2.61-2.21,4.31   c0,2.92,2.38,5.3,5.3,5.3c0.11,0,0.22-0,0.34-0.01C11.21,25.71,11.23,25.71,11.24,25.71z" />
	<path style="fill:#000000;" d="M5.42,37.02c-1.3,0-2.43-0.82-2.85-2C1.12,34.8,0,33.54,0,32.03   c0-1.67,1.36-3.02,3.02-3.02c0.22,0,0.44,0.02,0.65,0.07c0.56-0.59,1.34-0.93,2.18-0.93   c1.67,0,3.02,1.36,3.02,3.02c0,0.66-0.22,1.29-0.6,1.81c0.12,0.32,0.18,0.67,0.18,1.01   C8.44,35.66,7.09,37.02,5.42,37.02z M3.21,33.45c0.4,0,0.75,0.3,0.79,0.71   c0.08,0.72,0.69,1.27,1.42,1.27c0.79,0,1.43-0.64,1.43-1.43c0-0.26-0.07-0.52-0.21-0.74   c-0.2-0.33-0.14-0.76,0.15-1.01c0.31-0.27,0.48-0.66,0.48-1.07c0-0.79-0.64-1.43-1.43-1.43   c-0.5,0-0.96,0.25-1.22,0.68c-0.21,0.34-0.65,0.47-1.01,0.31c-0.19-0.09-0.39-0.13-0.6-0.13   c-0.79,0-1.43,0.64-1.43,1.43c0,0.79,0.64,1.43,1.43,1.43c0.04,0,0.07-0,0.12-0.01   C3.17,33.45,3.19,33.45,3.21,33.45z" />
	<path style="fill:#000000;" d="M27.64,31.07c-0.78,0-1.54-0.2-2.22-0.59c-0.38-0.22-0.51-0.71-0.3-1.09   c0.22-0.38,0.71-0.51,1.09-0.3c0.43,0.25,0.92,0.38,1.42,0.38c0.75,0,1.47-0.29,2.01-0.82   c0.32-0.31,0.82-0.3,1.13,0.01c0.31,0.32,0.3,0.82-0.01,1.13C29.92,30.62,28.81,31.07,27.64,31.07z    M31.25,28.05c-0.05,0-0.09-0-0.14-0.01c-0.43-0.08-0.72-0.49-0.64-0.92c0.01-0.06,0.02-0.12,0.03-0.19   c0.05-0.44,0.44-0.75,0.88-0.7c0.44,0.05,0.75,0.44,0.7,0.88c-0.01,0.1-0.02,0.19-0.04,0.29   C31.97,27.78,31.63,28.05,31.25,28.05z" />
	<path style="fill:#000000;" d="M14.48,14.97c-1,0-1.56,0.53-1.56,1.68v3.79c0,1.15,0.56,1.68,1.59,1.68   c1.33,0,1.45-0.9,1.5-1.47c0.03-0.34,0.3-0.46,0.68-0.46c0.48,0,0.7,0.14,0.7,0.72   c0,1.43-1.19,2.44-2.97,2.44c-1.58,0-2.88-0.79-2.88-2.9v-3.79c0-2.11,1.32-2.9,2.89-2.9   c1.78,0,2.96,0.98,2.96,2.36c0,0.59-0.22,0.72-0.69,0.72c-0.42,0-0.68-0.14-0.69-0.46   C15.97,15.91,15.82,14.97,14.48,14.97z" />
	<path style="fill:#000000;" d="M18.58,20.44v-3.79c0-2.11,1.26-2.9,2.92-2.9   c1.64,0,2.93,0.79,2.93,2.9v3.79c0,2.11-1.29,2.9-2.93,2.9   C19.84,23.35,18.58,22.55,18.58,20.44z M23.04,16.65c0-1.15-0.59-1.68-1.55-1.68   c-0.98,0-1.54,0.53-1.54,1.68v3.79c0,1.15,0.56,1.68,1.54,1.68c0.96,0,1.55-0.53,1.55-1.68V16.65z" />
</g>
</svg><svg version="1.1" x="879.6647" y="459.1465" viewBox="0 0 40 40" style="enable-background:new 0 0 40 40;" xml:space="preserve" width="40px" height="40px" id="MonoxideRed">
<rect fill="#FF000D" width="40px" height="40px" />
<g>
	<path style="fill:#FF000D;" d="M39.2,20.62c0-3.08-2.29-5.63-5.25-6.04c0.65-0.97,1.03-2.13,1.03-3.39   c0-3.37-2.73-6.1-6.1-6.1c-1.27,0-2.45,0.39-3.42,1.05c-1.12-1.44-2.86-2.37-4.83-2.37   c-2.49,0-4.63,1.49-5.58,3.63c-0.66-0.24-1.37-0.38-2.11-0.38c-3.37,0-6.1,2.73-6.1,6.1   c0,0.82,0.16,1.61,0.46,2.33c-1.54,1.11-2.54,2.91-2.54,4.95c0,3.37,2.73,6.1,6.1,6.1   c0.13,0,0.26-0,0.39-0.01c-0.08,0.39-0.12,0.78-0.12,1.19c0,3.37,2.73,6.1,6.1,6.1   c2.45,0,4.56-1.44,5.53-3.52c1.1,1.58,2.93,2.62,5.01,2.62c3.37,0,6.1-2.73,6.1-6.1   c0-0.04-0-0.08-0-0.12C36.87,26.3,39.2,23.74,39.2,20.62z" />
	<path style="fill:#FF000D;" d="M8.08,31.17c0-1.23-1-2.23-2.23-2.23c-0.8,0-1.5,0.42-1.9,1.06   c-0.28-0.13-0.6-0.2-0.93-0.2c-1.23,0-2.23,1-2.23,2.23c0,1.23,1,2.23,2.23,2.23   c0.06,0,0.12-0,0.19-0.01c0.12,1.11,1.07,1.98,2.21,1.98c1.23,0,2.23-1,2.23-2.23   c0-0.42-0.12-0.82-0.32-1.16C7.78,32.43,8.08,31.83,8.08,31.17z" />
</g>
<g>
	<path style="fill:#000000;" d="M17.23,34.59c-3.8,0-6.9-3.09-6.9-6.9c0-0.13,0-0.27,0.01-0.4   c-3.57-0.26-6.39-3.25-6.39-6.88c0-2.01,0.88-3.92,2.39-5.22c-0.21-0.66-0.31-1.35-0.31-2.06   c0-3.8,3.09-6.9,6.9-6.9c0.58,0,1.15,0.07,1.71,0.21c1.22-2.13,3.5-3.47,5.99-3.47   c1.91,0,3.69,0.77,4.99,2.13c1-0.54,2.11-0.82,3.26-0.82c3.8,0,6.9,3.09,6.9,6.9   c0,0.99-0.21,1.96-0.61,2.84C37.98,14.92,40,17.58,40,20.62c0,3.24-2.26,6.02-5.36,6.73   c-0.28,3.54-3.26,6.34-6.88,6.34c-1.85,0-3.61-0.74-4.89-2.04C21.6,33.47,19.49,34.59,17.23,34.59z    M11.24,25.71c0.23,0,0.45,0.1,0.6,0.27c0.16,0.19,0.23,0.44,0.18,0.68c-0.07,0.34-0.1,0.69-0.1,1.04   c0,2.92,2.38,5.3,5.3,5.3c2.05,0,3.94-1.2,4.81-3.06c0.12-0.26,0.37-0.43,0.65-0.46   c0.28-0.02,0.56,0.1,0.72,0.34c0.99,1.43,2.62,2.28,4.36,2.28c2.92,0,5.3-2.38,5.3-5.3   c0-0.03-0-0.07-0-0.1c-0.01-0.41,0.29-0.76,0.7-0.81c2.65-0.33,4.64-2.59,4.64-5.26   c0-2.63-1.96-4.89-4.57-5.25c-0.27-0.04-0.51-0.21-0.62-0.46c-0.11-0.25-0.09-0.54,0.06-0.77   c0.58-0.87,0.89-1.89,0.89-2.94c0-2.92-2.38-5.3-5.3-5.3c-1.07,0-2.1,0.32-2.98,0.91   c-0.35,0.24-0.82,0.16-1.08-0.17c-1.01-1.31-2.54-2.06-4.2-2.06c-2.1,0-4,1.24-4.85,3.16   c-0.17,0.38-0.61,0.57-1,0.43c-0.59-0.22-1.21-0.33-1.84-0.33c-2.92,0-5.3,2.38-5.3,5.3   c0,0.7,0.13,1.38,0.4,2.02c0.14,0.34,0.03,0.73-0.27,0.95c-1.38,1-2.21,2.61-2.21,4.31   c0,2.92,2.38,5.3,5.3,5.3c0.11,0,0.22-0,0.34-0.01C11.21,25.71,11.23,25.71,11.24,25.71z" />
	<path style="fill:#000000;" d="M5.42,37.02c-1.3,0-2.43-0.82-2.85-2C1.12,34.8,0,33.54,0,32.03   c0-1.67,1.36-3.02,3.02-3.02c0.22,0,0.44,0.02,0.65,0.07c0.56-0.59,1.34-0.93,2.18-0.93   c1.67,0,3.02,1.36,3.02,3.02c0,0.66-0.22,1.29-0.6,1.81c0.12,0.32,0.18,0.67,0.18,1.01   C8.44,35.66,7.09,37.02,5.42,37.02z M3.21,33.45c0.4,0,0.75,0.3,0.79,0.71   c0.08,0.72,0.69,1.27,1.42,1.27c0.79,0,1.43-0.64,1.43-1.43c0-0.26-0.07-0.52-0.21-0.74   c-0.2-0.33-0.14-0.76,0.15-1.01c0.31-0.27,0.48-0.66,0.48-1.07c0-0.79-0.64-1.43-1.43-1.43   c-0.5,0-0.96,0.25-1.22,0.68c-0.21,0.34-0.65,0.47-1.01,0.31c-0.19-0.09-0.39-0.13-0.6-0.13   c-0.79,0-1.43,0.64-1.43,1.43c0,0.79,0.64,1.43,1.43,1.43c0.04,0,0.07-0,0.12-0.01   C3.17,33.45,3.19,33.45,3.21,33.45z" />
	<path style="fill:#000000;" d="M27.64,31.07c-0.78,0-1.54-0.2-2.22-0.59c-0.38-0.22-0.51-0.71-0.3-1.09   c0.22-0.38,0.71-0.51,1.09-0.3c0.43,0.25,0.92,0.38,1.42,0.38c0.75,0,1.47-0.29,2.01-0.82   c0.32-0.31,0.82-0.3,1.13,0.01c0.31,0.32,0.3,0.82-0.01,1.13C29.92,30.62,28.81,31.07,27.64,31.07z    M31.25,28.05c-0.05,0-0.09-0-0.14-0.01c-0.43-0.08-0.72-0.49-0.64-0.92c0.01-0.06,0.02-0.12,0.03-0.19   c0.05-0.44,0.44-0.75,0.88-0.7c0.44,0.05,0.75,0.44,0.7,0.88c-0.01,0.1-0.02,0.19-0.04,0.29   C31.97,27.78,31.63,28.05,31.25,28.05z" />
	<path style="fill:#000000;" d="M14.48,14.97c-1,0-1.56,0.53-1.56,1.68v3.79c0,1.15,0.56,1.68,1.59,1.68   c1.33,0,1.45-0.9,1.5-1.47c0.03-0.34,0.3-0.46,0.68-0.46c0.48,0,0.7,0.14,0.7,0.72   c0,1.43-1.19,2.44-2.97,2.44c-1.58,0-2.88-0.79-2.88-2.9v-3.79c0-2.11,1.32-2.9,2.89-2.9   c1.78,0,2.96,0.98,2.96,2.36c0,0.59-0.22,0.72-0.69,0.72c-0.42,0-0.68-0.14-0.69-0.46   C15.97,15.91,15.82,14.97,14.48,14.97z" />
	<path style="fill:#000000;" d="M18.58,20.44v-3.79c0-2.11,1.26-2.9,2.92-2.9   c1.64,0,2.93,0.79,2.93,2.9v3.79c0,2.11-1.29,2.9-2.93,2.9   C19.84,23.35,18.58,22.55,18.58,20.44z M23.04,16.65c0-1.15-0.59-1.68-1.55-1.68   c-0.98,0-1.54,0.53-1.54,1.68v3.79c0,1.15,0.56,1.68,1.54,1.68c0.96,0,1.55-0.53,1.55-1.68V16.65z" />
</g>
</svg><svg version="1.1" x="939.1712" y="459.1465" viewBox="0 0 40 40" style="enable-background:new 0 0 40 40;" xml:space="preserve" width="40px" height="40px" id="MethaneBlack">
<rect fill="#FFFFFF" width="40px" height="40px" />
<g>	<g><path d="M24.13,4.17c-0.46,0-0.83,0.37-0.83,0.83s0.37,0.83,0.83,0.83s0.83-0.37,0.83-0.83    S24.59,4.17,24.13,4.17z" />  </g>
</g>
<g>
    <g>
        <path d="M20.96,3.38c-0.33-0.03-0.67-0.05-1.01-0.05c-1.46,0-2.88,0.29-4.21,0.85    c-0.42,0.18-0.62,0.67-0.44,1.09c0.18,0.42,0.67,0.62,1.09,0.44c1.13-0.48,2.33-0.72,3.56-0.72    c0.29,0,0.57,0.01,0.85,0.04c0.46,0.04,0.86-0.29,0.91-0.75C21.76,3.83,21.42,3.42,20.96,3.38z" />
	</g>
</g>
<g>
	<g>
		<path d="M26.62,6.67c-2.34,0-4.17,2.93-4.17,6.67c0,3.74,1.83,6.67,4.17,6.67    c2.34,0,4.17-2.93,4.17-6.67C30.79,9.59,28.96,6.67,26.62,6.67z M26.62,18.33    c-1.18,0-2.5-2.05-2.5-5c0-2.95,1.32-5,2.5-5s2.5,2.05,2.5,5    C29.12,16.28,27.81,18.33,26.62,18.33z" />
    </g>
</g>
<g>
    <g>
        <path d="M13.29,6.67c-2.34,0-4.17,2.93-4.17,6.67c0,3.74,1.83,6.67,4.17,6.67    c2.34,0,4.17-2.93,4.17-6.67C17.46,9.59,15.63,6.67,13.29,6.67z M13.29,18.33    c-1.18,0-2.5-2.05-2.5-5c0-2.95,1.32-5,2.5-5s2.5,2.05,2.5,5    C15.79,16.28,14.48,18.33,13.29,18.33z" />
	</g>
</g>
<g>
	<g>
		<path d="M38.82,31.37c-0.02-0.02-0.04-0.04-0.06-0.07l-3.54-3.54c-0.39-0.39-1.13-0.69-2.48-0.12    l-2.72-2.72c0.87-1.18,0.97-1.29,1.3-1.78l0.67,0.67c0.97,0.97,2.56,0.97,3.53,0    c0.97-0.97,0.97-2.56,0-3.53l-1.97-1.97c0.37-1.35,0.55-2.75,0.55-4.15    c0-1.19-0.15-2.38-0.44-3.52l1.86-1.86c0.98-0.98,0.98-2.56,0-3.53    c-0.97-0.97-2.56-0.97-3.54,0l-0.59,0.59C28.78,2.21,24.58,0,19.96,0    c-4.62,0-8.81,2.2-11.46,5.84l-0.59-0.59c-0.97-0.97-2.56-0.97-3.53,0    c-0.98,0.98-0.98,2.56,0,3.53l1.86,1.86c-0.29,1.15-0.44,2.33-0.44,3.52c0,1.4,0.19,2.79,0.58,4.13    l-2,2c-0.97,0.97-0.97,2.56,0,3.53c0.97,0.97,2.56,0.97,3.53,0l0.78-0.78    c0.13,0.18,0.27,0.36,0.41,0.54l0.98,1.23l-2.84,2.84c-1.35-0.57-2.09-0.27-2.47,0.12L1.23,31.31    c-0.02,0.02-0.04,0.04-0.06,0.07c-1.11,1.25,0.4,3.81,2.42,5.83c1.39,1.39,4.37,3.71,5.83,2.41    c0.02-0.02,0.04-0.04,0.06-0.06l3.54-3.54c0.39-0.39,0.69-1.13,0.12-2.47l1.15-1.15    c1.41,1.64,3.47,2.6,5.68,2.6c2.23,0,4.3-0.97,5.71-2.64l1.19,1.19    c-0.57,1.35-0.27,2.09,0.12,2.47l3.53,3.53c0,0,0,0,0,0    c1.43,1.42,4.45-0.91,5.89-2.36C38.43,35.18,39.93,32.62,38.82,31.37z M34.37,21.47    c0.32,0.32,0.32,0.85,0,1.18c-0.32,0.32-0.85,0.32-1.18,0l-0.96-0.96    c0.28-0.52,0.53-1.06,0.75-1.61L34.37,21.47z M33.19,6.42c0.32-0.32,0.85-0.32,1.18-0    c0.33,0.33,0.33,0.85,0,1.18l-1.27,1.27c-0.22-0.55-0.48-1.08-0.76-1.59L33.19,6.42z M5.55,7.6    c-0.33-0.33-0.33-0.85-0-1.18c0.32-0.32,0.85-0.32,1.18,0l0.85,0.85c-0.29,0.51-0.54,1.05-0.76,1.59    L5.55,7.6z M6.73,22.65c-0.32,0.32-0.85,0.32-1.18,0c-0.32-0.32-0.32-0.85,0-1.18l1.44-1.44    c0.23,0.54,0.49,1.07,0.78,1.58L6.73,22.65z M8.11,18.28c-0.43-1.33-0.65-2.71-0.65-4.11    c0-6.87,5.55-12.5,12.5-12.5c6.95,0,12.5,5.63,12.5,12.5c0,3.15-1.04,6.11-2.82,8.51    l-2.36,3.17c-0.76-3.38-3.77-5.85-7.32-5.85c-3.43,0-6.33,2.3-7.22,5.47    C10.5,22.63,9.07,21.27,8.11,18.28z M24.3,23.6l-1.41,0.94c-0.77-0.77-1.82-1.21-2.93-1.21    c-1.11,0-2.16,0.44-2.93,1.21l-1.41-0.94c1.1-1.23,2.67-1.94,4.34-1.94S23.2,22.38,24.3,23.6    z M4.77,36.02c-1.63-1.63-2.24-2.99-2.3-3.48c0.49,0.06,1.85,0.67,3.48,2.3    c1.63,1.63,2.24,2.99,2.3,3.48C7.76,38.27,6.4,37.65,4.77,36.02z M9.6,37.08    c-0.52-1.22-1.54-2.49-2.47-3.42c-1.08-1.08-2.31-2.01-3.42-2.48l2.19-2.19    c0.31-0.02,0.85,0.25,1.13,0.4c0.77,0.42,1.64,1.09,2.45,1.91c1.37,1.37,1.91,2.47,1.91,2.46    c0.15,0.27,0.41,0.82,0.4,1.13L9.6,37.08z M12.28,32.04c-0.45-0.64-1-1.3-1.62-1.92    c-0.62-0.62-1.28-1.17-1.92-1.62l2.38-2.38l1.34,1.67c0.04,1.12,0.34,2.21,0.86,3.2L12.28,32.04z     M19.13,33.27c-2.85-0.41-5-2.86-5-5.77c0-0.88,0.19-1.73,0.57-2.51l1.41,0.94    c-0.2,0.5-0.31,1.03-0.31,1.57c0,2.01,1.43,3.7,3.33,4.08V33.27z M17.46,27.5    c0-1.38,1.12-2.5,2.5-2.5c1.38,0,2.5,1.12,2.5,2.5c0,1.38-1.12,2.5-2.5,2.5    C18.58,30,17.46,28.88,17.46,27.5z M20.79,33.27v-1.69c1.9-0.39,3.33-2.07,3.33-4.08    c0-0.54-0.11-1.08-0.31-1.57l1.41-0.94c0.37,0.78,0.57,1.63,0.57,2.51    C25.79,30.38,23.67,32.86,20.79,33.27z M26.62,30.94c0.4-0.77,0.66-1.6,0.77-2.46l1.64-2.2    l2.22,2.22c-0.64,0.45-1.3,1-1.92,1.62c-0.62,0.62-1.17,1.28-1.62,1.92L26.62,30.94z     M30.4,37.08L28.21,34.89c-0.02-0.31,0.25-0.86,0.4-1.13c0.42-0.77,1.09-1.64,1.91-2.46    c1.37-1.37,2.46-1.91,2.46-1.91c0.27-0.15,0.83-0.41,1.13-0.4l2.19,2.19    c-1.11,0.47-2.34,1.4-3.42,2.48C31.94,34.6,30.92,35.86,30.4,37.08z M35.23,36.02    c-1.63,1.63-2.99,2.24-3.48,2.3c0.06-0.49,0.68-1.85,2.3-3.48c1.63-1.63,2.99-2.24,3.48-2.3    C37.47,33.03,36.86,34.39,35.23,36.02z" />
    </g>
</g>
</svg><svg version="1.1" x="939.1712" y="459.1465" viewBox="0 0 40 40" style="enable-background:new 0 0 40 40;" xml:space="preserve" width="40px" height="40px" id="MethaneRed">
<rect fill="#FF000D" width="40px" height="40px" />
<g>	<g><path d="M24.13,4.17c-0.46,0-0.83,0.37-0.83,0.83s0.37,0.83,0.83,0.83s0.83-0.37,0.83-0.83    S24.59,4.17,24.13,4.17z" />  </g>
</g>
<g>
    <g>
        <path d="M20.96,3.38c-0.33-0.03-0.67-0.05-1.01-0.05c-1.46,0-2.88,0.29-4.21,0.85    c-0.42,0.18-0.62,0.67-0.44,1.09c0.18,0.42,0.67,0.62,1.09,0.44c1.13-0.48,2.33-0.72,3.56-0.72    c0.29,0,0.57,0.01,0.85,0.04c0.46,0.04,0.86-0.29,0.91-0.75C21.76,3.83,21.42,3.42,20.96,3.38z" />
	</g>
</g>
<g>
	<g>
		<path d="M26.62,6.67c-2.34,0-4.17,2.93-4.17,6.67c0,3.74,1.83,6.67,4.17,6.67    c2.34,0,4.17-2.93,4.17-6.67C30.79,9.59,28.96,6.67,26.62,6.67z M26.62,18.33    c-1.18,0-2.5-2.05-2.5-5c0-2.95,1.32-5,2.5-5s2.5,2.05,2.5,5    C29.12,16.28,27.81,18.33,26.62,18.33z" />
    </g>
</g>
<g>
    <g>
        <path d="M13.29,6.67c-2.34,0-4.17,2.93-4.17,6.67c0,3.74,1.83,6.67,4.17,6.67    c2.34,0,4.17-2.93,4.17-6.67C17.46,9.59,15.63,6.67,13.29,6.67z M13.29,18.33    c-1.18,0-2.5-2.05-2.5-5c0-2.95,1.32-5,2.5-5s2.5,2.05,2.5,5    C15.79,16.28,14.48,18.33,13.29,18.33z" />
	</g>
</g>
<g>
	<g>
		<path d="M38.82,31.37c-0.02-0.02-0.04-0.04-0.06-0.07l-3.54-3.54c-0.39-0.39-1.13-0.69-2.48-0.12    l-2.72-2.72c0.87-1.18,0.97-1.29,1.3-1.78l0.67,0.67c0.97,0.97,2.56,0.97,3.53,0    c0.97-0.97,0.97-2.56,0-3.53l-1.97-1.97c0.37-1.35,0.55-2.75,0.55-4.15    c0-1.19-0.15-2.38-0.44-3.52l1.86-1.86c0.98-0.98,0.98-2.56,0-3.53    c-0.97-0.97-2.56-0.97-3.54,0l-0.59,0.59C28.78,2.21,24.58,0,19.96,0    c-4.62,0-8.81,2.2-11.46,5.84l-0.59-0.59c-0.97-0.97-2.56-0.97-3.53,0    c-0.98,0.98-0.98,2.56,0,3.53l1.86,1.86c-0.29,1.15-0.44,2.33-0.44,3.52c0,1.4,0.19,2.79,0.58,4.13    l-2,2c-0.97,0.97-0.97,2.56,0,3.53c0.97,0.97,2.56,0.97,3.53,0l0.78-0.78    c0.13,0.18,0.27,0.36,0.41,0.54l0.98,1.23l-2.84,2.84c-1.35-0.57-2.09-0.27-2.47,0.12L1.23,31.31    c-0.02,0.02-0.04,0.04-0.06,0.07c-1.11,1.25,0.4,3.81,2.42,5.83c1.39,1.39,4.37,3.71,5.83,2.41    c0.02-0.02,0.04-0.04,0.06-0.06l3.54-3.54c0.39-0.39,0.69-1.13,0.12-2.47l1.15-1.15    c1.41,1.64,3.47,2.6,5.68,2.6c2.23,0,4.3-0.97,5.71-2.64l1.19,1.19    c-0.57,1.35-0.27,2.09,0.12,2.47l3.53,3.53c0,0,0,0,0,0    c1.43,1.42,4.45-0.91,5.89-2.36C38.43,35.18,39.93,32.62,38.82,31.37z M34.37,21.47    c0.32,0.32,0.32,0.85,0,1.18c-0.32,0.32-0.85,0.32-1.18,0l-0.96-0.96    c0.28-0.52,0.53-1.06,0.75-1.61L34.37,21.47z M33.19,6.42c0.32-0.32,0.85-0.32,1.18-0    c0.33,0.33,0.33,0.85,0,1.18l-1.27,1.27c-0.22-0.55-0.48-1.08-0.76-1.59L33.19,6.42z M5.55,7.6    c-0.33-0.33-0.33-0.85-0-1.18c0.32-0.32,0.85-0.32,1.18,0l0.85,0.85c-0.29,0.51-0.54,1.05-0.76,1.59    L5.55,7.6z M6.73,22.65c-0.32,0.32-0.85,0.32-1.18,0c-0.32-0.32-0.32-0.85,0-1.18l1.44-1.44    c0.23,0.54,0.49,1.07,0.78,1.58L6.73,22.65z M8.11,18.28c-0.43-1.33-0.65-2.71-0.65-4.11    c0-6.87,5.55-12.5,12.5-12.5c6.95,0,12.5,5.63,12.5,12.5c0,3.15-1.04,6.11-2.82,8.51    l-2.36,3.17c-0.76-3.38-3.77-5.85-7.32-5.85c-3.43,0-6.33,2.3-7.22,5.47    C10.5,22.63,9.07,21.27,8.11,18.28z M24.3,23.6l-1.41,0.94c-0.77-0.77-1.82-1.21-2.93-1.21    c-1.11,0-2.16,0.44-2.93,1.21l-1.41-0.94c1.1-1.23,2.67-1.94,4.34-1.94S23.2,22.38,24.3,23.6    z M4.77,36.02c-1.63-1.63-2.24-2.99-2.3-3.48c0.49,0.06,1.85,0.67,3.48,2.3    c1.63,1.63,2.24,2.99,2.3,3.48C7.76,38.27,6.4,37.65,4.77,36.02z M9.6,37.08    c-0.52-1.22-1.54-2.49-2.47-3.42c-1.08-1.08-2.31-2.01-3.42-2.48l2.19-2.19    c0.31-0.02,0.85,0.25,1.13,0.4c0.77,0.42,1.64,1.09,2.45,1.91c1.37,1.37,1.91,2.47,1.91,2.46    c0.15,0.27,0.41,0.82,0.4,1.13L9.6,37.08z M12.28,32.04c-0.45-0.64-1-1.3-1.62-1.92    c-0.62-0.62-1.28-1.17-1.92-1.62l2.38-2.38l1.34,1.67c0.04,1.12,0.34,2.21,0.86,3.2L12.28,32.04z     M19.13,33.27c-2.85-0.41-5-2.86-5-5.77c0-0.88,0.19-1.73,0.57-2.51l1.41,0.94    c-0.2,0.5-0.31,1.03-0.31,1.57c0,2.01,1.43,3.7,3.33,4.08V33.27z M17.46,27.5    c0-1.38,1.12-2.5,2.5-2.5c1.38,0,2.5,1.12,2.5,2.5c0,1.38-1.12,2.5-2.5,2.5    C18.58,30,17.46,28.88,17.46,27.5z M20.79,33.27v-1.69c1.9-0.39,3.33-2.07,3.33-4.08    c0-0.54-0.11-1.08-0.31-1.57l1.41-0.94c0.37,0.78,0.57,1.63,0.57,2.51    C25.79,30.38,23.67,32.86,20.79,33.27z M26.62,30.94c0.4-0.77,0.66-1.6,0.77-2.46l1.64-2.2    l2.22,2.22c-0.64,0.45-1.3,1-1.92,1.62c-0.62,0.62-1.17,1.28-1.62,1.92L26.62,30.94z     M30.4,37.08L28.21,34.89c-0.02-0.31,0.25-0.86,0.4-1.13c0.42-0.77,1.09-1.64,1.91-2.46    c1.37-1.37,2.46-1.91,2.46-1.91c0.27-0.15,0.83-0.41,1.13-0.4l2.19,2.19    c-1.11,0.47-2.34,1.4-3.42,2.48C31.94,34.6,30.92,35.86,30.4,37.08z M35.23,36.02    c-1.63,1.63-2.99,2.24-3.48,2.3c0.06-0.49,0.68-1.85,2.3-3.48c1.63-1.63,2.99-2.24,3.48-2.3    C37.47,33.03,36.86,34.39,35.23,36.02z" />
    </g>
</g>
</svg></svg>