<svg version="1.1" id="Layer_1" xmlns="http://www.w3.org/2000/svg" xmlns:xlink="http://www.w3.org/1999/xlink" x="0px" y="0px"
     width="480" height="299"
	 viewBox="0 0 480 299" style="enable-background:new 0 0 480 299;" xml:space="preserve">
<style type="text/css">
	.st0{fill:transparent;}
	.st1{fill:#a9a9a9;} 
	.st2{fill:#CBCBCC;}
	.st3{fill:#3366FF;}
	.st4{fill:#F4F4F4;}
	.st5{fill:#1E1E1E;}
	.st6{fill:none;stroke:#1E1E1E;stroke-width:0.5152;stroke-miterlimit:10;}
	.st7{fill:#829A5C;stroke:#000000;stroke-width:0.8595;stroke-miterlimit:10;}
	.st9{font-size:19.25px;}
	.st10{letter-spacing:2;}
	.st11{font-size:19.1024px;}
	.st12{letter-spacing:3;}
</style>
   <style>
      .blink 
      {
          animation: blink-animation 2s steps(5, start) infinite;
          -webkit-animation: blink-animation 2s steps(5, start) infinite;
      }
      @keyframes blink-animation 
      {
          to {
            visibility: hidden;
          }
      }
      @-webkit-keyframes blink-animation 
      {
          to {
            visibility: hidden;
          }
      }
  	</style>
<script>jQuery(Core.Common.Mnemoscheme.Selector).on(Core.Common.EventTypes.MnemoschemeWidgetManager.MnemoschemeLoadComplete, 
		function()
      	{      		          		
      		Core.Common.Mnemoscheme.TextParameterRenderer = function(tagName, jQElement, parameter)
            {      
              var dict = {
               4: 200,
               5: 195,
               6: 170,
               7: 160,
               8: 145
              }
              
              var vStr = parseFloat(parameter.value).toFixed(2).toString();
              
              jQElement.parent().attr("transform","matrix(1 0 0 1 {0} 145)".format(dict[vStr.length]));
              
              var v = vStr.replace(&quot;.&quot;, &quot;&lt;tspan class=&apos;blink&apos;&gt;.&lt;/tspan&gt;&quot;);
              
            	jQElement.html(v);                   
            };
		});
	</script> 
<g id="Layer_1_1_">
	<rect x="-135.7" y="-128.9" class="st0" width="749.6" height="748.8"/>
	<g>
		<polygon class="st1" points="138.5,62.1 122.6,153.4 138.5,244.7 55.1,188 55.1,153.4 55.1,118.8 		"/>
	</g>
	<g>
		<rect x="13.4" y="118.8" class="st1" width="41.7" height="68.7"/>
	</g>
	<g>
		<path class="st2" d="M52.4,190.2h2.4c0.2,0,0.3-0.1,0.3-0.3v-73.3c0-0.2-0.1-0.3-0.3-0.3h-2.4c-0.2,0-0.3,0.1-0.3,0.3v73.3
			C52.1,190,52.2,190.2,52.4,190.2z"/>
	</g>
	<g>
		<path class="st2" d="M46.8,190.2h2.4c0.2,0,0.3-0.1,0.3-0.3v-73.3c0-0.2-0.1-0.3-0.3-0.3h-2.4c-0.2,0-0.3,0.1-0.3,0.3v73.3
			C46.4,190,46.6,190.2,46.8,190.2z"/>
	</g>
	<g>
		<path class="st2" d="M41.2,190.2h2.4c0.2,0,0.3-0.1,0.3-0.3v-73.3c0-0.2-0.1-0.3-0.3-0.3h-2.4c-0.2,0-0.3,0.1-0.3,0.3v73.3
			C40.8,190,41,190.2,41.2,190.2z"/>
	</g>
	<g>
		<path class="st2" d="M35.6,190.2h2.4c0.2,0,0.3-0.1,0.3-0.3v-73.3c0-0.2-0.1-0.3-0.3-0.3h-2.4c-0.2,0-0.3,0.1-0.3,0.3v73.3
			C35.2,190,35.4,190.2,35.6,190.2z"/>
	</g>
	<g>
		<path class="st2" d="M29.9,190.2h2.4c0.2,0,0.3-0.1,0.3-0.3v-73.3c0-0.2-0.1-0.3-0.3-0.3h-2.4c-0.2,0-0.3,0.1-0.3,0.3v73.3
			C29.6,190,29.8,190.2,29.9,190.2z"/>
	</g>
	<g>
		<path class="st2" d="M24.3,190.2h2.4c0.2,0,0.3-0.1,0.3-0.3v-73.3c0-0.2-0.1-0.3-0.3-0.3h-2.4c-0.2,0-0.3,0.1-0.3,0.3v73.3
			C23.9,190,24.1,190.2,24.3,190.2z"/>
	</g>
	<g>
		<path class="st2" d="M18.7,190.2h2.4c0.2,0,0.3-0.1,0.3-0.3v-73.3c0-0.2-0.1-0.3-0.3-0.3h-2.4c-0.2,0-0.3,0.1-0.3,0.3v73.3
			C18.3,190,18.5,190.2,18.7,190.2z"/>
	</g>
	<g>
		<path class="st2" d="M13.1,190.2h2.4c0.2,0,0.3-0.1,0.3-0.3v-73.3c0-0.2-0.1-0.3-0.3-0.3h-2.4c-0.2,0-0.3,0.1-0.3,0.3v73.3
			C12.7,190,12.9,190.2,13.1,190.2z"/>
	</g>
	<g>
		<polygon class="st1" points="339.8,62.1 355.7,153.4 339.8,244.7 423.2,188 423.2,153.4 423.2,118.8 		"/>
	</g>
	<g>
		<ellipse class="st3" cx="241" cy="149" rx="141.1" ry="140.9"/>
	</g>
	<g>
		<ellipse class="st2" cx="241" cy="149" rx="124.2" ry="124"/>
	</g>
	<g>
		<path class="st4" d="M241,267.4c-65.3,0-118.6-53.1-118.6-118.4c0-65.3,53.2-118.4,118.6-118.4c65.3,0,118.6,53.1,118.6,118.4
			C359.5,214.2,306.3,267.4,241,267.4z"/>
	</g>
	<g>
		<rect x="423.2" y="118.8" class="st1" width="41.7" height="68.7"/>
	</g>
	<g>
		<path class="st2" d="M425.9,190.2h-2.4c-0.2,0-0.3-0.1-0.3-0.3v-73.3c0-0.2,0.1-0.3,0.3-0.3h2.4c0.2,0,0.3,0.1,0.3,0.3v73.3
			C426.2,190,426.1,190.2,425.9,190.2z"/>
	</g>
	<g>
		<path class="st2" d="M431.6,190.2h-2.4c-0.2,0-0.3-0.1-0.3-0.3v-73.3c0-0.2,0.1-0.3,0.3-0.3h2.4c0.2,0,0.3,0.1,0.3,0.3v73.3
			C431.9,190,431.7,190.2,431.6,190.2z"/>
	</g>
	<g>
		<path class="st2" d="M437.2,190.2h-2.4c-0.2,0-0.3-0.1-0.3-0.3v-73.3c0-0.2,0.1-0.3,0.3-0.3h2.4c0.2,0,0.3,0.1,0.3,0.3v73.3
			C437.5,190,437.4,190.2,437.2,190.2z"/>
	</g>
	<g>
		<path class="st2" d="M442.8,190.2h-2.4c-0.2,0-0.3-0.1-0.3-0.3v-73.3c0-0.2,0.1-0.3,0.3-0.3h2.4c0.2,0,0.3,0.1,0.3,0.3v73.3
			C443.1,190,443,190.2,442.8,190.2z"/>
	</g>
	<g>
		<path class="st2" d="M448.4,190.2H446c-0.2,0-0.3-0.1-0.3-0.3v-73.3c0-0.2,0.1-0.3,0.3-0.3h2.4c0.2,0,0.3,0.1,0.3,0.3v73.3
			C448.7,190,448.6,190.2,448.4,190.2z"/>
	</g>
	<g>
		<path class="st2" d="M454,190.2h-2.4c-0.2,0-0.3-0.1-0.3-0.3v-73.3c0-0.2,0.1-0.3,0.3-0.3h2.4c0.2,0,0.3,0.1,0.3,0.3v73.3
			C454.4,190,454.2,190.2,454,190.2z"/>
	</g>
	<g>
		<path class="st2" d="M459.7,190.2h-2.4c-0.2,0-0.3-0.1-0.3-0.3v-73.3c0-0.2,0.1-0.3,0.3-0.3h2.4c0.2,0,0.3,0.1,0.3,0.3v73.3
			C460,190,459.9,190.2,459.7,190.2z"/>
	</g>
	<g>
		<path class="st2" d="M465.3,190.2h-2.4c-0.2,0-0.3-0.1-0.3-0.3v-73.3c0-0.2,0.1-0.3,0.3-0.3h2.4c0.2,0,0.3,0.1,0.3,0.3v73.3
			C465.6,190,465.5,190.2,465.3,190.2z"/>
	</g>
</g>
<g id="Rotazione1">
	<g>
		<polygon class="st5" points="260.7,224.2 250.2,224.2 257.6,216.8 252,211.1 244.5,218.6 244.5,208 236.5,208 236.5,218.6 
			229,211.1 223.4,216.8 230.8,224.2 220.3,224.2 220.3,232.3 230.8,232.3 223.4,239.7 229,245.4 236.5,237.9 236.5,248.4 
			244.5,248.4 244.5,237.9 252,245.4 257.6,239.7 250.2,232.3 260.7,232.3 		"/>
	</g>
	
		<animateTransform  accumulate="none" additive="sum" attributeName="transform" attributeType="xml" calcMode="linear" dur="25s" fill="remove" id="animateRotazione1" repeatCount="indefinite" restart="always" type="rotate" values="0 240.492 228.225; 360 240.492 228.225">
		</animateTransform>
</g>
<g id="Rotazione2">
	<g>
		<g>
			<path class="st3" d="M317.3,209.4c-7.6,0-13.7-6.1-13.7-13.7c0-7.6,6.1-13.7,13.7-13.7c7.6,0,13.7,6.1,13.7,13.7
				C331,203.2,324.9,209.4,317.3,209.4z M317.3,183.2c-6.9,0-12.5,5.6-12.5,12.5c0,6.9,5.6,12.5,12.5,12.5s12.5-5.6,12.5-12.5
				C329.8,188.8,324.2,183.2,317.3,183.2z"/>
		</g>
	</g>
	<g>
		<path class="st3" d="M318.6,193L318.6,193l-1-6.7l-1.1,6.1l0,0.7c-0.8,0.4-1.5,1.3-1.5,2.3c0,1.4,1.1,2.5,2.5,2.5s2.5-1.1,2.5-2.5
			C320.1,194.3,319.5,193.4,318.6,193z"/>
	</g>
	
		<animateTransform  accumulate="none" additive="sum" attributeName="transform" attributeType="xml" calcMode="linear" dur="15s" fill="remove" id="animateRotazione2" repeatCount="indefinite" restart="always" type="rotate" values="0 317.3 195.7; 360 317.3 195.7">
		</animateTransform>
</g>
<ellipse class="st6" cx="240.1" cy="228.5" rx="25.9" ry="25.5"/>
<path class="st7" d="M342.8,163H139.1c-1.7,0-3.1-2.1-3.1-4.6v-54.7c0-2.5,1.4-4.6,3.1-4.6h203.7c1.8,0,3.1,2.1,3.1,4.6v54.7
	C345.9,160.9,344.5,163,342.8,163z"/>
<text transform="matrix(1 0 0 1 175.9009 269.833)" class="st8 st9 st10"> </text>
<text transform="matrix(1 0 0 1 136.0083 140.2969)" class="st8 st11 st12"> </text>
<text transform="matrix(1 0 0 1 144.8154 145)" class="st8 st11 st12">
  <tspan style="font-family: Digital-7; font-size: 50px; letter-spacing: 3px;" data-core-parameter="Cws.Volume">0000.00</tspan></text>
<text transform="matrix(1 0 0 1 490.2461 269.833)" class="st8 st9 st10"> </text>
<text transform="matrix(1 0 0 1 312 145)" class="st8 st11 st12">м3</text>
</svg>
