<svg version="1.1" id="Layer_1" xmlns="http://www.w3.org/2000/svg" xmlns:xlink="http://www.w3.org/1999/xlink" x="0px" y="0px"
     width="1400" height="700"
	 viewBox="0 0 1200 600"
     style="enable-background:new 0 0 565 264;" xml:space="preserve"
	   description="Открытая система отопления c массовыми расходами" 
     deviceId="1" 
     internalNumber="1"
     data-core-parameters="HeatSys.Temper.SupplyPipe,HeatSys.Temper.ReturnPipe,HeatSys.MassFlow.SupplyPipe,HeatSys.MassFlow.ReturnPipe,HeatSys.Pressure.SupplyPipe,HeatSys.Pressure.ReturnPipe"
  >
<style type="text/css">
	.st0{stroke:#8A181A;fill:#8A181A;stroke-width:3;stroke-miterlimit:10;}
	.st1{fill:none;stroke:#000000;stroke-miterlimit:10;}
	.st2{font-family:Tahoma, Geneva, sans-serif;}
	.st3{font-size:0.9em;}
	.st4{stroke:#2172B9;stroke-width:3;stroke-miterlimit:10;}
	.st5{stroke:#000000;stroke-miterlimit:10;}
	.st6{fill:none;stroke:#000000;stroke-width:3;stroke-miterlimit:10;}
	.st7{font-size:0.9em;}
	.st8{stroke:#8A181A;stroke-miterlimit:10;}
	.st9{fill:#8A181A;}
	.st10{fill:#2172B9;}
  .error { visibility: hidden; }
  }
</style>
  <script>       	
    jQuery(Core.Common.Mnemoscheme.Selector).on(Core.Common.EventTypes.MnemoschemeWidgetManager.MnemoschemeLoadComplete, 
		function()
      	{      		          		
      		Core.Common.Mnemoscheme.TextParameterRenderer = function(tagName, jQElement, parameter)
            {
                var splitter = " = ";
              	var text = jQElement.text();
              	if(text.indexOf(splitter) > 0)
 				        {
 					        text = text.split(splitter)[Number.zero];    
 				        }
              
             	  jQElement.text("{3}{4}{0} {1}{2}".format
                   (
						            parseFloat(parameter.value).toFixed(2),
                       	parameter.dimensionPrefix,
                       	parameter.measurementUnitDescription,
                  		  text, 
                  		  splitter
                   )); 	 	 
            };
		});  	
	</script>
<polygon class="st0" points="108.7,80.9 116.6,84.4 108.7,87.8 "/>
<path class="st1" d="M288.7-91"/>
<path class="st1" d="M480.8,162.8"/>
<line class="st1" x1="123.8" y1="66.1" x2="123.8" y2="84.4"/>
<path class="st1" d="M108.7,55.6"/>
<text transform="translate(110 48.9366)" class="st2 st3" data-core-parameter="HeatSys.Temper.SupplyPipe">T1</text>
  <text transform="translate(95 48.9366)" fill="darkred" class="error" data-core-parameter-error="HeatSys.Temper.SupplyPipe" style="font-family: Glyphicons">&#xe505;</text>
<line class="st4" x1="468.6" y1="184.5" x2="205.1" y2="186.2"/>
<g>
	<line class="st0" x1="180.8" y1="84.6" x2="99.9" y2="84.6"/>
</g>
<g>
	<path class="st1" d="M319.2,191.6"/>
</g>
<path class="st1" d="M270.5,200.5"/>
<path class="st1" d="M270.5,188.5"/>
<ellipse class="st5" cx="123.8" cy="61.7" rx="4.9" ry="4.4"/>
<text transform="translate(110 144.147)" class="st2 st3" data-core-parameter="HeatSys.Temper.ReturnPipe">T2</text>
  <text transform="translate(95 144.147)" fill="darkred" class="error" data-core-parameter-error="HeatSys.Temper.ReturnPipe" style="font-family: Glyphicons">&#xe505;</text>
<polygon class="st4" points="116.6,183.4 108.7,185.6 116.6,188.7 "/>
<path class="st1" d="M160.1,74.7"/>
<path class="st1" d="M144.2,88.1"/>
<g>
	<g>
		<circle class="st1" cx="193.3" cy="83.6" r="12.1"/>
	</g>
	<polyline class="st1" points="198.7,94.6 180.8,84.2 199.1,72.5 	"/>
</g>
<line class="st0" x1="205.4" y1="84.4" x2="468.6" y2="84.4"/>
<g>
	<line class="st6" x1="253" y1="79.4" x2="270.5" y2="79.4"/>
	<line class="st1" x1="261.7" y1="78.9" x2="261.7" y2="59.4"/>
</g>
<text transform="translate(171 114.4677)" class="st2 st7" data-core-parameter="HeatSys.MassFlow.SupplyPipe">G1</text>
  <text transform="translate(156 114.4677)" fill="darkred" class="error" data-core-parameter-error="HeatSys.MassFlow.SupplyPipe" style="font-family: Glyphicons">&#xe505;</text>
<text transform="translate(237 48.9366)" class="st2 st7" data-core-parameter="HeatSys.Pressure.SupplyPipe">P1</text>
  <text transform="translate(222 48.9366)" fill="darkred" class="error" data-core-parameter-error="HeatSys.Pressure.SupplyPipe" style="font-family: Glyphicons">&#xe505;</text>
<line class="st1" x1="123.8" y1="167.4" x2="123.8" y2="185.7"/>
<ellipse class="st5" cx="123.8" cy="163.1" rx="4.9" ry="4.4"/>
<g>
	<line class="st6" x1="253" y1="180.1" x2="270.5" y2="180.1"/>
	<line class="st1" x1="261.7" y1="179.6" x2="261.7" y2="160.1"/>
</g>
<text transform="translate(237 144.147)" class="st2 st7" data-core-parameter="HeatSys.Pressure.ReturnPipe">P2</text>
  <text transform="translate(222 144.147)" fill="darkred" class="error" data-core-parameter-error="HeatSys.Pressure.ReturnPipe" style="font-family: Glyphicons">&#xe505;</text>
<g>
	<line class="st4" x1="181" y1="185.7" x2="99.9" y2="185.7"/>
</g>
<text transform="translate(171 214.147)" class="st2 st7" data-core-parameter="HeatSys.MassFlow.ReturnPipe">G2</text>
  <text transform="translate(156 214.147)" fill="darkred" class="error" data-core-parameter-error="HeatSys.MassFlow.ReturnPipe" style="font-family: Glyphicons">&#xe505;</text>
<path class="st1" d="M338.7,73.6"/>
<path class="st1" d="M322.8,87"/>
<line class="st8" x1="283.8" y1="84.4" x2="283.8" y2="114.5"/>
<line class="st8" x1="283.8" y1="114.5" x2="351.5" y2="114.5"/>
<line class="st1" x1="351.5" y1="114.2" x2="351.5" y2="183.6"/>
<line class="st1" x1="368.1" y1="114.3" x2="368.1" y2="183.8"/>
<line class="st1" x1="384.8" y1="114.2" x2="384.8" y2="183.7"/>
<line class="st1" x1="401.4" y1="114.4" x2="401.4" y2="183.9"/>
<line class="st1" x1="418.8" y1="114.2" x2="418.8" y2="183.7"/>
<line class="st1" x1="435.4" y1="114.4" x2="435.4" y2="183.8"/>
<line class="st1" x1="452.1" y1="114.3" x2="452.1" y2="183.8"/>
<line class="st1" x1="468.6" y1="114.5" x2="468.6" y2="183.9"/>
<polygon class="st0" points="460.8,81.2 468.6,84.6 460.8,88.1 "/>
<path class="st1" d="M265.7,198.1"/>
<line class="st1" x1="351.5" y1="114.5" x2="468.6" y2="114.5"/>
<text transform="translate(105.1353 101.2893)" class="st9 st2 st3">подача</text>
<text transform="translate(105.1353 202.9561)" class="st10 st2 st3">обратка</text>
<g>
	<g>
		<circle class="st1" cx="193.1" cy="186.2" r="12.1"/>
	</g>
	<polyline class="st1" points="187.7,175.1 205.6,185.5 187.3,197.2 	"/>
</g>
</svg>
